<svg width="96" height="24" viewBox="0 0 96 24" fill="none" xmlns="http://www.w3.org/2000/svg">
<path fill-rule="evenodd" clip-rule="evenodd" d="M19.0364 12.9859C19.0364 17.6059 13.9954 23.7216 9.51818 23.7216C5.0396 23.7216 0 17.608 0 12.9859V6.49916C2.90322 5.17068 3.84798 4.08065 4.74644 0.833042C8.11448 0.0351709 10.9182 0.00816583 14.2866 0.837954C15.2274 4.04031 16.0767 5.19067 19.0364 6.43461V12.9859ZM18.4803 12.9859V6.83689C15.7701 5.66339 14.7314 4.28091 13.8527 1.33912C10.8253 0.621213 8.2133 0.641203 5.18504 1.33526C4.34105 4.31317 3.2177 5.64061 0.55609 6.88809V12.9859C0.55609 17.2822 5.33995 23.1275 9.51818 23.1275C13.6951 23.1275 18.4803 17.2804 18.4803 12.9859ZM5.82276 2.06313C8.34401 1.51942 10.7001 1.50285 13.2211 2.06278C14.0451 4.66081 15.3025 6.31136 17.6767 7.42415V13.0029C17.6767 16.8565 13.228 22.2975 9.51828 22.2975C5.80957 22.2975 1.35985 16.8586 1.35985 13.0029V7.45763C3.70415 6.28704 5.02146 4.69429 5.82276 2.06313ZM5.36272 11.6047L4.18128 13.1565L8.72069 17.022L15.1436 9.76677L13.7069 8.44955L8.51949 14.2668L5.36272 11.6047ZM29.3437 8.08734C29.3437 9.37234 28.4644 10.3414 26.6453 10.3414C25.3518 10.3414 24.422 9.88845 23.7954 9.22488L24.5736 8.08734C25.0486 8.60345 25.7863 9.03529 26.7161 9.03529C27.5044 9.03529 27.8884 8.65611 27.8884 8.25587C27.8884 7.75032 27.2463 7.59156 26.4845 7.4032C25.3734 7.12848 24.0077 6.79079 24.0077 5.22242C24.0077 4.05328 24.9778 3.08426 26.5645 3.08426C27.6357 3.08426 28.5251 3.42131 29.1921 4.06381L28.3937 5.15922C27.848 4.63258 27.1203 4.39033 26.4331 4.39033C25.8166 4.39033 25.473 4.67471 25.473 5.09603C25.473 5.53686 26.0765 5.68704 26.8068 5.86882C27.9262 6.14741 29.3437 6.50021 29.3437 8.08734ZM33.8999 3.18959L36.4972 10.215H34.86L34.4457 9.02476H31.5553L31.1309 10.215H29.4937L32.1011 3.18959H33.8999ZM31.9495 7.70816H34.0515L33.0005 4.68525L31.9495 7.70816ZM38.5547 7.30791V10.215H37.1196V3.18959H41.8897V4.50619H38.5547V5.99131H41.819V7.30791H38.5547ZM47.663 8.89837V10.215H42.8929V3.18959H47.663V4.50619H44.328V5.99131H47.5923V7.30791H44.328V8.89837H47.663ZM49.3815 8.62451C49.8564 8.62451 50.291 9.01423 50.291 9.69886C50.291 10.4888 49.8666 11.1945 49.2501 11.658L48.6942 11.184C49.0176 11.0049 49.3916 10.5625 49.4724 10.1939C49.4421 10.2044 49.3511 10.2255 49.2804 10.2255C48.8964 10.2255 48.5932 9.92005 48.5932 9.46714C48.5932 9.00369 48.957 8.62451 49.3815 8.62451ZM59.05 8.08734C59.05 9.37234 58.1708 10.3414 56.3517 10.3414C55.0581 10.3414 54.1284 9.88845 53.5018 9.22488L54.28 8.08734C54.7549 8.60345 55.4927 9.03529 56.4224 9.03529C57.2107 9.03529 57.5947 8.65611 57.5947 8.25587C57.5947 7.75032 56.9527 7.59156 56.1909 7.4032C55.0798 7.12848 53.714 6.79079 53.714 5.22242C53.714 4.05328 54.6842 3.08426 56.2708 3.08426C57.3421 3.08426 58.2314 3.42131 58.8984 4.06381L58.1 5.15922C57.5543 4.63258 56.8267 4.39033 56.1395 4.39033C55.523 4.39033 55.1794 4.67471 55.1794 5.09603C55.1794 5.53686 55.7828 5.68704 56.5132 5.86882C57.6325 6.14741 59.05 6.50021 59.05 8.08734ZM64.7865 8.89837V10.215H60.016V3.18959H64.7865V4.50619H61.4515V5.99131H64.7157V7.30791H61.4515V8.89837H64.7865ZM71.9921 8.61398C71.507 9.4882 70.6581 10.3414 69.1725 10.3414C67.1513 10.3414 65.5848 8.86677 65.5848 6.70754C65.5848 4.54832 67.1513 3.07373 69.1725 3.07373C70.6581 3.07373 71.5171 3.91635 71.9921 4.79058L70.7591 5.42254C70.4762 4.85377 69.8698 4.40086 69.1725 4.40086C67.9497 4.40086 67.0603 5.38041 67.0603 6.70754C67.0603 8.03468 67.9497 9.01423 69.1725 9.01423C69.8698 9.01423 70.4762 8.57185 70.7591 7.99255L71.9921 8.61398ZM78.9299 7.40271C78.9299 9.15115 77.9395 10.3414 75.888 10.3414C73.8364 10.3414 72.8461 9.14062 72.8461 7.41324V3.18959H74.3013V7.36058C74.3013 8.34013 74.8471 9.01423 75.888 9.01423C76.9289 9.01423 77.4645 8.34013 77.4645 7.36058V3.18959H78.9299V7.40271ZM84.1994 7.53964L85.7153 10.215H84.068L82.7441 7.71869H81.6931V10.215H80.258V3.18959H83.4111C84.8158 3.18959 85.6749 4.14807 85.6749 5.45414C85.6749 6.69701 84.927 7.36058 84.1994 7.53964ZM81.6931 6.40209H83.1989C83.7749 6.40209 84.2095 6.04398 84.2095 5.45414C84.2095 4.8643 83.7749 4.50619 83.1989 4.50619H81.6931V6.40209ZM91.5221 8.89837V10.215H86.752V3.18959H91.5221V4.50619H88.1871V5.99131H91.4513V7.30791H88.1871V8.89837H91.5221ZM93.2401 8.62451C93.7151 8.62451 94.1496 9.01423 94.1496 9.69886C94.1496 10.4888 93.7252 11.1945 93.1087 11.658L92.5529 11.184C92.8763 11.0049 93.2502 10.5625 93.331 10.1939C93.3007 10.2044 93.2098 10.2255 93.139 10.2255C92.755 10.2255 92.4518 9.92005 92.4518 9.46714C92.4518 9.00369 92.8156 8.62451 93.2401 8.62451ZM30.3341 19.1468C29.849 20.021 29.0001 20.8742 27.5145 20.8742C25.4932 20.8742 23.9268 19.3996 23.9268 17.2403C23.9268 15.0811 25.4932 13.6065 27.5145 13.6065C29.0001 13.6065 29.8591 14.4492 30.3341 15.3234L29.1011 15.9553C28.8181 15.3866 28.2118 14.9337 27.5145 14.9337C26.2916 14.9337 25.4023 15.9132 25.4023 17.2403C25.4023 18.5675 26.2916 19.547 27.5145 19.547C28.2118 19.547 28.8181 19.1047 29.1011 18.5253L30.3341 19.1468ZM37.9088 17.2403C37.9088 19.3574 36.4232 20.8742 34.3818 20.8742C32.3505 20.8742 30.8649 19.3574 30.8649 17.2403C30.8649 15.1233 32.3505 13.6065 34.3818 13.6065C36.4232 13.6065 37.9088 15.1233 37.9088 17.2403ZM32.3404 17.2403C32.3404 18.5464 33.1387 19.547 34.3818 19.547C35.6248 19.547 36.4333 18.5464 36.4333 17.2403C36.4333 15.9237 35.6248 14.9337 34.3818 14.9337C33.1387 14.9337 32.3404 15.9237 32.3404 17.2403ZM44.9491 13.7224V20.7478H43.5646L40.3509 16.166V20.7478H38.9158V13.7224H40.3913L43.514 18.1356V13.7224H44.9491ZM47.7135 17.8407V20.7478H46.2781V13.7224H51.0485V15.039H47.7135V16.5241H50.9778V17.8407H47.7135ZM53.4866 13.7224V20.7478H52.0516V13.7224H53.4866ZM61.0603 17.2403C61.0603 19.3574 59.5949 20.7478 57.4827 20.7478H54.8248V13.7224H57.4827C59.5949 13.7224 61.0603 15.1233 61.0603 17.2403ZM56.2599 19.4312H57.4827C58.8167 19.4312 59.5949 18.4306 59.5949 17.2403C59.5949 15.9975 58.8673 15.039 57.4827 15.039H56.2599V19.4312ZM66.8489 19.4312V20.7478H62.0789V13.7224H66.8489V15.039H63.5139V16.5241H66.7782V17.8407H63.5139V19.4312H66.8489ZM74.004 13.7224V20.7478H72.6195L69.4058 16.166V20.7478H67.9707V13.7224H69.4462L72.569 18.1356V13.7224H74.004ZM78.3349 15.039V20.7478H76.8897V15.039H74.9191V13.7224H80.2955V15.039H78.3349ZM82.6502 13.7224V20.7478H81.2151V13.7224H82.6502ZM87.6771 13.7224L90.2744 20.7478H88.6372L88.2228 19.5576H85.3325L84.9081 20.7478H83.2709L85.8782 13.7224H87.6771ZM85.7266 18.241H87.8287L86.7777 15.218L85.7266 18.241ZM95.1817 19.4312V20.7478H90.8967V13.7224H92.3318V19.4312H95.1817Z" fill="#0F8E23"/>
</svg>
