<svg width="66" height="31" viewBox="0 0 66 31" fill="none" xmlns="http://www.w3.org/2000/svg">
<path d="M17.3794 5.71428L24.052 5.71428V6.93645H21.4247L21.4247 13.826H19.9847L19.9847 6.93645H17.3684L17.3794 5.71428ZM23.7661 7.95312H24.9973L24.9973 9.08877H25.0193C25.0633 8.92654 25.1402 8.77512 25.2502 8.6237C25.3601 8.47228 25.492 8.33167 25.6569 8.2127C25.8108 8.08291 25.9867 7.98557 26.1845 7.90986C26.3714 7.83415 26.5693 7.79089 26.7671 7.79089C26.921 7.79089 27.031 7.8017 27.0859 7.8017C27.1409 7.81252 27.2069 7.82334 27.2618 7.82334V9.06714C27.1739 9.04551 27.0749 9.03469 26.976 9.02388C26.8771 9.01306 26.7891 9.00225 26.6902 9.00225C26.4703 9.00225 26.2615 9.04551 26.0636 9.13203C25.8657 9.21856 25.7009 9.34835 25.547 9.51058C25.4041 9.68363 25.2831 9.88913 25.1952 10.1379C25.1073 10.3867 25.0633 10.6787 25.0633 11.0031V13.7936H23.7442L23.7661 7.95312ZM32.0107 13.826V13.0041H31.9887C31.8238 13.3069 31.5819 13.534 31.2631 13.7179C30.9444 13.9018 30.6146 13.9883 30.2848 13.9883C29.5043 13.9883 28.9327 13.8044 28.5809 13.415C28.2292 13.0365 28.0533 12.4524 28.0533 11.6845V7.95312L29.3724 7.95312V11.5547C29.3724 12.0739 29.4713 12.4416 29.6802 12.6471C29.8781 12.8634 30.1639 12.9716 30.5266 12.9716C30.8015 12.9716 31.0323 12.9283 31.2192 12.8418C31.4061 12.7553 31.56 12.6471 31.6699 12.5065C31.7908 12.3659 31.8677 12.1929 31.9227 11.9982C31.9777 11.8035 31.9997 11.5872 31.9997 11.3601V7.95312H33.3188V13.826L32.0107 13.826ZM35.5503 11.9441C35.5943 12.3227 35.7372 12.5822 35.99 12.7445C36.2428 12.8959 36.5506 12.9716 36.9024 12.9716C37.0233 12.9716 37.1662 12.9608 37.3201 12.9392C37.474 12.9175 37.6279 12.8851 37.7598 12.831C37.9027 12.7769 38.0127 12.7012 38.1006 12.5931C38.1885 12.4849 38.2325 12.3551 38.2215 12.1929C38.2105 12.0306 38.1556 11.89 38.0346 11.7819C37.9137 11.6737 37.7708 11.598 37.5949 11.5223C37.419 11.4574 37.2102 11.4033 36.9793 11.3601C36.7485 11.3168 36.5176 11.2627 36.2758 11.2086C36.034 11.1546 35.7921 11.0897 35.5613 11.014C35.3304 10.9383 35.1326 10.8409 34.9457 10.7003C34.7698 10.5705 34.6159 10.4083 34.517 10.2028C34.4071 9.99729 34.3521 9.75934 34.3521 9.4565C34.3521 9.13203 34.429 8.87246 34.5939 8.65614C34.7478 8.43983 34.9567 8.26678 35.1985 8.13699C35.4404 8.0072 35.7152 7.90986 36.012 7.85578C36.3088 7.8017 36.5946 7.78007 36.8584 7.78007C37.1662 7.78007 37.463 7.81252 37.7378 7.87741C38.0127 7.94231 38.2765 8.03965 38.4963 8.19107C38.7272 8.33167 38.9141 8.52635 39.057 8.75348C39.2109 8.98061 39.2988 9.26182 39.3428 9.58629H37.9687C37.9027 9.27264 37.7598 9.06714 37.54 8.95898C37.3091 8.85083 37.0563 8.79675 36.7595 8.79675C36.6715 8.79675 36.5506 8.80756 36.4297 8.81838C36.2978 8.84001 36.1879 8.86164 36.0669 8.90491C35.957 8.94817 35.8581 9.01306 35.7811 9.08877C35.7042 9.16448 35.6602 9.27264 35.6602 9.40242C35.6602 9.56466 35.7152 9.68363 35.8251 9.78097C35.935 9.87831 36.0779 9.95403 36.2648 10.0297C36.4407 10.0946 36.6496 10.1487 36.8804 10.192C37.1113 10.2352 37.3531 10.2893 37.5949 10.3434C37.8368 10.3975 38.0676 10.4624 38.2985 10.5381C38.5293 10.6138 38.7382 10.7111 38.9141 10.8517C39.0899 10.9815 39.2438 11.1438 39.3538 11.3384C39.4637 11.5331 39.5186 11.7819 39.5186 12.0631C39.5186 12.4092 39.4417 12.7012 39.2768 12.95C39.1119 13.1879 38.9031 13.3934 38.6502 13.5448C38.3974 13.6963 38.1006 13.8044 37.7928 13.8801C37.474 13.945 37.1662 13.9883 36.8584 13.9883C36.4847 13.9883 36.1329 13.945 35.8141 13.8585C35.4953 13.772 35.2095 13.6422 34.9787 13.4799C34.7478 13.3069 34.561 13.1014 34.429 12.8418C34.2971 12.5931 34.2202 12.2902 34.2092 11.9333H35.5393V11.9441H35.5503ZM39.8924 7.95312H40.8927V6.17935H42.2119V7.94231H43.3991V8.9049H42.2119V12.0415C42.2119 12.1821 42.2228 12.2902 42.2338 12.3984C42.2448 12.4957 42.2778 12.5822 42.3108 12.6471C42.3548 12.712 42.4207 12.7661 42.4977 12.7986C42.5856 12.831 42.6955 12.8526 42.8494 12.8526C42.9374 12.8526 43.0363 12.8526 43.1242 12.8418C43.2122 12.831 43.3111 12.8202 43.3991 12.7986V13.8044C43.2562 13.826 43.1133 13.8369 42.9703 13.8477C42.8274 13.8693 42.6955 13.8693 42.5416 13.8693C42.1899 13.8693 41.9151 13.8369 41.7062 13.772C41.4973 13.7071 41.3324 13.6097 41.2115 13.4908C41.0906 13.361 41.0137 13.2095 40.9697 13.0257C40.9257 12.8418 40.9037 12.6147 40.8927 12.3767V8.91572H39.8924V7.93149V7.95312ZM44.3224 7.95312H45.5646V8.75348H45.5866C45.7735 8.40738 46.0263 8.16944 46.3561 8.01802C46.6859 7.8666 47.0376 7.79089 47.4334 7.79089C47.9061 7.79089 48.3128 7.8666 48.6646 8.03965C49.0163 8.20188 49.3021 8.4182 49.533 8.71022C49.7638 8.99143 49.9397 9.32672 50.0496 9.70526C50.1596 10.0838 50.2255 10.4948 50.2255 10.9166C50.2255 11.3168 50.1706 11.6953 50.0716 12.0631C49.9617 12.4308 49.8078 12.7661 49.5989 13.0473C49.3901 13.3285 49.1262 13.5556 48.7965 13.7287C48.4667 13.9017 48.0929 13.9883 47.6532 13.9883C47.4664 13.9883 47.2685 13.9666 47.0816 13.9342C46.8947 13.9018 46.7079 13.8477 46.532 13.772C46.3561 13.6963 46.1912 13.5989 46.0483 13.4799C45.8944 13.361 45.7735 13.2204 45.6745 13.0689H45.6526V16H44.3334L44.3334 7.95312H44.3224ZM48.9284 10.895C48.9284 10.6354 48.8954 10.3758 48.8185 10.1271C48.7525 9.87831 48.6426 9.662 48.4997 9.46732C48.3568 9.27264 48.1809 9.12122 47.983 9.00224C47.7741 8.88327 47.5323 8.82919 47.2685 8.82919C46.7189 8.82919 46.3011 9.01306 46.0153 9.39161C45.7405 9.77016 45.5976 10.2785 45.5976 10.9058C45.5976 11.2086 45.6306 11.479 45.7075 11.7278C45.7845 11.9766 45.8834 12.1929 46.0373 12.3767C46.1802 12.5606 46.3561 12.7012 46.565 12.8094C46.7738 12.9175 47.0047 12.9716 47.2795 12.9716C47.5873 12.9716 47.8291 12.9067 48.038 12.7877C48.2468 12.6688 48.4117 12.5065 48.5546 12.3227C48.6865 12.128 48.7855 11.9117 48.8404 11.6629C48.8954 11.4033 48.9284 11.1546 48.9284 10.895ZM51.2478 5.71428H52.567V6.93645H51.2478V5.71428ZM51.2478 7.95312H52.567V13.826H51.2478V7.95312ZM53.7432 5.71428H55.0623V13.826H53.7432V5.71428ZM59.0856 13.9883C58.6129 13.9883 58.1842 13.9126 57.8105 13.7503C57.4367 13.5881 57.1289 13.3826 56.8651 13.1122C56.6123 12.8418 56.4144 12.5065 56.2825 12.128C56.1506 11.7494 56.0736 11.3276 56.0736 10.8842C56.0736 10.4407 56.1396 10.0297 56.2825 9.65119C56.4144 9.27264 56.6123 8.94817 56.8651 8.66696C57.1179 8.39657 57.4367 8.18025 57.8105 8.02883C58.1842 7.87741 58.6129 7.79089 59.0856 7.79089C59.5583 7.79089 59.987 7.8666 60.3608 8.02883C60.7345 8.18025 61.0423 8.39656 61.3061 8.66696C61.559 8.93735 61.7568 9.27264 61.8887 9.65118C62.0207 10.0297 62.0976 10.4407 62.0976 10.8842C62.0976 11.3384 62.0316 11.7494 61.8887 12.128C61.7458 12.5065 61.559 12.831 61.3061 13.1122C61.0533 13.3826 60.7345 13.5989 60.3608 13.7503C59.987 13.9017 59.5693 13.9883 59.0856 13.9883ZM59.0856 12.9608C59.3714 12.9608 59.6352 12.8959 59.8441 12.7769C60.064 12.6579 60.2288 12.4957 60.3717 12.301C60.5147 12.1063 60.6136 11.8792 60.6795 11.6413C60.7455 11.3925 60.7785 11.1437 60.7785 10.8842C60.7785 10.6354 60.7455 10.3867 60.6795 10.1379C60.6136 9.88913 60.5147 9.67282 60.3717 9.47813C60.2288 9.28345 60.053 9.13203 59.8441 9.01306C59.6242 8.89409 59.3714 8.82919 59.0856 8.82919C58.7998 8.82919 58.536 8.89409 58.3271 9.01306C58.1073 9.13203 57.9424 9.29427 57.7995 9.47813C57.6566 9.67282 57.5576 9.88913 57.4917 10.1379C57.4257 10.3867 57.3927 10.6354 57.3927 10.8842C57.3927 11.1437 57.4257 11.3925 57.4917 11.6413C57.5576 11.89 57.6566 12.1063 57.7995 12.301C57.9424 12.4957 58.1183 12.6579 58.3271 12.7769C58.547 12.9067 58.7998 12.9608 59.0856 12.9608ZM62.4933 7.95312H63.4937V6.17935H64.8128V7.9423H66V8.9049H64.8128V12.0415C64.8128 12.1821 64.8238 12.2902 64.8348 12.3984C64.8458 12.4957 64.8787 12.5822 64.9117 12.6471C64.9557 12.712 65.0216 12.7661 65.0986 12.7986C65.1865 12.831 65.2965 12.8526 65.4504 12.8526C65.5383 12.8526 65.6372 12.8526 65.7252 12.8418C65.8131 12.831 65.9121 12.8202 66 12.7986V13.8044C65.8571 13.826 65.7142 13.8369 65.5713 13.8477C65.4284 13.8693 65.2965 13.8693 65.1426 13.8693C64.7908 13.8693 64.516 13.8369 64.3071 13.772C64.0983 13.7071 63.9334 13.6097 63.8125 13.4908C63.6915 13.361 63.6146 13.2095 63.5706 13.0257C63.5267 12.8418 63.5047 12.6147 63.4937 12.3767V8.91572H62.4933V7.93149V7.95312Z" fill="#0F8E23"/>
<path d="M9.74904 5.67747L15.7763 5.67747L10.9326 9.15752L10.9277 9.1428L8.01877 11.2704L11.3038 10.4097L12.7572 14.8571L7.88267 11.3441L3.00815 14.8571L4.87452 9.17967L0 5.6666L6.02728 5.67747L7.89365 0L9.74904 5.67747Z" fill="#0F8E23"/>
<path fill-rule="evenodd" clip-rule="evenodd" d="M15.2894 19.7143H3.85522V31H15.2894V19.7143ZM14.12 24.3981H10.6451L9.57543 21.1249L8.49942 24.3981L5.02456 24.3918L7.83483 26.4172L6.75883 29.6904L9.5691 27.665L12.3794 29.6904L11.5381 27.1161L9.61401 27.6315L11.3663 26.3549L11.3722 26.3723L14.12 24.3981Z" fill="#0F8E23"/>
<path fill-rule="evenodd" clip-rule="evenodd" d="M27.2435 19.7143H15.8093V31H27.2435V19.7143ZM26.074 24.3981H22.5992L21.5295 21.1249L20.4535 24.3981L16.9786 24.3918L19.7889 26.4172L18.7129 29.6904L21.5232 27.665L24.3334 29.6904L23.4922 27.1161L21.5681 27.6315L23.3204 26.3549L23.3263 26.3722L26.074 24.3981Z" fill="#0F8E23"/>
<path fill-rule="evenodd" clip-rule="evenodd" d="M39.1974 19.7143H27.7632V31H39.1974V19.7143ZM38.0279 24.3981H34.5531L33.4834 21.1249L32.4074 24.3981L28.9326 24.3918L31.7428 26.4172L30.6668 29.6904L33.4771 27.665L36.2874 29.6904L35.4461 27.1161L33.5221 27.6315L35.2744 26.3549L35.2802 26.3722L38.0279 24.3981Z" fill="#0F8E23"/>
<path fill-rule="evenodd" clip-rule="evenodd" d="M51.1513 19.7143H39.7171V31H51.1513V19.7143ZM49.9819 24.3981H46.5071L45.4374 21.1249L44.3614 24.3981L40.8865 24.3918L43.6968 26.4172L42.6208 29.6904L45.4311 27.665L48.2413 29.6904L47.4001 27.1161L45.476 27.6315L47.2283 26.3549L47.2342 26.3723L49.9819 24.3981Z" fill="#0F8E23"/>
<path fill-rule="evenodd" clip-rule="evenodd" d="M63.1052 19.7143H51.671V31H63.1052V19.7143ZM61.9358 24.3981H58.4609L57.3913 21.1249L56.3152 24.3981L52.8404 24.3918L55.6507 26.4172L54.5747 29.6904L57.3849 27.665L60.1952 29.6904L59.3539 27.1161L57.4299 27.6315L59.1822 26.3549L59.1881 26.3722L61.9358 24.3981Z" fill="#0F8E23"/>
</svg>
