<svg width="76" height="30" viewBox="0 0 76 30" fill="none" xmlns="http://www.w3.org/2000/svg">
<path d="M32.5235 13.6244C32.5235 17.3493 29.7078 20.0939 26.2523 20.0939C22.7967 20.0939 19.9809 17.3494 19.9809 13.6244C19.9809 9.87332 22.7967 7.15495 26.2523 7.15495C29.7078 7.15495 32.5235 9.87342 32.5235 13.6244ZM29.7782 13.6244C29.7782 11.2969 28.1464 9.70431 26.2523 9.70431C24.3581 9.70431 22.7263 11.2969 22.7263 13.6244C22.7263 15.9288 24.3581 17.5447 26.2523 17.5447C28.1464 17.5447 29.7782 15.926 29.7782 13.6244Z" fill="#0F8E23"/>
<path d="M46.0527 13.6244C46.0527 17.3493 43.2369 20.0939 39.7815 20.0939C36.3259 20.0939 33.5101 17.3494 33.5101 13.6244C33.5101 9.87639 36.3259 7.15495 39.7815 7.15495C43.2369 7.15495 46.0527 9.87342 46.0527 13.6244ZM43.3073 13.6244C43.3073 11.2969 41.6756 9.70431 39.7814 9.70431C37.8871 9.70431 36.2554 11.2969 36.2554 13.6244C36.2554 15.9288 37.8871 17.5447 39.7814 17.5447C41.6756 17.5447 43.3073 15.926 43.3073 13.6244Z" fill="#0F8E23"/>
<path d="M59.0181 7.54578V19.1607C59.0181 23.9386 56.2953 25.8899 53.0766 25.8899C50.0467 25.8899 48.2231 23.7927 47.5353 22.0776L49.9255 21.0477C50.351 22.1007 51.394 23.3433 53.0739 23.3433C55.1343 23.3433 56.4111 22.0279 56.4111 19.5514V18.621H56.3152C55.7009 19.4055 54.5167 20.0909 53.0232 20.0909C49.8974 20.0909 47.0337 17.2732 47.0337 13.6476C47.0337 9.99588 49.8974 7.15481 53.0232 7.15481C54.514 7.15481 55.698 7.84026 56.3152 8.60151H56.4111V7.54854H59.0182L59.0181 7.54578ZM56.6053 13.6478C56.6053 11.3699 55.1371 9.70437 53.2681 9.70437C51.3741 9.70437 49.7872 11.3699 49.7872 13.6478C49.7872 15.9027 51.3741 17.5448 53.2681 17.5448C55.1371 17.5448 56.6053 15.9027 56.6053 13.6478Z" fill="#0F8E23"/>
<path d="M63.3164 0.737922V19.6974H60.6388V0.737922H63.3164Z" fill="#0F8E23"/>
<path d="M73.7507 15.754L75.8817 17.2238C75.1941 18.2769 73.5365 20.0911 70.6728 20.0911C67.1215 20.0911 64.4692 17.2501 64.4692 13.6216C64.4692 9.77429 67.144 7.1522 70.3656 7.1522C73.6097 7.1522 75.1968 9.82386 75.7154 11.2678L76 12.0028L67.6428 15.5848C68.2828 16.8826 69.2778 17.5448 70.6727 17.5448C72.0711 17.5448 73.0406 16.833 73.7507 15.754ZM67.1919 13.4262L72.7785 11.0257C72.4712 10.2177 71.5468 9.65465 70.4586 9.65465C69.0637 9.65465 67.1215 10.9294 67.1919 13.4262Z" fill="#0F8E23"/>
<path d="M9.84535 11.9415V9.1968H18.783C18.8704 9.67514 18.9156 10.2411 18.9156 10.8536C18.9156 12.9128 18.3715 15.4594 16.6183 17.2733C14.913 19.1111 12.7343 20.091 9.84812 20.091C4.49845 20.091 0 15.5819 0 10.0456C0 4.50944 4.49845 0 9.84812 0C12.8076 0 14.9159 1.20159 16.4999 2.76804L14.6285 4.70487C13.4926 3.60222 11.9537 2.74469 9.84535 2.74469C5.93888 2.74469 2.88343 6.00285 2.88343 10.0456C2.88343 14.0882 5.93888 17.3463 9.84535 17.3463C12.3792 17.3463 13.8223 16.2935 14.7468 15.3366C15.4965 14.561 15.9898 13.4523 16.1842 11.9385L9.84535 11.9415Z" fill="#0F8E23"/>
<path d="M58.8387 26.3656C59.0673 26.3171 59.3946 26.2902 59.7063 26.2902C60.1895 26.2902 60.5012 26.3816 60.7193 26.586C60.896 26.7473 60.9947 26.9945 60.9947 27.2741C60.9947 27.7527 60.7037 28.0699 60.3349 28.1989V28.215C60.605 28.3118 60.7661 28.5698 60.8492 28.9462C60.9635 29.4516 61.0467 29.8009 61.1194 29.9409H60.6518C60.5947 29.8332 60.5167 29.5269 60.4181 29.0753C60.3141 28.5752 60.1271 28.387 59.7167 28.3709H59.2907V29.9409H58.8388L58.8387 26.3656ZM59.2906 28.0161H59.753C60.2362 28.0161 60.5427 27.7419 60.5427 27.328C60.5427 26.8602 60.2154 26.6559 59.7374 26.6505C59.5192 26.6505 59.3634 26.672 59.2906 26.6935V28.0161Z" fill="#0F8E23"/>
<path d="M61.8935 28.7257C61.904 29.3655 62.2987 29.6289 62.756 29.6289C63.0833 29.6289 63.2807 29.5698 63.4521 29.4946L63.53 29.8332C63.369 29.9086 63.0936 30 62.6936 30C61.9195 30 61.4572 29.4677 61.4572 28.6828C61.4572 27.8978 61.904 27.2795 62.6365 27.2795C63.4573 27.2795 63.6755 28.0268 63.6755 28.5053C63.6755 28.6021 63.6651 28.6773 63.6599 28.7258L61.8935 28.7257ZM63.2339 28.3869C63.2391 28.0859 63.1144 27.6182 62.6001 27.6182C62.1377 27.6182 61.9351 28.059 61.8987 28.3869H63.2339Z" fill="#0F8E23"/>
<path d="M64.4185 27.3387L64.9121 28.801C64.9952 29.0376 65.0627 29.2526 65.1147 29.4677H65.1302C65.1874 29.2526 65.2601 29.0376 65.3433 28.801L65.8316 27.3387H66.3096L65.3224 29.9408H64.886L63.9301 27.3387H64.4185Z" fill="#0F8E23"/>
<path d="M67.25 26.6075C67.2551 26.7687 67.1408 26.8978 66.959 26.8978C66.798 26.8978 66.6837 26.7688 66.6837 26.6075C66.6837 26.4408 66.8032 26.3118 66.9694 26.3118C67.1408 26.3118 67.25 26.4408 67.25 26.6075ZM66.7408 29.9409V27.3387H67.198V29.9409H66.7408Z" fill="#0F8E23"/>
<path d="M68.211 28.7257C68.2214 29.3655 68.6162 29.6289 69.0735 29.6289C69.4007 29.6289 69.5981 29.5698 69.7696 29.4946L69.8475 29.8332C69.6864 29.9086 69.4111 30 69.0111 30C68.237 30 67.7747 29.4677 67.7747 28.6828C67.7747 27.8978 68.2214 27.2795 68.954 27.2795C69.7748 27.2795 69.993 28.0268 69.993 28.5053C69.993 28.6021 69.9826 28.6773 69.9774 28.7258L68.211 28.7257ZM69.5514 28.3869C69.5566 28.0859 69.4319 27.6182 68.9176 27.6182C68.4552 27.6182 68.2526 28.059 68.2162 28.3869H69.5514Z" fill="#0F8E23"/>
<path d="M70.7412 27.3387L71.0737 28.6612C71.1464 28.9515 71.2139 29.2203 71.2607 29.4892H71.2763C71.3335 29.2257 71.4166 28.9461 71.4997 28.6612L71.9101 27.3387H72.2946L72.6842 28.6397C72.7776 28.9515 72.8504 29.2257 72.9075 29.4892H72.9231C72.9647 29.2257 73.0322 28.9515 73.1153 28.645L73.4738 27.3387H73.9257L73.1153 29.9408H72.6997L72.3152 28.6988C72.2269 28.4085 72.1542 28.1504 72.0918 27.8441H72.0815C72.0191 28.1559 71.9412 28.4247 71.8529 28.7042L71.4476 29.9408H71.032L70.2735 27.3387H70.7412Z" fill="#0F8E23"/>
<path d="M74.2897 29.4569C74.4247 29.5484 74.6638 29.645 74.8923 29.645C75.2248 29.645 75.3807 29.473 75.3807 29.2581C75.3807 29.0323 75.2508 28.9086 74.9131 28.7795C74.4611 28.6128 74.2481 28.3547 74.2481 28.043C74.2481 27.6236 74.5753 27.2795 75.1157 27.2795C75.3703 27.2795 75.5937 27.3547 75.7339 27.4407L75.6196 27.7848C75.5209 27.7203 75.3391 27.6343 75.1053 27.6343C74.8351 27.6343 74.6845 27.7955 74.6845 27.9891C74.6845 28.2042 74.8351 28.301 75.1625 28.43C75.5989 28.6019 75.8223 28.8277 75.8223 29.2149C75.8223 29.6718 75.4794 29.9999 74.882 29.9999C74.6066 29.9999 74.352 29.9246 74.1754 29.8171L74.2897 29.4569Z" fill="#0F8E23"/>
<path d="M5.46776 21.8398L6.42587 24.8917L9.52665 24.8915L7.01796 26.7774L7.97636 29.8293L5.46786 27.9432L2.95946 29.8293L3.91787 26.7774L1.40917 24.8915L4.50985 24.8917L5.46776 21.8398Z" fill="#0F8E23"/>
<path d="M13.5504 21.8398L14.5085 24.8917L17.6092 24.8915L15.1005 26.7774L16.059 29.8293L13.5504 27.9432L11.042 29.8293L12.0004 26.7774L9.49173 24.8915L12.5924 24.8917L13.5504 21.8398Z" fill="#0F8E23"/>
<path d="M21.707 21.8398L22.6651 24.8917L25.7659 24.8915L23.2572 26.7774L24.2157 29.8293L21.707 27.9432L19.1986 29.8293L20.157 26.7774L17.6483 24.8915L20.7491 24.8917L21.707 21.8398Z" fill="#0F8E23"/>
<path d="M29.8684 21.8397L30.8265 24.8916L33.9271 24.8914L31.4184 26.7773L32.3769 29.8292L29.8684 27.943L27.36 29.8292L28.3185 26.7773L25.8098 24.8914L28.9104 24.8916L29.8684 21.8397Z" fill="#0F8E23"/>
<path d="M37.9278 21.8397L38.8859 24.8916L41.9866 24.8914L39.4779 26.7773L40.4364 29.8292L37.9278 27.943L35.4193 29.8292L36.3778 26.7773L33.8691 24.8914L36.9698 24.8916L37.9278 21.8397Z" fill="#0F8E23"/>
</svg>
