<svg width="105" height="30" viewBox="0 0 105 30" fill="none" xmlns="http://www.w3.org/2000/svg">
<path d="M38.9596 13.5261L35.7601 5.66261H33.9772L30.7778 13.5261H32.4019L33.0003 12.0171H36.7371L37.3354 13.5261H38.9596ZM36.3341 10.8028H33.4033L34.8687 7.05376L36.3341 10.8028Z" fill="#0F8E23"/>
<path d="M43.3276 13.6676C44.9762 13.6676 45.9776 12.8424 46.6003 11.8992L45.3792 11.2979C44.9884 11.9582 44.2069 12.4415 43.3276 12.4415C41.7157 12.4415 40.519 11.2508 40.519 9.60027C40.519 7.94975 41.7157 6.75902 43.3276 6.75902C44.2069 6.75902 44.9884 7.25418 45.3792 7.9026L46.6003 7.30134C45.9898 6.35818 44.9762 5.53292 43.3276 5.53292C40.9219 5.53292 39.0536 7.18344 39.0536 9.60027C39.0536 12.0171 40.9219 13.6676 43.3276 13.6676Z" fill="#0F8E23"/>
<path d="M51.6516 13.6676C53.3001 13.6676 54.3015 12.8424 54.9243 11.8992L53.7031 11.2979C53.3124 11.9582 52.5308 12.4415 51.6516 12.4415C50.0396 12.4415 48.8429 11.2508 48.8429 9.60027C48.8429 7.94975 50.0396 6.75902 51.6516 6.75902C52.5308 6.75902 53.3124 7.25418 53.7031 7.9026L54.9243 7.30134C54.3137 6.35818 53.3001 5.53292 51.6516 5.53292C49.2459 5.53292 47.3775 7.18344 47.3775 9.60027C47.3775 12.0171 49.2459 13.6676 51.6516 13.6676Z" fill="#0F8E23"/>
<path d="M62.369 13.5261L60.3785 10.4373C61.3554 10.2841 62.308 9.52954 62.308 8.1266C62.308 6.6765 61.2577 5.66261 59.6458 5.66261H56.0678V13.5261H57.4966V10.5906H58.9131L60.7204 13.5261H62.369ZM59.4504 9.37627H57.4966V6.87692H59.4504C60.2564 6.87692 60.8426 7.37207 60.8426 8.1266C60.8426 8.88112 60.2564 9.37627 59.4504 9.37627Z" fill="#0F8E23"/>
<path d="M69.3166 13.5261V12.3118H65.1646V10.1308H69.2311V8.91649H65.1646V6.87692H69.3166V5.66261H63.7358V13.5261H69.3166Z" fill="#0F8E23"/>
<path d="M73.8123 13.5261C76.3523 13.5261 78.0741 11.911 78.0741 9.60027C78.0741 7.28955 76.3523 5.66261 73.8123 5.66261H70.7838V13.5261H73.8123ZM73.8123 12.3118H72.2125V6.87692H73.8123C75.6318 6.87692 76.6087 8.07944 76.6087 9.60027C76.6087 11.0857 75.5829 12.3118 73.8123 12.3118Z" fill="#0F8E23"/>
<path d="M80.8823 13.5261V5.66261H79.4536V13.5261H80.8823Z" fill="#0F8E23"/>
<path d="M85.9842 13.5261V6.87692H88.451V5.66261H82.0887V6.87692H84.5555V13.5261H85.9842Z" fill="#0F8E23"/>
<path d="M95.2424 13.5261V12.3118H91.0905V10.1308H95.157V8.91649H91.0905V6.87692H95.2424V5.66261H89.6617V13.5261H95.2424Z" fill="#0F8E23"/>
<path d="M99.7381 13.5261C102.278 13.5261 104 11.911 104 9.60027C104 7.28955 102.278 5.66261 99.7381 5.66261H96.7097V13.5261H99.7381ZM99.7381 12.3118H98.1384V6.87692H99.7381C101.558 6.87692 102.535 8.07944 102.535 9.60027C102.535 11.0857 101.509 12.3118 99.7381 12.3118Z" fill="#0F8E23"/>
<path d="M35.7479 27.5261C37.2744 27.5261 38.117 26.6183 38.117 25.404C38.117 24.4373 37.4087 23.6002 36.5417 23.4705C37.2988 23.3173 37.9582 22.657 37.9582 21.6667C37.9582 20.5585 37.1278 19.6625 35.638 19.6625H31.6326V27.5261H35.7479ZM35.3449 22.9164H33.0614V20.8768H35.3449C36.0776 20.8768 36.4928 21.3131 36.4928 21.9025C36.4928 22.492 36.0776 22.9164 35.3449 22.9164ZM35.406 26.3118H33.0614V24.1307H35.406C36.2242 24.1307 36.6516 24.6259 36.6516 25.2154C36.6516 25.8991 36.1875 26.3118 35.406 26.3118Z" fill="#0F8E23"/>
<path d="M43.0802 27.6676C45.4371 27.6676 46.5972 26.3707 46.5972 24.4137V19.6625H45.1562V24.3783C45.1562 25.628 44.4357 26.4415 43.0802 26.4415C41.7125 26.4415 40.9921 25.628 40.9921 24.3783V19.6625H39.5511V24.4255C39.5511 26.3589 40.7112 27.6676 43.0802 27.6676Z" fill="#0F8E23"/>
<path d="M51.1125 27.6676C53.3105 27.6676 54.2631 26.5476 54.2631 25.2389C54.2631 22.3034 49.5249 23.2112 49.5249 21.7493C49.5249 21.1598 50.0623 20.7707 50.9049 20.7707C51.7597 20.7707 52.6267 21.0537 53.2617 21.6667L54.0799 20.6411C53.3228 19.9337 52.297 19.5446 51.027 19.5446C49.2441 19.5446 48.0595 20.5467 48.0595 21.8436C48.0595 24.7438 52.8099 23.7181 52.8099 25.3686C52.8099 25.8873 52.3458 26.4415 51.1735 26.4415C50.0378 26.4415 49.1586 25.9345 48.5969 25.3568L47.8031 26.4179C48.5236 27.1606 49.6104 27.6676 51.1125 27.6676Z" fill="#0F8E23"/>
<path d="M57.0076 27.5261V19.6625H55.5789V27.5261H57.0076Z" fill="#0F8E23"/>
<path d="M65.7974 27.5261V19.6625H64.3687V25.121L60.2045 19.6625H58.7391V27.5261H60.1679V21.9143L64.4175 27.5261H65.7974Z" fill="#0F8E23"/>
<path d="M73.1089 27.5261V26.3118H68.9569V24.1307H73.0234V22.9164H68.9569V20.8768H73.1089V19.6625H67.5281V27.5261H73.1089Z" fill="#0F8E23"/>
<path d="M77.3603 27.6676C79.5584 27.6676 80.5109 26.5476 80.5109 25.2389C80.5109 22.3034 75.7728 23.2112 75.7728 21.7493C75.7728 21.1598 76.3101 20.7707 77.1527 20.7707C78.0075 20.7707 78.8746 21.0537 79.5096 21.6667L80.3277 20.6411C79.5706 19.9337 78.5449 19.5446 77.2748 19.5446C75.4919 19.5446 74.3074 20.5467 74.3074 21.8436C74.3074 24.7438 79.0577 23.7181 79.0577 25.3686C79.0577 25.8873 78.5937 26.4415 77.4214 26.4415C76.2857 26.4415 75.4065 25.9345 74.8447 25.3568L74.051 26.4179C74.7714 27.1606 75.8583 27.6676 77.3603 27.6676Z" fill="#0F8E23"/>
<path d="M84.611 27.6676C86.8091 27.6676 87.7616 26.5476 87.7616 25.2389C87.7616 22.3034 83.0235 23.2112 83.0235 21.7493C83.0235 21.1598 83.5608 20.7707 84.4034 20.7707C85.2582 20.7707 86.1252 21.0537 86.7602 21.6667L87.5784 20.6411C86.8213 19.9337 85.7955 19.5446 84.5255 19.5446C82.7426 19.5446 81.5581 20.5467 81.5581 21.8436C81.5581 24.7438 86.3084 23.7181 86.3084 25.3686C86.3084 25.8873 85.8444 26.4415 84.672 26.4415C83.5364 26.4415 82.6571 25.9345 82.0954 25.3568L81.3016 26.4179C82.0221 27.1606 83.1089 27.6676 84.611 27.6676Z" fill="#0F8E23"/>
<path fill-rule="evenodd" clip-rule="evenodd" d="M7.34096 9.66001L5.93922 11.5155C5.24947 12.4433 5.44972 14.1047 6.40647 14.7735L9.00971 16.5859C9.45471 16.888 9.49921 17.2116 9.27671 17.5353L9.65497 17.8157L10.9677 16.0465C11.1746 15.7956 11.327 15.5066 11.4157 15.1971C11.5044 14.8876 11.5276 14.5638 11.484 14.2454C11.4403 13.9269 11.3307 13.6203 11.1617 13.344C10.9927 13.0677 10.7677 12.8274 10.5005 12.6375L7.89722 10.8035C7.75829 10.7048 7.66283 10.5589 7.62984 10.395C7.59685 10.231 7.62876 10.0611 7.71921 9.91892L7.34096 9.66001Z" fill="#0F8E23"/>
<path fill-rule="evenodd" clip-rule="evenodd" d="M9.56614 1L7.38564 3.91276C6.36213 5.27205 6.74039 7.60227 8.11989 8.59476L11.7022 11.1407C12.4364 11.6586 12.5254 12.9747 11.9914 13.6436L12.3029 13.8593L14.7727 10.4935C15.8852 8.98313 15.8184 6.7608 14.0829 5.53097L10.2559 2.85554C10.1169 2.77729 9.99634 2.67168 9.90197 2.54551C9.80759 2.41934 9.74151 2.2754 9.70798 2.12297C9.67444 1.97053 9.67419 1.81297 9.70725 1.66044C9.74031 1.5079 9.80595 1.36377 9.89993 1.23733L9.56614 1Z" fill="#0F8E23"/>
<path fill-rule="evenodd" clip-rule="evenodd" d="M3.84794 20.1104H6.71819L7.22995 21.7933H11.9247L12.4364 20.1104H15.3067L14.9284 18.859H4.20394L3.84794 20.1104Z" fill="#0F8E23"/>
<path fill-rule="evenodd" clip-rule="evenodd" d="M6.31774 27.0581C6.18425 26.2598 5.8505 26.0656 5.183 25.7851C5.43143 25.6657 5.64031 25.4811 5.78585 25.2522C5.93139 25.0234 6.00775 24.7595 6.00625 24.4906C6.00625 23.3255 5.02725 22.8724 3.95925 22.8724H1V29H3.95926C5.20525 29 6.54025 28.4606 6.31774 27.0581ZM2.335 24.0375H3.89248C3.98386 24.0293 4.076 24.0392 4.16335 24.0664C4.25071 24.0937 4.33147 24.1378 4.40078 24.1961C4.47008 24.2545 4.5265 24.3258 4.56663 24.4058C4.60676 24.4858 4.62977 24.5729 4.63428 24.6618C4.63878 24.7507 4.6247 24.8395 4.59286 24.923C4.56102 25.0064 4.51209 25.0828 4.44903 25.1474C4.38596 25.2121 4.31005 25.2637 4.22587 25.2991C4.1417 25.3345 4.051 25.3531 3.95923 25.3536H2.335V24.0375ZM4.0705 27.8349H2.335V26.4324H4.0705C5.33875 26.4324 5.24975 27.8349 4.0705 27.8349Z" fill="#0F8E23"/>
<path fill-rule="evenodd" clip-rule="evenodd" d="M12.2364 27.0581C12.1029 26.2598 11.7691 26.0656 11.1016 25.7851C11.3501 25.6657 11.5589 25.4811 11.7045 25.2522C11.85 25.0234 11.9264 24.7595 11.9249 24.4906C11.9249 23.3255 10.9459 22.8724 9.87787 22.8724H6.89638V29H9.85563C11.1239 29 12.4589 28.4606 12.2364 27.0581ZM8.25363 24.0375H9.81112C9.9025 24.0293 9.99464 24.0392 10.082 24.0664C10.1694 24.0937 10.2501 24.1378 10.3194 24.1961C10.3887 24.2545 10.4451 24.3258 10.4853 24.4058C10.5254 24.4858 10.5484 24.5729 10.5529 24.6618C10.5574 24.7507 10.5433 24.8395 10.5115 24.923C10.4797 25.0064 10.4307 25.0828 10.3677 25.1474C10.3046 25.2121 10.2287 25.2637 10.1445 25.2991C10.0603 25.3345 9.96964 25.3531 9.87787 25.3536H8.27586V24.0375H8.25363ZM9.98913 27.8349H8.25363V26.4324H9.98913C11.2574 26.4324 11.1684 27.8349 9.98913 27.8349Z" fill="#0F8E23"/>
<path fill-rule="evenodd" clip-rule="evenodd" d="M18.1544 27.0581C18.0209 26.2598 17.6871 26.0656 17.0196 25.7851C17.2681 25.6657 17.4769 25.4811 17.6225 25.2522C17.768 25.0234 17.8444 24.7595 17.8429 24.4906C17.8429 23.3255 16.8639 22.8724 15.7959 22.8724H12.8144V29H15.7736C17.0196 29 18.3546 28.4606 18.1544 27.0581ZM14.1716 24.0375H15.7291C15.8205 24.0293 15.9126 24.0392 16 24.0664C16.0873 24.0937 16.1681 24.1378 16.2374 24.1961C16.3067 24.2545 16.3631 24.3258 16.4033 24.4058C16.4434 24.4858 16.4664 24.5729 16.4709 24.6618C16.4754 24.7507 16.4613 24.8395 16.4295 24.923C16.3977 25.0064 16.3487 25.0828 16.2857 25.1474C16.2226 25.2121 16.1467 25.2637 16.0625 25.2991C15.9783 25.3345 15.8876 25.3531 15.7959 25.3536H14.1939V24.0375H14.1716ZM15.8849 27.8349H14.1494V26.4324H15.8849C17.1531 26.4324 17.0864 27.8349 15.8849 27.8349Z" fill="#0F8E23"/>
<path d="M17.4032 12.3605C19.162 10.044 20.7445 7.60638 22.1382 5.06701L22.1554 5.04865C22.1554 5.04865 23.3008 5.85124 23.6424 6.17927C23.8478 6.36166 23.8646 6.41634 23.8646 6.58038C23.8646 7.34624 19.8307 18.2867 19.8307 18.2867C19.5743 18.1129 19.3341 17.9176 19.1128 17.7032C18.909 17.504 18.7204 17.2905 18.5486 17.0646L19.7621 12.9803C19.1128 13.017 18.1211 13.09 17.6767 13.09C15.3179 16.0984 12.7709 18.2867 12.6342 18.2867C12.1587 17.9902 11.7419 17.6135 11.4034 17.1744C11.497 16.1768 11.6454 15.1847 11.8478 14.2023C11.8804 14.1334 11.9269 14.0714 11.9845 14.0199C12.1726 14.0199 13.5229 15.2416 13.5229 15.3326C13.5229 15.4419 12.9759 16.9737 12.9759 16.9737C14.3921 15.7918 15.686 14.4788 16.8394 13.0533C16.255 12.9954 15.6646 13.0387 15.0957 13.181C14.5315 13.4544 14.4801 13.7282 14.3947 13.7282C14.292 13.7282 14.2752 12.8893 14.3947 12.7432C14.8222 12.1418 16.6513 12.4882 17.3006 12.4882L17.4032 12.3605ZM18.1556 12.4699L19.9502 12.3605L21.3862 7.60168C20.4485 9.30738 19.368 10.9356 18.1556 12.4699Z" fill="#0F8E23"/>
<path d="M38.9596 13.5261L35.7601 5.66261H33.9772L30.7778 13.5261H32.4019L33.0003 12.0171H36.7371L37.3354 13.5261H38.9596ZM36.3341 10.8028H33.4033L34.8687 7.05376L36.3341 10.8028Z" stroke="white" stroke-width="0.15" stroke-miterlimit="10"/>
<path d="M43.3276 13.6676C44.9762 13.6676 45.9776 12.8424 46.6003 11.8992L45.3792 11.2979C44.9884 11.9582 44.2069 12.4415 43.3276 12.4415C41.7157 12.4415 40.519 11.2508 40.519 9.60027C40.519 7.94975 41.7157 6.75902 43.3276 6.75902C44.2069 6.75902 44.9884 7.25418 45.3792 7.9026L46.6003 7.30134C45.9898 6.35818 44.9762 5.53292 43.3276 5.53292C40.9219 5.53292 39.0536 7.18344 39.0536 9.60027C39.0536 12.0171 40.9219 13.6676 43.3276 13.6676Z" stroke="white" stroke-width="0.15" stroke-miterlimit="10"/>
<path d="M51.6516 13.6676C53.3001 13.6676 54.3015 12.8424 54.9243 11.8992L53.7031 11.2979C53.3124 11.9582 52.5308 12.4415 51.6516 12.4415C50.0396 12.4415 48.8429 11.2508 48.8429 9.60027C48.8429 7.94975 50.0396 6.75902 51.6516 6.75902C52.5308 6.75902 53.3124 7.25418 53.7031 7.9026L54.9243 7.30134C54.3137 6.35818 53.3001 5.53292 51.6516 5.53292C49.2459 5.53292 47.3775 7.18344 47.3775 9.60027C47.3775 12.0171 49.2459 13.6676 51.6516 13.6676Z" stroke="white" stroke-width="0.15" stroke-miterlimit="10"/>
<path d="M62.369 13.5261L60.3785 10.4373C61.3554 10.2841 62.308 9.52954 62.308 8.1266C62.308 6.6765 61.2577 5.66261 59.6458 5.66261H56.0678V13.5261H57.4966V10.5906H58.9131L60.7204 13.5261H62.369ZM59.4504 9.37627H57.4966V6.87692H59.4504C60.2564 6.87692 60.8426 7.37207 60.8426 8.1266C60.8426 8.88112 60.2564 9.37627 59.4504 9.37627Z" stroke="white" stroke-width="0.15" stroke-miterlimit="10"/>
<path d="M69.3166 13.5261V12.3118H65.1646V10.1308H69.2311V8.91649H65.1646V6.87692H69.3166V5.66261H63.7358V13.5261H69.3166Z" stroke="white" stroke-width="0.15" stroke-miterlimit="10"/>
<path d="M73.8123 13.5261C76.3523 13.5261 78.0741 11.911 78.0741 9.60027C78.0741 7.28955 76.3523 5.66261 73.8123 5.66261H70.7838V13.5261H73.8123ZM73.8123 12.3118H72.2125V6.87692H73.8123C75.6318 6.87692 76.6087 8.07944 76.6087 9.60027C76.6087 11.0857 75.5829 12.3118 73.8123 12.3118Z" stroke="white" stroke-width="0.15" stroke-miterlimit="10"/>
<path d="M80.8823 13.5261V5.66261H79.4536V13.5261H80.8823Z" stroke="white" stroke-width="0.15" stroke-miterlimit="10"/>
<path d="M85.9842 13.5261V6.87692H88.451V5.66261H82.0887V6.87692H84.5555V13.5261H85.9842Z" stroke="white" stroke-width="0.15" stroke-miterlimit="10"/>
<path d="M95.2424 13.5261V12.3118H91.0905V10.1308H95.157V8.91649H91.0905V6.87692H95.2424V5.66261H89.6617V13.5261H95.2424Z" stroke="white" stroke-width="0.15" stroke-miterlimit="10"/>
<path d="M99.7381 13.5261C102.278 13.5261 104 11.911 104 9.60027C104 7.28955 102.278 5.66261 99.7381 5.66261H96.7097V13.5261H99.7381ZM99.7381 12.3118H98.1384V6.87692H99.7381C101.558 6.87692 102.535 8.07944 102.535 9.60027C102.535 11.0857 101.509 12.3118 99.7381 12.3118Z" stroke="white" stroke-width="0.15" stroke-miterlimit="10"/>
<path d="M35.7479 27.5261C37.2744 27.5261 38.117 26.6183 38.117 25.404C38.117 24.4373 37.4087 23.6002 36.5417 23.4705C37.2988 23.3173 37.9582 22.657 37.9582 21.6667C37.9582 20.5585 37.1278 19.6625 35.638 19.6625H31.6326V27.5261H35.7479ZM35.3449 22.9164H33.0614V20.8768H35.3449C36.0776 20.8768 36.4928 21.3131 36.4928 21.9025C36.4928 22.492 36.0776 22.9164 35.3449 22.9164ZM35.406 26.3118H33.0614V24.1307H35.406C36.2242 24.1307 36.6516 24.6259 36.6516 25.2154C36.6516 25.8991 36.1875 26.3118 35.406 26.3118Z" stroke="white" stroke-width="0.15" stroke-miterlimit="10"/>
<path d="M43.0802 27.6676C45.4371 27.6676 46.5972 26.3707 46.5972 24.4137V19.6625H45.1562V24.3783C45.1562 25.628 44.4357 26.4415 43.0802 26.4415C41.7125 26.4415 40.9921 25.628 40.9921 24.3783V19.6625H39.5511V24.4255C39.5511 26.3589 40.7112 27.6676 43.0802 27.6676Z" stroke="white" stroke-width="0.15" stroke-miterlimit="10"/>
<path d="M51.1125 27.6676C53.3105 27.6676 54.2631 26.5476 54.2631 25.2389C54.2631 22.3034 49.5249 23.2112 49.5249 21.7493C49.5249 21.1598 50.0623 20.7707 50.9049 20.7707C51.7597 20.7707 52.6267 21.0537 53.2617 21.6667L54.0799 20.6411C53.3228 19.9337 52.297 19.5446 51.027 19.5446C49.2441 19.5446 48.0595 20.5467 48.0595 21.8436C48.0595 24.7438 52.8099 23.7181 52.8099 25.3686C52.8099 25.8873 52.3458 26.4415 51.1735 26.4415C50.0378 26.4415 49.1586 25.9345 48.5969 25.3568L47.8031 26.4179C48.5236 27.1606 49.6104 27.6676 51.1125 27.6676Z" stroke="white" stroke-width="0.15" stroke-miterlimit="10"/>
<path d="M57.0076 27.5261V19.6625H55.5789V27.5261H57.0076Z" stroke="white" stroke-width="0.15" stroke-miterlimit="10"/>
<path d="M65.7974 27.5261V19.6625H64.3687V25.121L60.2045 19.6625H58.7391V27.5261H60.1679V21.9143L64.4175 27.5261H65.7974Z" stroke="white" stroke-width="0.15" stroke-miterlimit="10"/>
<path d="M73.1089 27.5261V26.3118H68.9569V24.1307H73.0234V22.9164H68.9569V20.8768H73.1089V19.6625H67.5281V27.5261H73.1089Z" stroke="white" stroke-width="0.15" stroke-miterlimit="10"/>
<path d="M77.3603 27.6676C79.5584 27.6676 80.5109 26.5476 80.5109 25.2389C80.5109 22.3034 75.7728 23.2112 75.7728 21.7493C75.7728 21.1598 76.3101 20.7707 77.1527 20.7707C78.0075 20.7707 78.8746 21.0537 79.5096 21.6667L80.3277 20.6411C79.5706 19.9337 78.5449 19.5446 77.2748 19.5446C75.4919 19.5446 74.3074 20.5467 74.3074 21.8436C74.3074 24.7438 79.0577 23.7181 79.0577 25.3686C79.0577 25.8873 78.5937 26.4415 77.4214 26.4415C76.2857 26.4415 75.4065 25.9345 74.8447 25.3568L74.051 26.4179C74.7714 27.1606 75.8583 27.6676 77.3603 27.6676Z" stroke="white" stroke-width="0.15" stroke-miterlimit="10"/>
<path d="M84.611 27.6676C86.8091 27.6676 87.7616 26.5476 87.7616 25.2389C87.7616 22.3034 83.0235 23.2112 83.0235 21.7493C83.0235 21.1598 83.5608 20.7707 84.4034 20.7707C85.2582 20.7707 86.1252 21.0537 86.7602 21.6667L87.5784 20.6411C86.8213 19.9337 85.7955 19.5446 84.5255 19.5446C82.7426 19.5446 81.5581 20.5467 81.5581 21.8436C81.5581 24.7438 86.3084 23.7181 86.3084 25.3686C86.3084 25.8873 85.8444 26.4415 84.672 26.4415C83.5364 26.4415 82.6571 25.9345 82.0954 25.3568L81.3016 26.4179C82.0221 27.1606 83.1089 27.6676 84.611 27.6676Z" stroke="white" stroke-width="0.15" stroke-miterlimit="10"/>
<path fill-rule="evenodd" clip-rule="evenodd" d="M7.34096 9.66001L5.93922 11.5155C5.24947 12.4433 5.44972 14.1047 6.40647 14.7735L9.00971 16.5859C9.45471 16.888 9.49921 17.2116 9.27671 17.5353L9.65497 17.8157L10.9677 16.0465C11.1746 15.7956 11.327 15.5066 11.4157 15.1971C11.5044 14.8876 11.5276 14.5638 11.484 14.2454C11.4403 13.9269 11.3307 13.6203 11.1617 13.344C10.9927 13.0677 10.7677 12.8274 10.5005 12.6375L7.89722 10.8035C7.75829 10.7048 7.66283 10.5589 7.62984 10.395C7.59685 10.231 7.62876 10.0611 7.71921 9.91892L7.34096 9.66001Z" stroke="white" stroke-width="0.15" stroke-miterlimit="10"/>
<path fill-rule="evenodd" clip-rule="evenodd" d="M9.56614 1L7.38564 3.91276C6.36213 5.27205 6.74039 7.60227 8.11989 8.59476L11.7022 11.1407C12.4364 11.6586 12.5254 12.9747 11.9914 13.6436L12.3029 13.8593L14.7727 10.4935C15.8852 8.98313 15.8184 6.7608 14.0829 5.53097L10.2559 2.85554C10.1169 2.77729 9.99634 2.67168 9.90197 2.54551C9.80759 2.41934 9.74151 2.2754 9.70798 2.12297C9.67444 1.97053 9.67419 1.81297 9.70725 1.66044C9.74031 1.5079 9.80595 1.36377 9.89993 1.23733L9.56614 1Z" stroke="white" stroke-width="0.15" stroke-miterlimit="10"/>
<path fill-rule="evenodd" clip-rule="evenodd" d="M3.84794 20.1104H6.71819L7.22995 21.7933H11.9247L12.4364 20.1104H15.3067L14.9284 18.859H4.20394L3.84794 20.1104Z" stroke="white" stroke-width="0.15" stroke-miterlimit="10"/>
<path fill-rule="evenodd" clip-rule="evenodd" d="M6.31774 27.0581C6.18425 26.2598 5.8505 26.0656 5.183 25.7851C5.43143 25.6657 5.64031 25.4811 5.78585 25.2522C5.93139 25.0234 6.00775 24.7595 6.00625 24.4906C6.00625 23.3255 5.02725 22.8724 3.95925 22.8724H1V29H3.95926C5.20525 29 6.54025 28.4606 6.31774 27.0581ZM2.335 24.0375H3.89248C3.98386 24.0293 4.076 24.0392 4.16335 24.0664C4.25071 24.0937 4.33147 24.1378 4.40078 24.1961C4.47008 24.2545 4.5265 24.3258 4.56663 24.4058C4.60676 24.4858 4.62977 24.5729 4.63428 24.6618C4.63878 24.7507 4.6247 24.8395 4.59286 24.923C4.56102 25.0064 4.51209 25.0828 4.44903 25.1474C4.38596 25.2121 4.31005 25.2637 4.22587 25.2991C4.1417 25.3345 4.051 25.3531 3.95923 25.3536H2.335V24.0375ZM4.0705 27.8349H2.335V26.4324H4.0705C5.33875 26.4324 5.24975 27.8349 4.0705 27.8349Z" stroke="white" stroke-width="0.15" stroke-miterlimit="10"/>
<path fill-rule="evenodd" clip-rule="evenodd" d="M12.2364 27.0581C12.1029 26.2598 11.7691 26.0656 11.1016 25.7851C11.3501 25.6657 11.5589 25.4811 11.7045 25.2522C11.85 25.0234 11.9264 24.7595 11.9249 24.4906C11.9249 23.3255 10.9459 22.8724 9.87787 22.8724H6.89638V29H9.85563C11.1239 29 12.4589 28.4606 12.2364 27.0581ZM8.25363 24.0375H9.81112C9.9025 24.0293 9.99464 24.0392 10.082 24.0664C10.1694 24.0937 10.2501 24.1378 10.3194 24.1961C10.3887 24.2545 10.4451 24.3258 10.4853 24.4058C10.5254 24.4858 10.5484 24.5729 10.5529 24.6618C10.5574 24.7507 10.5433 24.8395 10.5115 24.923C10.4797 25.0064 10.4307 25.0828 10.3677 25.1474C10.3046 25.2121 10.2287 25.2637 10.1445 25.2991C10.0603 25.3345 9.96964 25.3531 9.87787 25.3536H8.27586V24.0375H8.25363ZM9.98913 27.8349H8.25363V26.4324H9.98913C11.2574 26.4324 11.1684 27.8349 9.98913 27.8349Z" stroke="white" stroke-width="0.15" stroke-miterlimit="10"/>
<path fill-rule="evenodd" clip-rule="evenodd" d="M18.1544 27.0581C18.0209 26.2598 17.6871 26.0656 17.0196 25.7851C17.2681 25.6657 17.4769 25.4811 17.6225 25.2522C17.768 25.0234 17.8444 24.7595 17.8429 24.4906C17.8429 23.3255 16.8639 22.8724 15.7959 22.8724H12.8144V29H15.7736C17.0196 29 18.3546 28.4606 18.1544 27.0581ZM14.1716 24.0375H15.7291C15.8205 24.0293 15.9126 24.0392 16 24.0664C16.0873 24.0937 16.1681 24.1378 16.2374 24.1961C16.3067 24.2545 16.3631 24.3258 16.4033 24.4058C16.4434 24.4858 16.4664 24.5729 16.4709 24.6618C16.4754 24.7507 16.4613 24.8395 16.4295 24.923C16.3977 25.0064 16.3487 25.0828 16.2857 25.1474C16.2226 25.2121 16.1467 25.2637 16.0625 25.2991C15.9783 25.3345 15.8876 25.3531 15.7959 25.3536H14.1939V24.0375H14.1716ZM15.8849 27.8349H14.1494V26.4324H15.8849C17.1531 26.4324 17.0864 27.8349 15.8849 27.8349Z" stroke="white" stroke-width="0.15" stroke-miterlimit="10"/>
<path d="M17.4032 12.3605C19.162 10.044 20.7445 7.60638 22.1382 5.06701L22.1554 5.04865C22.1554 5.04865 23.3008 5.85124 23.6424 6.17927C23.8478 6.36166 23.8646 6.41634 23.8646 6.58038C23.8646 7.34624 19.8307 18.2867 19.8307 18.2867C19.5743 18.1129 19.3341 17.9176 19.1128 17.7032C18.909 17.504 18.7204 17.2905 18.5486 17.0646L19.7621 12.9803C19.1128 13.017 18.1211 13.09 17.6767 13.09C15.3179 16.0984 12.7709 18.2867 12.6342 18.2867C12.1587 17.9902 11.7419 17.6135 11.4034 17.1744C11.497 16.1768 11.6454 15.1847 11.8478 14.2023C11.8804 14.1334 11.9269 14.0714 11.9845 14.0199C12.1726 14.0199 13.5229 15.2416 13.5229 15.3326C13.5229 15.4419 12.9759 16.9737 12.9759 16.9737C14.3921 15.7918 15.686 14.4788 16.8394 13.0533C16.255 12.9954 15.6646 13.0387 15.0957 13.181C14.5315 13.4544 14.4801 13.7282 14.3947 13.7282C14.292 13.7282 14.2752 12.8893 14.3947 12.7432C14.8222 12.1418 16.6513 12.4882 17.3006 12.4882L17.4032 12.3605ZM18.1556 12.4699L19.9502 12.3605L21.3862 7.60168C20.4485 9.30738 19.368 10.9356 18.1556 12.4699Z" stroke="white" stroke-width="0.15" stroke-miterlimit="10"/>
</svg>
