<svg width="1280" height="832" viewBox="0 0 1280 832" fill="none" xmlns="http://www.w3.org/2000/svg">
<rect x="-20.6" y="0.4" width="112.49" height="49.575" stroke="#159C2A" stroke-opacity="0.04" stroke-width="0.8"/>
<rect x="-0.4" y="0.4" width="48.1208" height="49.575" transform="matrix(-1 0 0 1 140.411 0)" stroke="#159C2A" stroke-opacity="0.04" stroke-width="0.8"/>
<rect x="0.4" y="-0.4" width="161.411" height="61.7625" transform="matrix(1 0 0 -1 -21 112.137)" stroke="#159C2A" stroke-opacity="0.04" stroke-width="0.8"/>
<rect x="275.987" y="112.537" width="134.376" height="61.7625" transform="rotate(180 275.987 112.537)" stroke="#159C2A" stroke-opacity="0.04" stroke-width="0.8"/>
<rect x="0.4" y="-0.4" width="14.6487" height="112.137" transform="matrix(1 0 0 -1 276.387 112.137)" stroke="#159C2A" stroke-opacity="0.04" stroke-width="0.8"/>
<rect x="-0.4" y="0.4" width="134.376" height="49.575" transform="matrix(-1 0 0 1 275.587 0)" stroke="#159C2A" stroke-opacity="0.04" stroke-width="0.8"/>
<rect x="292.236" y="0.4" width="107.341" height="49.575" stroke="#159C2A" stroke-opacity="0.04" stroke-width="0.8"/>
<rect x="292.236" y="50.775" width="107.341" height="61.7625" stroke="#159C2A" stroke-opacity="0.04" stroke-width="0.8"/>
<rect x="0.4" y="-0.4" width="107.341" height="231.575" transform="matrix(1 0 0 -1 291.836 344.512)" stroke="#159C2A" stroke-opacity="0.04" stroke-width="0.8"/>
<rect x="0.4" y="-0.4" width="120.215" height="42.2625" transform="matrix(1 0 0 -1 170.821 155.2)" stroke="#159C2A" stroke-opacity="0.04" stroke-width="0.8"/>
<rect x="171.221" y="156.4" width="90.6047" height="188.512" stroke="#159C2A" stroke-opacity="0.04" stroke-width="0.8"/>
<rect x="141.611" y="280.713" width="28.81" height="64.2" stroke="#159C2A" stroke-opacity="0.04" stroke-width="0.8"/>
<rect x="292.236" y="345.713" width="107.341" height="69.8875" stroke="#159C2A" stroke-opacity="0.04" stroke-width="0.8"/>
<rect x="-0.4" y="0.4" width="37.8217" height="44.7" transform="matrix(-1 0 0 1 437.798 345.312)" stroke="#159C2A" stroke-opacity="0.04" stroke-width="0.8"/>
<rect x="-0.4" y="0.4" width="174.285" height="39.0125" transform="matrix(-1 0 0 1 574.262 305.5)" stroke="#159C2A" stroke-opacity="0.04" stroke-width="0.8"/>
<rect x="574.662" y="305.1" width="174.285" height="151.95" transform="rotate(180 574.662 305.1)" stroke="#159C2A" stroke-opacity="0.04" stroke-width="0.8"/>
<rect x="-0.4" y="0.4" width="37.8217" height="101.575" transform="matrix(-1 0 0 1 437.798 50.375)" stroke="#159C2A" stroke-opacity="0.04" stroke-width="0.8"/>
<rect x="622.295" y="49.975" width="221.918" height="49.575" transform="rotate(180 622.295 49.975)" stroke="#159C2A" stroke-opacity="0.04" stroke-width="0.8"/>
<rect x="-0.4" y="0.4" width="79.0182" height="61.7625" transform="matrix(-1 0 0 1 517.616 50.375)" stroke="#159C2A" stroke-opacity="0.04" stroke-width="0.8"/>
<rect x="0.4" y="-0.4" width="46.8334" height="166.575" transform="matrix(1 0 0 -1 575.062 279.512)" stroke="#159C2A" stroke-opacity="0.04" stroke-width="0.8"/>
<rect x="575.462" y="280.713" width="46.8334" height="64.2" stroke="#159C2A" stroke-opacity="0.04" stroke-width="0.8"/>
<rect x="-0.4" y="0.4" width="14.6487" height="64.2" transform="matrix(-1 0 0 1 637.344 280.312)" stroke="#159C2A" stroke-opacity="0.04" stroke-width="0.8"/>
<rect x="828.277" y="279.912" width="205.182" height="166.575" transform="rotate(180 828.277 279.912)" stroke="#159C2A" stroke-opacity="0.04" stroke-width="0.8"/>
<rect x="574.662" y="152.35" width="135.663" height="39.0125" transform="rotate(180 574.662 152.35)" stroke="#159C2A" stroke-opacity="0.04" stroke-width="0.8"/>
<rect x="0.4" y="-0.4" width="14.6487" height="49.575" transform="matrix(1 0 0 -1 622.695 49.575)" stroke="#159C2A" stroke-opacity="0.04" stroke-width="0.8"/>
<rect x="624.87" y="415.6" width="224.493" height="24.3875" transform="rotate(180 624.87 415.6)" stroke="#159C2A" stroke-opacity="0.04" stroke-width="0.8"/>
<rect x="-0.4" y="0.4" width="185.872" height="44.7" transform="matrix(-1 0 0 1 624.47 345.312)" stroke="#159C2A" stroke-opacity="0.04" stroke-width="0.8"/>
<rect x="0.4" y="-0.4" width="12.0739" height="69.8875" transform="matrix(1 0 0 -1 625.27 415.2)" stroke="#159C2A" stroke-opacity="0.04" stroke-width="0.8"/>
<rect x="291.436" y="344.912" width="28.81" height="188.512" transform="rotate(180 291.436 344.912)" stroke="#159C2A" stroke-opacity="0.04" stroke-width="0.8"/>
<rect x="-20.6" y="113.338" width="161.411" height="166.575" stroke="#159C2A" stroke-opacity="0.04" stroke-width="0.8"/>
<rect x="-0.4" y="0.4" width="28.81" height="166.575" transform="matrix(-1 0 0 1 170.021 112.938)" stroke="#159C2A" stroke-opacity="0.04" stroke-width="0.8"/>
<rect x="0.4" y="-0.4" width="161.411" height="64.2" transform="matrix(1 0 0 -1 -21 344.512)" stroke="#159C2A" stroke-opacity="0.04" stroke-width="0.8"/>
<rect x="-20.6" y="345.713" width="112.49" height="58.5125" stroke="#159C2A" stroke-opacity="0.04" stroke-width="0.8"/>
<rect x="0.4" y="-0.4" width="112.49" height="10.575" transform="matrix(1 0 0 -1 -21 415.2)" stroke="#159C2A" stroke-opacity="0.04" stroke-width="0.8"/>
<rect x="140.811" y="415.6" width="48.1208" height="69.8875" transform="rotate(180 140.811 415.6)" stroke="#159C2A" stroke-opacity="0.04" stroke-width="0.8"/>
<rect x="0.4" y="-0.4" width="133.089" height="69.8875" transform="matrix(1 0 0 -1 141.211 415.2)" stroke="#159C2A" stroke-opacity="0.04" stroke-width="0.8"/>
<rect x="291.436" y="415.6" width="15.9361" height="69.8875" transform="rotate(180 291.436 415.6)" stroke="#159C2A" stroke-opacity="0.04" stroke-width="0.8"/>
<rect x="637.256" y="0.4" width="112.49" height="49.575" stroke="#159C2A" stroke-opacity="0.04" stroke-width="0.8"/>
<rect x="-0.4" y="0.4" width="48.1208" height="49.575" transform="matrix(-1 0 0 1 798.267 0)" stroke="#159C2A" stroke-opacity="0.04" stroke-width="0.8"/>
<rect x="0.4" y="-0.4" width="279.851" height="61.7625" transform="matrix(1 0 0 -1 518.416 112.137)" stroke="#159C2A" stroke-opacity="0.04" stroke-width="0.8"/>
<rect x="933.843" y="112.537" width="134.376" height="61.7625" transform="rotate(180 933.843 112.537)" stroke="#159C2A" stroke-opacity="0.04" stroke-width="0.8"/>
<rect x="0.4" y="-0.4" width="14.6487" height="112.137" transform="matrix(1 0 0 -1 934.243 112.137)" stroke="#159C2A" stroke-opacity="0.04" stroke-width="0.8"/>
<rect x="-0.4" y="0.4" width="134.376" height="49.575" transform="matrix(-1 0 0 1 933.443 0)" stroke="#159C2A" stroke-opacity="0.04" stroke-width="0.8"/>
<rect x="950.092" y="0.4" width="107.341" height="49.575" stroke="#159C2A" stroke-opacity="0.04" stroke-width="0.8"/>
<rect x="950.092" y="50.775" width="107.341" height="61.7625" stroke="#159C2A" stroke-opacity="0.04" stroke-width="0.8"/>
<rect x="0.4" y="-0.4" width="107.341" height="231.575" transform="matrix(1 0 0 -1 949.692 344.512)" stroke="#159C2A" stroke-opacity="0.04" stroke-width="0.8"/>
<rect x="0.4" y="-0.4" width="120.215" height="42.2625" transform="matrix(1 0 0 -1 828.677 155.2)" stroke="#159C2A" stroke-opacity="0.04" stroke-width="0.8"/>
<rect x="829.077" y="156.4" width="90.6047" height="188.512" stroke="#159C2A" stroke-opacity="0.04" stroke-width="0.8"/>
<rect x="799.467" y="280.713" width="28.81" height="64.2" stroke="#159C2A" stroke-opacity="0.04" stroke-width="0.8"/>
<rect x="950.092" y="345.713" width="107.341" height="69.8875" stroke="#159C2A" stroke-opacity="0.04" stroke-width="0.8"/>
<rect x="-0.4" y="0.4" width="37.8217" height="44.7" transform="matrix(-1 0 0 1 1095.65 345.312)" stroke="#159C2A" stroke-opacity="0.04" stroke-width="0.8"/>
<rect x="-0.4" y="0.4" width="174.285" height="39.0125" transform="matrix(-1 0 0 1 1232.12 305.5)" stroke="#159C2A" stroke-opacity="0.04" stroke-width="0.8"/>
<rect x="1232.52" y="305.1" width="174.285" height="151.95" transform="rotate(180 1232.52 305.1)" stroke="#159C2A" stroke-opacity="0.04" stroke-width="0.8"/>
<rect x="-0.4" y="0.4" width="37.8217" height="101.575" transform="matrix(-1 0 0 1 1095.65 50.375)" stroke="#159C2A" stroke-opacity="0.04" stroke-width="0.8"/>
<rect x="1280.15" y="49.975" width="221.918" height="49.575" transform="rotate(180 1280.15 49.975)" stroke="#159C2A" stroke-opacity="0.04" stroke-width="0.8"/>
<rect x="-0.4" y="0.4" width="79.0182" height="61.7625" transform="matrix(-1 0 0 1 1175.47 50.375)" stroke="#159C2A" stroke-opacity="0.04" stroke-width="0.8"/>
<rect x="1176.67" y="50.775" width="118.927" height="61.7625" stroke="#159C2A" stroke-opacity="0.04" stroke-width="0.8"/>
<rect x="0.4" y="-0.4" width="46.8334" height="166.575" transform="matrix(1 0 0 -1 1232.92 279.512)" stroke="#159C2A" stroke-opacity="0.04" stroke-width="0.8"/>
<rect x="1233.32" y="280.713" width="46.8334" height="64.2" stroke="#159C2A" stroke-opacity="0.04" stroke-width="0.8"/>
<rect x="1232.52" y="152.35" width="135.663" height="39.0125" transform="rotate(180 1232.52 152.35)" stroke="#159C2A" stroke-opacity="0.04" stroke-width="0.8"/>
<rect x="1282.73" y="415.6" width="224.493" height="24.3875" transform="rotate(180 1282.73 415.6)" stroke="#159C2A" stroke-opacity="0.04" stroke-width="0.8"/>
<rect x="-0.4" y="0.4" width="185.872" height="44.7" transform="matrix(-1 0 0 1 1282.33 345.312)" stroke="#159C2A" stroke-opacity="0.04" stroke-width="0.8"/>
<rect x="949.292" y="344.912" width="28.81" height="188.512" transform="rotate(180 949.292 344.912)" stroke="#159C2A" stroke-opacity="0.04" stroke-width="0.8"/>
<rect x="0.4" y="-0.4" width="161.411" height="64.2" transform="matrix(1 0 0 -1 636.856 344.512)" stroke="#159C2A" stroke-opacity="0.04" stroke-width="0.8"/>
<rect x="637.256" y="345.713" width="112.49" height="58.5125" stroke="#159C2A" stroke-opacity="0.04" stroke-width="0.8"/>
<rect x="0.4" y="-0.4" width="112.49" height="10.575" transform="matrix(1 0 0 -1 636.856 415.2)" stroke="#159C2A" stroke-opacity="0.04" stroke-width="0.8"/>
<rect x="798.667" y="415.6" width="48.1208" height="69.8875" transform="rotate(180 798.667 415.6)" stroke="#159C2A" stroke-opacity="0.04" stroke-width="0.8"/>
<rect x="0.4" y="-0.4" width="133.089" height="69.8875" transform="matrix(1 0 0 -1 799.067 415.2)" stroke="#159C2A" stroke-opacity="0.04" stroke-width="0.8"/>
<rect x="949.292" y="415.6" width="15.9361" height="69.8875" transform="rotate(180 949.292 415.6)" stroke="#159C2A" stroke-opacity="0.04" stroke-width="0.8"/>
<rect x="-20.6" y="416.4" width="112.49" height="49.575" stroke="#159C2A" stroke-opacity="0.04" stroke-width="0.8"/>
<rect x="-0.4" y="0.4" width="48.1208" height="49.575" transform="matrix(-1 0 0 1 140.411 416)" stroke="#159C2A" stroke-opacity="0.04" stroke-width="0.8"/>
<rect x="0.4" y="-0.4" width="161.411" height="61.7625" transform="matrix(1 0 0 -1 -21 528.137)" stroke="#159C2A" stroke-opacity="0.04" stroke-width="0.8"/>
<rect x="275.987" y="528.537" width="134.376" height="61.7625" transform="rotate(180 275.987 528.537)" stroke="#159C2A" stroke-opacity="0.04" stroke-width="0.8"/>
<rect x="0.4" y="-0.4" width="14.6487" height="112.137" transform="matrix(1 0 0 -1 276.387 528.137)" stroke="#159C2A" stroke-opacity="0.04" stroke-width="0.8"/>
<rect x="-0.4" y="0.4" width="134.376" height="49.575" transform="matrix(-1 0 0 1 275.587 416)" stroke="#159C2A" stroke-opacity="0.04" stroke-width="0.8"/>
<rect x="292.236" y="416.4" width="107.341" height="49.575" stroke="#159C2A" stroke-opacity="0.04" stroke-width="0.8"/>
<rect x="292.236" y="466.775" width="107.341" height="61.7625" stroke="#159C2A" stroke-opacity="0.04" stroke-width="0.8"/>
<rect x="0.4" y="-0.4" width="107.341" height="231.575" transform="matrix(1 0 0 -1 291.836 760.512)" stroke="#159C2A" stroke-opacity="0.04" stroke-width="0.8"/>
<rect x="0.4" y="-0.4" width="120.215" height="42.2625" transform="matrix(1 0 0 -1 170.821 571.2)" stroke="#159C2A" stroke-opacity="0.04" stroke-width="0.8"/>
<rect x="171.221" y="572.4" width="90.6047" height="188.512" stroke="#159C2A" stroke-opacity="0.04" stroke-width="0.8"/>
<rect x="141.611" y="696.713" width="28.81" height="64.2" stroke="#159C2A" stroke-opacity="0.04" stroke-width="0.8"/>
<rect x="292.236" y="761.713" width="107.341" height="69.8875" stroke="#159C2A" stroke-opacity="0.04" stroke-width="0.8"/>
<rect x="-0.4" y="0.4" width="37.8217" height="44.7" transform="matrix(-1 0 0 1 437.798 761.312)" stroke="#159C2A" stroke-opacity="0.04" stroke-width="0.8"/>
<rect x="-0.4" y="0.4" width="174.285" height="39.0125" transform="matrix(-1 0 0 1 574.262 721.5)" stroke="#159C2A" stroke-opacity="0.04" stroke-width="0.8"/>
<rect x="574.662" y="721.1" width="174.285" height="151.95" transform="rotate(180 574.662 721.1)" stroke="#159C2A" stroke-opacity="0.04" stroke-width="0.8"/>
<rect x="-0.4" y="0.4" width="37.8217" height="101.575" transform="matrix(-1 0 0 1 437.798 466.375)" stroke="#159C2A" stroke-opacity="0.04" stroke-width="0.8"/>
<rect x="622.295" y="465.975" width="221.918" height="49.575" transform="rotate(180 622.295 465.975)" stroke="#159C2A" stroke-opacity="0.04" stroke-width="0.8"/>
<rect x="-0.4" y="0.4" width="79.0182" height="61.7625" transform="matrix(-1 0 0 1 517.616 466.375)" stroke="#159C2A" stroke-opacity="0.04" stroke-width="0.8"/>
<rect x="0.4" y="-0.4" width="46.8334" height="166.575" transform="matrix(1 0 0 -1 575.062 695.512)" stroke="#159C2A" stroke-opacity="0.04" stroke-width="0.8"/>
<rect x="575.462" y="696.713" width="46.8334" height="64.2" stroke="#159C2A" stroke-opacity="0.04" stroke-width="0.8"/>
<rect x="-0.4" y="0.4" width="14.6487" height="64.2" transform="matrix(-1 0 0 1 637.344 696.312)" stroke="#159C2A" stroke-opacity="0.04" stroke-width="0.8"/>
<rect x="828.277" y="695.912" width="205.182" height="166.575" transform="rotate(180 828.277 695.912)" stroke="#159C2A" stroke-opacity="0.04" stroke-width="0.8"/>
<rect x="574.662" y="568.35" width="135.663" height="39.0125" transform="rotate(180 574.662 568.35)" stroke="#159C2A" stroke-opacity="0.04" stroke-width="0.8"/>
<rect x="0.4" y="-0.4" width="14.6487" height="49.575" transform="matrix(1 0 0 -1 622.695 465.575)" stroke="#159C2A" stroke-opacity="0.04" stroke-width="0.8"/>
<rect x="624.87" y="831.6" width="224.493" height="24.3875" transform="rotate(180 624.87 831.6)" stroke="#159C2A" stroke-opacity="0.04" stroke-width="0.8"/>
<rect x="-0.4" y="0.4" width="185.872" height="44.7" transform="matrix(-1 0 0 1 624.47 761.312)" stroke="#159C2A" stroke-opacity="0.04" stroke-width="0.8"/>
<rect x="0.4" y="-0.4" width="12.0739" height="69.8875" transform="matrix(1 0 0 -1 625.27 831.2)" stroke="#159C2A" stroke-opacity="0.04" stroke-width="0.8"/>
<rect x="291.436" y="760.912" width="28.81" height="188.512" transform="rotate(180 291.436 760.912)" stroke="#159C2A" stroke-opacity="0.04" stroke-width="0.8"/>
<rect x="-20.6" y="529.338" width="161.411" height="166.575" stroke="#159C2A" stroke-opacity="0.04" stroke-width="0.8"/>
<rect x="-0.4" y="0.4" width="28.81" height="166.575" transform="matrix(-1 0 0 1 170.021 528.938)" stroke="#159C2A" stroke-opacity="0.04" stroke-width="0.8"/>
<rect x="0.4" y="-0.4" width="161.411" height="64.2" transform="matrix(1 0 0 -1 -21 760.512)" stroke="#159C2A" stroke-opacity="0.04" stroke-width="0.8"/>
<rect x="-20.6" y="761.713" width="112.49" height="58.5125" stroke="#159C2A" stroke-opacity="0.04" stroke-width="0.8"/>
<rect x="0.4" y="-0.4" width="112.49" height="10.575" transform="matrix(1 0 0 -1 -21 831.2)" stroke="#159C2A" stroke-opacity="0.04" stroke-width="0.8"/>
<rect x="140.811" y="831.6" width="48.1208" height="69.8875" transform="rotate(180 140.811 831.6)" stroke="#159C2A" stroke-opacity="0.04" stroke-width="0.8"/>
<rect x="0.4" y="-0.4" width="133.089" height="69.8875" transform="matrix(1 0 0 -1 141.211 831.2)" stroke="#159C2A" stroke-opacity="0.04" stroke-width="0.8"/>
<rect x="291.436" y="831.6" width="15.9361" height="69.8875" transform="rotate(180 291.436 831.6)" stroke="#159C2A" stroke-opacity="0.04" stroke-width="0.8"/>
<rect x="637.256" y="416.4" width="112.49" height="49.575" stroke="#159C2A" stroke-opacity="0.04" stroke-width="0.8"/>
<rect x="-0.4" y="0.4" width="48.1208" height="49.575" transform="matrix(-1 0 0 1 798.267 416)" stroke="#159C2A" stroke-opacity="0.04" stroke-width="0.8"/>
<rect x="0.4" y="-0.4" width="279.851" height="61.7625" transform="matrix(1 0 0 -1 518.416 528.137)" stroke="#159C2A" stroke-opacity="0.04" stroke-width="0.8"/>
<rect x="933.843" y="528.537" width="134.376" height="61.7625" transform="rotate(180 933.843 528.537)" stroke="#159C2A" stroke-opacity="0.04" stroke-width="0.8"/>
<rect x="0.4" y="-0.4" width="14.6487" height="112.137" transform="matrix(1 0 0 -1 934.243 528.137)" stroke="#159C2A" stroke-opacity="0.04" stroke-width="0.8"/>
<rect x="-0.4" y="0.4" width="134.376" height="49.575" transform="matrix(-1 0 0 1 933.443 416)" stroke="#159C2A" stroke-opacity="0.04" stroke-width="0.8"/>
<rect x="950.092" y="416.4" width="107.341" height="49.575" stroke="#159C2A" stroke-opacity="0.04" stroke-width="0.8"/>
<rect x="950.092" y="466.775" width="107.341" height="61.7625" stroke="#159C2A" stroke-opacity="0.04" stroke-width="0.8"/>
<rect x="0.4" y="-0.4" width="107.341" height="231.575" transform="matrix(1 0 0 -1 949.692 760.512)" stroke="#159C2A" stroke-opacity="0.04" stroke-width="0.8"/>
<rect x="0.4" y="-0.4" width="120.215" height="42.2625" transform="matrix(1 0 0 -1 828.677 571.2)" stroke="#159C2A" stroke-opacity="0.04" stroke-width="0.8"/>
<rect x="829.077" y="572.4" width="90.6047" height="188.512" stroke="#159C2A" stroke-opacity="0.04" stroke-width="0.8"/>
<rect x="799.467" y="696.713" width="28.81" height="64.2" stroke="#159C2A" stroke-opacity="0.04" stroke-width="0.8"/>
<rect x="950.092" y="761.713" width="107.341" height="69.8875" stroke="#159C2A" stroke-opacity="0.04" stroke-width="0.8"/>
<rect x="-0.4" y="0.4" width="37.8217" height="44.7" transform="matrix(-1 0 0 1 1095.65 761.312)" stroke="#159C2A" stroke-opacity="0.04" stroke-width="0.8"/>
<rect x="-0.4" y="0.4" width="174.285" height="39.0125" transform="matrix(-1 0 0 1 1232.12 721.5)" stroke="#159C2A" stroke-opacity="0.04" stroke-width="0.8"/>
<rect x="1232.52" y="721.1" width="174.285" height="151.95" transform="rotate(180 1232.52 721.1)" stroke="#159C2A" stroke-opacity="0.04" stroke-width="0.8"/>
<rect x="-0.4" y="0.4" width="37.8217" height="101.575" transform="matrix(-1 0 0 1 1095.65 466.375)" stroke="#159C2A" stroke-opacity="0.04" stroke-width="0.8"/>
<rect x="1280.15" y="465.975" width="221.918" height="49.575" transform="rotate(180 1280.15 465.975)" stroke="#159C2A" stroke-opacity="0.04" stroke-width="0.8"/>
<rect x="-0.4" y="0.4" width="79.0182" height="61.7625" transform="matrix(-1 0 0 1 1175.47 466.375)" stroke="#159C2A" stroke-opacity="0.04" stroke-width="0.8"/>
<rect x="1176.67" y="466.775" width="118.927" height="61.7625" stroke="#159C2A" stroke-opacity="0.04" stroke-width="0.8"/>
<rect x="0.4" y="-0.4" width="46.8334" height="166.575" transform="matrix(1 0 0 -1 1232.92 695.512)" stroke="#159C2A" stroke-opacity="0.04" stroke-width="0.8"/>
<rect x="1233.32" y="696.713" width="46.8334" height="64.2" stroke="#159C2A" stroke-opacity="0.04" stroke-width="0.8"/>
<rect x="1232.52" y="568.35" width="135.663" height="39.0125" transform="rotate(180 1232.52 568.35)" stroke="#159C2A" stroke-opacity="0.04" stroke-width="0.8"/>
<rect x="1282.73" y="831.6" width="224.493" height="24.3875" transform="rotate(180 1282.73 831.6)" stroke="#159C2A" stroke-opacity="0.04" stroke-width="0.8"/>
<rect x="-0.4" y="0.4" width="185.872" height="44.7" transform="matrix(-1 0 0 1 1282.33 761.312)" stroke="#159C2A" stroke-opacity="0.04" stroke-width="0.8"/>
<rect x="949.292" y="760.912" width="28.81" height="188.512" transform="rotate(180 949.292 760.912)" stroke="#159C2A" stroke-opacity="0.04" stroke-width="0.8"/>
<rect x="0.4" y="-0.4" width="161.411" height="64.2" transform="matrix(1 0 0 -1 636.856 760.512)" stroke="#159C2A" stroke-opacity="0.04" stroke-width="0.8"/>
<rect x="637.256" y="761.713" width="112.49" height="58.5125" stroke="#159C2A" stroke-opacity="0.04" stroke-width="0.8"/>
<rect x="0.4" y="-0.4" width="112.49" height="10.575" transform="matrix(1 0 0 -1 636.856 831.2)" stroke="#159C2A" stroke-opacity="0.04" stroke-width="0.8"/>
<rect x="798.667" y="831.6" width="48.1208" height="69.8875" transform="rotate(180 798.667 831.6)" stroke="#159C2A" stroke-opacity="0.04" stroke-width="0.8"/>
<rect x="0.4" y="-0.4" width="133.089" height="69.8875" transform="matrix(1 0 0 -1 799.067 831.2)" stroke="#159C2A" stroke-opacity="0.04" stroke-width="0.8"/>
<rect x="949.292" y="831.6" width="15.9361" height="69.8875" transform="rotate(180 949.292 831.6)" stroke="#159C2A" stroke-opacity="0.04" stroke-width="0.8"/>
</svg>
