<svg width="114" height="113" viewBox="0 0 114 113" fill="none" xmlns="http://www.w3.org/2000/svg">
<g id="Group 68">
<circle id="Ellipse 1" cx="57" cy="56.5" r="56.5" fill="#179B38"/>
<path id="Vector" d="M41.7229 74.18C40.7862 72.7499 39.5123 71.5635 38.0135 70.7454C36.546 69.9429 34.8537 69.4839 33.0459 69.4839C30.1858 69.4839 27.5942 70.6423 25.7239 72.5127C24.2095 74.0301 23.1604 76.016 22.8169 78.2391H48.9198C49.3632 78.2391 49.7628 78.058 50.0501 77.7708C50.3374 77.4804 50.5185 77.0714 50.5185 76.6186C50.5185 76.1659 50.3374 75.7569 50.0501 75.4665C49.7629 75.1761 49.3632 74.9981 48.9198 74.9981H43.1153C42.5189 74.9981 41.9975 74.6703 41.7227 74.1832L41.7229 74.18ZM55.3986 50.1346C55.3986 49.251 56.1136 48.536 56.9972 48.536C57.8809 48.536 58.5959 49.251 58.5959 50.1346V50.2002C59.2172 50.4188 59.7762 50.7653 60.2383 51.1993C61.1 52.008 61.634 53.1352 61.634 54.3811C61.634 55.2647 60.919 55.9797 60.0353 55.9797C59.1517 55.9797 58.4367 55.2647 58.4367 54.3811C58.4367 54.0501 58.2899 53.7441 58.0526 53.5224C57.7903 53.2758 57.4157 53.1228 56.9941 53.1228C56.5726 53.1228 56.1979 53.2758 55.9357 53.5224C55.6984 53.7441 55.5516 54.0501 55.5516 54.3811C55.5516 55.349 56.6851 56.0328 57.8184 56.7197C59.7231 57.8719 61.6339 59.024 61.6339 61.7905C61.6339 63.0364 61.1 64.1636 60.2382 64.9722C59.7761 65.4094 59.2141 65.7528 58.5927 65.9745V66.0401C58.5927 66.9237 57.8777 67.6387 56.9941 67.6387C56.1104 67.6387 55.3954 66.9237 55.3954 66.0401V65.9745C54.7741 65.756 54.2151 65.4094 53.7531 64.9722C52.8913 64.1636 52.3573 63.0364 52.3573 61.7905C52.3573 60.9069 53.0724 60.1919 53.956 60.1919C54.8397 60.1919 55.5547 60.9069 55.5547 61.7905C55.5547 62.1215 55.7014 62.4275 55.9387 62.6492C56.201 62.8958 56.5757 63.0488 56.9972 63.0488C57.4187 63.0488 57.7934 62.8958 58.0557 62.6492C58.293 62.4275 58.4397 62.1215 58.4397 61.7905C58.4397 60.8226 57.3063 60.1388 56.1729 59.455C54.2651 58.3028 52.3574 57.1507 52.3574 54.3842C52.3574 53.1384 52.8913 52.0111 53.7531 51.2025C54.2183 50.7653 54.7772 50.4219 55.3986 50.2002V50.1346ZM62.911 40.7897L65.6181 35.4535C65.7773 35.135 65.8679 34.8197 65.8866 34.5137C65.9053 34.1983 65.8554 33.8705 65.7398 33.5427C65.6212 33.2179 65.4526 32.9432 65.2403 32.7184C65.0186 32.4842 64.7376 32.2875 64.4066 32.1407L64.1505 32.0252C64.0662 32.3812 63.9507 32.7371 63.8008 33.0868L62.2428 36.7806C61.9024 37.5893 60.9688 37.9702 60.157 37.6299C59.3483 37.2895 58.9674 36.3559 59.3077 35.5441L60.8658 31.8503C61.0843 31.332 61.1687 30.8043 61.1218 30.2954C61.075 29.7708 60.8689 29.2619 60.5785 28.8248C60.2694 28.3596 59.8791 27.9973 59.4295 27.757C58.9861 27.5197 58.4709 27.3948 57.9058 27.3948H56.0855C55.5203 27.3948 55.002 27.5197 54.5618 27.757C54.1153 27.9974 53.7219 28.3596 53.4128 28.8248C53.1099 29.2807 52.9257 29.7615 52.8695 30.2954C52.8227 30.8043 52.907 31.332 53.1255 31.8503L54.6836 35.5441C55.0239 36.3528 54.6461 37.2895 53.8343 37.6299C53.0256 37.9702 52.0889 37.5924 51.7485 36.7806L50.1905 33.0868C50.0437 32.7371 49.9282 32.3812 49.8439 32.0252L49.5941 32.1376C49.2569 32.2875 48.9759 32.4811 48.7542 32.7153C48.5418 32.9401 48.3732 33.218 48.2577 33.5427C48.1391 33.8706 48.0891 34.1984 48.1078 34.5137C48.1266 34.8229 48.2171 35.1382 48.3764 35.4536L51.0834 40.7929C52.9974 41.4486 54.9958 41.7796 56.9941 41.7796C58.9924 41.7796 60.9938 41.4486 62.9078 40.7866L62.911 40.7897ZM63.9351 28.4313L65.7086 29.2275C66.4299 29.5553 67.0513 29.9893 67.5602 30.5295C68.0691 31.0697 68.4626 31.7129 68.7311 32.456C68.9996 33.2085 69.112 33.9579 69.0683 34.701C69.0214 35.4535 68.8185 36.1873 68.4625 36.8929L65.9022 41.9418C68.2533 45.339 70.0612 48.8985 71.3226 52.6112C71.6005 53.4293 71.8503 54.2536 72.0751 55.0842C72.5622 54.0382 73.2273 53.0921 74.0328 52.2866C75.8 50.5193 78.248 49.4234 80.9488 49.4234C83.6497 49.4234 86.0945 50.5193 87.8649 52.2866C89.6321 54.0538 90.7281 56.5017 90.7281 59.2026C90.7281 61.9034 89.6321 64.3483 87.8649 66.1186C87.3903 66.5932 86.8657 67.021 86.3006 67.3894C87.8868 68.0732 89.3199 69.0536 90.5252 70.2588C92.9825 72.7161 94.5 76.1039 94.5 79.8379C94.5 80.7216 93.785 81.4366 92.9013 81.4366H65.0775C63.7599 81.4366 62.5578 80.8933 61.6866 80.0191C60.8218 79.1448 60.2816 77.9458 60.2816 76.6188C60.2816 76.2192 60.3315 75.832 60.4221 75.4636C59.2855 75.6228 58.1427 75.7008 57 75.7008C55.8572 75.7008 54.7144 75.6197 53.5779 75.4636C53.6685 75.8351 53.7184 76.2223 53.7184 76.6188C53.7184 77.9459 53.1783 79.1449 52.3134 80.0191C51.4454 80.8965 50.2433 81.4366 48.9225 81.4366H21.0987C20.215 81.4366 19.5 80.7216 19.5 79.8379C19.5 76.1036 21.0174 72.7158 23.4685 70.2644C24.6768 69.0561 26.11 68.0756 27.6993 67.3887C27.1342 67.0171 26.6096 66.5925 26.1351 66.1179C24.3678 64.3507 23.2719 61.9027 23.2719 59.2019C23.2719 56.501 24.3678 54.0562 26.1351 52.2858C27.9023 50.5186 30.3502 49.4226 33.0511 49.4226C35.7519 49.4226 38.1968 50.5186 39.9671 52.2858C40.7727 53.0914 41.4377 54.0375 41.9248 55.0804C42.1496 54.2498 42.3994 53.4255 42.6773 52.6074C43.9387 48.8918 45.7466 45.3354 48.0977 41.938L45.5374 36.886C45.1814 36.1803 44.9785 35.4466 44.9317 34.6941C44.8879 33.9541 45.0003 33.2016 45.2689 32.4553C45.5374 31.7091 45.9339 31.0658 46.4397 30.5257C46.9487 29.9824 47.5701 29.5483 48.2913 29.2236L50.0648 28.4243C50.2397 27.9528 50.4707 27.4938 50.7611 27.0567C51.3669 26.1419 52.1506 25.4268 53.0592 24.9398C53.974 24.4496 55.0013 24.1904 56.0942 24.1904H57.9145C59.0073 24.1904 60.0345 24.4496 60.9494 24.9398C61.858 25.4269 62.6418 26.145 63.2475 27.0567C63.5379 27.4939 63.7689 27.9497 63.9438 28.4243L63.9351 28.4313ZM73.5054 65.5473C73.4805 66.8649 73.1557 68.1045 72.5625 69.2004C73.1557 68.7321 73.7864 68.3136 74.4546 67.9484C74.8262 67.7454 75.2071 67.5581 75.6006 67.3895C75.0323 67.0179 74.5077 66.5932 74.03 66.1155C73.8458 65.9313 73.671 65.7439 73.5024 65.5441L73.5054 65.5473ZM41.4292 69.2004C40.836 68.1045 40.5113 66.8649 40.4894 65.5473C40.3208 65.744 40.1459 65.9344 39.9648 66.1155C39.4871 66.5933 38.9625 67.021 38.3943 67.3895C38.7846 67.5581 39.1686 67.7454 39.5402 67.9484C40.2053 68.3137 40.8391 68.7321 41.4324 69.2005L41.4292 69.2004ZM68.3034 53.6351C67.1637 50.2755 65.5401 47.0594 63.4419 43.9808C61.3468 44.6459 59.1737 44.98 57.0004 44.98C54.8272 44.98 52.6541 44.6459 50.559 43.9808C48.4576 47.0595 46.8371 50.2787 45.6975 53.6351C44.436 57.3476 43.7616 61.2287 43.6773 65.2749C43.6586 66.1742 43.8647 67.0172 44.2675 67.7385C44.6671 68.4566 45.2697 69.0717 46.0441 69.5276C49.4131 71.5103 53.2068 72.5033 57.0037 72.5033C60.8006 72.5033 64.5973 71.5103 67.9633 69.5276C68.7376 69.0717 69.3403 68.4567 69.7399 67.7385C70.1427 67.0172 70.3488 66.1773 70.3301 65.2749C70.2426 61.2283 69.5682 57.3472 68.3099 53.6351H68.3034ZM75.9814 70.7455C74.4857 71.5636 73.2086 72.7501 72.272 74.1802C71.9972 74.6673 71.4758 74.9951 70.8794 74.9951H65.0749C64.6315 74.9951 64.2319 75.1762 63.9446 75.4634C63.6573 75.7538 63.4762 76.1597 63.4762 76.6156C63.4762 77.0683 63.6573 77.4773 63.9446 77.7677C64.2319 78.0581 64.6315 78.2361 65.0749 78.2361H91.1778C90.8343 76.0161 89.7883 74.0272 88.2709 72.5096C86.4006 70.6394 83.809 69.4809 80.9489 69.4809C79.141 69.4809 77.4487 69.9399 75.9812 70.7423L75.9814 70.7455ZM80.949 52.62C79.1318 52.62 77.4863 53.3569 76.2936 54.5465C75.1039 55.7361 74.367 57.3848 74.367 59.202C74.367 61.0191 75.1039 62.6646 76.2936 63.8574C77.4832 65.047 79.1318 65.7839 80.949 65.7839C82.7662 65.7839 84.4117 65.0471 85.6045 63.8574C86.7941 62.6678 87.531 61.0191 87.531 59.202C87.531 57.3848 86.7941 55.7393 85.6045 54.5465C84.4148 53.3569 82.7662 52.62 80.949 52.62ZM37.7038 54.5465C36.5141 53.3569 34.8655 52.62 33.0483 52.62C31.2312 52.62 29.5857 53.3569 28.3929 54.5465C27.2033 55.7361 26.4664 57.3848 26.4664 59.202C26.4664 61.0191 27.2032 62.6646 28.3929 63.8574C29.5825 65.047 31.2312 65.7839 33.0483 65.7839C34.8655 65.7839 36.511 65.0471 37.7038 63.8574C38.8934 62.6678 39.6303 61.0191 39.6303 59.202C39.6303 57.3848 38.8934 55.7393 37.7038 54.5465Z" fill="white"/>
</g>
</svg>
