<svg width="75" height="73" viewBox="0 0 75 73" fill="none" xmlns="http://www.w3.org/2000/svg">
<g id="&#195;&#144;&#194;&#168;&#195;&#144;&#194;&#176;&#195;&#145;&#226;&#130;&#172;_1" clip-path="url(#clip0_1_821)">
<path id="Vector" d="M33.9285 9.37687C33.9285 8.90227 33.74 8.44711 33.4044 8.11152C33.0688 7.77593 32.6137 7.5874 32.1391 7.5874C31.6645 7.5874 31.2093 7.77593 30.8737 8.11152C30.5381 8.44711 30.3496 8.90227 30.3496 9.37687V12.4118C30.3496 12.8864 30.5381 13.3415 30.8737 13.6771C31.2093 14.0127 31.6645 14.2013 32.1391 14.2013C32.6137 14.2013 33.0688 14.0127 33.4044 13.6771C33.74 13.3415 33.9285 12.8864 33.9285 12.4118V9.37687Z" fill="#7ED321" fill-opacity="0.5"/>
<path id="Vector_2" d="M32.1391 50.105C31.6645 50.105 31.2093 50.2936 30.8737 50.6292C30.5381 50.9648 30.3496 51.4199 30.3496 51.8945V54.9724C30.3496 55.447 30.5381 55.9021 30.8737 56.2377C31.2093 56.5733 31.6645 56.7618 32.1391 56.7618C32.6137 56.7618 33.0688 56.5733 33.4044 56.2377C33.74 55.9021 33.9285 55.447 33.9285 54.9724V51.9231C33.9343 51.6852 33.8922 51.4486 33.8046 51.2273C33.7171 51.006 33.586 50.8045 33.419 50.6349C33.2521 50.4653 33.0528 50.331 32.8329 50.24C32.613 50.1489 32.377 50.1031 32.1391 50.105Z" fill="#7ED321" fill-opacity="0.5"/>
<path id="Vector_3" d="M51.9088 30.4495C51.4343 30.4495 50.9791 30.638 50.6435 30.9736C50.3079 31.3092 50.1194 31.7643 50.1194 32.2389C50.1194 32.7135 50.3079 33.1687 50.6435 33.5043C50.9791 33.8399 51.4343 34.0284 51.9088 34.0284H54.9438C55.4184 34.0284 55.8735 33.8399 56.2091 33.5043C56.5447 33.1687 56.7332 32.7135 56.7332 32.2389C56.7332 31.7643 56.5447 31.3092 56.2091 30.9736C55.8735 30.638 55.4184 30.4495 54.9438 30.4495H51.9088Z" fill="#7ED321" fill-opacity="0.5"/>
<path id="Vector_4" d="M9.34806 30.4495C8.87346 30.4495 8.41831 30.638 8.08272 30.9736C7.74713 31.3092 7.55859 31.7643 7.55859 32.2389C7.55859 32.7135 7.74713 33.1687 8.08272 33.5043C8.41831 33.8399 8.87346 34.0284 9.34806 34.0284H12.3973C12.8719 34.0284 13.3271 33.8399 13.6626 33.5043C13.9982 33.1687 14.1868 32.7135 14.1868 32.2389C14.1868 31.7643 13.9982 31.3092 13.6626 30.9736C13.3271 30.638 12.8719 30.4495 12.3973 30.4495H9.34806Z" fill="#7ED321" fill-opacity="0.5"/>
<path id="Vector_5" d="M33.9283 20.6719C33.9283 20.1973 33.7398 19.7422 33.4042 19.4066C33.0686 19.071 32.6134 18.8824 32.1388 18.8824C31.6642 18.8824 31.2091 19.071 30.8735 19.4066C30.5379 19.7422 30.3494 20.1973 30.3494 20.6719V30.4495H23.2631C22.7885 30.4495 22.3333 30.6381 21.9978 30.9737C21.6622 31.3092 21.4736 31.7644 21.4736 32.239C21.4736 32.7136 21.6622 33.1688 21.9978 33.5043C22.3333 33.8399 22.7885 34.0285 23.2631 34.0285H32.1388C32.6134 34.0285 33.0686 33.8399 33.4042 33.5043C33.7398 33.1688 33.9283 32.7136 33.9283 32.239V20.6719Z" fill="#159C2A"/>
<path id="Vector_6" d="M57.6923 70.6194C66.2391 70.6194 73.1676 63.6909 73.1676 55.1441C73.1676 46.5973 66.2391 39.6688 57.6923 39.6688C49.1456 39.6688 42.217 46.5973 42.217 55.1441C42.217 63.6909 49.1456 70.6194 57.6923 70.6194Z" fill="#7ED321" fill-opacity="0.5"/>
<path id="Vector_7" d="M59.181 46.9699V46.2111C59.181 45.8163 59.0242 45.4376 58.745 45.1584C58.4658 44.8791 58.0871 44.7223 57.6922 44.7223C57.2973 44.7223 56.9186 44.8791 56.6394 45.1584C56.3602 45.4376 56.2034 45.8163 56.2034 46.2111V46.9842C55.2859 47.1288 54.4305 47.5376 53.7416 48.1604C53.0526 48.7833 52.56 49.5933 52.3238 50.4915C52.0621 51.4386 52.1242 52.4459 52.5002 53.3537C52.8763 54.2614 53.5448 55.0175 54.3996 55.502C55.1297 55.9172 55.5878 56.1319 56.6615 56.6902L58.5655 57.5778C59.0688 57.8669 59.523 58.2342 59.9111 58.6658C60.0793 58.9478 60.1532 59.276 60.1223 59.6029C60.0915 59.9298 59.9573 60.2383 59.7393 60.4839C59.3327 60.9119 58.8075 61.2087 58.2311 61.3362C57.6546 61.4638 57.0532 61.4162 56.504 61.1997C56.0194 61.056 55.6051 60.7382 55.3408 60.3074C55.0765 59.8766 54.9809 59.3633 55.0724 58.8662C55.1123 58.4732 54.9944 58.0805 54.7447 57.7745C54.4951 57.4684 54.134 57.2741 53.7411 57.2342C53.3481 57.1944 52.9554 57.3122 52.6493 57.5619C52.3433 57.8116 52.1489 58.1726 52.1091 58.5656C51.9704 59.7253 52.2367 60.8974 52.8627 61.8835C53.4888 62.8695 54.4363 63.609 55.5448 63.9769C55.7596 64.0485 56.0029 64.0914 56.232 64.1487V64.8931C56.232 65.288 56.3889 65.6667 56.6681 65.9459C56.9473 66.2251 57.326 66.382 57.7208 66.382C58.1157 66.382 58.4944 66.2251 58.7736 65.9459C59.0528 65.6667 59.2097 65.288 59.2097 64.8931V64.1201C60.4463 63.8518 61.5357 63.1256 62.2589 62.0872C62.7966 61.347 63.098 60.4615 63.1236 59.5469C63.1491 58.6323 62.8976 57.7313 62.4021 56.9622C61.7366 56.075 60.874 55.3546 59.8825 54.8578L57.9499 53.9416C57.2513 53.6522 56.5681 53.3273 55.9027 52.9681C55.6334 52.8182 55.4196 52.5854 55.2933 52.3042C55.1669 52.0231 55.1346 51.7087 55.2013 51.4077C55.3444 50.8924 55.6737 49.6755 58.4796 49.9762C58.7477 49.9746 59.0133 50.0285 59.2596 50.1345C59.506 50.2404 59.7278 50.3961 59.9111 50.5917C60.1664 51.0645 60.2426 51.6134 60.1259 52.1378C60.0575 52.5175 60.1428 52.9088 60.363 53.2256C60.5831 53.5424 60.9201 53.7587 61.2998 53.8271C61.6794 53.8954 62.0707 53.8101 62.3875 53.59C62.7043 53.3698 62.9207 53.0329 62.989 52.6532C63.2188 51.3131 62.9157 49.9363 62.1444 48.8166C61.4307 47.843 60.3695 47.1816 59.181 46.9699Z" fill="#159C2A"/>
<path id="Vector_8" d="M57.6207 38.1371C54.1834 38.1371 50.8233 39.1564 47.9653 41.066C45.1073 42.9757 42.8798 45.69 41.5644 48.8656C40.249 52.0412 39.9048 55.5356 40.5754 58.9069C41.246 62.2781 42.9012 65.3748 45.3317 67.8054C47.7623 70.2359 50.859 71.8911 54.2302 72.5617C57.6015 73.2323 61.0958 72.8881 64.2715 71.5727C67.4471 70.2573 70.1614 68.0298 72.0711 65.1718C73.9807 62.3138 75 58.9537 75 55.5164C74.9924 50.9094 73.159 46.4933 69.9014 43.2357C66.6438 39.9781 62.2277 38.1447 57.6207 38.1371ZM57.6207 69.3024C54.8913 69.3024 52.2231 68.493 49.9537 66.9766C47.6842 65.4602 45.9154 63.3049 44.8709 60.7832C43.8264 58.2615 43.5531 55.4867 44.0856 52.8097C44.618 50.1327 45.9324 47.6737 47.8624 45.7437C49.7924 43.8137 52.2514 42.4994 54.9284 41.9669C57.6054 41.4344 60.3802 41.7077 62.9019 42.7522C65.4236 43.7967 67.5789 45.5655 69.0953 47.835C70.6117 50.1044 71.4211 52.7726 71.4211 55.502C71.4211 59.1621 69.9671 62.6723 67.379 65.2604C64.791 67.8484 61.2808 69.3024 57.6207 69.3024Z" fill="#159C2A"/>
<path id="Vector_9" d="M32.1384 60.8275C26.4756 60.8275 20.94 59.1483 16.2316 56.0022C11.5232 52.8561 7.85343 48.3845 5.68639 43.1528C3.51935 37.9211 2.95235 32.1643 4.0571 26.6103C5.16185 21.0564 7.88872 15.9548 11.8929 11.9506C15.8971 7.94641 20.9987 5.21953 26.5527 4.11478C32.1066 3.01003 37.8634 3.57703 43.0951 5.74407C48.3268 7.91112 52.7985 11.5809 55.9445 16.2893C59.0906 20.9977 60.7698 26.5333 60.7698 32.1961C60.7674 33.2775 60.7004 34.3579 60.5694 35.4314C61.7847 35.601 62.9824 35.8789 64.1483 36.2617C64.9714 29.7693 63.7974 23.1802 60.7825 17.3716C57.7677 11.5631 53.055 6.81067 47.2719 3.74715C41.4889 0.683623 34.9098 -0.545665 28.4108 0.22295C21.9117 0.991565 15.8009 3.72161 10.892 8.04962C5.98311 12.3776 2.50902 18.0982 0.932266 24.4498C-0.64449 30.8014 -0.2491 37.4826 2.0658 43.6039C4.38069 49.7252 8.50526 54.9961 13.8904 58.7149C19.2755 62.4338 25.6656 64.424 32.2099 64.4207C34.5057 64.409 36.7941 64.1595 39.0385 63.6763C38.5365 62.5754 38.1387 61.4299 37.8503 60.2548C35.9706 60.6386 34.0568 60.8305 32.1384 60.8275Z" fill="#159C2A"/>
</g>
<defs>
<clipPath id="clip0_1_821">
<rect width="75" height="72.8956" fill="white"/>
</clipPath>
</defs>
</svg>
