<svg width="76" height="76" viewBox="0 0 76 76" fill="none" xmlns="http://www.w3.org/2000/svg">
<g id="Group 69">
<path id="Vector" fill-rule="evenodd" clip-rule="evenodd" d="M62.8052 13.9483C49.5776 0.0367778 27.4376 -0.302194 13.8019 13.3344C7.60988 19.5273 3.77873 28.0818 3.77873 37.5321H0.5C0.5 9.70048 29.7567 -8.28299 54.4914 3.85257C58.3149 5.72844 61.7712 8.23445 64.7246 11.2348V5.51669H68.0033V15.5877C68.0033 16.4927 67.269 17.227 66.364 17.227H56.2938V13.9483H62.8052ZM7.99667 69.5475H11.2754V63.8293C14.2288 66.8297 17.686 69.3366 21.5095 71.2116C46.2442 83.3472 75.5 65.3637 75.5 37.5321H72.2213C72.2213 46.9823 68.391 55.5378 62.1981 61.7306C48.5615 75.3664 26.4224 75.0274 13.1948 61.1159H19.7062V57.8371H9.63518C8.73011 57.8371 7.99582 58.5714 7.99582 59.4765L7.99667 69.5475Z" fill="#159C2A"/>
<circle id="Ellipse 2" cx="37.6417" cy="38.8495" r="19.2113" fill="#BFE990"/>
<path id="Vector_2" d="M39.4748 27.4192V26.5219C39.4748 26.055 39.293 25.6071 38.9694 25.2769C38.6459 24.9467 38.207 24.7612 37.7495 24.7612C37.2919 24.7612 36.853 24.9467 36.5295 25.2769C36.2059 25.6071 36.0241 26.055 36.0241 26.5219V27.4362C34.961 27.6072 33.9697 28.0906 33.1713 28.8272C32.3729 29.5638 31.8021 30.5217 31.5284 31.584C31.2251 32.704 31.297 33.8953 31.7328 34.9688C32.1686 36.0423 32.9433 36.9365 33.9339 37.5095C34.7799 38.0005 35.3108 38.2544 36.555 38.9147L38.7614 39.9643C39.3447 40.3063 39.871 40.7406 40.3208 41.251C40.5156 41.5845 40.6014 41.9727 40.5656 42.3593C40.5298 42.7458 40.3743 43.1107 40.1217 43.4011C39.6505 43.9073 39.0419 44.2583 38.3739 44.4091C37.7059 44.5599 37.009 44.5037 36.3725 44.2476C35.811 44.0778 35.3308 43.7019 35.0246 43.1924C34.7183 42.683 34.6075 42.0759 34.7136 41.488C34.7598 41.0233 34.6232 40.5589 34.3338 40.1969C34.0445 39.835 33.6261 39.6052 33.1708 39.558C32.7154 39.5109 32.2603 39.6503 31.9056 39.9455C31.551 40.2408 31.3258 40.6678 31.2796 41.1325C31.1189 42.5041 31.4274 43.8901 32.1529 45.0563C32.8784 46.2224 33.9764 47.097 35.261 47.532C35.5099 47.6167 35.7919 47.6675 36.0573 47.7352V48.6156C36.0573 49.0825 36.2391 49.5304 36.5627 49.8606C36.8862 50.1908 37.3251 50.3763 37.7826 50.3763C38.2402 50.3763 38.679 50.1908 39.0026 49.8606C39.3262 49.5304 39.5079 49.0825 39.5079 48.6156V47.7013C40.941 47.3841 42.2034 46.5252 43.0415 45.2973C43.6646 44.4218 44.0139 43.3746 44.0435 42.293C44.0731 41.2114 43.7817 40.1459 43.2074 39.2363C42.4362 38.1871 41.4367 37.3352 40.2876 36.7476L38.0481 35.6641C37.2386 35.3219 36.4468 34.9376 35.6758 34.5129C35.3637 34.3356 35.116 34.0602 34.9695 33.7277C34.823 33.3953 34.7856 33.0234 34.8629 32.6675C35.0288 32.058 35.4103 30.619 38.6619 30.9745C38.9726 30.9727 39.2804 31.0365 39.5658 31.1617C39.8513 31.287 40.1083 31.4711 40.3208 31.7025C40.6166 32.2616 40.7049 32.9108 40.5697 33.5309C40.4905 33.9799 40.5893 34.4427 40.8444 34.8173C41.0995 35.192 41.49 35.4479 41.93 35.5287C42.37 35.6095 42.8234 35.5086 43.1905 35.2483C43.5576 34.9879 43.8084 34.5894 43.8876 34.1404C44.1538 32.5556 43.8026 30.9274 42.9088 29.6032C42.0818 28.4518 40.852 27.6697 39.4748 27.4192Z" fill="#159C2A"/>
</g>
</svg>
