<svg xmlns="http://www.w3.org/2000/svg" width="271" height="253" fill="none"><mask id="a" fill="#fff"><path fill-rule="evenodd" d="M192.095 8.562a49.922 49.922 0 0 1 28.323-7.74c13.434.433 26.207 6.226 35.517 16.107a52.02 52.02 0 0 1 14.142 36.601c-.2 10.113-3.368 19.906-9.103 28.141a49.975 49.975 0 0 1-23.114 18.124 50.129 50.129 0 0 1-29.335 1.999c-9.79-2.28-18.723-7.43-25.668-14.801a51.987 51.987 0 0 1-13.349-26.612c-1.759-9.98-.552-20.229 3.469-29.453 4.02-9.223 10.673-17.007 19.118-22.366Zm43.621 69.204a11.54 11.54 0 0 0 3.535-8.109l.261-9.33a11.803 11.803 0 0 0-3.209-8.318 11.598 11.598 0 0 0-8.073-3.656l-17.498-.545a3.866 3.866 0 0 1-2.691-1.218 3.937 3.937 0 0 1-1.07-2.773l.184-9.255c.02-1.026.444-1.999 1.178-2.703a3.778 3.778 0 0 1 2.736-1.05l27.821.867.153-7.744-15.234-.475.141-7.124-7.675-.24-.139 7.048-4.912-.153a11.338 11.338 0 0 0-8.208 3.15 11.544 11.544 0 0 0-3.535 8.108l-.184 9.332a11.803 11.803 0 0 0 3.209 8.319 11.596 11.596 0 0 0 8.073 3.656l17.498.544a3.866 3.866 0 0 1 2.691 1.219 3.937 3.937 0 0 1 1.07 2.773l-.184 9.254c-.02 1.027-.444 2-1.178 2.703a3.778 3.778 0 0 1-2.736 1.05l-27.821-.866-.153 7.744 15.234.474-.143 7.202 7.675.24.141-7.126 4.835.151a11.337 11.337 0 0 0 8.208-3.149Zm-6.178 175.153L.994 245.805l.57-28.827 14.642.456 3.998-201.786 142.84 4.446-1.721 86.84 56.779 1.768-2.277 114.946 14.284.444-.571 28.827Zm-26.134-123.763-28.568-.889-.571 28.827 28.568.889.571-28.827Zm-.864 43.6-28.568-.889-.571 28.827 28.568.889.571-28.827ZM58.7 218.757l21.427.667 1.142-57.654-21.426-.666-1.142 57.653Zm35.71 1.111 21.427.667 1.142-57.653-21.426-.667-1.142 57.653Zm53.707-185.816-28.568-.89-.571 28.827 28.568.89.571-28.827Zm-.856 43.24-28.568-.89-.572 28.827 28.568.889.572-28.826Zm-.857 43.239-28.568-.889-.571 28.827 28.568.889.571-28.827Zm-41.139-87.813-28.568-.89-.57 28.827 28.567.89.571-28.827Zm-.856 43.24-28.568-.89-.572 28.827 28.568.889.572-28.826Zm-.857 43.24-28.568-.89-.571 28.827 28.568.889.571-28.826ZM62.413 31.384l-28.568-.89-.57 28.827 28.567.89.571-28.827Zm-.856 43.24-28.568-.89-.572 28.827 28.568.889.572-28.826Zm-.857 43.24-28.568-.89-.571 28.827 28.568.889.57-28.826Z" clip-rule="evenodd"/></mask><path fill="#159C2A" d="m220.418.822.096-2.999h-.003l-.093 2.999Zm-28.323 7.74 1.607 2.533-1.607-2.533Zm63.84 8.367-2.184 2.058 2.184-2.058Zm14.142 36.601 2.999.06v-.004l-2.999-.056ZM237.86 99.795l-1.075-2.8 1.075 2.8Zm-29.335 1.999-.68 2.922.68-2.922Zm-25.668-14.801 2.184-2.058-2.184 2.058ZM169.508 60.38l-2.955.52 2.955-.52Zm3.469-29.453-2.75-1.198 2.75 1.198Zm66.274 38.729-2.999-.084v.012l-.001.013 3 .059Zm-3.535 8.11 2.076 2.165-2.076-2.166Zm3.796-17.44 2.999.085v-.013l.001-.012-3-.06Zm-3.209-8.318 2.184-2.057-2.184 2.057Zm-8.073-3.656-.093 2.998.093-2.998Zm-17.498-.545-.093 2.999.093-2.999Zm-2.691-1.218-2.184 2.057 2.184-2.057Zm-1.07-2.773 3 .06-3-.06Zm.184-9.255 2.999.06-2.999-.06Zm3.914-3.752.093-2.999-.093 2.999Zm27.821.866-.094 2.998 3.033.095.06-3.034-2.999-.06Zm.153-7.744 3 .059.058-2.966-2.964-.092-.094 2.998Zm-15.234-.475-3-.06-.058 2.967 2.964.092.094-2.999Zm.141-7.124 2.999.06.059-2.967-2.965-.092-.093 2.999Zm-7.675-.24.094-2.998-3.033-.094-.06 3.033 2.999.06Zm-.139 7.048-.094 2.999 3.033.094.06-3.034-2.999-.059Zm-4.912-.153-.094 2.999.094-2.999Zm-8.208 3.15 2.076 2.165-2.076-2.166Zm-3.535 8.108-2.999-.06 2.999.06Zm-.184 9.332 2.999.06-2.999-.06Zm3.209 8.319 2.183-2.057-2.183 2.057Zm8.073 3.656.093-2.999-.093 2.998Zm17.498.544.093-2.998-.093 2.998Zm2.691 1.219 2.183-2.057-2.183 2.057Zm1.07 2.773 2.999.06-2.999-.06Zm-.184 9.254-2.999-.06 2.999.06Zm-3.914 3.753.093-2.999-.093 2.999Zm-27.821-.866.094-2.999-3.033-.094-.06 3.033 2.999.06Zm-.153 7.744-3-.06-.058 2.966 2.964.093.094-2.999Zm15.234.474 3 .06.058-2.966-2.965-.092-.093 2.998Zm-.143 7.202-2.999-.06-.059 2.966 2.965.093.093-2.999Zm7.675.24-.093 2.998 3.032.094.061-3.033-3-.06Zm.141-7.126.094-2.998-3.033-.094-.06 3.033 2.999.06Zm4.835.151.094-2.999-.094 2.999ZM.994 245.805l-3-.06-.059 2.966 2.965.092.094-2.998Zm228.544 7.114-.094 2.998 3.033.095.06-3.034-2.999-.059ZM1.565 216.978l.093-2.998-3.033-.095-.06 3.034 3 .059Zm14.64.456-.092 2.998 3.032.095.06-3.034-3-.059Zm3.999-201.786.093-2.999-3.032-.094-.06 3.033 2.999.06Zm142.84 4.446 2.999.06.059-2.966-2.965-.092-.093 2.998Zm-1.721 86.84-2.999-.059-.059 2.965 2.965.093.093-2.999Zm56.779 1.768 3 .059.058-2.966-2.964-.092-.094 2.999Zm-2.277 114.946-3-.06-.058 2.966 2.964.092.094-2.998Zm14.284.444 2.999.06.059-2.966-2.965-.092-.093 2.998Zm-55.273-95.825.094-2.999-3.033-.094-.06 3.034 2.999.059Zm28.568.889 3 .06.058-2.966-2.964-.092-.094 2.998Zm-29.139 27.938-2.999-.06-.059 2.966 2.965.092.093-2.998Zm28.568.889-.093 2.998 3.032.095.06-3.034-2.999-.059Zm-28.861 13.884.094-2.998-3.033-.095-.06 3.034 2.999.059Zm28.568.889 3 .06.058-2.966-2.964-.092-.094 2.998Zm-29.139 27.938-2.999-.06-.059 2.966 2.965.092.093-2.998Zm28.568.889-.093 2.999 3.032.094.061-3.034-3-.059ZM80.127 219.424l-.094 2.998 3.033.095.06-3.034-3-.059Zm-21.426-.667-3-.06-.059 2.966 2.965.092.094-2.998Zm22.568-56.987 3 .06.058-2.966-2.965-.092-.093 2.998Zm-21.426-.666.093-2.999-3.032-.094-.06 3.033 2.999.06Zm55.994 59.431-.094 2.999 3.033.094.06-3.033-2.999-.06Zm-21.426-.667-3-.059-.058 2.966 2.964.092.094-2.999Zm22.568-56.986 2.999.059.059-2.965-2.965-.093-.093 2.999Zm-21.426-.667.093-2.998-3.032-.095-.06 3.034 3 .059ZM119.55 33.162l.094-2.998-3.033-.095-.06 3.034 2.999.06Zm28.568.89 3 .06.059-2.967-2.965-.092-.094 2.999Zm-29.139 27.937-2.999-.06-.059 2.966 2.965.093.093-2.999Zm28.568.89-.093 2.998 3.032.094.061-3.033-3-.06Zm-28.853 13.523.093-2.998-3.033-.095-.06 3.034 3 .06Zm28.568.89 2.999.059.059-2.966-2.965-.092-.093 2.998Zm-29.14 27.937-2.999-.06-.059 2.966 2.965.092.093-2.998Zm28.568.889-.093 2.999 3.033.094.06-3.033-3-.06Zm-28.853 13.524.093-2.998-3.032-.095-.061 3.034 3 .059Zm28.568.889 2.999.06.059-2.966-2.965-.092-.093 2.998Zm-29.139 27.938-3-.06-.059 2.966 2.965.092.094-2.998Zm28.568.889-.094 2.999 3.033.094.06-3.034-2.999-.059ZM76.697 31.828l.094-2.998-3.033-.095-.06 3.034 3 .06Zm28.568.89 3 .06.058-2.966-2.964-.093-.094 2.999ZM76.126 60.655l-3-.06-.058 2.966 2.965.093.093-2.999Zm28.568.89-.093 2.998 3.032.094.061-3.033-3-.06ZM75.841 75.067l.093-2.998-3.033-.095-.06 3.034 3 .06Zm28.568.89 2.999.06.059-2.967-2.965-.092-.093 2.999Zm-29.14 27.937-2.999-.059-.059 2.965 2.965.093.093-2.999Zm28.568.889-.093 2.999 3.033.094.06-3.033-3-.06Zm-28.853 13.524.093-2.998-3.032-.095-.06 3.034 2.999.059Zm28.568.89 2.999.059.059-2.966-2.965-.092-.093 2.999Zm-29.14 27.937-2.999-.06-.058 2.966 2.964.092.094-2.998Zm28.569.889-.094 2.999 3.033.094.06-3.033-2.999-.06ZM33.845 30.494l.094-2.998-3.033-.094-.06 3.033 3 .06Zm28.568.89 3 .06.059-2.966-2.965-.093-.094 2.999ZM33.274 59.32l-3-.06-.058 2.966 2.965.093.093-2.999Zm28.568.89-.093 2.998 3.032.094.06-3.033-2.999-.06ZM32.99 73.733l.093-2.998-3.033-.095-.06 3.034 3 .06Zm28.568.89 2.999.06.059-2.966-2.965-.093-.093 2.999Zm-29.14 27.937-2.999-.059-.059 2.965 2.965.093.093-2.999Zm28.568.889-.093 2.999 3.033.094.06-3.033-3-.06Zm-28.853 13.524.093-2.998-3.033-.095-.06 3.034 3 .059Zm28.568.89 3 .059.058-2.966-2.965-.092-.093 2.999Zm-29.14 27.937-2.999-.059-.059 2.965 2.965.093.094-2.999Zm28.569.889-.094 2.999 3.033.094.06-3.033-3-.06ZM220.51-2.177a52.925 52.925 0 0 0-30.024 8.206l3.215 5.066a46.925 46.925 0 0 1 26.622-7.275l.187-5.997Zm37.607 17.05c-9.847-10.453-23.368-16.59-37.604-17.05l-.193 5.997c12.632.408 24.658 5.856 33.43 15.167l4.367-4.115Zm14.958 38.713a55.013 55.013 0 0 0-14.958-38.714l-4.367 4.115a49.011 49.011 0 0 1 13.326 34.487l5.999.112Zm-9.64 29.8c6.076-8.726 9.428-19.096 9.64-29.796l-5.998-.12c-.189 9.526-3.173 18.742-8.566 26.487l4.924 3.429Zm-24.501 19.21a52.976 52.976 0 0 0 24.501-19.21l-4.924-3.43a46.975 46.975 0 0 1-21.727 17.038l2.15 5.602Zm-31.09 2.12a53.128 53.128 0 0 0 31.09-2.12l-2.15-5.602a47.127 47.127 0 0 1-27.58 1.878l-1.36 5.844ZM180.674 89.05c7.347 7.798 16.801 13.252 27.171 15.666l1.36-5.844c-9.21-2.144-17.621-6.992-24.164-13.937l-4.367 4.115Zm-14.121-28.148a54.99 54.99 0 0 0 14.121 28.148l4.367-4.115a48.989 48.989 0 0 1-12.579-25.075l-5.909 1.042Zm3.674-31.172c-4.258 9.768-5.534 20.616-3.674 31.172l5.909-1.042c-1.657-9.403-.518-19.054 3.265-27.733l-5.5-2.397Zm20.26-23.7c-8.953 5.681-16.002 13.93-20.26 23.7l5.5 2.397c3.783-8.678 10.04-15.996 17.975-21.032l-3.215-5.066Zm45.764 63.568a8.538 8.538 0 0 1-2.611 6.002l4.152 4.332a14.54 14.54 0 0 0 4.458-10.216l-5.999-.118Zm.263-9.355-.262 9.33 5.997.168.262-9.33-5.997-.168Zm-2.394-6.177a8.806 8.806 0 0 1 2.393 6.202l5.999.12a14.808 14.808 0 0 0-4.025-10.436l-4.367 4.114Zm-5.983-2.715a8.603 8.603 0 0 1 5.983 2.715l4.367-4.114a14.599 14.599 0 0 0-10.163-4.598l-.187 5.998Zm-17.498-.544 17.498.544.187-5.997-17.499-.544-.186 5.997Zm-4.782-2.16a6.868 6.868 0 0 0 4.782 2.16l.186-5.997a.864.864 0 0 1-.6-.278l-4.368 4.115Zm-1.885-4.89a6.934 6.934 0 0 0 1.885 4.89l4.368-4.114a.931.931 0 0 1-.254-.657l-5.999-.119Zm.183-9.254-.183 9.254 5.999.12.183-9.255-5.999-.119Zm2.102-4.81a6.846 6.846 0 0 0-2.102 4.81l5.999.119a.85.85 0 0 1 .255-.597l-4.152-4.331Zm4.905-1.882a6.777 6.777 0 0 0-4.905 1.883l4.152 4.33a.778.778 0 0 1 .566-.216l.187-5.997Zm27.821.866-27.821-.866-.187 5.997 27.821.866.187-5.997Zm-2.939-4.805-.154 7.744 5.999.12.154-7.745-5.999-.119Zm-12.329 2.584 15.235.474.187-5.997-15.235-.474-.187 5.997Zm-2.764-10.183-.142 7.125 5.999.119.141-7.125-5.998-.119Zm-4.769 2.82 7.675.238.186-5.997-7.674-.239-.187 5.997Zm2.953 4.107.14-7.047-5.999-.119-.14 7.048 5.999.118Zm-8.005 2.787 4.912.153.187-5.998-4.912-.152-.187 5.997Zm-6.038 2.316a8.339 8.339 0 0 1 6.038-2.316l.187-5.997a14.336 14.336 0 0 0-10.377 3.982l4.152 4.33Zm-2.611 6.003a8.538 8.538 0 0 1 2.611-6.003l-4.152-4.332a14.54 14.54 0 0 0-4.458 10.216l5.999.119Zm-.185 9.331.185-9.331-5.999-.12-.185 9.332 5.999.12Zm2.393 6.203a8.806 8.806 0 0 1-2.393-6.203l-5.999-.119a14.808 14.808 0 0 0 4.025 10.436l4.367-4.114Zm5.983 2.714a8.599 8.599 0 0 1-5.983-2.714l-4.367 4.114a14.599 14.599 0 0 0 10.163 4.597l.187-5.997Zm17.498.545-17.498-.545-.187 5.997 17.499.545.186-5.997Zm4.781 2.16a6.863 6.863 0 0 0-4.781-2.16l-.186 5.997c.215.006.434.1.6.277l4.367-4.114Zm1.886 4.89a6.934 6.934 0 0 0-1.886-4.89l-4.367 4.114a.932.932 0 0 1 .254.656l5.999.12Zm-.183 9.254.183-9.255-5.999-.119-.183 9.255 5.999.118Zm-2.102 4.809a6.846 6.846 0 0 0 2.102-4.81l-5.999-.118a.85.85 0 0 1-.255.597l4.152 4.33Zm-4.905 1.882a6.779 6.779 0 0 0 4.905-1.882L228.4 69.88a.78.78 0 0 1-.567.216l-.186 5.997Zm-27.821-.866 27.821.866.186-5.997-27.82-.866-.187 5.997Zm2.939 4.805.154-7.744-5.999-.119-.154 7.745 5.999.118Zm12.328-2.583-15.234-.475-.187 5.998 15.235.474.186-5.997Zm2.764 10.26.143-7.202-5.999-.12-.143 7.203 5.999.119Zm4.768-2.82-7.674-.238-.187 5.997 7.675.239.186-5.997Zm-2.951-4.185-.141 7.125 5.999.119.141-7.125-5.999-.119Zm7.928-2.788-4.835-.151-.187 5.997 4.835.15.187-5.996Zm6.038-2.317a8.337 8.337 0 0 1-6.038 2.317l-.187 5.997a14.337 14.337 0 0 0 10.377-3.982L233.64 75.6ZM.9 248.803l228.544 7.114.187-5.997-228.544-7.114-.187 5.997Zm-2.335-31.884-.57 28.826 5.998.119.571-28.826-5.999-.119Zm17.734-2.484-14.641-.455-.187 5.997 14.642.455.186-5.997Zm.906-198.847-3.999 201.787 6 .118 3.997-201.786-5.998-.119Zm145.932 1.508-142.84-4.447-.186 5.997 142.84 4.447.186-5.997Zm1.186 89.898 1.72-86.84-5.998-.12-1.721 86.841 5.999.119Zm53.873-1.291-56.779-1.767-.187 5.997 56.779 1.767.187-5.997Zm.628 118.004 2.278-114.946-5.999-.119-2.278 114.946 5.999.119Zm11.378-2.613-14.284-.445-.187 5.997 14.284.445.187-5.997Zm2.335 31.884.571-28.826-5.999-.119-.571 28.826 5.999.119Zm-57.794-121.712 28.568.889.187-5.997-28.568-.89-.187 5.998Zm2.521 25.887.572-28.827-5.999-.118-.571 28.826 5.998.119Zm25.662-2.169-28.568-.889-.186 5.997 28.568.889.186-5.997Zm-2.521-25.887-.571 28.826 5.998.119.572-28.826-5.999-.119Zm-26.526 45.769 28.568.889.187-5.997-28.568-.889-.187 5.997Zm2.522 25.887.571-28.826-5.999-.119-.571 28.826 5.999.119Zm25.661-2.168-28.568-.89-.186 5.997 28.568.89.186-5.997Zm-2.521-25.888-.571 28.827 5.999.118.571-28.826-5.999-.119ZM80.22 216.425l-21.426-.667-.187 5.997 21.426.667.187-5.997Zm-1.95-54.714-1.143 57.653 6 .119 1.142-57.653-6-.119Zm-18.52 2.391 21.426.667.186-5.997-21.426-.667-.186 5.997Zm1.95 54.714 1.142-57.653-5.998-.119-1.143 57.653 6 .119Zm54.23-1.279-21.426-.667-.187 5.997 21.426.667.187-5.997Zm-1.95-54.714-1.143 57.653 5.999.119 1.142-57.654-5.998-.118Zm-18.52 2.391 21.426.667.186-5.998-21.426-.666-.186 5.997Zm1.95 54.714 1.142-57.653-5.998-.119-1.143 57.653 6 .119Zm22.046-183.767 28.568.89.187-5.998-28.568-.89-.187 5.998Zm2.522 25.887.571-28.826-5.999-.12-.571 28.828 5.999.118Zm25.662-2.168-28.569-.89-.186 5.997 28.568.89.187-5.997Zm-2.522-25.888-.571 28.827 5.999.119.571-28.827-5.999-.119Zm-26.519 45.409 28.568.89.187-5.998-28.568-.89-.187 5.998Zm2.522 25.887.571-28.826-5.999-.12-.571 28.827 5.999.119Zm25.662-2.168-28.568-.89-.187 5.997 28.568.89.187-5.997Zm-2.522-25.888-.571 28.827 5.999.119.571-28.827-5.999-.119Zm-26.519 45.409 28.568.889.187-5.997-28.568-.889-.187 5.997Zm2.522 25.887.571-28.826-5.999-.119-.571 28.826 5.999.119Zm25.662-2.169-28.568-.889-.187 5.997 28.568.89.187-5.998Zm-2.522-25.887-.571 28.827 5.999.118.571-28.826-5.999-.119Zm-66.8-85.645 28.568.89.187-5.998-28.568-.89-.187 5.998Zm2.522 25.888.57-28.827-5.998-.119-.571 28.827 5.999.119Zm25.661-2.17-28.568-.889-.186 5.998 28.568.889.186-5.997Zm-2.521-25.887-.571 28.827 5.999.119.571-28.827-5.999-.119ZM75.747 78.067l28.568.89.187-5.998-28.568-.89-.187 5.998Zm2.522 25.887.571-28.826-5.999-.12-.571 28.828 5.999.118Zm25.662-2.168-28.568-.89-.187 5.998 28.568.889.187-5.997Zm-2.522-25.888-.571 28.827 5.999.119.571-28.827-5.999-.119ZM74.89 121.307l28.568.889.187-5.997-28.568-.889-.186 5.997Zm2.522 25.887.571-28.826-5.999-.119-.57 28.826 5.998.119Zm25.662-2.168-28.568-.89-.187 5.997 28.568.89.187-5.997Zm-2.522-25.888-.57 28.827 5.998.119.571-28.827-5.999-.119Zm-66.8-85.645 28.568.89.187-5.998-28.568-.889-.187 5.997Zm2.521 25.888.572-28.827-6-.119-.57 28.827 5.998.119Zm25.662-2.17-28.568-.888-.186 5.997 28.568.889.186-5.997Zm-2.521-25.887-.571 28.827 5.999.119.57-28.827-5.998-.119ZM32.895 76.733l28.568.89.187-5.998-28.568-.89-.187 5.998Zm2.522 25.888.571-28.827-5.999-.119-.571 28.827 5.999.119Zm25.662-2.169-28.568-.89-.187 5.998 28.568.889.187-5.997Zm-2.522-25.888-.571 28.827 5.999.119.571-28.827-5.999-.119Zm-26.519 45.409 28.569.889.186-5.997-28.568-.889-.187 5.997Zm2.522 25.887.571-28.826-5.999-.119-.57 28.827 5.998.118Zm25.662-2.168-28.568-.89-.187 5.998 28.568.889.187-5.997ZM57.7 117.804l-.57 28.827 5.998.119.571-28.827-5.999-.119Z" mask="url(#a)"/></svg>