<svg width="66" height="66" viewBox="0 0 66 66" fill="none" xmlns="http://www.w3.org/2000/svg">
<path d="M13.6641 50.4023C21.253 50.4023 27.1992 46.1557 27.1992 40.7344V38.8008H22.8577L16.9819 18.237C19.1211 17.8544 20.8561 17.4319 22.437 17.0422C25.1091 16.3853 27.5453 15.8302 31.0664 15.6684V55.2972L15.0086 66H50.9877L34.9336 55.2973V15.6684C38.4548 15.8301 40.8909 16.3853 43.563 17.0422C45.1439 17.4319 46.8789 17.8544 49.0181 18.237L43.1423 38.8008H38.8008V40.7344C38.8008 46.1557 44.747 50.4023 52.3359 50.4023C59.9249 50.4023 66 46.1557 66 40.7344V38.8008H61.5295L55.8983 19.0936C58.6513 19.3169 61.9994 19.4648 66 19.4648V15.5977C54.4022 15.5977 49.4393 12.027 45.1736 8.87726C42.1895 6.67219 39.3481 4.44997 34.9336 3.97121V0H31.0664V3.97121C26.6519 4.44984 23.8105 6.67219 20.8264 8.87726C16.5607 12.027 11.5978 15.5977 0 15.5977V19.4648C3.99957 19.4648 7.34753 19.3171 10.1002 19.0939L4.47047 38.8008H0V40.7344C0 46.1557 6.07509 50.4023 13.6641 50.4023V50.4023ZM57.5062 38.8008H47.1655L52.3356 20.7066L57.5062 38.8008ZM13.6634 20.7038L18.8344 38.8008H8.4935L13.6634 20.7038Z" fill="#159C2A"/>
</svg>
