<svg width="96" height="45" viewBox="0 0 96 45" fill="none" xmlns="http://www.w3.org/2000/svg">
<path d="M25.2791 8.29492H34.9847V10.069H31.1632L31.1632 20.0701H29.0686L29.0686 10.069H25.2631L25.2791 8.29492ZM34.5689 11.5449H36.3597L36.3597 13.1934H36.3917C36.4557 12.9579 36.5676 12.7381 36.7275 12.5183C36.8874 12.2985 37.0793 12.0944 37.3191 11.9217C37.543 11.7333 37.7988 11.592 38.0866 11.4821C38.3584 11.3722 38.6462 11.3094 38.934 11.3094C39.1579 11.3094 39.3178 11.3251 39.3977 11.3251C39.4777 11.3408 39.5736 11.3565 39.6536 11.3565V13.162C39.5256 13.1306 39.3817 13.1149 39.2378 13.0992C39.0939 13.0835 38.966 13.0678 38.8221 13.0678C38.5023 13.0678 38.1985 13.1306 37.9107 13.2562C37.6229 13.3818 37.3831 13.5702 37.1592 13.8057C36.9514 14.0569 36.7755 14.3552 36.6476 14.7163C36.5196 15.0774 36.4557 15.5013 36.4557 15.9723V20.023H34.537L34.5689 11.5449ZM46.5609 20.0701V18.8768H46.529C46.2891 19.3165 45.9374 19.6462 45.4737 19.9131C45.01 20.18 44.5303 20.3056 44.0506 20.3056C42.9154 20.3056 42.0839 20.0387 41.5723 19.4735C41.0606 18.9239 40.8048 18.0761 40.8048 16.9614V11.5449L42.7235 11.5449V16.773C42.7235 17.5266 42.8674 18.0604 43.1712 18.3587C43.459 18.6727 43.8747 18.8297 44.4024 18.8297C44.8021 18.8297 45.1379 18.7669 45.4097 18.6413C45.6815 18.5157 45.9054 18.3587 46.0653 18.1546C46.2412 17.9505 46.3531 17.6993 46.433 17.4167C46.513 17.1341 46.545 16.8201 46.545 16.4904V11.5449H48.4637V20.0701L46.5609 20.0701ZM51.7095 17.3382C51.7735 17.8877 51.9813 18.2645 52.3491 18.5C52.7169 18.7198 53.1646 18.8297 53.6762 18.8297C53.8521 18.8297 54.06 18.814 54.2838 18.7826C54.5077 18.7512 54.7315 18.7041 54.9234 18.6256C55.1312 18.5471 55.2911 18.4372 55.419 18.2802C55.547 18.1232 55.6109 17.9348 55.5949 17.6993C55.5789 17.4638 55.499 17.2597 55.3231 17.1027C55.1472 16.9457 54.9394 16.8358 54.6835 16.7259C54.4277 16.6317 54.1239 16.5532 53.7881 16.4904C53.4524 16.4276 53.1166 16.3491 52.7648 16.2706C52.4131 16.1921 52.0613 16.0979 51.7255 15.988C51.3897 15.8781 51.1019 15.7368 50.8301 15.5327C50.5743 15.3443 50.3504 15.1088 50.2065 14.8105C50.0466 14.5122 49.9667 14.1668 49.9667 13.7272C49.9667 13.2562 50.0786 12.8794 50.3184 12.5654C50.5423 12.2514 50.8461 12.0002 51.1979 11.8118C51.5496 11.6234 51.9494 11.4821 52.3811 11.4036C52.8128 11.3251 53.2285 11.2937 53.6123 11.2937C54.06 11.2937 54.4917 11.3408 54.8914 11.435C55.2911 11.5292 55.6749 11.6705 55.9947 11.8903C56.3304 12.0944 56.6023 12.377 56.8101 12.7067C57.034 13.0364 57.1619 13.4446 57.2258 13.9156H55.2272C55.1312 13.4603 54.9234 13.162 54.6036 13.005C54.2678 12.848 53.9001 12.7695 53.4683 12.7695C53.3404 12.7695 53.1645 12.7852 52.9887 12.8009C52.7968 12.8323 52.6369 12.8637 52.461 12.9265C52.3011 12.9893 52.1572 13.0835 52.0453 13.1934C51.9334 13.3033 51.8694 13.4603 51.8694 13.6487C51.8694 13.8842 51.9494 14.0569 52.1092 14.1982C52.2691 14.3395 52.477 14.4494 52.7488 14.5593C53.0047 14.6535 53.3085 14.732 53.6442 14.7948C53.98 14.8576 54.3318 14.9361 54.6835 15.0146C55.0353 15.0931 55.3711 15.1873 55.7069 15.2972C56.0426 15.4071 56.3464 15.5484 56.6023 15.7525C56.8581 15.9409 57.0819 16.1764 57.2418 16.459C57.4017 16.7416 57.4817 17.1027 57.4817 17.5109C57.4817 18.0133 57.3697 18.4372 57.1299 18.7983C56.8901 19.1437 56.5863 19.4421 56.2185 19.6619C55.8508 19.8817 55.419 20.0387 54.9713 20.1486C54.5077 20.2428 54.06 20.3056 53.6123 20.3056C53.0686 20.3056 52.557 20.2428 52.0933 20.1172C51.6296 19.9916 51.2138 19.8032 50.8781 19.5677C50.5423 19.3165 50.2705 19.0181 50.0786 18.6413C49.8867 18.2802 49.7748 17.8406 49.7588 17.3225H51.6935V17.3382H51.7095ZM58.0253 11.5449H59.4803V8.97002H61.3991V11.5292H63.1259V12.9265H61.3991V17.4795C61.3991 17.6836 61.4151 17.8406 61.431 17.9976C61.447 18.1389 61.495 18.2645 61.543 18.3587C61.6069 18.4529 61.7029 18.5314 61.8148 18.5785C61.9427 18.6256 62.1026 18.657 62.3264 18.657C62.4544 18.657 62.5983 18.657 62.7262 18.6413C62.8541 18.6256 62.998 18.6099 63.1259 18.5785V20.0387C62.918 20.0701 62.7102 20.0858 62.5023 20.1015C62.2945 20.1329 62.1026 20.1329 61.8787 20.1329C61.3671 20.1329 60.9674 20.0858 60.6636 19.9916C60.3598 19.8974 60.1199 19.7561 59.944 19.5834C59.7681 19.395 59.6562 19.1751 59.5923 18.9082C59.5283 18.6413 59.4963 18.3116 59.4803 17.9662V12.9422H58.0253V11.5135V11.5449ZM64.469 11.5449H66.2758V12.7067H66.3078C66.5796 12.2043 66.9474 11.8589 67.427 11.6391C67.9067 11.4193 68.4184 11.3094 68.994 11.3094C69.6815 11.3094 70.2731 11.4193 70.7848 11.6705C71.2965 11.906 71.7122 12.22 72.048 12.6439C72.3837 13.0521 72.6396 13.5388 72.7995 14.0883C72.9594 14.6378 73.0553 15.2344 73.0553 15.8467C73.0553 16.4276 72.9753 16.9771 72.8314 17.5109C72.6716 18.0447 72.4477 18.5314 72.1439 18.9396C71.8401 19.3478 71.4564 19.6776 70.9767 19.9288C70.497 20.18 69.9534 20.3056 69.3138 20.3056C69.042 20.3056 68.7542 20.2742 68.4823 20.2271C68.2105 20.18 67.9387 20.1015 67.6829 19.9916C67.427 19.8817 67.1872 19.7404 66.9793 19.5677C66.7555 19.395 66.5796 19.1908 66.4357 18.971H66.4037V23.2258H64.485L64.485 11.5449H64.469ZM71.1686 15.8153C71.1686 15.4385 71.1206 15.0617 71.0087 14.7006C70.9127 14.3395 70.7528 14.0255 70.545 13.7429C70.3371 13.4603 70.0813 13.2405 69.7935 13.0678C69.4897 12.8951 69.1379 12.8166 68.7542 12.8166C67.9547 12.8166 67.3471 13.0835 66.9314 13.633C66.5316 14.1825 66.3238 14.9204 66.3238 15.831C66.3238 16.2706 66.3717 16.6631 66.4837 17.0242C66.5956 17.3853 66.7395 17.6993 66.9634 17.9662C67.1712 18.2331 67.427 18.4372 67.7309 18.5942C68.0346 18.7512 68.3704 18.8297 68.7701 18.8297C69.2178 18.8297 69.5696 18.7355 69.8734 18.5628C70.1772 18.3901 70.4171 18.1546 70.6249 17.8877C70.8168 17.6051 70.9607 17.2911 71.0406 16.93C71.1206 16.5532 71.1686 16.1921 71.1686 15.8153ZM74.5423 8.29492H76.461V10.069H74.5423V8.29492ZM74.5423 11.5449H76.461V20.0701H74.5423V11.5449ZM78.1719 8.29492H80.0906V20.0701H78.1719V8.29492ZM85.9427 20.3056C85.2552 20.3056 84.6316 20.1957 84.0879 19.9602C83.5443 19.7247 83.0966 19.4263 82.7129 19.0338C82.3451 18.6413 82.0573 18.1546 81.8654 17.6051C81.6735 17.0556 81.5616 16.4433 81.5616 15.7996C81.5616 15.1559 81.6576 14.5593 81.8654 14.0098C82.0573 13.4603 82.3451 12.9893 82.7129 12.5811C83.0806 12.1886 83.5443 11.8746 84.0879 11.6548C84.6316 11.435 85.2552 11.3094 85.9427 11.3094C86.6302 11.3094 87.2538 11.4193 87.7975 11.6548C88.3411 11.8746 88.7888 12.1886 89.1726 12.5811C89.5403 12.9736 89.8281 13.4603 90.02 14.0098C90.2119 14.5593 90.3238 15.1559 90.3238 15.7996C90.3238 16.459 90.2278 17.0556 90.02 17.6051C89.8121 18.1546 89.5403 18.6256 89.1726 19.0338C88.8048 19.4263 88.3411 19.7404 87.7975 19.9602C87.2538 20.18 86.6462 20.3056 85.9427 20.3056ZM85.9427 18.814C86.3584 18.814 86.7422 18.7198 87.046 18.5471C87.3658 18.3744 87.6056 18.1389 87.8135 17.8563C88.0213 17.5737 88.1652 17.244 88.2612 16.8986C88.3571 16.5375 88.4051 16.1764 88.4051 15.7996C88.4051 15.4385 88.3571 15.0774 88.2612 14.7163C88.1652 14.3552 88.0213 14.0412 87.8135 13.7586C87.6056 13.476 87.3498 13.2562 87.046 13.0835C86.7262 12.9108 86.3584 12.8166 85.9427 12.8166C85.527 12.8166 85.1432 12.9108 84.8394 13.0835C84.5197 13.2562 84.2798 13.4917 84.072 13.7586C83.8641 14.0412 83.7202 14.3552 83.6242 14.7163C83.5283 15.0774 83.4803 15.4385 83.4803 15.7996C83.4803 16.1764 83.5283 16.5375 83.6242 16.8986C83.7202 17.2597 83.8641 17.5737 84.072 17.8563C84.2798 18.1389 84.5356 18.3744 84.8394 18.5471C85.1592 18.7355 85.527 18.814 85.9427 18.814ZM90.8994 11.5449H92.3544V8.97002H94.2732V11.5292H96V12.9265H94.2732V17.4795C94.2732 17.6836 94.2892 17.8406 94.3051 17.9976C94.3211 18.1389 94.3691 18.2645 94.4171 18.3587C94.481 18.4529 94.577 18.5314 94.6889 18.5785C94.8168 18.6256 94.9767 18.657 95.2005 18.657C95.3284 18.657 95.4724 18.657 95.6003 18.6413C95.7282 18.6256 95.8721 18.6099 96 18.5785V20.0387C95.7921 20.0701 95.5843 20.0858 95.3764 20.1015C95.1686 20.1329 94.9767 20.1329 94.7528 20.1329C94.2412 20.1329 93.8414 20.0858 93.5376 19.9916C93.2338 19.8974 92.994 19.7561 92.8181 19.5834C92.6422 19.3949 92.5303 19.1751 92.4664 18.9082C92.4024 18.6413 92.3704 18.3116 92.3544 17.9662V12.9422H90.8994V11.5135V11.5449Z" fill="#042F05" fill-opacity="0.69"/>
<path d="M14.1804 8.24149L22.9474 8.24149L15.902 13.2932L15.8948 13.2718L11.6637 16.3603L16.4419 15.1109L18.5559 21.5668L11.4657 16.4672L4.37549 21.5668L7.09021 13.3253L0 8.22571L8.76695 8.24149L11.4817 0L14.1804 8.24149Z" fill="#042F05" fill-opacity="0.69"/>
<path fill-rule="evenodd" clip-rule="evenodd" d="M22.2392 28.6175H5.60759V45H22.2392V28.6175ZM20.5381 35.4166H15.4838L13.9279 30.6652L12.3628 35.4166L7.30846 35.4075L11.3961 38.3475L9.83103 43.0989L13.9187 40.1589L18.0064 43.0989L16.7827 39.3621L13.984 40.1102L16.5328 38.2571L16.5414 38.2823L20.5381 35.4166Z" fill="#042F05" fill-opacity="0.69"/>
<path fill-rule="evenodd" clip-rule="evenodd" d="M39.6269 28.6175H22.9953V45H39.6269V28.6175ZM37.9258 35.4166H32.8715L31.3156 30.6652L29.7505 35.4166L24.6962 35.4075L28.7838 38.3475L27.2187 43.0989L31.3064 40.1589L35.3941 43.0989L34.1704 39.3621L31.3718 40.1102L33.9206 38.2571L33.9291 38.2823L37.9258 35.4166Z" fill="#042F05" fill-opacity="0.69"/>
<path fill-rule="evenodd" clip-rule="evenodd" d="M57.0144 28.6175H40.3828V45H57.0144V28.6175ZM55.3134 35.4166H50.259L48.7032 30.6652L47.1381 35.4166L42.0837 35.4075L46.1714 38.3475L44.6063 43.0989L48.6939 40.1589L52.7816 43.0989L51.558 39.3621L48.7593 40.1102L51.3082 38.2571L51.3167 38.2823L55.3134 35.4166Z" fill="#042F05" fill-opacity="0.69"/>
<path fill-rule="evenodd" clip-rule="evenodd" d="M74.4019 28.6175H57.7704V45H74.4019V28.6175ZM72.701 35.4166H67.6467L66.0908 30.6652L64.5257 35.4166L59.4713 35.4075L63.559 38.3475L61.9939 43.0989L66.0816 40.1589L70.1692 43.0989L68.9456 39.3621L66.1469 40.1102L68.6957 38.2571L68.7043 38.2823L72.701 35.4166Z" fill="#042F05" fill-opacity="0.69"/>
<path fill-rule="evenodd" clip-rule="evenodd" d="M91.7894 28.6175H75.1578V45H91.7894V28.6175ZM90.0884 35.4166H85.0341L83.4782 30.6652L81.9131 35.4166L76.8587 35.4075L80.9464 38.3475L79.3813 43.0989L83.469 40.1589L87.5566 43.0989L86.333 39.3621L83.5344 40.1102L86.0832 38.2571L86.0917 38.2823L90.0884 35.4166Z" fill="#042F05" fill-opacity="0.69"/>
</svg>
