<svg xmlns="http://www.w3.org/2000/svg" width="275" height="210" fill="none"><path stroke="#159C2A" stroke-width="4" d="m52.27 20.72 1.951.437.437-1.952a21.108 21.108 0 0 1 9.4-13.263 21.55 21.55 0 0 1 16.158-2.755l175.341 39.28a21.553 21.553 0 0 1 13.439 9.386 21.106 21.106 0 0 1 2.842 16.005l-23.685 105.727a21.109 21.109 0 0 1-9.399 13.263 21.55 21.55 0 0 1-16.159 2.755l-1.951-.437-.438 1.952a21.104 21.104 0 0 1-9.398 13.262 21.55 21.55 0 0 1-16.159 2.756L19.308 167.855a21.548 21.548 0 0 1-13.439-9.386 21.107 21.107 0 0 1-2.842-16.005L26.712 36.737a21.107 21.107 0 0 1 9.4-13.262 21.55 21.55 0 0 1 16.158-2.756Zm26.723 148.743 1.684-3.516c-9.875-7.864-17.336-18.306-21.539-30.137a66.477 66.477 0 0 1-2.241-36.794 66.477 66.477 0 0 1 17.725-32.321c8.848-8.907 20.051-15.168 32.337-18.068l-.022-3.898-57.177-12.81a9.85 9.85 0 0 0-7.386 1.263 9.703 9.703 0 0 0-4.318 6.096L14.371 145.006a9.703 9.703 0 0 0 1.304 7.356 9.847 9.847 0 0 0 6.142 4.292l57.176 12.809Zm46.104-12.275.004.001a19.977 19.977 0 0 0 14.955-2.578 19.643 19.643 0 0 0 8.724-12.329l.002-.012 2.587-11.903v-.002a19.636 19.636 0 0 0-2.651-14.847 19.98 19.98 0 0 0-12.414-8.694l-.004-.001-22.542-5.049a.273.273 0 0 1-.159-.116.235.235 0 0 1-.036-.166l2.659-11.868a.235.235 0 0 1 .104-.146.276.276 0 0 1 .195-.038l36.035 8.073 1.952.437.437-1.951 3.384-15.104.437-1.952-1.952-.437-15.049-3.372 1.001-4.467.437-1.952-1.951-.437-15.247-3.416-1.952-.437-.437 1.952-1.001 4.467-1.86-.416-.004-.001a19.978 19.978 0 0 0-14.956 2.578 19.637 19.637 0 0 0-8.723 12.329l-2.665 11.894v.004a19.639 19.639 0 0 0 2.65 14.848 19.971 19.971 0 0 0 12.415 8.694l.004.001 22.565 5.056c.032.007.061.02.087.038a.205.205 0 0 1 .09.212l-2.665 11.894-.004.017-.003.018a.18.18 0 0 1-.03.068l1.647 1.135-1.647-1.135a.194.194 0 0 1-.058.056l1.077 1.685-1.077-1.685a.213.213 0 0 1-.084.032.234.234 0 0 1-.095-.002h-.001l-35.868-8.035-1.952-.438-.437 1.952-3.384 15.104-.437 1.951 1.952.438 14.934 3.345-1.001 4.468-.437 1.952 1.952.437 15.247 3.415 1.952.438.437-1.952 1.001-4.468 1.86.417Zm13.795 21.801.023 3.898 58.243 13.048a9.848 9.848 0 0 0 7.387-1.262 9.704 9.704 0 0 0 4.318-6.097l23.685-105.727a9.701 9.701 0 0 0-1.304-7.356 9.851 9.851 0 0 0-6.142-4.292l-58.244-13.048-1.683 3.516c9.874 7.864 17.335 18.306 21.538 30.137a66.47 66.47 0 0 1 2.242 36.794 66.481 66.481 0 0 1-17.725 32.321c-8.849 8.907-20.052 15.168-32.338 18.068Z"/></svg>