<svg xmlns="http://www.w3.org/2000/svg" width="302" height="352" fill="none"><path stroke="#159C2A" stroke-width="3" d="m256.487 144.896-.835 1.908 2.075.187 17.901 1.609a26.244 26.244 0 0 1 17.788 9.309 26.204 26.204 0 0 1 5.992 19.149l-13.364 148.627a26.204 26.204 0 0 1-9.312 17.773 26.244 26.244 0 0 1-19.164 5.986L25.97 328.619a26.242 26.242 0 0 1-17.788-9.308 26.204 26.204 0 0 1-5.993-19.149l13.364-148.628a26.2 26.2 0 0 1 9.313-17.772 26.238 26.238 0 0 1 19.163-5.986l17.901 1.609 2.074.187-.48-2.027a101.98 101.98 0 0 1 .192-47.847A102.012 102.012 0 0 1 85.711 37.2a102.111 102.111 0 0 1 38.962-27.807 102.189 102.189 0 0 1 92.723 8.338 102.11 102.11 0 0 1 33.377 34.311 102.015 102.015 0 0 1 14.06 45.74 101.977 101.977 0 0 1-8.346 47.114ZM121.496 66.558v.003l-1.652 18.366v.003a27.284 27.284 0 0 0 6.245 19.884 27.32 27.32 0 0 0 18.463 9.687h.003l34.527 3.104a2.93 2.93 0 0 1 1.985 1.039c.498.595.738 1.363.668 2.135l-1.594 17.729-.134 1.494 1.494.135 21.248 1.91 1.494.135.134-1.494 1.594-17.73v-.003a27.282 27.282 0 0 0-6.244-19.883 27.323 27.323 0 0 0-18.464-9.687h-.003l-34.527-3.105h-.009l-.009-.001a2.876 2.876 0 0 1-2.526-2.023 2.868 2.868 0 0 1-.111-1.131l.001-.01.001-.008 1.651-18.367.001-.009.001-.009a2.862 2.862 0 0 1 2.023-2.522c.367-.112.752-.15 1.134-.111h.009l.009.002 54.978 4.943 1.494.135.134-1.494 1.91-21.233.134-1.494-1.494-.134-25.597-2.302.849-9.44.134-1.495-1.494-.134-21.247-1.91-1.494-.135-.134 1.494-.849 9.441-5.146-.463h-.003a27.325 27.325 0 0 0-19.896 6.237 27.284 27.284 0 0 0-9.691 18.451Zm156.497 127.204 1.494.134.134-1.494 1.528-16.986a7.895 7.895 0 0 0-7.162-8.571L42.388 146.02a7.905 7.905 0 0 0-5.77 1.803 7.891 7.891 0 0 0-2.805 5.353l-1.527 16.986-.135 1.494 1.494.135 244.348 21.971Zm-249.33 33.43-1.493-.134-.135 1.494-6.586 73.252a7.892 7.892 0 0 0 1.805 5.768 7.905 7.905 0 0 0 5.356 2.803L259.209 331.2a7.904 7.904 0 0 0 5.77-1.803 7.889 7.889 0 0 0 2.805-5.353l6.587-73.253.134-1.494-1.494-.134-244.347-21.971Z"/></svg>