<svg width="65" height="65" viewBox="0 0 65 65" fill="none" xmlns="http://www.w3.org/2000/svg">
<path fill-rule="evenodd" clip-rule="evenodd" d="M47.1009 38.999C46.5206 38.4188 45.2508 38.9137 43.873 39.896L41.0816 37.1047C48.1336 28.0904 47.5168 15.0269 39.2188 6.72879C30.2468 -2.24297 15.7006 -2.24297 6.72882 6.72905C-2.24294 15.7007 -2.24294 30.2469 6.72882 39.2185C15.0271 47.5168 28.0906 48.1337 37.1048 41.0817L39.896 43.8729C38.9136 45.2508 38.419 46.5207 38.999 47.1009L41.0017 49.1034L49.1036 41.0016L47.1009 38.999ZM35.2942 35.2942C28.4899 42.0985 17.458 42.0985 10.6534 35.2942C3.84897 28.4898 3.84897 17.4575 10.6534 10.6534C17.4577 3.84893 28.4898 3.84893 35.2942 10.6534C42.0987 17.4577 42.0987 28.4899 35.2942 35.2942ZM29.5374 23.1723C28.4337 22.2335 26.7061 21.4845 24.3543 20.9328H24.2618V15.1654C25.8371 15.3902 27.2979 15.9845 28.6485 16.9456L30.6433 14.1219C28.6385 12.7537 26.5113 11.9847 24.2618 11.8224V10.2568H22.2995V11.7896C20.3145 11.892 18.7043 12.5064 17.4659 13.6323C16.2277 14.7558 15.6109 16.2039 15.6109 17.9716C15.6109 19.7417 16.1477 21.0774 17.2212 21.9763C18.2948 22.8777 19.9875 23.6017 22.2995 24.1534V30.1055C20.4769 29.821 18.7092 28.9298 16.9914 27.4368L14.752 30.1055C16.9791 32.0506 19.4957 33.1641 22.2995 33.4512V35.6907H24.2618V33.4811C26.349 33.3788 28.0243 32.7647 29.2927 31.641C30.5611 30.5151 31.1951 29.0595 31.1951 27.2693C31.1951 25.4793 30.6433 24.1135 29.5374 23.1723ZM19.3531 17.6045C19.3531 16.9205 19.613 16.3462 20.1348 15.887C20.6566 15.4276 21.3783 15.1553 22.2993 15.073V20.3809C21.1533 20.014 20.3744 19.6295 19.9674 19.23C19.5579 18.8305 19.3531 18.2912 19.3531 17.6045ZM26.5935 29.3392C26.0195 29.8109 25.2429 30.0955 24.2617 30.1979V24.6753C25.4876 25.0449 26.3264 25.4392 26.7784 25.8562C27.2276 26.2757 27.4525 26.8448 27.4525 27.5588C27.4526 28.2754 27.1654 28.8697 26.5935 29.3392ZM55.9262 47.8241L64.7514 56.6497C65.3016 57.1996 64.888 58.3695 64.0061 59.6642C62.066 62.511 57.8596 65.9612 56.6497 64.7513L47.8244 55.9261L43.0983 51.2001L49.3201 44.9783L51.2004 43.0983L55.9262 47.8241Z" fill="#159C2A"/>
</svg>
