<svg width="35" height="35" viewBox="0 0 35 35" fill="none" xmlns="http://www.w3.org/2000/svg">
<path d="M33.9775 28.161C33.8726 27.3681 33.4148 26.6843 32.7216 26.2853L24.5804 21.5979C23.5833 21.0238 22.3183 21.1909 21.5044 22.0047L19.9009 23.6083C19.4742 24.0351 18.7991 24.0728 18.3309 23.696C17.0667 22.6788 15.822 21.5593 14.6314 20.3686C13.4407 19.178 12.3213 17.9334 11.304 16.6692C10.9272 16.2009 10.9649 15.5259 11.3917 15.0991L12.9952 13.4955C13.809 12.6818 13.9764 11.417 13.4021 10.4197L8.71469 2.27845C8.31556 1.58525 7.63191 1.12754 6.83893 1.02263C6.04587 0.917499 5.26664 1.18199 4.70102 1.74761L2.28479 4.16391C0.598392 5.85036 0.571308 8.93519 2.20852 12.8503C3.78281 16.6148 6.72069 20.7589 10.4808 24.5191C14.2411 28.2794 18.3853 31.2172 22.1498 32.7915C24.077 33.5974 25.8028 34.0001 27.2599 34C28.7629 34 29.9799 33.5714 30.8362 32.7152L33.2525 30.2989C33.818 29.7332 34.0823 28.954 33.9775 28.161ZM24.047 22.5244L32.1882 27.2118C32.5908 27.4435 32.8567 27.8407 32.9176 28.3012C32.9687 28.6877 32.8683 29.0683 32.6407 29.375L21.821 23.2001L22.2604 22.7607C22.7331 22.2881 23.4679 22.1909 24.047 22.5244ZM6.69866 2.08252C7.1593 2.14346 7.55636 2.40931 7.78814 2.81193L12.4756 10.9531C12.8091 11.5324 12.7119 12.2671 12.2393 12.7396L11.8357 13.1432L5.62678 2.35942C5.88059 2.17147 6.18414 2.06941 6.50059 2.06941C6.56624 2.06941 6.63245 2.07376 6.69866 2.08252ZM30.0802 31.9592C28.7404 33.299 26.0002 33.2428 22.5623 31.8051C18.9231 30.2833 14.9011 27.4272 11.2369 23.7632C7.57276 20.099 4.7167 16.0769 3.19487 12.4378C1.75708 8.99984 1.70099 6.25968 3.04078 4.91983L4.83451 3.12603L11.0527 13.9261L10.6357 14.3432C9.82214 15.1568 9.75129 16.4449 10.471 17.3395C11.5122 18.6335 12.6577 19.907 13.8753 21.1246C15.0931 22.3423 16.3666 23.4878 17.6605 24.529C18.555 25.2487 19.8431 25.1779 20.6569 24.3642L21.0373 23.9837L31.872 30.1673L30.0802 31.9592Z" fill="#159C2A" stroke="#159C2A" stroke-width="0.5"/>
</svg>
