<svg width="71" height="65" viewBox="0 0 71 65" fill="none" xmlns="http://www.w3.org/2000/svg">
<path d="M57.3628 31.2415H49.1072V26.1659H57.3628V17.6045H62.7442V26.1659H70.9998V31.2415H62.7442V39.9252H57.3628V31.2415Z" fill="#159C2A"/>
<path d="M25.3909 32.6536C32.8127 32.6536 38.8326 25.3438 38.8326 16.3269C38.8328 7.30981 36.8543 0 25.3909 0C13.9253 0 11.9482 7.30981 11.9482 16.3269C11.9484 25.3438 17.968 32.6536 25.3909 32.6536Z" fill="#159C2A"/>
<path d="M0.00257962 55.6744C0.000474512 55.1243 -0.00198145 55.519 0.00257962 55.6744V55.6744Z" fill="#159C2A"/>
<path d="M50.7767 56.1042C50.7836 55.9535 50.7792 55.0594 50.7767 56.1042V56.1042Z" fill="#159C2A"/>
<path d="M50.7501 55.0144C50.4989 39.3068 48.4498 34.8312 32.7495 31.998L25.3913 44.4026L18.0289 31.998C2.50403 34.8003 0.325942 39.2094 0.0398229 54.5045C0.0178946 55.7531 0.00754411 55.8193 0.00280762 55.6742C0.00386017 55.9456 0.00526357 56.4484 0.00526357 57.3237C0.00526357 57.3237 3.74306 64.8588 25.3913 64.8588C47.0381 64.8588 50.7766 57.3237 50.7766 57.3237C50.7766 56.7611 50.777 56.3692 50.7773 56.104C50.7735 56.1935 50.7656 56.0194 50.7501 55.0144Z" fill="#159C2A"/>
</svg>
