<svg xmlns="http://www.w3.org/2000/svg" width="268" height="289" fill="none"><mask id="a" fill="#fff"><path fill-rule="evenodd" d="M84.797 15.211C99.316 5.813 116.385.797 133.846.797c23.415 0 45.872 9.011 62.429 25.051 16.557 16.04 25.858 37.795 25.858 60.48 0 16.916-5.178 33.452-14.879 47.518-9.701 14.065-23.489 25.028-39.622 31.501-16.132 6.474-33.884 8.168-51.01 4.867-17.126-3.3-32.857-11.446-45.204-23.407-12.347-11.962-20.756-27.202-24.162-43.793-3.407-16.592-1.658-33.79 5.024-49.418S70.278 24.61 84.797 15.211Zm79.728 113.564c4.147-4.009 6.482-9.448 6.495-15.123v-15.17c-.006-2.83-.59-5.63-1.719-8.239a21.408 21.408 0 0 0-4.858-6.964 22.198 22.198 0 0 0-7.249-4.618 22.746 22.746 0 0 0-8.525-1.562h-29.367c-.928 0-1.82-.354-2.481-.986a3.368 3.368 0 0 1-1.05-2.39V58.778c0-.448.091-.89.269-1.303.178-.413.439-.787.768-1.1a3.49 3.49 0 0 1 1.146-.73 3.59 3.59 0 0 1 1.348-.244h46.606V37.395H143.14v-9.003h-18.587v8.778h-5.251c-5.858 0-11.477 2.251-15.623 6.26-4.147 4.009-6.483 9.447-6.495 15.123v15.17c.012 5.675 2.348 11.114 6.495 15.122 4.146 4.01 9.765 6.26 15.623 6.26h29.367c.929 0 1.82.355 2.481.987a3.37 3.37 0 0 1 1.051 2.39v15.17c0 .447-.092.89-.27 1.303a3.395 3.395 0 0 1-.767 1.101 3.506 3.506 0 0 1-1.147.728c-.428.167-.886.25-1.348.244h-46.885v18.007h22.769v8.778h18.587v-8.778h5.762c5.858 0 11.476-2.252 15.623-6.26Zm61.652 28.093c4.607-3.421 10.274-5.229 16.078-5.132 6.845.235 13.314 3.093 17.984 7.947 4.67 4.854 7.16 11.306 6.922 17.938a23.405 23.405 0 0 1-2.881 10.713 33.36 33.36 0 0 1-3.625 4.907 4.77 4.77 0 0 1-.65.72l-74.626 71.126a9.347 9.347 0 0 1-3.143 1.963 9.564 9.564 0 0 1-3.687.603l-100.23-3.286-25.324 24.534-13.103-12.74 28.158-27.28a9.04 9.04 0 0 1 3.145-2.043 9.276 9.276 0 0 1 3.733-.613l100.228 3.331 71.466-68.109c.505-.554.971-1.141 1.394-1.756a6.825 6.825 0 0 0-.427-6.629 7.147 7.147 0 0 0-2.538-2.383 7.425 7.425 0 0 0-3.401-.936 6.491 6.491 0 0 0-4.135 1.44l-51.392 44.116c-2.454 3.903-5.899 7.131-10.007 9.377a28.3 28.3 0 0 1-13.459 3.453h-.929l-43.958-1.801.604-18.006 44.144 1.485a9.195 9.195 0 0 0 4.773-1.117 8.828 8.828 0 0 0 3.451-3.384 2.718 2.718 0 0 1 0-.361 8.482 8.482 0 0 0 .682-4.979 8.623 8.623 0 0 0-2.262-4.519 9.096 9.096 0 0 0-6.226-2.746l-86.568-2.836-62.73 60.907-13.15-12.74 65.61-63.518a9.333 9.333 0 0 1 3.155-2.02 9.566 9.566 0 0 1 3.723-.636l90.657 2.791c3.618.107 7.179.91 10.473 2.363a27.274 27.274 0 0 1 8.718 6.101 26.951 26.951 0 0 1 4.646 6.752l38.056-32.502.651-.495Z" clip-rule="evenodd"/></mask><path fill="#159C2A" d="m84.797 15.211-1.63-2.518 1.63 2.518Zm111.478 10.637-2.088 2.155 2.088-2.155Zm10.979 107.998 2.47 1.703-2.47-1.703ZM71.418 146.807l2.088-2.155-2.088 2.155Zm-24.162-43.793 2.939-.604-2.94.604Zm5.024-49.418-2.758-1.18 2.758 1.18Zm118.74 60.056 3 .007v-.007h-3Zm-6.495 15.123-2.085-2.157 2.085 2.157Zm6.495-30.293h3v-.007l-3 .007Zm-1.719-8.239-2.754 1.191 2.754-1.19ZM148.669 77.1v3h.031l-.031-3Zm-29.367 0v-3 3Zm-2.481-.986-2.073 2.168 2.073-2.168Zm-1.05-2.39h-3v.04l3-.04Zm0-14.945h3-3Zm.269-1.303-2.754-1.189 2.754 1.189Zm.768-1.1-2.073-2.17 2.073 2.17Zm1.146-.73-1.09-2.795 1.09 2.795Zm1.348-.244-.038 3h.038v-3Zm46.606 0v3h3v-3h-3Zm0-18.006h3v-3h-3v3Zm-22.768 0h-3v3h3v-3Zm0-9.003h3v-3h-3v3Zm-18.587 0v-3h-3v3h3Zm0 8.778v3h3v-3h-3Zm-5.251 0v3-3ZM97.184 58.553l-3-.007v.007h3Zm0 15.17h-3v.006l3-.006Zm6.495 15.122 2.085-2.156-2.085 2.156Zm15.623 6.26v-3 3Zm29.367 0v3h.001l-.001-3Zm2.481.987 2.073-2.169-2.073 2.169Zm1.051 2.39h3v-.02l-.001-.021-2.999.04Zm0 15.17h-3 3Zm-1.037 2.404-2.073-2.169h-.001l2.074 2.169Zm-1.147.728-1.09-2.795 1.09 2.795Zm-1.348.244.039-2.999-.019-.001h-.02v3Zm-46.885 0v-3h-3v3h3Zm0 18.007h-3v3h3v-3Zm22.769 0h3v-3h-3v3Zm0 8.778h-3v3h3v-3Zm18.587 0v3h3v-3h-3Zm0-8.778v-3h-3v3h3Zm5.762 0v-3 3Zm93.353 16.701.102-2.998-.026-.001h-.026l-.05 2.999Zm-16.078 5.132-1.788-2.409-.015.011-.014.011 1.817 2.387Zm34.062 2.815 2.162-2.08-2.162 2.08Zm6.922 17.938-2.998-.108-.001.02-.001.019 3 .069Zm-2.881 10.713 2.566 1.554.034-.056.031-.057-2.631-1.441Zm-3.625 4.907-2.24-1.995-.093.104-.083.113 2.416 1.778Zm-.65.72-2.016-2.222-.027.025-.027.026 2.07 2.171Zm-74.626 71.126 2.065 2.176.005-.004-2.07-2.172Zm-6.83 2.566.102-2.998h-.004l-.098 2.998Zm-100.23-3.286.099-2.999-1.272-.041-.914.885 2.088 2.155Zm-25.324 24.534-2.091 2.151 2.088 2.029 2.09-2.026-2.087-2.154Zm-13.103-12.74-2.088-2.155-2.22 2.151 2.216 2.155 2.092-2.151Zm28.158-27.28 2.088 2.155.018-.018.018-.018-2.124-2.119Zm3.145-2.043 1.08 2.798-1.08-2.798Zm3.733-.613-.128 2.998h.014l.014.001.1-2.999Zm100.228 3.331-.099 2.999 1.258.042.911-.869-2.07-2.172Zm71.466-68.109 2.07 2.172.077-.074.072-.079-2.219-2.019Zm1.394-1.756 2.47 1.703.138-.199.104-.219-2.712-1.285Zm.647-3.366 2.994-.193-2.994.193Zm-1.074-3.263 2.527-1.617-2.527 1.617Zm-2.538-2.383-1.464 2.619 1.464-2.619Zm-3.401-.936.09-2.999-.034-.001h-.034l-.022 3Zm-4.135 1.44-1.891-2.329-.032.026-.031.027 1.954 2.276Zm-51.392 44.116-1.954-2.276-.345.295-.241.384 2.54 1.597Zm-23.466 12.83v3h.011l-.011-3Zm-.929 0-.123 2.997.061.003h.062v-3Zm-43.958-1.801-2.998-.101-.1 2.977 2.975.122.123-2.998Zm.604-18.006.101-2.999-2.999-.101-.1 2.999 2.998.101Zm44.144 1.485.117-2.998h-.017l-.1 2.998Zm4.773-1.117-1.44-2.631 1.44 2.631Zm3.451-3.384 2.611 1.478.445-.787-.063-.901-2.993.21Zm0-.361-2.72-1.265-.234.502-.039.554 2.993.209Zm.682-4.979-2.959.493 2.959-.493Zm-2.262-4.519 2.177-2.065-.01-.009-.009-.01-2.158 2.084Zm-6.226-2.746.104-2.998h-.006l-.098 2.998Zm-86.568-2.836.098-2.998-1.273-.042-.915.888 2.09 2.152Zm-62.73 60.907-2.088 2.155 2.09 2.024 2.088-2.027-2.09-2.152Zm-13.15-12.74-2.087-2.155-2.226 2.155 2.225 2.155 2.088-2.155Zm65.61-63.518 2.088 2.156.008-.008-2.095-2.148Zm3.155-2.02-1.081-2.798 1.08 2.798Zm3.723-.636.092-2.998h-.004l-.088 2.998Zm90.657 2.791-.093 2.999h.005l.088-2.999Zm10.473 2.363 1.211-2.745-1.211 2.745Zm8.718 6.101 2.185-2.056-.008-.008-.008-.009-2.169 2.073Zm4.646 6.752-2.702 1.303 1.691 3.506 2.959-2.528-1.948-2.281Zm38.056-32.502-1.817-2.387-.067.051-.064.055 1.948 2.281ZM133.846-2.203c-18.034 0-35.67 5.18-50.68 14.896l3.261 5.037c14.028-9.08 30.53-13.933 47.419-13.933v-6Zm64.516 25.896C181.236 7.102 158.027-2.203 133.846-2.203v6c22.65 0 44.354 8.717 60.341 24.206l4.175-4.31Zm26.771 62.634c0-23.51-9.641-46.039-26.771-62.633l-4.175 4.309c15.985 15.485 24.946 36.467 24.946 58.324h6Zm-15.409 49.222c10.043-14.561 15.409-31.69 15.409-49.222h-6c0 16.302-4.989 32.245-14.348 45.815l4.939 3.407Zm-40.974 32.582c16.669-6.689 30.932-18.022 40.974-32.582l-4.939-3.407c-9.361 13.571-22.675 24.163-38.27 30.421l2.235 5.568Zm-52.695 5.029c17.689 3.409 36.026 1.66 52.695-5.029l-2.235-5.568c-15.596 6.258-32.762 7.897-49.325 4.706l-1.135 5.891Zm-46.724-24.199c12.772 12.374 29.034 20.79 46.724 24.199l1.135-5.891c-16.562-3.192-31.763-11.068-43.684-22.617l-4.175 4.309Zm-25.014-45.344c3.53 17.192 12.24 32.97 25.014 45.344l4.175-4.309c-11.921-11.549-20.028-26.251-23.311-42.242l-5.878 1.207Zm5.205-51.2c-6.922 16.188-8.735 34.008-5.205 51.2l5.878-1.207c-3.284-15.99-1.6-32.566 4.843-47.634l-5.516-2.36Zm33.645-39.724c-15.01 9.716-26.724 23.537-33.645 39.724l5.516 2.359C61.482 39.706 72.4 26.81 86.427 17.73l-3.26-5.037Zm84.853 100.953c-.011 4.849-2.006 9.516-5.58 12.972l4.17 4.314c4.719-4.563 7.396-10.772 7.41-17.273l-6-.013Zm0-15.164v15.17h6v-15.17h-6Zm-1.473-7.048a17.845 17.845 0 0 1 1.473 7.054l6-.013a23.85 23.85 0 0 0-1.966-9.423l-5.507 2.382Zm-4.178-5.987a18.404 18.404 0 0 1 4.178 5.987l5.507-2.382a24.408 24.408 0 0 0-5.537-7.94l-4.148 4.335Zm-6.269-3.993a19.194 19.194 0 0 1 6.269 3.993l4.148-4.336a25.19 25.19 0 0 0-8.229-5.243l-2.188 5.586Zm-7.4-1.355a19.75 19.75 0 0 1 7.4 1.355l2.188-5.586a25.742 25.742 0 0 0-9.649-1.769l.061 6Zm-29.398 0h29.367v-6h-29.367v6Zm-4.554-1.818a6.593 6.593 0 0 0 4.555 1.818l-.001-6a.59.59 0 0 1-.407-.154l-4.147 4.337Zm-1.977-4.517a6.368 6.368 0 0 0 1.977 4.517l4.147-4.337a.37.37 0 0 1-.124-.262l-6 .082Zm0-14.986v14.945h6V58.778h-6Zm.515-2.492a6.29 6.29 0 0 0-.515 2.492h6c0-.037.007-.075.024-.114l-5.509-2.378Zm1.449-2.08a6.365 6.365 0 0 0-1.449 2.08l5.509 2.378a.382.382 0 0 1 .086-.121l-4.146-4.337Zm2.129-1.356a6.498 6.498 0 0 0-2.129 1.356l4.146 4.337a.497.497 0 0 1 .163-.103l-2.18-5.59Zm2.477-.448a6.589 6.589 0 0 0-2.477.448l2.18 5.59a.585.585 0 0 1 .22-.039l.077-6Zm46.567 0h-46.606v6h46.606v-6Zm-3-15.007V55.4h6V37.395h-6Zm-19.768 3h22.768v-6H143.14v6Zm-3-12.003v9.003h6v-9.003h-6Zm-15.587 3h18.587v-6h-18.587v6Zm3 5.778v-8.778h-6v8.778h6Zm-8.251 3h5.251v-6h-5.251v6Zm-13.538 5.417c3.577-3.459 8.445-5.417 13.538-5.417v-6c-6.622 0-12.993 2.544-17.708 7.103l4.17 4.314Zm-5.58 12.972c.011-4.85 2.006-9.517 5.58-12.972l-4.17-4.314c-4.72 4.562-7.396 10.772-7.41 17.273l6 .013Zm0 15.164v-15.17h-6v15.17h6Zm5.58 12.966c-3.574-3.456-5.569-8.123-5.58-12.973l-6 .013c.014 6.501 2.69 12.711 7.41 17.273l4.17-4.313Zm13.538 5.417c-5.093 0-9.961-1.959-13.538-5.417l-4.17 4.313c4.715 4.56 11.086 7.104 17.708 7.104v-6Zm29.367 0h-29.367v6h29.367v-6Zm4.554 1.817a6.59 6.59 0 0 0-4.554-1.817l.001 6c.169 0 .314.065.407.154l4.146-4.337Zm1.977 4.518a6.368 6.368 0 0 0-1.977-4.518l-4.146 4.337c.09.086.123.182.124.262l5.999-.081Zm.001 15.211v-15.17h-6v15.17h6Zm-.515 2.491a6.288 6.288 0 0 0 .515-2.491h-6a.3.3 0 0 1-.024.114l5.509 2.377Zm-1.449 2.081a6.4 6.4 0 0 0 1.449-2.081l-5.509-2.377a.388.388 0 0 1-.086.121l4.146 4.337Zm-2.13 1.355a6.506 6.506 0 0 0 2.13-1.355l-4.147-4.337a.484.484 0 0 1-.163.102l2.18 5.59Zm-2.477.449a6.58 6.58 0 0 0 2.477-.449l-2.18-5.59a.568.568 0 0 1-.219.04l-.078 5.999Zm-46.846 0h46.885v-6h-46.885v6Zm3 15.007v-18.007h-6v18.007h6Zm19.769-3h-22.769v6h22.769v-6Zm3 11.778v-8.778h-6v8.778h6Zm15.587-3h-18.587v6h18.587v-6Zm-3-5.778v8.778h6v-8.778h-6Zm8.762-3h-5.762v6h5.762v-6Zm13.538-5.417c-3.578 3.458-8.445 5.417-13.538 5.417v6c6.622 0 12.992-2.545 17.708-7.103l-4.17-4.314Zm79.865 22.119c-6.457-.109-12.772 1.902-17.916 5.722l3.576 4.818c4.07-3.022 9.088-4.628 14.239-4.541l.101-5.999Zm20.096 8.866c-5.222-5.426-12.434-8.604-20.044-8.865l-.205 5.996c6.08.209 11.806 2.748 15.925 7.029l4.324-4.16Zm7.758 20.125c.268-7.458-2.534-14.695-7.758-20.125l-4.324 4.16c4.117 4.278 6.294 9.944 6.086 15.75l5.996.215Zm-3.248 12.047a26.397 26.397 0 0 0 3.249-12.086l-5.999-.137a20.403 20.403 0 0 1-2.513 9.342l5.263 2.881Zm-4.015 5.461a36.361 36.361 0 0 0 3.95-5.348l-5.133-3.107a30.316 30.316 0 0 1-3.298 4.465l4.481 3.99Zm-.876.948a7.856 7.856 0 0 0 1.052-1.165l-4.833-3.556a1.803 1.803 0 0 1-.25.276l4.031 4.445Zm-74.571 71.075 74.626-71.126-4.14-4.343-74.626 71.125 4.14 4.344Zm-4.158 2.599a12.343 12.343 0 0 0 4.153-2.595l-4.13-4.352a6.323 6.323 0 0 1-2.133 1.33l2.11 5.617Zm-4.845.793a12.56 12.56 0 0 0 4.845-.793l-2.11-5.617a6.567 6.567 0 0 1-2.53.414l-.205 5.996Zm-100.225-3.286 100.229 3.286.197-5.996-100.229-3.287-.197 5.997Zm-23.138 23.69 25.324-24.534-4.175-4.309-25.324 24.534 4.175 4.309ZM37.8 278.312l13.104 12.74 4.182-4.302-13.103-12.74-4.183 4.302Zm28.163-31.585-28.159 27.279 4.175 4.31 28.159-27.28-4.175-4.309Zm4.15-2.688c-1.571.607-3 1.534-4.186 2.724L70.174 251a6.05 6.05 0 0 1 2.101-1.364l-2.161-5.597Zm4.942-.811a12.27 12.27 0 0 0-4.941.811l2.161 5.597a6.28 6.28 0 0 1 2.525-.413l.255-5.995Zm100.201 3.33-100.229-3.331-.2 5.997 100.23 3.331.199-5.997Zm69.297-67.283-71.466 68.11 4.139 4.343 71.466-68.109-4.139-4.344Zm.993-1.286c-.346.503-.728.984-1.142 1.439l4.437 4.038a19.6 19.6 0 0 0 1.645-2.072l-4.94-3.405Zm.123-1.472a3.83 3.83 0 0 1-.364 1.89l5.423 2.569a9.847 9.847 0 0 0 .929-4.844l-5.988.385Zm-.607-1.838c.36.561.566 1.193.607 1.838l5.988-.385a9.872 9.872 0 0 0-1.541-4.687l-5.054 3.234Zm-1.475-1.381a4.15 4.15 0 0 1 1.475 1.381l5.054-3.234a10.156 10.156 0 0 0-3.602-3.385l-2.927 5.238Zm-2.026-.557a4.434 4.434 0 0 1 2.026.557l2.927-5.238a10.43 10.43 0 0 0-4.774-1.316l-.179 5.997Zm-2.155.771a3.488 3.488 0 0 1 2.223-.769l.043-6a9.49 9.49 0 0 0-6.048 2.111l3.782 4.658Zm-51.329 44.063 51.392-44.115-3.908-4.553-51.392 44.116 3.908 4.552Zm-10.522 9.734c4.55-2.488 8.377-6.07 11.107-10.413l-5.079-3.194c-2.177 3.463-5.24 6.338-8.907 8.342l2.879 5.265Zm-14.887 3.82a31.307 31.307 0 0 0 14.887-3.82l-2.879-5.265a25.29 25.29 0 0 1-12.03 3.085l.022 6Zm-.94 0h.929v-6h-.929v6Zm-44.081-1.803 43.958 1.8.245-5.995-43.957-1.8-.246 5.995Zm-2.271-21.105-.604 18.006 5.996.202.604-18.007-5.996-.201Zm47.242-1.412-44.143-1.486-.202 5.997 44.144 1.485.201-5.996Zm3.233-.75a6.197 6.197 0 0 1-3.216.75l-.235 5.996a12.21 12.21 0 0 0 6.332-1.483l-2.881-5.263Zm2.281-2.232a5.83 5.83 0 0 1-2.281 2.232l2.881 5.263a11.824 11.824 0 0 0 4.621-4.538l-5.221-2.957Zm-.383.909c-.018.259-.018.52 0 .779l5.986-.419a.58.58 0 0 1 0 .059l-5.986-.419Zm.716-4.277a5.486 5.486 0 0 1-.443 3.221l5.44 2.531a11.48 11.48 0 0 0 .921-6.737l-5.918.985Zm-1.479-2.948a5.632 5.632 0 0 1 1.479 2.948l5.918-.985a11.626 11.626 0 0 0-3.044-6.092l-4.353 4.129Zm-4.154-1.812a6.098 6.098 0 0 1 4.173 1.832l4.315-4.168c-2.17-2.246-5.149-3.551-8.28-3.66l-.208 5.996Zm-86.562-2.836 86.567 2.836.197-5.996-86.568-2.836-.196 5.996Zm-60.542 60.061 62.73-60.907-4.18-4.304-62.73 60.907 4.18 4.304ZM-1.6 240.187l13.15 12.74 4.175-4.31-13.15-12.739-4.175 4.309Zm65.612-67.828-65.61 63.518 4.172 4.311 65.612-63.518-4.174-4.311Zm4.16-2.663a12.322 12.322 0 0 0-4.168 2.671l4.19 4.295a6.314 6.314 0 0 1 2.14-1.369l-2.162-5.597Zm4.892-.836a12.55 12.55 0 0 0-4.892.836l2.162 5.597a6.545 6.545 0 0 1 2.554-.436l.176-5.997Zm90.661 2.791-90.657-2.791-.184 5.997 90.656 2.791.185-5.997Zm11.592 2.616a30.997 30.997 0 0 0-11.596-2.616l-.176 5.997c3.233.095 6.412.813 9.351 2.109l2.421-5.49Zm9.676 6.773a30.272 30.272 0 0 0-9.676-6.773l-2.421 5.49a24.255 24.255 0 0 1 7.758 5.428l4.339-4.145Zm5.179 7.521a29.963 29.963 0 0 0-5.163-7.504l-4.371 4.111a23.98 23.98 0 0 1 4.13 6l5.404-2.607Zm33.406-33.479-38.056 32.502 3.896 4.562 38.057-32.501-3.897-4.563Zm.782-.601-.651.495 3.635 4.774.65-.495-3.634-4.774Z" mask="url(#a)"/></svg>