<svg width="51" height="63" viewBox="0 0 51 63" fill="none" xmlns="http://www.w3.org/2000/svg">
<path d="M31.0884 0C30.707 0 30.395 0.313163 30.395 0.695917V9.98641C30.395 10.3692 30.707 10.6823 31.0884 10.6823C31.4698 10.6823 31.7818 10.3692 31.7818 9.98641V0.695917C31.7818 0.313163 31.4698 0 31.0884 0Z" fill="#159C2A"/>
<path d="M22.814 12.0973L16.273 5.53252C16.0072 5.26575 15.5681 5.26575 15.2907 5.53252C15.0249 5.79928 15.0249 6.24003 15.2907 6.5184L21.8433 13.0832C21.982 13.2224 22.1553 13.292 22.3287 13.292C22.502 13.292 22.6869 13.2224 22.814 13.0832C23.0798 12.8165 23.0798 12.3757 22.814 12.0973Z" fill="#159C2A"/>
<path d="M50.3063 20.8776H41.0611C40.6797 20.8776 40.3677 21.1907 40.3677 21.5735C40.3677 21.9562 40.6797 22.2694 41.0611 22.2694H50.3063C50.6877 22.2694 50.9997 21.9562 50.9997 21.5735C50.9997 21.1907 50.6877 20.8776 50.3063 20.8776Z" fill="#159C2A"/>
<path d="M21.1027 20.8776H11.8575C11.4761 20.8776 11.1641 21.1907 11.1641 21.5735C11.1641 21.9562 11.4761 22.2694 11.8575 22.2694H21.1027C21.4841 22.2694 21.7961 21.9562 21.7961 21.5735C21.7961 21.1907 21.4841 20.8776 21.1027 20.8776Z" fill="#159C2A"/>
<path d="M45.8809 6.20522C45.6151 5.93845 45.1759 5.93845 44.8986 6.20522L38.3576 12.77C38.0918 13.0368 38.0918 13.4776 38.3576 13.7559C38.4962 13.8951 38.6696 13.9647 38.8545 13.9647C39.0278 13.9647 39.2127 13.8951 39.3399 13.7559L45.8809 7.1911C46.1467 6.92433 46.1467 6.48359 45.8809 6.20522Z" fill="#159C2A"/>
<path d="M12.2382 62.6511C13.0614 62.6511 13.72 61.9614 13.72 61.0993V40.0635C13.72 39.2014 13.0614 38.5117 12.2382 38.5117H1.48176C0.658559 38.5117 0 39.2014 0 40.0635V61.1568C0 61.9614 0.658559 62.6511 1.48176 62.6511H12.2382Z" fill="#159C2A"/>
<path d="M34.7388 22.9358C35.4522 20.2345 33.6412 16.1538 31.2264 15.6365C28.8117 15.1193 28.5373 19.2575 28.5373 19.2575C27.9336 24.0853 23.3237 28.1661 21.9517 29.6029C20.6346 30.9823 19.9761 33.9135 18.7687 35.9826C17.5613 37.9943 15.8601 39.661 15.8601 39.661H14.8173V59.8922C15.8052 60.7543 16.9577 61.5015 16.9577 61.5015H38.2511C41.928 60.9267 40.8304 55.8689 40.8304 55.8689C43.6293 53.1676 41.5439 49.6042 41.5439 49.6042C45.4403 45.6384 42.4219 42.4773 42.4219 42.4773C45.2208 39.9484 43.0256 36.2125 43.0256 36.2125C41.5439 32.879 35.4522 33.9135 32.9277 33.7986C30.3484 33.6836 30.1288 32.6491 30.8423 31.2697C31.5557 29.8328 34.0253 25.6372 34.7388 22.9358Z" fill="#159C2A"/>
</svg>
