<svg width="98" height="39" viewBox="0 0 98 39" fill="none" xmlns="http://www.w3.org/2000/svg">
<path d="M41.9382 17.7117C41.9382 22.5541 38.3074 26.1221 33.8516 26.1221C29.3958 26.1221 25.7648 22.5542 25.7648 17.7117C25.7648 12.8353 29.3958 9.30144 33.8516 9.30144C38.3074 9.30144 41.9382 12.8354 41.9382 17.7117ZM38.3983 17.7117C38.3983 14.6859 36.294 12.6156 33.8516 12.6156C31.4091 12.6156 29.3049 14.6859 29.3049 17.7117C29.3049 20.7075 31.4091 22.8082 33.8516 22.8082C36.294 22.8082 38.3983 20.7037 38.3983 17.7117Z" fill="#042F05" fill-opacity="0.69"/>
<path d="M59.3838 17.7117C59.3838 22.5541 55.7528 26.1221 51.2971 26.1221C46.8413 26.1221 43.2104 22.5542 43.2104 17.7117C43.2104 12.8393 46.8413 9.30144 51.2971 9.30144C55.7528 9.30144 59.3838 12.8354 59.3838 17.7117ZM55.8436 17.7117C55.8436 14.6859 53.7396 12.6156 51.297 12.6156C48.8544 12.6156 46.7503 14.6859 46.7503 17.7117C46.7503 20.7075 48.8544 22.8082 51.297 22.8082C53.7396 22.8082 55.8436 20.7037 55.8436 17.7117Z" fill="#042F05" fill-opacity="0.69"/>
<path d="M76.1023 9.80951V24.9089C76.1023 31.1202 72.5914 33.6569 68.4408 33.6569C64.5339 33.6569 62.1824 30.9305 61.2955 28.7009L64.3776 27.362C64.9263 28.731 66.2711 30.3463 68.4374 30.3463C71.0943 30.3463 72.7406 28.6363 72.7406 25.4168V24.2073H72.617C71.8248 25.2272 70.2979 26.1181 68.3721 26.1181C64.3414 26.1181 60.6487 22.4551 60.6487 17.7418C60.6487 12.9946 64.3414 9.30125 68.3721 9.30125C70.2944 9.30125 71.8211 10.1923 72.617 11.182H72.7406V9.81311H76.1025L76.1023 9.80951ZM72.991 17.7421C72.991 14.7808 71.0979 12.6157 68.6878 12.6157C66.2455 12.6157 64.1993 14.7808 64.1993 17.7421C64.1993 20.6735 66.2455 22.8082 68.6878 22.8082C71.0979 22.8082 72.991 20.6735 72.991 17.7421Z" fill="#042F05" fill-opacity="0.69"/>
<path d="M81.6449 0.959299V25.6067H78.1921V0.959299H81.6449Z" fill="#042F05" fill-opacity="0.69"/>
<path d="M95.0996 20.4802L97.8475 22.391C96.9608 23.76 94.8234 26.1185 91.1307 26.1185C86.5514 26.1185 83.1313 22.4251 83.1313 17.7081C83.1313 12.7066 86.5805 9.29787 90.7346 9.29787C94.9177 9.29787 96.9643 12.771 97.6331 14.6481L98 15.6037L87.2236 20.2602C88.0488 21.9473 89.3319 22.8082 91.1306 22.8082C92.9337 22.8082 94.1839 21.8829 95.0996 20.4802ZM86.6422 17.454L93.8459 14.3334C93.4498 13.283 92.2577 12.551 90.8545 12.551C89.0558 12.551 86.5514 14.2082 86.6422 17.454Z" fill="#042F05" fill-opacity="0.69"/>
<path d="M12.6953 15.5239V11.9558H24.2201C24.3328 12.5777 24.3912 13.3134 24.3912 14.1097C24.3912 16.7867 23.6896 20.0972 21.4289 22.4553C19.23 24.8444 16.4206 26.1184 12.6989 26.1184C5.80064 26.1184 0 20.2565 0 13.0593C0 5.86227 5.80064 0 12.6989 0C16.515 0 19.2337 1.56207 21.2762 3.59845L18.863 6.11633C17.3983 4.68289 15.414 3.56809 12.6953 3.56809C7.65803 3.56809 3.71811 7.80371 3.71811 13.0593C3.71811 18.3146 7.65803 22.5501 12.6953 22.5501C15.9626 22.5501 17.8235 21.1815 19.0157 19.9376C19.9823 18.9293 20.6184 17.488 20.8691 15.5201L12.6953 15.5239Z" fill="#042F05" fill-opacity="0.69"/>
<path d="M75.871 34.2752C76.1657 34.2122 76.5877 34.1773 76.9897 34.1773C77.6127 34.1773 78.0147 34.2961 78.296 34.5618C78.5238 34.7715 78.6511 35.0929 78.6511 35.4564C78.6511 36.0784 78.2759 36.4909 77.8002 36.6586V36.6795C78.1486 36.8053 78.3563 37.1407 78.4635 37.6301C78.6109 38.2871 78.718 38.7412 78.8118 38.9231H78.2089C78.1352 38.7832 78.0347 38.3849 77.9075 37.7978C77.7735 37.1478 77.5323 36.9031 77.0031 36.8822H76.4538V38.9231H75.871L75.871 34.2752ZM76.4537 36.4209H77.0499C77.673 36.4209 78.0682 36.0645 78.0682 35.5263C78.0682 34.9182 77.6462 34.6527 77.0298 34.6457C76.7485 34.6457 76.5475 34.6736 76.4537 34.7016V36.4209Z" fill="#042F05" fill-opacity="0.69"/>
<path d="M79.8101 37.3434C79.8235 38.1752 80.3326 38.5176 80.9222 38.5176C81.3442 38.5176 81.5987 38.4407 81.8198 38.3429L81.9203 38.7832C81.7127 38.8812 81.3576 39 80.8418 39C79.8436 39 79.2475 38.308 79.2475 37.2877C79.2475 36.2671 79.8236 35.4634 80.7681 35.4634C81.8265 35.4634 82.1079 36.4349 82.1079 37.0569C82.1079 37.1828 82.0945 37.2805 82.0878 37.3435L79.8101 37.3434ZM81.5384 36.903C81.5451 36.5116 81.3844 35.9037 80.7211 35.9037C80.1249 35.9037 79.8636 36.4767 79.8168 36.903H81.5384Z" fill="#042F05" fill-opacity="0.69"/>
<path d="M83.066 35.5403L83.7024 37.4413C83.8096 37.7489 83.8967 38.0284 83.9636 38.308H83.9837C84.0574 38.0284 84.1512 37.7489 84.2584 37.4413L84.8881 35.5403H85.5045L84.2316 38.9231H83.6688L82.4362 35.5403H83.066Z" fill="#042F05" fill-opacity="0.69"/>
<path d="M86.7171 34.5897C86.7237 34.7993 86.5763 34.9671 86.3419 34.9671C86.1342 34.9671 85.9868 34.7994 85.9868 34.5897C85.9868 34.3731 86.1409 34.2053 86.3553 34.2053C86.5763 34.2053 86.7171 34.3731 86.7171 34.5897ZM86.0605 38.9231V35.5403H86.65V38.9231H86.0605Z" fill="#042F05" fill-opacity="0.69"/>
<path d="M87.9563 37.3434C87.9697 38.1752 88.4788 38.5176 89.0684 38.5176C89.4904 38.5176 89.745 38.4407 89.966 38.3429L90.0665 38.7832C89.8588 38.8812 89.5038 39 88.988 39C87.9899 39 87.3937 38.308 87.3937 37.2877C87.3937 36.2671 87.9697 35.4634 88.9143 35.4634C89.9728 35.4634 90.2541 36.4349 90.2541 37.0569C90.2541 37.1828 90.2407 37.2805 90.234 37.3435L87.9563 37.3434ZM89.6847 36.903C89.6913 36.5116 89.5306 35.9037 88.8674 35.9037C88.2711 35.9037 88.0099 36.4767 87.963 36.903H89.6847Z" fill="#042F05" fill-opacity="0.69"/>
<path d="M91.2189 35.5403L91.6476 37.2596C91.7414 37.637 91.8285 37.9864 91.8888 38.3359H91.9089C91.9826 37.9935 92.0898 37.63 92.1969 37.2596L92.7262 35.5403H93.2219L93.7243 37.2316C93.8449 37.637 93.9387 37.9935 94.0124 38.3359H94.0324C94.086 37.9935 94.1731 37.6369 94.2803 37.2385L94.7426 35.5403H95.3253L94.2803 38.9231H93.7443L93.2485 37.3085C93.1347 36.9311 93.0409 36.5956 92.9605 36.1973H92.9472C92.8667 36.6026 92.7662 36.9521 92.6524 37.3155L92.1298 38.9231H91.5938L90.6158 35.5403H91.2189Z" fill="#042F05" fill-opacity="0.69"/>
<path d="M95.7946 38.294C95.9688 38.4129 96.277 38.5385 96.5717 38.5385C97.0004 38.5385 97.2014 38.3149 97.2014 38.0355C97.2014 37.7419 97.034 37.5812 96.5984 37.4134C96.0156 37.1966 95.741 36.8611 95.741 36.4559C95.741 35.9107 96.1629 35.4633 96.8597 35.4633C97.188 35.4633 97.476 35.5611 97.6569 35.673L97.5095 36.1203C97.3822 36.0364 97.1477 35.9246 96.8464 35.9246C96.4979 35.9246 96.3037 36.1342 96.3037 36.3858C96.3037 36.6654 96.4979 36.7913 96.9201 36.959C97.4828 37.1825 97.7708 37.4761 97.7708 37.9794C97.7708 38.5734 97.3287 38.9999 96.5583 38.9999C96.2032 38.9999 95.8749 38.9019 95.6472 38.7622L95.7946 38.294Z" fill="#042F05" fill-opacity="0.69"/>
<path d="M7.05054 28.3918L8.28599 32.3592L12.2844 32.3589L9.04947 34.8106L10.2853 38.7781L7.05066 36.3261L3.81615 38.7781L5.05198 34.8106L1.81709 32.3589L5.81534 32.3592L7.05054 28.3918Z" fill="#042F05" fill-opacity="0.69"/>
<path d="M17.4729 28.3918L18.7084 32.3592L22.7066 32.3589L19.4717 34.8106L20.7077 38.7781L17.4729 36.3261L14.2384 38.7781L15.4742 34.8106L12.2393 32.3589L16.2376 32.3592L17.4729 28.3918Z" fill="#042F05" fill-opacity="0.69"/>
<path d="M27.9906 28.3918L29.2261 32.3592L33.2245 32.3589L29.9895 34.8106L31.2255 38.7781L27.9906 36.3261L24.7561 38.7781L25.9919 34.8106L22.757 32.3589L26.7554 32.3592L27.9906 28.3918Z" fill="#042F05" fill-opacity="0.69"/>
<path d="M38.5146 28.3916L39.75 32.359L43.7481 32.3588L40.5132 34.8105L41.7492 38.7779L38.5146 36.3259L35.28 38.7779L36.516 34.8105L33.2811 32.3588L37.2792 32.359L38.5146 28.3916Z" fill="#042F05" fill-opacity="0.69"/>
<path d="M48.9069 28.3916L50.1424 32.359L54.1406 32.3588L50.9057 34.8105L52.1417 38.7779L48.9069 36.3259L45.6723 38.7779L46.9082 34.8105L43.6733 32.3588L47.6716 32.359L48.9069 28.3916Z" fill="#042F05" fill-opacity="0.69"/>
</svg>
