<svg xmlns="http://www.w3.org/2000/svg" width="252" height="246" fill="none"><mask id="a" fill="#fff"><path fill-rule="evenodd" d="M198.069 117.971V61.383a7.554 7.554 0 0 0-2.337-5.41l-55.441-53.71A8.048 8.048 0 0 0 134.707 0H23.825C17.523 0 11.48 2.425 7.024 6.742 2.568 11.059.064 16.914.064 23.019v199.495c0 6.105 2.504 11.96 6.96 16.277 4.455 4.317 10.5 6.742 16.8 6.742H185.2c16.485-.022 32.375-5.975 44.585-16.706 12.21-10.73 19.87-25.472 21.493-41.366 1.623-15.893-2.906-31.803-12.709-44.644-9.802-12.841-24.179-21.695-40.341-24.846h-.158ZM23.825 230.187a8.05 8.05 0 0 1-5.6-2.247 7.554 7.554 0 0 1-2.32-5.426V23.019c0-2.035.834-3.987 2.32-5.426a8.052 8.052 0 0 1 5.6-2.247h102.962v30.691c0 6.105 2.504 11.96 6.96 16.277 4.456 4.317 10.499 6.742 16.801 6.742h31.681v47.802a67.923 67.923 0 0 0-27.81 7.172c-8.616 4.336-16.143 10.453-22.048 17.919H29.765v15.345h93.537a62.724 62.724 0 0 0-3.485 11.51H29.765v15.346h88.944a61.136 61.136 0 0 0 1.623 11.509H29.765v15.346h96.428c3.972 7.312 9.348 13.823 15.841 19.182H23.824Zm189.57-28.582c0 4.477-1.836 8.771-5.104 11.937-3.268 3.165-7.7 4.944-12.321 4.944h-2.851v5.524h-15.841v-5.332h-15.84v-15.346h34.77c.42 0 .823-.162 1.12-.45a1.51 1.51 0 0 0 .464-1.085v-11.471c0-.407-.167-.797-.464-1.085a1.609 1.609 0 0 0-1.12-.449H174.11c-4.621 0-9.053-1.779-12.321-4.944-3.267-3.166-5.103-7.46-5.103-11.937v-11.279c0-4.477 1.836-8.77 5.103-11.936 3.268-3.166 7.7-4.944 12.321-4.944h3.168v-5.64h15.841v5.525h15.84v15.345H174.11c-.42 0-.823.162-1.12.45a1.511 1.511 0 0 0-.464 1.085v11.279c0 .407.167.798.464 1.085.297.288.7.45 1.12.45h21.86c4.621 0 9.053 1.778 12.321 4.944 3.268 3.166 5.104 7.459 5.104 11.936v11.394ZM67.74 77.417 92.41 101.32a7.94 7.94 0 0 0 2.597 1.683 8.134 8.134 0 0 0 3.066.58 8.048 8.048 0 0 0 5.584-2.263l24.711-23.902-11.207-10.857-11.168 10.819V29.154h-15.84V77.38L78.947 66.56 67.74 77.417Zm-21.142 26.167V55.321L35.352 66.178 24.184 55.321l24.671-23.94a7.942 7.942 0 0 1 2.571-1.665 8.143 8.143 0 0 1 6.066 0 7.942 7.942 0 0 1 2.57 1.665l24.751 23.94-11.207 10.857L62.44 55.36v48.225h-15.84Z" clip-rule="evenodd"/></mask><path fill="#159C2A" d="M198.069 61.383h3v-.013l-3 .013Zm0 56.588h-3v3h3v-3Zm-2.337-61.997-2.087 2.155.007.006 2.08-2.161Zm-55.441-53.71-2.094 2.148.007.006 2.087-2.154ZM134.707 0l.013-3h-.013v3ZM7.024 6.742 4.936 4.587l2.088 2.155Zm0 232.049 2.087-2.155-2.087 2.155Zm178.175 6.742v3h.004l-.004-3Zm66.078-58.072 2.984.305-2.984-.305Zm-12.709-44.644 2.385-1.82-2.385 1.82Zm-40.341-24.846.574-2.945-.284-.055h-.29v3ZM18.224 227.94l-2.087 2.154 2.087-2.154Zm0-210.347-2.087-2.155 2.087 2.155Zm108.563-2.247h3v-3h-3v3Zm6.96 46.968-2.088 2.155 2.088-2.155Zm48.482 6.742h3v-3h-3v3Zm0 47.802.119 2.998 2.881-.115v-2.883h-3Zm-27.81 7.172-1.349-2.68 1.349 2.68Zm-22.048 17.919v3h1.452l.901-1.139-2.353-1.861Zm-102.606 0v-3h-3v3h3Zm0 15.345h-3v3h3v-3Zm93.537 0 2.775 1.141 1.702-4.141h-4.477v3Zm-3.485 11.51v3h2.459l.483-2.411-2.942-.589Zm-90.052 0v-3h-3v3h3Zm0 15.346h-3v3h3v-3Zm88.944 0 2.997-.135-.129-2.865h-2.868v3Zm1.623 11.509v3h3.804l-.886-3.699-2.918.699Zm-90.567 0v-3h-3v3h3Zm0 15.346h-3v3h3v-3Zm96.428 0 2.636-1.432-.851-1.568h-1.785v3Zm15.841 19.182v3h8.347l-6.438-5.314-1.909 2.314Zm66.257-16.645-2.087-2.155 2.087 2.155Zm-15.172 4.944v-3h-3v3h3Zm0 5.524v3h3v-3h-3Zm-15.841 0h-3v3h3v-3Zm0-5.332h3v-3h-3v3Zm-15.84 0h-3v3h3v-3Zm0-15.346v-3h-3v3h3Zm35.89-.45-2.088-2.154 2.088 2.154Zm0-13.641-2.088 2.155 2.088-2.155Zm-35.539-5.393-2.087 2.154 2.087-2.154Zm0-35.152 2.088 2.155-2.088-2.155Zm15.489-4.944v3h3v-3h-3Zm0-5.64v-3h-3v3h3Zm15.841 0h3v-3h-3v3Zm0 5.525h-3v3h3v-3Zm15.84 0h3v-3h-3v3Zm0 15.345v3h3v-3h-3Zm-35.969.45 2.088 2.155-2.088-2.155Zm0 13.449 2.088-2.154-2.088 2.154Zm35.301 5.394-2.087 2.155 2.087-2.155Zm-115.88-76.956 2.094-2.149-.006-.006-2.088 2.155ZM67.74 77.417l-2.088-2.154-2.224 2.154 2.224 2.155 2.088-2.155Zm27.268 25.585 1.113-2.785-1.113 2.785Zm3.066.58-.012-3h-.005l.017 3Zm5.584-2.263-2.086-2.157-.008.008 2.094 2.149Zm24.711-23.902 2.086 2.157 2.227-2.155-2.226-2.156-2.087 2.154ZM117.162 66.56l2.087-2.155-2.087-2.022-2.088 2.022 2.088 2.155ZM105.994 77.38h-3v7.083l5.088-4.928-2.088-2.155Zm0-48.225h3v-3h-3v3Zm-15.84 0v-3h-3v3h3Zm0 48.225-2.084 2.158 5.084 4.908v-7.066h-3ZM78.947 66.56l2.084-2.158-2.088-2.015-2.084 2.018 2.088 2.155ZM46.598 55.321h3v-7.066l-5.083 4.908 2.083 2.158Zm0 48.263h-3v3h3v-3ZM35.352 66.178 33.26 68.33l2.084 2.026 2.091-2.018-2.083-2.159ZM24.184 55.321l-2.089-2.153-2.217 2.15 2.215 2.154 2.091-2.151Zm24.671-23.94-2.088-2.153 2.088 2.153Zm2.571-1.665 1.118 2.784-1.118-2.784Zm6.066 0L56.374 32.5l1.118-2.784Zm2.57 1.665-2.088 2.154.003.003 2.086-2.157Zm24.751 23.94 2.088 2.155 2.225-2.157-2.227-2.154-2.086 2.156ZM73.606 66.178l-2.087 2.155 2.087 2.022 2.088-2.022-2.088-2.155ZM62.44 55.36l2.087-2.154-5.087-4.929v7.083h3Zm0 48.225v3h3v-3h-3Zm132.63-42.2v56.587h6V61.383h-6Zm-1.417-3.25a4.555 4.555 0 0 1 1.417 3.262l6-.026a10.552 10.552 0 0 0-3.256-7.557l-4.161 4.322ZM138.204 4.419l55.441 53.71 4.175-4.309L142.379.11l-4.175 4.31ZM134.695 3a5.049 5.049 0 0 1 3.502 1.412l4.188-4.297A11.049 11.049 0 0 0 134.72-3l-.025 6ZM23.825 3h110.882v-6H23.825v6ZM9.11 8.897C12.997 5.13 18.289 3 23.825 3v-6C16.758-3 9.96-.281 4.936 4.587l4.175 4.31ZM3.064 23.019c0-5.278 2.164-10.36 6.047-14.122l-4.175-4.31C-.092 9.46-2.936 16.087-2.936 23.02h6Zm0 199.495V23.019h-6v199.495h6Zm6.047 14.122c-3.883-3.762-6.047-8.844-6.047-14.122h-6c0 6.932 2.844 13.56 7.872 18.431l4.175-4.309Zm14.714 5.897c-5.536 0-10.827-2.132-14.714-5.897l-4.175 4.309c5.025 4.869 11.822 7.588 18.889 7.588v-6Zm161.374 0H23.825v6h161.374v-6Zm42.604-15.959c-11.655 10.243-26.839 15.938-42.608 15.959l.008 6c17.201-.022 33.796-6.234 46.561-17.452l-3.961-4.507Zm20.489-39.417c-1.545 15.125-8.836 29.176-20.489 39.417l3.961 4.507c12.768-11.221 20.796-26.654 22.497-43.315l-5.969-.609Zm-12.108-42.52c9.345 12.242 13.653 27.395 12.108 42.52l5.969.609c1.702-16.661-3.048-33.33-13.308-46.769l-4.769 3.64Zm-38.531-23.722c15.456 3.014 29.183 11.478 38.531 23.722l4.769-3.64c-10.258-13.437-25.285-22.682-42.152-25.971l-1.148 5.889Zm.416.056h.158v-6h-.158v6ZM16.137 230.094a11.05 11.05 0 0 0 7.688 3.093v-6a5.053 5.053 0 0 1-3.513-1.402l-4.175 4.309Zm-3.232-7.58c0 2.862 1.174 5.587 3.232 7.58l4.175-4.309a4.554 4.554 0 0 1-1.407-3.271h-6Zm0-199.495v199.495h6V23.019h-6Zm3.232-7.58a10.554 10.554 0 0 0-3.232 7.58h6c0-1.208.494-2.387 1.407-3.271l-4.175-4.31Zm7.688-3.093a11.052 11.052 0 0 0-7.688 3.092l4.175 4.31a5.052 5.052 0 0 1 3.513-1.402v-6Zm102.962 0H23.825v6h102.962v-6Zm3 33.691V15.346h-6v30.691h6Zm6.047 14.122c-3.883-3.762-6.047-8.844-6.047-14.122h-6c0 6.932 2.844 13.56 7.872 18.432l4.175-4.31Zm14.714 5.897c-5.536 0-10.827-2.131-14.714-5.897l-4.175 4.31c5.025 4.868 11.822 7.587 18.889 7.587v-6Zm31.681 0h-31.681v6h31.681v-6Zm3 50.802V69.056h-6v47.802h6Zm-29.462 9.852a64.936 64.936 0 0 1 26.581-6.854l-.239-5.995a70.922 70.922 0 0 0-29.039 7.489l2.697 5.36Zm-21.043 17.1c5.63-7.119 12.813-12.958 21.043-17.1l-2.697-5.36c-9.001 4.53-16.872 10.924-23.052 18.738l4.706 3.722Zm-104.96 1.139h102.607v-6H29.765v6Zm3 12.345v-15.345h-6v15.345h6Zm90.538-3H29.765v6h93.537v-6Zm-.543 15.099a59.642 59.642 0 0 1 3.318-10.958l-5.549-2.281a65.656 65.656 0 0 0-3.652 12.06l5.883 1.179Zm-92.994 2.411h90.052v-6H29.765v6Zm3 12.346v-15.346h-6v15.346h6Zm85.944-3H29.765v6h88.944v-6Zm4.541 13.81a58.073 58.073 0 0 1-1.544-10.945l-5.994.269a64.106 64.106 0 0 0 1.703 12.074l5.835-1.398Zm-93.485 3.699h90.567v-6H29.765v6Zm3 12.346v-15.346h-6v15.346h6Zm93.428-3H29.765v6h96.428v-6Zm17.75 19.868c-6.199-5.117-11.327-11.329-15.114-18.3l-5.272 2.864c4.157 7.654 9.782 14.463 16.567 20.064l3.819-4.628Zm-120.118 5.314h118.209v-6H23.824v6Zm186.553-17.491c3.841-3.72 6.017-8.787 6.017-14.091h-6c0 3.65-1.496 7.171-4.191 9.782l4.174 4.309Zm-14.408 5.79c5.387 0 10.571-2.072 14.408-5.79l-4.174-4.309c-2.699 2.614-6.378 4.099-10.234 4.099v6Zm-2.851 0h2.851v-6h-2.851v6Zm3 2.524v-5.524h-6v5.524h6Zm-18.841 3h15.841v-6h-15.841v6Zm-3-8.332v5.332h6v-5.332h-6Zm-12.84 3h15.84v-6h-15.84v6Zm-3-18.346v15.346h6v-15.346h-6Zm37.77-3h-34.77v6h34.77v-6Zm-.968.396a1.39 1.39 0 0 1 .968-.396v6a4.611 4.611 0 0 0 3.207-1.295l-4.175-4.309Zm-.448 1.069c0-.42.173-.802.448-1.069l4.175 4.309a4.51 4.51 0 0 0 1.377-3.24h-6Zm0-11.471v11.471h6v-11.471h-6Zm.448 1.07a1.492 1.492 0 0 1-.448-1.07h6a4.51 4.51 0 0 0-1.377-3.24l-4.175 4.31Zm.968.396a1.39 1.39 0 0 1-.968-.396l4.175-4.31a4.61 4.61 0 0 0-3.207-1.294v6Zm-22.098 0h22.098v-6H174.11v6Zm-14.408-5.79c3.837 3.718 9.022 5.79 14.408 5.79v-6c-3.855 0-7.535-1.485-10.233-4.099l-4.175 4.309Zm-6.016-14.091c0 5.304 2.176 10.371 6.016 14.091l4.175-4.309c-2.695-2.611-4.191-6.132-4.191-9.782h-6Zm0-11.279v11.279h6v-11.279h-6Zm6.016-14.091c-3.84 3.721-6.016 8.787-6.016 14.091h6c0-3.65 1.496-7.17 4.191-9.781l-4.175-4.31Zm14.408-5.789c-5.386 0-10.571 2.072-14.408 5.789l4.175 4.31c2.698-2.614 6.378-4.099 10.233-4.099v-6Zm3.168 0h-3.168v6h3.168v-6Zm-3-2.64v5.64h6v-5.64h-6Zm18.841-3h-15.841v6h15.841v-6Zm3 8.525v-5.525h-6v5.525h6Zm12.84-3h-15.84v6h15.84v-6Zm3 18.345v-15.345h-6v15.345h6Zm-37.849 3h34.849v-6H174.11v6Zm.968-.395a1.39 1.39 0 0 1-.968.395v-6a4.611 4.611 0 0 0-3.207 1.295l4.175 4.31Zm.448-1.07c0 .42-.173.803-.448 1.07l-4.175-4.31a4.51 4.51 0 0 0-1.377 3.24h6Zm0 11.279v-11.279h-6v11.279h6Zm-.448-1.069c.275.267.448.649.448 1.069h-6a4.51 4.51 0 0 0 1.377 3.24l4.175-4.309Zm-.968-.396c.346 0 .695.132.968.396l-4.175 4.309a4.611 4.611 0 0 0 3.207 1.295v-6Zm21.86 0h-21.86v6h21.86v-6Zm14.408 5.789c-3.837-3.717-9.021-5.789-14.408-5.789v6c3.856 0 7.535 1.485 10.234 4.099l4.174-4.31Zm6.017 14.091c0-5.304-2.176-10.37-6.017-14.091l-4.174 4.31c2.695 2.611 4.191 6.131 4.191 9.781h6Zm0 11.394v-11.394h-6v11.394h6ZM94.499 99.164 69.827 75.263l-4.175 4.309 24.672 23.901 4.175-4.309Zm1.622 1.053a4.948 4.948 0 0 1-1.616-1.047l-4.188 4.297a10.934 10.934 0 0 0 3.577 2.321l2.227-5.571Zm1.936.365a5.143 5.143 0 0 1-1.936-.365l-2.227 5.571c1.334.533 2.76.802 4.197.794l-.034-6Zm3.507-1.412a5.047 5.047 0 0 1-3.502 1.412l.024 6a11.05 11.05 0 0 0 7.666-3.115l-4.188-4.297Zm24.719-23.909-24.711 23.901 4.172 4.313 24.711-23.901-4.172-4.313Zm-11.209-6.546 11.207 10.857 4.175-4.31-11.207-10.857-4.175 4.31Zm-6.992 10.819 11.167-10.82-4.175-4.309-11.167 10.82 4.175 4.309Zm-5.088-50.38V77.38h6V29.154h-6Zm-12.84 3h15.84v-6h-15.84v6Zm3 45.225V29.154h-6V77.38h6Zm-16.29-8.66L88.07 79.537l4.168-4.316L81.03 64.4l-4.168 4.318Zm-7.037 10.853 11.207-10.857-4.175-4.31-11.207 10.858 4.175 4.309ZM43.598 55.321v48.263h6V55.321h-6Zm-6.163 13.016 11.247-10.858-4.167-4.316L33.268 64.02l4.167 4.317ZM22.093 57.472 33.26 68.329l4.183-4.302L26.275 53.17l-4.182 4.302Zm24.673-28.244-24.671 23.94 4.178 4.306 24.672-23.94-4.179-4.306Zm3.542-2.296a10.94 10.94 0 0 0-3.541 2.296l4.177 4.307a4.94 4.94 0 0 1 1.6-1.035l-2.236-5.568Zm4.151-.801c-1.422 0-2.832.271-4.15.8l2.235 5.569a5.143 5.143 0 0 1 1.915-.37v-6Zm4.151.8a11.14 11.14 0 0 0-4.15-.8v6c.659 0 1.31.126 1.914.369l2.236-5.568Zm3.541 2.297a10.94 10.94 0 0 0-3.541-2.296L56.374 32.5a4.94 4.94 0 0 1 1.6 1.035l4.177-4.307ZM86.9 53.165l-24.75-23.94-4.172 4.313 24.75 23.94 4.172-4.313ZM75.693 68.333l11.208-10.857-4.175-4.31-11.207 10.858 4.174 4.309ZM60.352 57.514 71.52 68.333l4.174-4.31-11.167-10.818-4.175 4.309Zm5.088 46.07V55.359h-6v48.225h6Zm-18.84 3h15.84v-6h-15.84v6Z" mask="url(#a)"/></svg>