<svg xmlns="http://www.w3.org/2000/svg" width="252" height="255" fill="none"><mask id="a" fill="#fff"><path fill-rule="evenodd" d="M175.312 0H55.782a23.906 23.906 0 0 0-23.907 23.906h-7.969A23.906 23.906 0 0 0 0 47.813v183.281A23.906 23.906 0 0 0 23.906 255h127.5a23.906 23.906 0 0 0 23.906-23.906v-7.969a23.91 23.91 0 0 0 23.907-23.906V23.906A23.907 23.907 0 0 0 175.312 0Zm7.969 199.219a7.969 7.969 0 0 1-7.969 7.969H55.782a7.97 7.97 0 0 1-7.97-7.969V23.906a7.969 7.969 0 0 1 7.97-7.968h119.53a7.968 7.968 0 0 1 7.969 7.968V199.22Zm51.797-173.32h-15.937a15.939 15.939 0 0 0-15.938 15.937v155.391a7.965 7.965 0 0 0 1.355 4.422l15.937 23.906a7.977 7.977 0 0 0 6.614 3.525 7.974 7.974 0 0 0 6.614-3.525l15.938-23.906a7.973 7.973 0 0 0 1.355-4.422V41.836a15.937 15.937 0 0 0-15.938-15.938Zm0 168.897-7.969 11.953-7.968-11.953V65.742h15.937v129.054ZM81.372 34.365a61.6 61.6 0 0 1 34.179-10.459 61.677 61.677 0 0 1 61.758 61.599 61.6 61.6 0 0 1-105.1 43.612 61.593 61.593 0 0 1-13.454-67.075 61.599 61.599 0 0 1 22.617-27.677Zm59.588 76.889a16.683 16.683 0 0 0 1.286-6.385l-.04-10.678a16.691 16.691 0 0 0-16.694-16.655H105.59a.797.797 0 0 1-.757-.757V66.141a.793.793 0 0 1 .757-.757h31.875V49.446h-13.906v-4.502h-15.937v4.502h-2.032a16.734 16.734 0 0 0-16.695 16.695v10.638a16.735 16.735 0 0 0 16.695 16.695h19.922a.755.755 0 0 1 .757.717v10.678a.759.759 0 0 1-.757.717H93.637v15.937h13.945v4.503h15.937v-4.503h1.993a16.678 16.678 0 0 0 11.816-4.861 16.699 16.699 0 0 0 3.632-5.408Zm34.352 44.137H55.782v15.937h119.53v-15.937Zm-119.53 23.906h119.53v15.937H55.782v-15.937Z" clip-rule="evenodd"/></mask><path fill="#159C2A" d="m38.877 7.002 2.121 2.121-2.121-2.121Zm-7.002 16.904v3h3v-3h-3Zm136.436 224.092 2.121 2.121-2.121-2.121Zm7.001-24.873v-3h-3v3h3ZM192.217 7.002l-2.122 2.121 2.122-2.121Zm10.986 190.225h-3v.008l3-.008Zm1.355 4.422 2.496-1.664-.006-.009-2.49 1.673Zm15.937 23.906-2.496 1.665.006.009 2.49-1.674Zm2.867 2.589 1.411-2.648-1.411 2.648Zm7.495 0-1.411-2.648 1.411 2.648Zm2.866-2.589 2.49 1.674.007-.009-2.497-1.665Zm15.938-23.906-2.49-1.673-.006.009 2.496 1.664Zm1.355-4.422 3 .008v-.008h-3Zm-23.907 9.522-2.496 1.664 2.496 3.745 2.497-3.745-2.497-1.664Zm7.969-11.953 2.496 1.664.504-.756v-.908h-3Zm-15.937 0h-3v.908l.503.756 2.497-1.664Zm0-129.054v-3h-3v3h3Zm15.937 0h3v-3h-3v3ZM115.551 23.906l-.004-3h-.004l.008 3ZM81.372 34.365l-1.672-2.49 1.672 2.49Zm57.788-5.794-1.144 2.773 1.144-2.773Zm33.423 33.337 2.77-1.152-2.77 1.152Zm4.726 23.597h3V85.5l-3 .004Zm-37.99 56.894-1.149-2.771 1.149 2.771Zm-35.568 3.532.583-2.943-.583 2.943ZM72.21 129.117l2.118-2.124-2.118 2.124ZM58.755 62.042 55.98 60.9l2.774 1.142Zm83.491 42.827 3 .007v-.018l-3 .011Zm-1.286 6.385 2.769 1.155-2.769-1.155Zm1.246-17.063-3 .007v.004l3-.011Zm-4.904-11.78 2.119-2.123-2.119 2.124Zm-11.79-4.875v3-3Zm-19.922 0-.147 2.996.074.004h.073v-3Zm-.757-.757h-3v.073l.003.073 2.997-.146Zm0-10.638-2.997-.147-.003.073v.074h3Zm.232-.525-2.121-2.121 2.121 2.121Zm.525-.232v-3h-.073l-.074.003.147 2.997Zm31.875 0v3h3v-3h-3Zm0-15.938h3v-3h-3v3Zm-13.906 0h-3v3h3v-3Zm0-4.502h3v-3h-3v3Zm-15.937 0v-3h-3v3h3Zm0 4.502v3h3v-3h-3Zm-2.032 0v-3h-.007l.007 3ZM88.895 66.141l-3-.008v.008h3Zm0 10.638h-3v.007l3-.007Zm16.695 16.695-.007 3h.007v-3Zm19.922 0v3h.004l-.004-3Zm.521.207-2.063 2.178 2.063-2.178Zm.236.51h3v-.08l-.004-.078-2.996.158Zm0 10.678 2.996.158.004-.079v-.079h-3Zm-.236.51 2.064 2.177-2.064-2.177Zm-.521.207.004-3h-.004v3Zm-31.875 0v-3h-3v3h3Zm0 15.937h-3v3h3v-3Zm13.945 0h3v-3h-3v3Zm0 4.503h-3v3h3v-3Zm15.937 0v3h3v-3h-3Zm0-4.503v-3h-3v3h3Zm1.993 0 .007-3h-.007v3Zm6.391-1.255 1.142 2.774-1.142-2.774Zm-76.122 35.123v-3h-3v3h3Zm119.531 0h3v-3h-3v3Zm-119.53 15.937h-3v3h3v-3Zm119.53 0v3h3v-3h-3Zm0 7.969h3v-3h-3v3Zm-119.53 0v-3h-3v3h3Zm119.53 15.937v3h3v-3h-3Zm-119.53 0h-3v3h3v-3ZM55.781 3h119.53v-6H55.782v6ZM40.997 9.123A20.906 20.906 0 0 1 55.781 3v-6a26.906 26.906 0 0 0-19.025 7.88l4.242 4.243Zm-6.123 14.783a20.906 20.906 0 0 1 6.123-14.783l-4.242-4.242a26.906 26.906 0 0 0-7.881 19.025h6Zm-10.969 3h7.969v-6h-7.969v6ZM9.123 33.03a20.907 20.907 0 0 1 14.783-6.123v-6a26.906 26.906 0 0 0-19.025 7.88l4.242 4.243ZM3 47.813A20.906 20.906 0 0 1 9.123 33.03l-4.242-4.243A26.906 26.906 0 0 0-3 47.813h6Zm0 183.282V47.813h-6v183.281h6Zm6.123 14.783A20.908 20.908 0 0 1 3 231.094h-6a26.905 26.905 0 0 0 7.88 19.025l4.243-4.242ZM23.906 252a20.909 20.909 0 0 1-14.783-6.123l-4.242 4.242A26.906 26.906 0 0 0 23.906 258v-6Zm127.5 0h-127.5v6h127.5v-6Zm14.783-6.123A20.907 20.907 0 0 1 151.406 252v6c7.136 0 13.98-2.835 19.026-7.881l-4.243-4.242Zm6.123-14.783a20.906 20.906 0 0 1-6.123 14.783l4.243 4.242a26.904 26.904 0 0 0 7.88-19.025h-6Zm0-7.969v7.969h6v-7.969h-6Zm17.783-9.123a20.907 20.907 0 0 1-14.783 6.123v6c7.136 0 13.98-2.835 19.026-7.881l-4.243-4.242Zm6.124-14.783a20.907 20.907 0 0 1-6.124 14.783l4.243 4.242a26.905 26.905 0 0 0 7.881-19.025h-6Zm0-175.313V199.22h6V23.906h-6Zm-6.124-14.783a20.906 20.906 0 0 1 6.124 14.783h6c0-7.136-2.835-13.98-7.881-19.025l-4.243 4.242ZM175.312 3a20.905 20.905 0 0 1 14.783 6.123l4.243-4.242A26.907 26.907 0 0 0 175.312-3v6Zm7.757 203.975a10.968 10.968 0 0 0 3.212-7.756h-6a4.967 4.967 0 0 1-1.455 3.513l4.243 4.243Zm-7.757 3.213c2.91 0 5.7-1.156 7.757-3.213l-4.243-4.243a4.97 4.97 0 0 1-3.514 1.456v6Zm-119.53 0h119.53v-6H55.782v6Zm-7.757-3.213a10.97 10.97 0 0 0 7.756 3.213v-6a4.969 4.969 0 0 1-3.513-1.456l-4.243 4.243Zm-3.212-7.756c0 2.909 1.155 5.699 3.212 7.756l4.243-4.243a4.968 4.968 0 0 1-1.456-3.513h-6Zm0-175.313V199.22h6V23.906h-6Zm3.212-7.756a10.968 10.968 0 0 0-3.212 7.756h6c0-1.317.523-2.581 1.455-3.513l-4.243-4.243Zm7.756-3.212c-2.909 0-5.699 1.155-7.756 3.212l4.243 4.243a4.969 4.969 0 0 1 3.513-1.456v-6Zm119.531 0H55.782v6h119.53v-6Zm7.757 3.212a10.969 10.969 0 0 0-7.757-3.212v6a4.97 4.97 0 0 1 3.514 1.455l4.243-4.243Zm3.212 7.756c0-2.909-1.155-5.699-3.212-7.756l-4.243 4.243a4.968 4.968 0 0 1 1.455 3.513h6Zm0 175.313V23.906h-6V199.22h6Zm32.86-170.32h15.937v-6h-15.937v6Zm-9.149 3.789a12.94 12.94 0 0 1 9.149-3.79v-6c-5.023 0-9.84 1.996-13.391 5.547l4.242 4.243Zm-3.789 9.148c0-3.431 1.363-6.722 3.789-9.148l-4.242-4.243a18.936 18.936 0 0 0-5.547 13.39h6Zm0 155.391V41.836h-6v155.391h6Zm.845 2.749a4.973 4.973 0 0 1-.845-2.758l-6 .017a10.97 10.97 0 0 0 1.865 6.088l4.98-3.347Zm15.943 23.915-15.937-23.906-4.992 3.328 15.937 23.907 4.992-3.329Zm1.782 1.605a4.969 4.969 0 0 1-1.788-1.614l-4.98 3.347a10.974 10.974 0 0 0 3.947 3.562l2.821-5.295Zm2.336.584a4.969 4.969 0 0 1-2.336-.584l-2.822 5.295a10.97 10.97 0 0 0 5.158 1.289v-6Zm2.337-.584a4.973 4.973 0 0 1-2.337.584v6c1.799 0 3.571-.443 5.158-1.289l-2.821-5.295Zm1.787-1.614a4.957 4.957 0 0 1-1.787 1.614l2.821 5.295a10.963 10.963 0 0 0 3.946-3.562l-4.98-3.347Zm15.932-23.897-15.938 23.906 4.993 3.329 15.937-23.907-4.992-3.328Zm.851-2.767a4.973 4.973 0 0 1-.845 2.758l4.98 3.347a10.97 10.97 0 0 0 1.865-6.088l-6-.017Zm0-155.382v155.391h6V41.836h-6Zm-3.79-9.148a12.935 12.935 0 0 1 3.79 9.148h6a18.94 18.94 0 0 0-5.547-13.39l-4.243 4.242Zm-9.148-3.79c3.431 0 6.722 1.364 9.148 3.79l4.243-4.243a18.938 18.938 0 0 0-13.391-5.547v6Zm-5.472 179.515 7.968-11.953-4.992-3.328-7.969 11.953 4.993 3.328Zm-12.962-11.953 7.969 11.953 4.993-3.328-7.969-11.953-4.993 3.328Zm-.503-130.718v129.054h6V65.742h-6Zm18.937-3h-15.937v6h15.937v-6Zm3 132.054V65.742h-6v129.054h6ZM115.543 20.906A64.6 64.6 0 0 0 79.7 31.874l3.344 4.982a58.598 58.598 0 0 1 32.514-9.95l-.015-6Zm24.761 4.892a64.677 64.677 0 0 0-24.757-4.892l.008 6a58.68 58.68 0 0 1 22.461 4.438l2.288-5.546Zm21.002 13.993a64.678 64.678 0 0 0-21.002-13.993l-2.288 5.546a58.68 58.68 0 0 1 19.053 12.695l4.237-4.248Zm14.047 20.965a64.679 64.679 0 0 0-14.047-20.965l-4.237 4.248a58.69 58.69 0 0 1 12.744 19.02l5.54-2.303Zm4.956 24.745a64.67 64.67 0 0 0-4.956-24.745l-5.54 2.303a58.68 58.68 0 0 1 4.496 22.45l6-.008Zm-10.876 35.875a64.603 64.603 0 0 0 10.876-35.871h-6a58.599 58.599 0 0 1-9.866 32.539l4.99 3.332Zm-28.964 23.794a64.597 64.597 0 0 0 28.964-23.794l-4.99-3.332a58.597 58.597 0 0 1-26.273 21.584l2.299 5.542Zm-37.3 3.704a64.599 64.599 0 0 0 37.3-3.704l-2.299-5.542a58.594 58.594 0 0 1-33.836 3.36l-1.165 5.886Zm-33.078-17.633a64.595 64.595 0 0 0 33.078 17.633l1.165-5.886a58.6 58.6 0 0 1-30.006-15.995l-4.237 4.248ZM52.373 98.209a64.596 64.596 0 0 0 17.718 33.032l4.237-4.248a58.599 58.599 0 0 1-16.072-29.964l-5.883 1.18Zm3.608-37.31a64.599 64.599 0 0 0-3.608 37.31l5.883-1.18a58.598 58.598 0 0 1 3.273-33.844L55.98 60.9ZM79.7 31.875A64.599 64.599 0 0 0 55.98 60.9l5.548 2.285a58.6 58.6 0 0 1 21.515-26.33l-3.344-4.98Zm59.546 72.988a13.694 13.694 0 0 1-1.055 5.238l5.538 2.309a19.7 19.7 0 0 0 1.517-7.533l-6-.014Zm-.04-10.66.04 10.678 6-.022-.04-10.678-6 .022Zm-4.022-9.666a13.692 13.692 0 0 1 4.022 9.662l6-.014a19.693 19.693 0 0 0-5.785-13.896l-4.237 4.248Zm-9.672-4c3.626 0 7.104 1.438 9.672 4l4.237-4.248a19.693 19.693 0 0 0-13.909-5.752v6Zm-19.922 0h19.922v-6H105.59v6Zm-2.646-1.111a3.798 3.798 0 0 0 2.499 1.107l.293-5.992a2.204 2.204 0 0 1 1.451.642l-4.243 4.243Zm-1.108-2.5a3.796 3.796 0 0 0 1.108 2.5l4.243-4.243c.386.387.615.904.642 1.45l-5.993.293Zm-.003-10.784v10.638h6V66.141h-6Zm1.111-2.646a3.796 3.796 0 0 0-1.108 2.5l5.993.292a2.208 2.208 0 0 1-.642 1.45l-4.243-4.242Zm2.499-1.108a3.798 3.798 0 0 0-2.499 1.108l4.243 4.242a2.204 2.204 0 0 1-1.451.643l-.293-5.993Zm32.022-.003H105.59v6h31.875v-6Zm-3-12.938v15.938h6V49.446h-6Zm-10.906 3h13.906v-6h-13.906v6Zm-3-7.502v4.502h6v-4.502h-6Zm-12.937 3h15.937v-6h-15.937v6Zm3 1.502v-4.502h-6v4.502h6Zm-5.032 3h2.032v-6h-2.032v6Zm-9.672 4.023a13.735 13.735 0 0 1 9.679-4.023l-.014-6a19.734 19.734 0 0 0-13.908 5.78l4.243 4.243Zm-4.023 9.679a13.735 13.735 0 0 1 4.023-9.68l-4.243-4.242a19.734 19.734 0 0 0-5.78 13.907l6 .015Zm0 10.631V66.141h-6v10.638h6Zm4.023 9.672a13.735 13.735 0 0 1-4.023-9.68l-6 .015a19.734 19.734 0 0 0 5.78 13.907l4.243-4.242Zm9.679 4.023a13.735 13.735 0 0 1-9.68-4.023l-4.242 4.243a19.734 19.734 0 0 0 13.908 5.78l.014-6Zm19.915 0H105.59v6h19.922v-6Zm2.585 1.03a3.759 3.759 0 0 0-2.589-1.03l.008 6c-.575 0-1.129-.22-1.546-.615l4.127-4.356Zm1.168 2.529a3.76 3.76 0 0 0-1.168-2.53l-4.127 4.356a2.243 2.243 0 0 1-.697-1.51l5.992-.316Zm.004 10.836V94.191h-6v10.678h6Zm-1.172 2.687a3.758 3.758 0 0 0 1.168-2.529l-5.992-.316c.03-.574.28-1.115.697-1.51l4.127 4.355Zm-2.59 1.03a3.758 3.758 0 0 0 2.59-1.03l-4.127-4.355a2.242 2.242 0 0 1 1.546-.615l-.009 6Zm-31.87 0h31.875v-6H93.637v6Zm3 12.937v-15.937h-6v15.937h6Zm10.945-3H93.637v6h13.945v-6Zm3 7.503v-4.503h-6v4.503h6Zm12.937-3h-15.937v6h15.937v-6Zm-3-1.503v4.503h6v-4.503h-6Zm4.993-3h-1.993v6h1.993v-6Zm5.25-1.029a13.685 13.685 0 0 1-5.243 1.029l-.015 6a19.681 19.681 0 0 0 7.541-1.481l-2.283-5.548Zm4.45-2.958a13.722 13.722 0 0 1-4.45 2.958l2.283 5.548a19.679 19.679 0 0 0 6.399-4.254l-4.232-4.252Zm2.979-4.436a13.69 13.69 0 0 1-2.979 4.436l4.232 4.252a19.687 19.687 0 0 0 4.285-6.379l-5.538-2.309Zm-82.41 48.291h119.531v-6H55.782v6Zm3 12.937v-15.937h-6v15.937h6Zm116.531-3H55.782v6h119.53v-6Zm-3-12.937v15.937h6v-15.937h-6Zm3 20.906H55.782v6h119.53v-6Zm3 18.937v-15.937h-6v15.937h6Zm-122.53 3h119.53v-6H55.782v6Zm-3-18.937v15.937h6v-15.937h-6Z" mask="url(#a)"/></svg>