<svg width="90" height="58" viewBox="0 0 90 58" fill="none" xmlns="http://www.w3.org/2000/svg">
<path d="M74.3252 16.9308C73.8815 15.3729 73.4552 13.811 73.0393 12.246C72.5505 10.4025 71.692 8.23812 71.692 6.30005C69.3065 7.47376 66.9921 8.74502 64.3684 9.16039C62.8204 9.4058 61.3876 9.3012 59.8337 9.27002C58.35 9.24085 56.8865 9.34947 55.4018 9.29617C53.1997 9.21671 50.9737 9.13324 48.7899 8.7943C47.4041 8.58008 45.9357 8.7591 44.6316 9.29617C43.6165 9.71255 43.0077 10.4749 42.1309 11.0582C41.3981 11.545 40.6529 12.0137 39.901 12.4663C38.9646 13.0315 37.5203 13.4781 36.7876 14.2867C35.7648 15.4161 34.8467 16.5003 34.2984 17.9657C33.7932 19.3174 33.3956 20.7345 32.5525 21.9113C31.9119 22.8013 31.0102 23.4933 30.5473 24.5192C30.0373 25.6466 30.8402 26.3888 31.8226 26.7429C33.0538 27.1864 34.4875 27.0215 35.6169 26.3546C37.9169 24.9919 38.8552 22.1456 40.8623 20.4368C42.8521 18.7421 46.3112 17.5544 48.7169 18.9011C49.9691 19.6011 50.9689 20.7013 52.2144 21.4325C53.5685 22.225 54.9975 22.8577 56.3352 23.6814C59.1509 25.4113 61.6622 27.5817 64.6258 29.0511C67.4972 30.4722 70.5876 31.7153 72.8953 34.0939C73.8767 33.3235 74.8515 32.536 75.7724 31.6851C76.4188 31.0857 76.9373 30.3696 77.5913 29.7863C78.0888 29.3417 78.6285 28.9475 79.2143 28.6417C76.5532 25.5189 75.2462 20.8794 74.3252 16.9308Z" fill="#159C2A"/>
<path d="M72.3833 36.8445C70.9428 34.1773 68.2365 32.7119 65.6705 31.5151C62.7338 30.1432 60.1572 28.4224 57.4971 26.5467C55.0847 24.847 52.3843 23.3806 49.7501 22.0963C49.3602 21.9052 49.3928 21.6155 49.0557 21.3138C48.5986 20.9015 48.1184 20.479 47.5403 20.2668C46.2717 19.8042 44.4961 20.3191 43.3321 20.9004C40.9447 22.0923 39.8912 24.7394 38.0762 26.592C36.1171 28.5944 33.0162 29.4664 30.4771 28.0825C29.751 27.6852 29.0173 26.957 28.7667 26.1323C28.3614 24.7997 29.1403 23.4309 29.9095 22.4282C30.7853 21.2836 31.6976 20.3453 32.1951 18.9413C32.7089 17.496 33.1209 16.1121 34.0034 14.8539C32.2892 15.2612 30.5366 15.9441 28.7705 15.922C27.7487 15.9089 26.9296 15.5589 25.999 15.223C24.6036 14.7171 23.2083 14.2102 21.8139 13.7043C21.3788 13.5474 21.3587 14.168 21.2088 14.5642C18.9482 20.4841 16.6876 26.4029 14.426 32.3227C13.9689 33.5236 13.5098 34.7254 13.0508 35.9263C14.2608 36.3034 15.8838 36.7017 16.8902 37.5606C18.2568 38.7253 19.8164 39.6747 21.3164 40.6332C21.641 40.8394 21.8129 41.136 22.0712 40.7921C22.32 40.4582 22.6301 40.1776 22.9864 39.9734C23.6865 39.5782 24.5124 39.5198 25.2874 39.6596C26.9641 39.9664 28.5852 41.1371 29.4466 42.6748C30.9217 41.5293 32.8376 40.9832 34.6468 41.4629C35.3825 41.657 36.0729 42.0563 36.58 42.6517C36.8258 42.9404 37.0237 43.2702 37.1639 43.6263C37.3435 44.0799 38.1348 43.6876 38.615 43.6675C40.2917 43.5911 42.4361 44.0658 43.0277 45.9385C43.2831 46.7501 43.2015 47.781 43.5693 48.5373C43.7422 48.8944 44.3059 48.8179 44.6142 48.83C45.1913 48.8531 45.6974 48.9537 46.2055 49.2484C48.0752 50.3386 48.3422 52.684 48.1069 54.7176C48.0157 55.5051 47.9571 55.5333 48.6975 55.839C49.1114 56.012 49.5417 56.1478 49.9777 56.2434C50.5394 56.3691 51.1253 56.4435 51.6995 56.4063C53.5674 56.2846 55.1692 55.2195 55.2797 53.1195C56.8057 53.905 59.024 54.5004 60.429 53.1215C61.5689 52.0001 61.567 50.1636 61.0427 48.7234C63.0517 49.3812 65.1423 48.7858 66.1123 46.7411C66.8901 45.0987 66.1949 42.6628 65.6148 41.0465C67.4567 42.2917 69.8489 43.6182 71.6621 41.5705C72.8308 40.251 73.0113 38.501 72.3833 36.8445Z" fill="black"/>
<path d="M27.6532 43.219C26.8657 42.2293 25.9688 41.646 24.7444 41.4901C23.8954 41.3845 23.1934 41.5153 23.059 42.5964C22.8899 43.9542 23.7014 45.9265 24.7664 46.7451C25.5376 47.3365 27.6273 48.4871 28.2765 47.0891C28.8124 45.9395 28.1344 44.2268 27.6532 43.219C27.8559 43.6474 27.2441 42.704 27.6532 43.219Z" fill="black"/>
<path d="M35.7268 45.3049C35.7757 44.1795 34.1124 43.3135 33.2568 43.1516C31.8576 42.8881 30.4094 43.9019 29.6709 45.0645C28.4955 46.9212 28.2516 49.6649 29.6277 51.4883C30.8012 53.0422 33.2385 52.2466 34.3064 50.9673C35.0574 50.0692 35.4828 48.9186 35.7143 47.763C35.7997 47.3325 35.8602 46.899 35.8919 46.4605C35.9246 46.014 35.7056 45.7122 35.7268 45.3049C35.7143 45.5393 35.7268 45.2737 35.7268 45.3049Z" fill="black"/>
<path d="M42.1475 49.532C41.7374 48.7284 42.0159 47.607 41.5041 46.8838C41.1046 46.3216 40.5082 45.9877 39.8725 45.8167C39.1522 45.6226 38.2418 45.2827 37.6195 45.8288C36.0532 47.2017 35.1476 50.0188 35.3531 52.0836C35.5202 53.7673 36.7225 55.5857 38.5875 54.942C39.7313 54.5437 40.5687 53.4806 41.1574 52.4256C41.505 51.799 42.4452 50.1375 42.1475 49.532C42.1552 49.5461 41.8507 48.9487 42.1475 49.532Z" fill="black"/>
<path d="M44.5029 50.6172C43.9959 50.5559 43.436 50.3678 42.9827 50.6565C42.5486 50.931 42.2375 51.3897 42.007 51.8523C41.5662 52.7484 41.2599 53.8025 41.2464 54.8122C41.2292 56.0895 41.8639 57.401 43.1565 57.5449C46.5955 57.9321 47.454 51.8744 44.5029 50.6172C45.1752 50.9039 44.3166 50.5951 44.5029 50.6172Z" fill="black"/>
<path d="M82.4867 28.2637C82.4867 28.2637 79.4329 27.9971 77.5247 21.1993C77.5247 21.1993 73.7064 8.79933 73.5777 6.66714C73.5777 6.66714 72.5617 3.99887 74.3421 3.59959L81.2162 0L89.9995 25.7976C89.9995 25.7976 88.4725 26.6645 82.4867 28.2637Z" fill="#159C2A"/>
<path d="M13.2401 7.86695L19.3498 10.2657C19.3498 10.2657 20.7509 10.5332 19.2221 14.2655L10.822 35.8629C10.822 35.8629 9.80311 37.5978 5.22038 35.9966L0 33.7317L11.0756 7.06738L13.2401 7.86695Z" fill="black"/>
</svg>
