<svg width="42" height="55" viewBox="0 0 42 55" fill="none" xmlns="http://www.w3.org/2000/svg">
<path d="M4.80726 45.1787V6.8894H2.59339C1.13856 6.8894 0 8.0818 0 9.60542V51.9356C0 53.4592 1.13856 54.6516 2.59339 54.6516H32.7652C34.2201 54.6516 35.3586 53.4592 35.3586 51.9356V49.7495H9.17174C6.76811 49.7495 4.80726 47.6959 4.80726 45.1787Z" fill="#159C2A"/>
<path d="M33.0185 11.5925H42.0005L30.9312 0V0.0662426V9.40651C30.9312 10.5989 31.88 11.5925 33.0185 11.5925Z" fill="#159C2A"/>
<path d="M29.1596 9.40661V0.0661621H9.17151C7.71668 0.0661621 6.57812 1.25856 6.57812 2.78218V45.1785C6.57812 46.7021 7.71668 47.8945 9.17151 47.8945H39.3434C40.7982 47.8945 41.9368 46.7021 41.9368 45.1785V13.4475H33.018C30.8674 13.4475 29.1596 11.6589 29.1596 9.40661ZM16.0029 13.2488H24.0361C24.5421 13.2488 24.9216 13.6462 24.9216 14.1762C24.9216 14.7061 24.5421 15.1036 24.0361 15.1036H16.0029C15.4968 15.1036 15.1173 14.7061 15.1173 14.1762C15.0541 13.6462 15.4968 13.2488 16.0029 13.2488ZM32.6385 39.4153H16.0029C15.4968 39.4153 15.1173 39.0178 15.1173 38.4878C15.1173 37.9579 15.4968 37.5604 16.0029 37.5604H32.6385C33.1445 37.5604 33.5241 37.9579 33.5241 38.4878C33.5241 38.9516 33.0813 39.4153 32.6385 39.4153ZM32.6385 31.3335H16.0029C15.4968 31.3335 15.1173 30.936 15.1173 30.406C15.1173 29.8761 15.4968 29.4786 16.0029 29.4786H32.6385C33.1445 29.4786 33.5241 29.8761 33.5241 30.406C33.5241 30.936 33.0813 31.3335 32.6385 31.3335ZM33.5241 22.258C33.5241 22.788 33.1445 23.1854 32.6385 23.1854H16.0029C15.4968 23.1854 15.1173 22.788 15.1173 22.258C15.1173 21.728 15.4968 21.3306 16.0029 21.3306H32.6385C33.0813 21.3306 33.5241 21.728 33.5241 22.258Z" fill="#159C2A"/>
</svg>
