<svg xmlns="http://www.w3.org/2000/svg" width="355" height="295" fill="none"><path stroke="#159C2A" stroke-width="3" d="m311.396 255.654-.88-.142-.296-.84-13.124-37.208-.001-.001c-6.375-18.14-9.641-27.396-11.576-32.185-.979-2.425-1.562-3.556-1.967-4.106-.181-.247-.278-.307-.298-.319-.023-.014-.067-.038-.283-.085l-.011-.003-.011-.002c-.323-.075-.803-.169-2.799.994-1.998 1.163-5.165 3.367-10.728 7.35h-.001c-1.203.861-2.327 1.678-3.373 2.438-2.59 1.882-4.7 3.415-6.341 4.407-1.138.688-2.246 1.242-3.257 1.405-.533.086-1.123.077-1.7-.148a2.853 2.853 0 0 1-1.365-1.14c-.582-.904-.773-2.151-.829-3.476-.059-1.388.026-3.153.208-5.302.258-3.051.725-7.006 1.31-11.965.239-2.024.497-4.215.769-6.579 1.067-9.267 1.739-15.575 2.074-19.65.168-2.042.249-3.491.256-4.458.002-.349-.005-.615-.018-.811a10.045 10.045 0 0 0-1.365-.387c-1.215-.275-2.932-.543-5.101-.793l-6.857-.789-1.429-.164.104-1.435.488-6.726.001-.013c.17-2.091.225-3.788.181-5.016a10.296 10.296 0 0 0-.125-1.399 2.214 2.214 0 0 0-.024-.122c-.12-.045-.288-.1-.518-.163-.676-.185-1.716-.396-3.254-.644-3.065-.493-7.922-1.106-15.384-1.965-7.461-.858-12.331-1.365-15.428-1.58-1.554-.108-2.615-.139-3.315-.112a5.858 5.858 0 0 0-.542.041l-.051.113c-.128.298-.278.738-.439 1.334-.322 1.186-.653 2.851-.963 4.926l-.002.013-1.053 6.661-.224 1.421-1.429-.165-7.988-.919c-2.769-.318-4.875-.632-6.352-.962-.733-.164-1.369-.345-1.873-.556a3.95 3.95 0 0 1-.749-.404 2.267 2.267 0 0 1-.848-1.095l-.003-.008c-.049-.12-.103-.266-.161-.429a55.29 55.29 0 0 1-.439-1.301 289.056 289.056 0 0 1-1.345-4.258 1270.798 1270.798 0 0 1-3.78-12.497 1276.671 1276.671 0 0 1-3.648-12.468c-.491-1.717-.898-3.17-1.18-4.222a46.891 46.891 0 0 1-.33-1.28 11.358 11.358 0 0 1-.095-.427 3.496 3.496 0 0 1-.033-.203l-.001-.004c-.005-.04-.028-.216-.005-.42.056-.488.324-.798.475-.938.154-.144.305-.225.383-.263a1.89 1.89 0 0 1 .377-.135c.16-.04.331-.063.474-.079a14.81 14.81 0 0 1 1.152-.071 40.357 40.357 0 0 1 3.453.063c1.759.096 2.874.07 3.614-.054.695-.117.915-.297 1.032-.426l.005-.006.006-.006c.719-.776.794-1.115.798-1.257.004-.156-.065-.534-.769-1.418a1.348 1.348 0 0 0-.235-.252c-.06-.046-.181-.125-.454-.228-.592-.224-1.672-.481-3.835-.824-4.287-.679-12.354-1.626-28.103-3.438-14.077-1.62-22.183-2.516-26.96-2.906-2.395-.196-3.898-.26-4.877-.23-.997.029-1.273.152-1.342.19l-.008.004-.008.004-.974.51-6.225 54.101-.171 1.49-1.491-.172-25.52-2.936-1.49-.172.007-.063-4.018-.462-.007.063-1.49-.172-8.325-.957-11.908 10.279-.004.003-12.03 10.319-2.245 19.498-.07.618-.49.387-13.695 10.832-1.64 14.249-.267 2.306c-.39 3.355-.687 5.916-.832 7.907-.18 2.483-.093 3.794.18 4.54.118.319.258.497.419.629.178.146.462.298.955.44.883.255 2.068.387 3.813.582l1.13.128 4.66.536.421-3.653.001-.007c2.104-17.642 14.754-32.966 32.21-39.192 7.556-2.738 13.953-3.406 22.086-2.471 13.392 1.542 24.532 7.687 32.671 17.908l.007.009c8.265 10.545 11.578 20.621 10.803 33.139v.003l-.351 5.523 16.553 1.905.97-5.459.001-.006c4.699-27.313 32.354-45.556 59.327-38.99 11.758 2.822 20.051 8.141 27.518 17.518 5.198 6.528 8.088 12.403 9.859 20.111.363 1.501.637 2.274.917 2.735.213.351.44.543.953.748l.014.006.013.005c.366.155.717.425.989.651.307.256.658.583 1.044.964.774.765 1.749 1.812 2.888 3.095 2.281 2.57 5.273 6.146 8.728 10.444l.004.005 10.759 13.511 25.1 3.097.001.001c7.937.984 14.517 1.723 19.253 2.18 2.37.228 4.268.384 5.638.465.687.041 1.226.062 1.62.064.279.002.427-.006.486-.01.026-.001.034-.002.029 0a2.369 2.369 0 0 0 1.575-1.368c.264-.634.181-1.218-.136-1.617-.108-.135-.435-.43-1.713-.805-1.251-.367-3.164-.745-6.152-1.232h-.003l-7.733-1.247Zm-68.164-128.579-.011-.007a.093.093 0 0 0 .011.007Zm-38.864-4.472.012-.004-.012.004Zm-68.547 35.386-1.49-.172.171-1.49 7.468-64.896.175-1.52 1.516.205 10.721 1.448 10.791 1.456.964.13.275.933 9.883 33.62.001.001c2.733 9.239 5.219 17.665 7.022 23.79a3813.13 3813.13 0 0 1 2.718 9.277l.153.535.043.156.018.07.005.02.01.047a1.436 1.436 0 0 1 .026.192c.003.049.002.19-.006.28a1.502 1.502 0 0 1-1.095 1.279c-.143.04-.264.051-.301.054-.1.008-.193.008-.247.007a9.907 9.907 0 0 1-.45-.022 66.063 66.063 0 0 1-1.469-.124c-1.25-.117-3.05-.302-5.263-.539a2291.998 2291.998 0 0 1-17.25-1.931l-24.389-2.806Zm112.882 28.114-.406 3.526-2.246-2.748-7.472-9.142-.004-.005-7.078-8.736-38.909-4.477-.989-.114-.279-.955-2.982-10.196-.002-.009c-.604-2.11-1.195-4.146-1.701-5.887l-.443-1.53c-.292-1.006-.538-1.86-.717-2.496-.143-.508-.27-.968-.325-1.23-.085-.34-.1-.795.139-1.255.248-.477.648-.72.92-.841.498-.22 1.104-.264 1.617-.273 1.12-.02 2.884.131 5.416.423l6.716.772 1.426.164-.101 1.432-.455 6.445-.001.013-.001.013c-.24 2.708-.306 4.221-.215 5.161.043.448.116.688.179.828a.992.992 0 0 0 .192.283c.057.025.144.059.268.101.3.102.729.221 1.286.353 1.111.263 2.628.552 4.435.853 3.606.601 8.279 1.232 12.973 1.772 4.695.54 9.389.987 13.037 1.221 1.828.117 3.371.18 4.512.176a14.57 14.57 0 0 0 1.333-.051c.131-.013.223-.026.284-.038a.995.995 0 0 0 .251-.231c.093-.123.219-.34.363-.766.302-.895.581-2.383.963-5.075l.002-.013.002-.013 1.02-6.38.227-1.417 1.426.164 8.342.96 1.49.171-.172 1.49-4.321 37.557Zm-9.525-26.462-.009.003.009-.003Zm-38.258-4.402.007.004-.007-.004Z"/><path stroke="#159C2A" stroke-width="3" d="m323.329 289.341-.009-.012-.009-.012c-.106-.151-.125-.164-.142-.176l-.004-.003c-.046-.032-.206-.131-.666-.271-.949-.289-2.745-.631-6.361-1.138-7.178-1.007-21.118-2.611-48.749-5.791l-55.869-6.428-4.91-.565 4.396-2.26 4.493-2.309c12.817-6.587 20.221-17.157 21.842-31.241 1.232-10.705-1.551-20.713-8.117-29.006l-.006-.008c-13.346-17.095-37.36-19.868-54.455-6.329l-.001.001c-10.121 8.002-15.575 19.512-15.171 32.191v.004c.335 11.492 6.559 23.682 15.282 30.169l.008.006 3.627 2.737 4.394 3.317-5.47-.63-80.48-9.26-5.017-.578 4.519-2.255 4.474-2.232a.02.02 0 0 0 .006-.004c8.945-4.557 16.169-12.609 19.857-22.406l.004-.011c1.048-2.719 1.751-6.619 2.008-10.684.256-4.058.06-8.137-.604-11.194l-.001-.002c-2.744-12.744-12.635-24.223-24.374-28.494-2.503-.905-5.95-1.623-9.444-2.034-3.495-.411-6.917-.501-9.371-.206-8.842 1.136-19.602 7.192-25.379 14.324-6.285 7.863-9.834 20.15-8.59 29.582 1.384 10.245 6.525 19.716 14.202 26.11l.005.004.006.005 4.047 3.437 3.766 3.199-4.908-.565-21.287-2.45c-10.142-1.167-15.42-1.755-18.343-1.905-1.475-.076-2.21-.029-2.62.057-.293.062-.389.13-.588.309l-.008.007-.007.006c-.505.441-.733 1.124-.657 1.772.07.607.372 1.001.751 1.167l.081.013c.143.023.354.053.636.092.563.077 1.38.183 2.442.316 2.122.267 5.206.642 9.146 1.114 7.881.943 19.183 2.27 33.068 3.886a53226.34 53226.34 0 0 0 107.598 12.381h.001l150.643 17.119.404-.875.009-.018.008-.018c.341-.688.365-.952.356-1.073-.007-.105-.053-.324-.462-.882ZM19.334 257.275l-.023-.005a.133.133 0 0 0 .023.005Zm46.763-21.345-.007-.008c-2.291-2.964-3.809-5.706-4.544-8.729-.735-3.022-.657-6.197.038-9.978l.001-.009c.566-2.982 1.378-5.458 2.662-7.685 1.285-2.23 3-4.136 5.278-6.033l.007-.006c7.63-6.265 19.027-6.892 27.3-1.356l.006.005c6.763 4.582 10.313 11.776 9.868 20.281-.182 3.838-.828 6.946-2.229 9.721-1.403 2.777-3.503 5.103-6.408 7.469l-.008.006c-2.635 2.116-5.182 3.568-7.929 4.381-2.75.814-5.61.961-8.837.59-3.226-.372-5.978-1.164-8.472-2.582-2.49-1.415-4.64-3.408-6.726-6.067Zm131.59 21.893-.011-.001c-6.852-.329-11.663-2.516-15.955-7.284l-.003-.004c-10.649-11.913-6.564-30.717 8.03-37.238l.002-.001c6.865-3.053 15.981-1.972 22.474 2.636l.003.002c12.224 8.719 12.543 27.563.738 37.042-4.646 3.731-9.095 5.099-15.278 4.848Z"/><path stroke="#159C2A" stroke-width="3" d="m79.696 209.199-.006.002c-9.652 3.227-11.54 17.06-2.996 23.11 6.985 4.92 17.092.835 18.994-7.949 1.623-8.013-3.176-14.932-10.593-15.785-1.49-.172-3.977.14-5.399.622ZM187.394 239.148l.001.003c4.662 12.927 23.225 10.785 24.792-2.83 1.117-9.707-8.094-16.976-17.233-13.702-4.529 1.622-8.029 6.155-8.598 11.095-.044.384.007 1.201.202 2.28.187 1.038.482 2.177.836 3.154Z"/><mask id="a" fill="#fff"><path fill-rule="evenodd" d="M57.492 105.712c21.861 2.516 41.622-13.167 44.138-35.028 2.515-21.861-13.167-41.622-35.028-44.138-21.862-2.515-41.623 13.168-44.138 35.029-2.516 21.86 13.167 41.622 35.028 44.137Zm3.642-63.888c.147-1.28.322-2.367.401-2.43l-.008.013c.077-.049 1.014.03 2.074.167l1.954.275-.23 2.428-.231 2.45.58.067c1.146.132 4.54 1.22 6.133 1.958 1.332.636 4.286 2.322 4.473 2.56.046.04-.958 1.66-2.218 3.58l-2.298 3.523-1.418-.883c-1.386-.858-3.717-1.846-5.4-2.292l-.835-.218-1.14 9.897 1.152.528c3.478 1.603 6.486 3.568 8.143 5.3 2.542 2.646 3.59 6.064 2.976 9.708-.99 5.925-6.728 10.002-14.379 10.201l-.84.012-.328 2.417-.327 2.402-4.054-.466.23-2.428.231-2.45-.58-.067c-1.125-.13-4.52-1.218-6.131-1.98-1.352-.645-4.287-2.307-4.474-2.544-.046-.042.958-1.661 2.218-3.582l2.298-3.522 1.418.883c1.42.876 3.793 1.869 5.424 2.272l.814.217 1.137-9.883-1.137-.527c-7.435-3.418-10.804-7.038-11.28-12.06-.649-6.942 4.933-12.404 13.33-13.05l2.055-.16.267-2.316ZM58.87 61.05c.035.004.265-1.87.529-4.157l.478-4.157-.39-.03c-.638-.073-2.412.334-3.318.734-1.038.478-1.995 1.318-2.23 1.99-.431 1.26.432 2.914 2.078 4.003.586.385 2.712 1.601 2.853 1.617Zm7.344 13.616c-.738-.87-1.367-1.323-3.046-2.25l-.007-.002-.31-.165c-.456-.245-.803-.43-.832-.434-.036-.004-.266 1.87-.529 4.157-.337 2.93-.504 3.908-.155 4.156.216.152.627.027 1.315-.092 3.937-.698 5.516-3.08 3.564-5.37Z" clip-rule="evenodd"/></mask><path fill="#159C2A" d="m61.535 39.394-1.87-2.346 4.386 3.98-2.516-1.634Zm-.008.013 1.599 2.538-4.115-4.173 2.515 1.635Zm2.074.167.382-2.976.018.002.018.003-.418 2.97Zm1.954.275.418-2.97 2.838.399-.27 2.853-2.986-.282Zm-.23 2.428 2.987.282-2.986-.282Zm-.231 2.45-.343 2.98-2.92-.336.276-2.927 2.987.283Zm6.713 2.025 1.261-2.722.016.007.015.008-1.292 2.707Zm4.473 2.56-2.016 2.221-.183-.167-.154-.195 2.353-1.86Zm-2.218 3.58-2.513-1.638.004-.007 2.509 1.646Zm-2.298 3.523 2.512 1.64-1.605 2.46-2.493-1.553 1.586-2.547Zm-1.418-.883 1.579-2.55.006.003-1.585 2.547Zm-5.4-2.292.759-2.902.008.002-.767 2.9Zm-.835-.218-2.98-.343.395-3.434 3.344.875-.76 2.902Zm-1.14 9.897-1.251 2.726-1.977-.908.248-2.161 2.98.343Zm1.152.528 1.251-2.726.004.001-1.255 2.725Zm8.143 5.3-2.164 2.078-.003-.004 2.167-2.074Zm2.976 9.708-2.959-.495v-.003l2.96.498ZM60.863 88.656l.078 3h-.038l-.04-3Zm-.84.012-2.973-.404.348-2.561 2.585-.035.04 3Zm-.328 2.417 2.973.404-2.973-.404Zm-.327 2.403 2.973.404-.396 2.912-2.92-.336.343-2.98Zm-4.054-.467-.343 2.98-2.92-.336.276-2.926 2.987.282Zm.23-2.428-2.987-.282 2.986.282Zm.231-2.45.343-2.98 2.92.336-.276 2.926-2.987-.282Zm-.58-.067-.343 2.98.343-2.98Zm-6.131-1.98-1.282 2.713-.01-.005 1.292-2.708Zm-4.475-2.544 2.016-2.222.184.167.154.195-2.354 1.86Zm2.22-3.582 2.512 1.64-.005.006-2.508-1.646Zm2.297-3.522-2.513-1.64 1.605-2.46 2.494 1.553-1.586 2.547Zm1.418.883-1.576 2.553-.01-.007 1.586-2.546Zm5.424 2.272.72-2.912.025.006.024.007-.77 2.9Zm.814.217 2.98.342-.397 3.447-3.353-.89.77-2.9Zm1.137-9.883 1.261-2.722 1.967.911-.248 2.154-2.98-.343Zm-1.137-.527 1.253-2.726.008.004-1.26 2.722Zm-11.28-12.06-2.986.283v-.004l2.986-.279Zm13.33-13.05.233 2.99h-.002l-.23-2.99Zm2.055-.16 2.98.343-.282 2.456-2.466.192-.232-2.991ZM59.4 56.893l2.98.343-2.98-.343Zm.478-4.157.234-2.99 3.102.242-.356 3.091-2.98-.343Zm-.39-.03-.235 2.99-.054-.003-.055-.007.343-2.98Zm-3.319.734-1.255-2.724.022-.01.023-.011 1.21 2.745Zm-2.228 1.99-2.839-.973.004-.01.003-.009 2.831.991Zm2.076 4.003-1.643 2.51-.006-.004-.006-.004 1.655-2.502Zm7.152 12.982.343-2.98.59.067.518.287-1.45 2.626Zm3.046 2.251-2.283 1.946-.003-.004 2.286-1.942Zm-3.053-2.252-.343 2.98-.567-.065-.503-.269 1.413-2.646Zm-.31-.166-1.416 2.645 1.416-2.645Zm-1.516 7.88 1.732-2.45-1.732 2.45Zm1.315-.092.524 2.954-.008.002-.008.001-.508-2.957Zm41.959-9.009c-2.705 23.507-23.954 40.371-47.46 37.666l.685-5.961c20.215 2.326 38.488-12.176 40.815-32.39l5.96.685ZM66.945 23.566c23.507 2.705 40.37 23.954 37.665 47.461l-5.96-.686c2.326-20.215-12.176-38.488-32.391-40.814l.686-5.961ZM19.483 61.232c2.705-23.507 23.954-40.37 47.462-37.666l-.686 5.96C46.043 27.202 27.77 41.703 25.444 61.919l-5.96-.686Zm37.666 47.461c-23.507-2.705-40.37-23.954-37.666-47.461l5.961.686c-2.326 20.215 12.176 38.488 32.39 40.814l-.685 5.961Zm6.256-66.953a2.97 2.97 0 0 0 .817-1.02 2.62 2.62 0 0 0 .128-.316c.03-.093.041-.146.035-.117a6.86 6.86 0 0 0-.065.351c-.062.38-.136.921-.206 1.529l-5.96-.686c.077-.671.163-1.313.245-1.814.04-.243.086-.495.136-.714.023-.102.062-.26.118-.43.026-.08.079-.232.164-.408.03-.063.276-.612.848-1.068l3.74 4.693Zm-4.394-3.968.009-.013 5.03 3.27-.008.013-5.03-3.27Zm4.207 4.777a29.176 29.176 0 0 0-1.267-.138 5.869 5.869 0 0 0-.287-.019c-.022 0 .03.002.12-.004a2.88 2.88 0 0 0 .931-.228c.11-.046.252-.115.41-.215l-3.198-5.076c.522-.329 1.017-.409 1.088-.422.17-.03.312-.041.389-.046.161-.01.307-.01.4-.007.2.005.424.02.635.037.435.035.983.095 1.544.167l-.765 5.951Zm1.918.27-1.954-.275.837-5.941 1.954.275-.837 5.942Zm-2.797-.824.229-2.428 5.973.564-.229 2.428-5.973-.564Zm-.232 2.45.232-2.45 5.973.565-.232 2.45-5.973-.566Zm3.224 3.33-.58-.068.686-5.96.58.066-.686 5.961Zm5.216 1.7c-.632-.294-1.745-.706-2.888-1.072a30.864 30.864 0 0 0-1.528-.45 12.51 12.51 0 0 0-.733-.168 1.949 1.949 0 0 0-.067-.01l.686-5.962c.903.104 2.3.501 3.47.875 1.24.397 2.62.897 3.581 1.342l-2.521 5.444Zm3.38 1.696a2.779 2.779 0 0 0 .424.431c.039.03.055.04.031.024a7.5 7.5 0 0 0-.276-.177 37.94 37.94 0 0 0-1.122-.664c-.908-.519-1.903-1.056-2.468-1.325l2.583-5.416c.767.367 1.914.99 2.863 1.532.481.276.944.548 1.311.776.18.112.363.23.522.34.078.054.178.125.281.206.044.035.31.24.558.553l-4.707 3.72Zm-2.374.076a117.92 117.92 0 0 0 1.558-2.43c.195-.315.334-.547.415-.69.046-.079.049-.087.032-.053a2.443 2.443 0 0 0-.11.263c-.02.059-.097.275-.138.568a2.995 2.995 0 0 0 .954 2.628l4.032-4.444a3.005 3.005 0 0 1 .957 2.645 3.09 3.09 0 0 1-.148.604c-.065.183-.136.329-.163.384a7.149 7.149 0 0 1-.208.386 30.88 30.88 0 0 1-.523.87c-.42.677-1.001 1.585-1.641 2.56l-5.017-3.291Zm-2.302 3.529 2.298-3.522 5.025 3.278-2.298 3.522-5.025-3.278Zm2.68-1.79 1.418.882-3.171 5.094-1.418-.884 3.171-5.093Zm-6.218-2.646c1.949.516 4.557 1.616 6.212 2.641l-3.159 5.102c-1.115-.691-3.17-1.567-4.588-1.942l1.535-5.8Zm-.843-.22.835.218-1.519 5.805-.835-.219 1.519-5.804ZM59.99 62.576l1.14-9.897 5.96.686-1.139 9.897-5.96-.686Zm2.88 3.598-1.151-.529 2.504-5.453 1.15.529-2.503 5.453Zm7.228 4.647c-1.292-1.35-3.923-3.125-7.232-4.649l2.51-5.45c3.65 1.681 7.033 3.837 9.056 5.95l-4.334 4.15Zm2.185 7.136c.457-2.716-.303-5.176-2.182-7.132l4.328-4.156c3.204 3.336 4.54 7.711 3.77 12.283l-5.916-.995Zm-11.499 7.7c6.754-.176 10.824-3.66 11.498-7.697l5.918.99c-1.305 7.814-8.712 12.483-17.26 12.705l-.156-5.998Zm-.802.01.84-.01.08 6-.84.01-.08-6Zm-3.26 5.014.328-2.417 5.945.808-.328 2.416-5.946-.807Zm-.327 2.402.326-2.403 5.946.809-.327 2.403-5.945-.809Zm-.739-3.042 4.054.466-.686 5.96-4.054-.466.686-5.96Zm2.873.834-.23 2.428-5.972-.564.229-2.428 5.973.563Zm.232-2.45-.232 2.45-5.973-.565.231-2.45 5.974.565Zm-3.224-3.33.58.067-.686 5.961-.58-.067.686-5.96Zm-5.192-1.711c.633.3 1.744.716 2.886 1.084.556.179 1.083.335 1.521.45a12.587 12.587 0 0 0 .724.168l.06.01-.685 5.96c-.896-.103-2.29-.5-3.46-.877-1.24-.4-2.632-.908-3.61-1.37l2.564-5.425Zm-3.403-1.692a2.766 2.766 0 0 0-.428-.434c-.04-.031-.056-.042-.033-.026.042.029.13.086.272.174.28.173.672.403 1.117.656.904.514 1.904 1.05 2.485 1.327l-2.584 5.415c-.772-.368-1.915-.986-2.863-1.524a43.08 43.08 0 0 1-1.308-.77c-.18-.11-.363-.227-.522-.337a5.355 5.355 0 0 1-.283-.207c-.044-.035-.312-.24-.56-.554l4.707-3.72Zm2.373-.076c-.62.945-1.171 1.808-1.557 2.43-.195.315-.334.547-.416.689-.045.08-.048.088-.03.053 0-.002.054-.108.108-.262.021-.059.098-.275.138-.568a2.996 2.996 0 0 0-.954-2.628l-4.031 4.443a3.005 3.005 0 0 1-.957-2.645 3.09 3.09 0 0 1 .148-.603c.065-.183.136-.33.163-.384.068-.139.146-.279.208-.387.133-.233.315-.534.523-.868.42-.679 1-1.587 1.64-2.562l5.017 3.292Zm2.303-3.529-2.298 3.522-5.025-3.278 2.297-3.522 5.026 3.278Zm-2.68 1.79-1.419-.882 3.172-5.094 1.418.883-3.172 5.093Zm6.288 2.639c-1.928-.478-4.59-1.59-6.279-2.632l3.152-5.106c1.15.71 3.234 1.583 4.568 1.913l-1.441 5.825Zm.765.203-.814-.216 1.54-5.8.813.217-1.54 5.8Zm4.887-12.44-1.137 9.883-5.96-.686 1.136-9.882 5.961.686Zm-2.855-3.59 1.136.526-2.523 5.444-1.136-.527 2.523-5.444Zm-9.555-9.622c.324 3.414 2.456 6.358 9.546 9.617l-2.506 5.452c-7.78-3.577-12.385-7.873-13.013-14.503l5.973-.566Zm10.574-9.776c-7.295.56-11.018 5.024-10.574 9.78l-5.974.558c-.853-9.128 6.588-15.59 16.088-16.32l.46 5.982Zm2.056-.16-2.054.16-.465-5.983 2.055-.16.464 5.983Zm3.015-4.964-.267 2.316-5.96-.686.266-2.316 5.961.686ZM62.38 57.236c-.132 1.147-.257 2.2-.354 2.97-.048.38-.09.71-.126.95a9.975 9.975 0 0 1-.056.354 3.917 3.917 0 0 1-.062.281c-.012.043-.057.217-.144.424a3.022 3.022 0 0 1-.38.654c-.07.091-.996 1.361-2.73 1.162l.686-5.961a2.999 2.999 0 0 0-3.102 1.805c-.084.2-.126.364-.134.392a2.545 2.545 0 0 0-.035.156l.02-.13c.026-.182.064-.464.11-.836.093-.739.215-1.767.346-2.907l5.961.686Zm.478-4.157-.478 4.157-5.96-.686.478-4.156 5.96.685Zm-3.137-3.364.39.03-.467 5.982-.39-.03.467-5.982Zm-4.762.98c.698-.308 1.574-.56 2.314-.727.386-.086.792-.162 1.178-.21.33-.043.851-.093 1.38-.032l-.687 5.96c.135.016.209.01.187.011-.01 0-.05.003-.127.013a6.94 6.94 0 0 0-.618.113c-.533.12-.997.27-1.206.362l-2.42-5.49Zm-3.85 3.743c.364-1.04 1.1-1.827 1.653-2.319a8.91 8.91 0 0 1 2.151-1.404l2.513 5.45c-.25.115-.501.282-.68.44-.04.037-.072.067-.094.09-.023.025-.033.038-.032.037l.011-.016a1.46 1.46 0 0 0 .14-.295l-5.662-1.983Zm3.253 7.497c-1.186-.785-2.19-1.835-2.824-3.056-.626-1.204-.991-2.8-.436-4.422l5.677 1.945c.123-.362-.026-.5.083-.29.1.194.352.515.811.82l-3.311 5.003Zm4.166 2.096c-.336-.039-.591-.128-.644-.146a3.496 3.496 0 0 1-.469-.198c-.122-.06-.257-.13-.384-.198a43.1 43.1 0 0 1-.904-.502 41.022 41.022 0 0 1-1.753-1.044l3.287-5.02c.206.135.809.494 1.434.85.3.17.573.322.77.427.102.055.16.085.184.096.015.008-.011-.006-.062-.027a2.526 2.526 0 0 0-.167-.063c-.036-.013-.279-.098-.606-.136l-.686 5.96Zm6.092 5.758c1.789.988 2.792 1.652 3.882 2.935l-4.573 3.884c-.388-.457-.642-.7-2.21-1.567l2.901-5.252Zm-1.115-.355h.007l-.685 5.961h-.008l.686-5.961Zm.763.17.308.164-2.827 5.292-.313-.167 2.832-5.29Zm-1.905-.77a3.026 3.026 0 0 1 .906.251 12.213 12.213 0 0 1 .402.2c.16.084.374.199.597.319l-2.832 5.29a88.49 88.49 0 0 0-.671-.357l.057.027a2.657 2.657 0 0 0 .34.125 3.003 3.003 0 0 0 .515.106l.686-5.96ZM58.51 75.63c.132-1.147.257-2.2.353-2.97.048-.38.092-.71.127-.95.016-.113.036-.24.056-.354.009-.044.03-.155.062-.281a3.015 3.015 0 0 1 .524-1.078c.07-.09.996-1.361 2.73-1.162l-.686 5.961a2.999 2.999 0 0 0 3.101-1.805c.085-.2.127-.364.135-.392a2.36 2.36 0 0 0 .035-.156l-.02.13c-.026.182-.064.464-.11.837-.093.738-.215 1.766-.346 2.906l-5.961-.686Zm1.094 6.948c-1.036-.732-1.314-1.783-1.4-2.306-.085-.522-.066-1.04-.043-1.403.047-.745.19-1.865.349-3.239l5.96.686c-.088.771-.155 1.325-.215 1.846a23.65 23.65 0 0 0-.106 1.083c-.017.278.005.235-.024.058a2.543 2.543 0 0 0-1.058-1.624l-3.463 4.9Zm3.554.416c-.143.025-.26.048-.421.078a9.26 9.26 0 0 1-.549.09 4.26 4.26 0 0 1-.947.019 3.4 3.4 0 0 1-1.637-.603l3.463-4.9a2.6 2.6 0 0 0-1.239-.468 2.086 2.086 0 0 0-.29-.01c-.058.003-.093.007-.096.008l.044-.007.146-.027c.117-.022.308-.059.51-.093l1.016 5.913ZM68.5 72.72c.778.914 1.367 2.03 1.516 3.305a5.312 5.312 0 0 1-.874 3.582c-1.292 1.947-3.62 2.967-5.966 3.383l-1.048-5.907c.74-.132 1.266-.325 1.607-.507.348-.185.427-.315.408-.286a.704.704 0 0 0-.086.431c.019.164.073.123-.124-.11l4.567-3.89Z" mask="url(#a)"/><mask id="b" fill="#fff"><path fill-rule="evenodd" d="M231.043 107.856c19.432 2.236 36.998-11.704 39.234-31.136 2.236-19.432-11.705-36.998-31.137-39.234-19.432-2.236-36.997 11.705-39.233 31.137-2.236 19.432 11.704 36.997 31.136 39.233Zm3.237-56.79c.131-1.136.287-2.104.357-2.16l-.008.012c.069-.043.902.027 1.844.149l1.737.244-.204 2.159-.206 2.177.516.06c1.019.117 4.036 1.085 5.452 1.74 1.184.565 3.809 2.064 3.976 2.275.04.037-.852 1.476-1.972 3.184l-2.043 3.13-1.261-.784c-1.231-.763-3.303-1.641-4.799-2.037l-.743-.194-1.012 8.797 1.023.47c3.092 1.424 5.765 3.171 7.239 4.71 2.259 2.352 3.19 5.39 2.645 8.63-.88 5.267-5.981 8.89-12.781 9.068l-.747.01-.292 2.148-.29 2.136-3.604-.415.204-2.158.206-2.178-.516-.06c-1-.114-4.017-1.082-5.449-1.759-1.203-.573-3.811-2.05-3.978-2.262-.04-.037.852-1.476 1.972-3.184l2.043-3.13 1.261.785c1.261.778 3.371 1.66 4.82 2.02l.724.192 1.011-8.785-1.011-.468c-6.609-3.038-9.603-6.256-10.026-10.72-.577-6.171 4.385-11.026 11.849-11.6l1.826-.143.237-2.058Zm-2.011 17.09c.031.005.236-1.661.47-3.695l.425-3.694-.347-.027c-.566-.065-2.144.297-2.949.652-.922.425-1.773 1.172-1.982 1.769-.384 1.12.384 2.59 1.847 3.559.521.341 2.41 1.422 2.536 1.437Zm6.528 12.104c-.656-.773-1.215-1.177-2.707-2.001h-.006l-.276-.148c-.406-.217-.714-.383-.74-.386-.032-.003-.236 1.663-.47 3.696-.3 2.604-.449 3.474-.138 3.694.192.135.557.024 1.169-.081 3.5-.622 4.903-2.738 3.168-4.774Z" clip-rule="evenodd"/></mask><path fill="#159C2A" d="m234.637 48.906-1.87-2.346 4.386 3.981-2.516-1.635Zm-.008.012 1.599 2.539-4.114-4.173 2.515 1.634Zm1.844.148.383-2.975.018.002.017.003-.418 2.97Zm1.737.245.418-2.97 2.838.4-.269 2.852-2.987-.282Zm-.204 2.159 2.987.282-2.987-.282Zm-.206 2.177-.343 2.98-2.92-.336.277-2.926 2.986.282Zm5.968 1.8 1.261-2.722.015.007.016.008-1.292 2.707Zm3.976 2.275-2.016 2.222-.184-.167-.154-.195 2.354-1.86Zm-1.972 3.184-2.513-1.64.004-.006 2.509 1.646Zm-2.043 3.13 2.513 1.64-1.605 2.46-2.494-1.553 1.586-2.546Zm-1.261-.784 1.58-2.551.006.004-1.586 2.547Zm-4.799-2.037.759-2.903.008.003-.767 2.9Zm-.743-.194-2.98-.343.395-3.435 3.345.875-.76 2.903Zm-1.012 8.797-1.252 2.726-1.977-.908.249-2.161 2.98.343Zm1.023.47 1.252-2.727.003.002-1.255 2.724Zm7.239 4.71-2.164 2.078-.003-.003 2.167-2.075Zm2.645 8.63-2.959-.495.001-.003 2.958.497Zm-12.781 9.068.078 2.999h-.038l-.04-3Zm-.747.01-2.973-.404.348-2.561 2.585-.035.04 3Zm-.292 2.148 2.973.404-2.973-.404Zm-.29 2.136 2.973.404-.396 2.912-2.92-.336.343-2.98Zm-3.604-.415-.343 2.98-2.92-.335.277-2.927 2.986.282Zm.204-2.158-2.987-.282 2.987.282Zm.206-2.178.343-2.98 2.92.336-.276 2.927-2.987-.283Zm-5.966-1.819-1.281 2.713-.01-.005 1.291-2.708Zm-3.977-2.262 2.016-2.222.184.167.154.195-2.354 1.86Zm1.972-3.184 2.513 1.64-.004.006-2.509-1.646Zm2.043-3.13-2.513-1.64 1.605-2.46 2.494 1.553-1.586 2.547Zm1.261.785-1.576 2.552-.01-.006 1.586-2.546Zm4.82 2.02.721-2.913.025.007.024.006-.77 2.9Zm.724.192 2.98.343-.396 3.446-3.354-.89.77-2.9Zm1.011-8.785 1.261-2.722 1.967.912-.248 2.153-2.98-.343Zm-1.011-.468 1.253-2.726.009.004-1.262 2.722Zm-10.026-10.72-2.987.283v-.004l2.987-.28Zm11.849-11.6.232 2.99h-.002l-.23-2.99Zm1.826-.143 2.981.343-.283 2.457-2.465.191-.233-2.99Zm-.879 7.642.234-2.991 3.102.243-.356 3.09-2.98-.342Zm-.347-.027-.234 2.99-.055-.004-.054-.006.343-2.98Zm-2.949.652-1.256-2.724.022-.01.023-.01 1.211 2.744Zm-1.982 1.769-2.838-.973.003-.01.004-.009 2.831.992Zm1.846 3.559-1.643 2.51-.006-.005-.006-.004 1.655-2.501Zm6.358 11.539.343-2.98.589.067.519.287-1.451 2.626Zm2.707 2-2.283 1.946-.003-.003 2.286-1.942Zm-2.714-2-.342 2.98-.568-.066-.503-.269 1.413-2.646Zm-.275-.148 1.416-2.645-1.416 2.645Zm-1.348 7.004-1.731 2.45 1.731-2.45Zm1.169-.082.524 2.954-.008.002-.008.001-.508-2.957Zm37.628-7.97c-2.426 21.078-21.479 36.199-42.557 33.773l.686-5.96c17.786 2.046 33.864-10.713 35.91-28.5l5.961.687Zm-33.774-42.557c21.078 2.425 36.199 21.479 33.774 42.557l-5.961-.686c2.047-17.786-10.713-33.864-28.499-35.91l.686-5.961ZM196.926 68.28c2.426-21.078 21.479-36.2 42.557-33.774l-.686 5.96c-17.786-2.046-33.863 10.713-35.91 28.5l-5.961-.686Zm33.774 42.556c-21.078-2.425-36.199-21.478-33.774-42.556l5.961.686c-2.047 17.786 10.713 33.863 28.499 35.91l-.686 5.96Zm5.807-59.584a2.938 2.938 0 0 0 .819-1.022c.074-.154.115-.276.13-.32.032-.098.044-.157.039-.135-.006.028-.025.12-.053.292-.054.33-.12.806-.182 1.343l-5.96-.686c.069-.6.147-1.176.221-1.628.036-.22.078-.45.124-.655a4.61 4.61 0 0 1 .113-.413c.026-.078.078-.228.162-.403.03-.062.276-.61.847-1.065l3.74 4.692Zm-4.393-3.968.007-.012 5.032 3.269-.008.012-5.031-3.27Zm3.976 4.758a25.486 25.486 0 0 0-1.11-.121 4.934 4.934 0 0 0-.236-.016c-.016 0 .041.002.136-.004a2.67 2.67 0 0 0 .654-.123 2.944 2.944 0 0 0 .694-.321l-3.198-5.077c.521-.328 1.015-.408 1.085-.42a3.33 3.33 0 0 1 .384-.047c.157-.01.298-.008.385-.006.187.004.393.018.584.034.393.032.885.085 1.388.15l-.766 5.951Zm1.702.24-1.737-.245.836-5.941 1.737.245-.836 5.94Zm-2.773-1.094.204-2.159 5.974.564-.204 2.159-5.974-.564Zm-.205 2.177.206-2.178 5.973.565-.206 2.178-5.973-.565Zm3.159 3.322-.516-.06.686-5.96.516.06-.686 5.96Zm4.534 1.483c-.543-.252-1.517-.614-2.528-.938a27.055 27.055 0 0 0-1.341-.394c-.192-.05-.353-.089-.479-.116-.135-.029-.191-.036-.186-.035l.686-5.96c.84.096 2.111.459 3.148.79 1.107.355 2.35.804 3.222 1.208l-2.522 5.445Zm2.883 1.412a2.835 2.835 0 0 0 .432.438c.042.033.063.046.045.034a6.523 6.523 0 0 0-.232-.149 31.577 31.577 0 0 0-.987-.583 39.687 39.687 0 0 0-2.172-1.167l2.584-5.415c.693.33 1.721.89 2.566 1.373.43.246.845.49 1.176.696.162.1.33.208.478.31.072.05.168.118.267.197.04.032.305.235.551.546l-4.708 3.72Zm-2.127-.322c.551-.839 1.039-1.603 1.38-2.153.173-.279.294-.48.364-.602.039-.07.037-.07.017-.03-.002.006-.057.114-.112.27a2.951 2.951 0 0 0-.137 1.403c.051.361.233 1.143.953 1.796l4.031-4.444a3.002 3.002 0 0 1 .957 2.644 3.06 3.06 0 0 1-.147.602c-.064.181-.135.325-.16.377a7.164 7.164 0 0 1-.195.362c-.121.212-.286.484-.471.782-.375.606-.893 1.416-1.463 2.285l-5.017-3.292Zm-2.046 3.137 2.042-3.13 5.025 3.278-2.042 3.13-5.025-3.278Zm2.837-1.692 1.261.785-3.172 5.093-1.26-.785 3.171-5.093Zm-5.618-2.39c1.762.466 4.11 1.456 5.612 2.386l-3.159 5.101c-.961-.595-2.756-1.361-3.988-1.687l1.535-5.8Zm-.75-.197.742.194-1.519 5.805-.742-.194 1.519-5.805Zm-4.752 11.357 1.012-8.797 5.961.686-1.013 8.797-5.96-.686Zm2.751 3.539-1.023-.47 2.504-5.453 1.023.47-2.504 5.453Zm6.324 4.059c-1.108-1.157-3.405-2.715-6.327-4.06l2.51-5.45c3.262 1.502 6.312 3.44 8.151 5.36l-4.334 4.15Zm1.854 6.057c.388-2.311-.255-4.392-1.851-6.054l4.327-4.156c2.922 3.043 4.141 7.038 3.441 11.205l-5.917-.995Zm-9.901 6.567c5.904-.154 9.336-3.186 9.9-6.564l5.918.989c-1.196 7.156-7.965 11.372-15.662 11.573l-.156-5.998Zm-.709.009.746-.01.081 6-.746.01-.081-6Zm-3.224 4.744.291-2.148 5.946.807-.292 2.149-5.945-.808Zm-.291 2.136.291-2.136 5.945.808-.29 2.136-5.946-.808Zm-.288-2.991 3.604.415-.686 5.96-3.604-.414.686-5.961Zm2.848 1.104-.204 2.158-5.973-.564.203-2.158 5.974.564Zm.206-2.177-.206 2.177-5.974-.565.206-2.177 5.974.565Zm-3.16-3.323.516.06-.686 5.96-.516-.059.686-5.96Zm-4.511-1.491c.544.257 1.516.622 2.525.947.491.158.953.295 1.336.395.191.05.35.089.474.115.133.03.185.035.176.034l-.686 5.961c-.833-.096-2.102-.46-3.139-.794-1.107-.356-2.361-.814-3.249-1.233l2.563-5.425Zm-2.905-1.41a2.791 2.791 0 0 0-.309-.332c-.058-.054-.105-.091-.126-.108-.043-.034-.065-.048-.048-.037.031.022.104.07.229.147.243.15.588.353.982.576.801.456 1.682.927 2.187 1.168l-2.583 5.416a46.325 46.325 0 0 1-2.567-1.366 38.75 38.75 0 0 1-1.173-.69 12.66 12.66 0 0 1-.478-.309 5.331 5.331 0 0 1-.268-.197c-.041-.032-.307-.236-.554-.548l4.708-3.72Zm2.127.322c-.551.839-1.039 1.603-1.38 2.153-.173.279-.294.481-.364.602-.039.07-.037.07-.017.03.002-.006.057-.114.112-.27a2.955 2.955 0 0 0 .137-1.403 2.993 2.993 0 0 0-.953-1.796l-4.032 4.444a3.005 3.005 0 0 1-.809-3.245c.064-.182.135-.326.16-.378.065-.133.139-.264.195-.362.121-.212.286-.484.471-.782.375-.606.893-1.416 1.463-2.285l5.017 3.292Zm2.046-3.137-2.042 3.13-5.025-3.278 2.042-3.13 5.025 3.278Zm-2.837 1.692-1.261-.785 3.172-5.093 1.26.785-3.171 5.093Zm5.686 2.386c-1.747-.433-4.146-1.435-5.676-2.38l3.151-5.105c.993.612 2.813 1.375 3.966 1.66l-1.441 5.825Zm.674.18-.723-.193 1.539-5.8.723.193-1.539 5.8Zm4.761-11.342-1.011 8.784-5.961-.685 1.011-8.785 5.961.686Zm-2.729-3.533 1.01.468-2.523 5.444-1.01-.468 2.523-5.444Zm-8.301-8.281c.27 2.855 2.029 5.397 8.292 8.277l-2.506 5.452c-6.954-3.198-11.184-7.09-11.76-13.163l5.974-.566Zm9.092-8.327c-6.362.49-9.465 4.345-9.092 8.33l-5.974.56c-.782-8.358 6.039-14.213 14.606-14.872l.46 5.982Zm1.829-.142-1.827.142-.464-5.982 1.826-.142.465 5.982Zm2.984-4.706-.236 2.058-5.961-.686.237-2.058 5.96.686Zm-1.541 13.394c-.117 1.02-.228 1.958-.314 2.643-.043.34-.082.635-.113.851-.015.103-.033.221-.053.328-.008.041-.028.15-.06.274-.012.042-.056.215-.144.422-.035.082-.151.355-.38.654-.069.09-.995 1.36-2.729 1.161l.686-5.96a2.998 2.998 0 0 0-3.102 1.805c-.085.201-.127.365-.135.394a3.824 3.824 0 0 0-.037.163 38.22 38.22 0 0 0 .113-.84c.083-.655.191-1.568.308-2.58l5.96.685Zm.425-3.694-.425 3.694-5.96-.686.425-3.694 5.96.686Zm-3.093-3.361.347.027-.468 5.982-.347-.028.468-5.981Zm-4.394.898c.647-.285 1.449-.516 2.119-.666a11.78 11.78 0 0 1 1.078-.193 5.56 5.56 0 0 1 1.306-.029l-.686 5.96c.078.01.136.012.166.013h.053c.002 0-.025 0-.086.008a5.892 5.892 0 0 0-.519.096 8.589 8.589 0 0 0-.619.163 3.863 3.863 0 0 0-.391.138l-2.421-5.49Zm-3.602 3.522c.35-1.002 1.053-1.748 1.562-2.2a8.245 8.245 0 0 1 1.995-1.301l2.512 5.449a2.203 2.203 0 0 0-.522.338c-.064.057-.083.083-.07.067a.805.805 0 0 0 .062-.096 1.64 1.64 0 0 0 .124-.274l-5.663-1.983Zm3.022 7.052c-1.094-.724-2.028-1.698-2.622-2.84-.585-1.126-.939-2.64-.407-4.193l5.676 1.945c.148-.432-.013-.65.055-.52.06.115.241.361.609.605l-3.311 5.003Zm3.849 1.916c-.335-.038-.59-.127-.642-.145a3.651 3.651 0 0 1-.456-.192 11.782 11.782 0 0 1-.352-.181 40.306 40.306 0 0 1-.811-.45c-.55-.314-1.228-.712-1.576-.94l3.287-5.019c.173.113.701.427 1.257.744a30.192 30.192 0 0 0 .829.456c.011.005-.018-.01-.071-.032-.026-.011-.087-.037-.171-.065a2.974 2.974 0 0 0-.608-.136l-.686 5.96Zm5.615 4.496c1.601.885 2.535 1.499 3.543 2.685l-4.573 3.884a2.852 2.852 0 0 0-.533-.507c-.243-.18-.612-.409-1.339-.81l2.902-5.252Zm-1.115-.355h.007l-.686 5.961h-.006l.685-5.961Zm.798.188.273.146-2.827 5.292-.278-.148 2.832-5.29Zm-1.813-.721a3.015 3.015 0 0 1 .903.25c.067.03.125.058.157.074a79.438 79.438 0 0 1 .753.397l-2.832 5.29a68.972 68.972 0 0 0-.56-.298l-.021-.01-.007-.004.003.001.01.005.05.023a2.831 2.831 0 0 0 .526.175c.072.017.187.041.332.058l.686-5.961Zm-3.793 6.333c.117-1.02.228-1.957.314-2.643.043-.34.082-.634.113-.851.015-.102.033-.22.053-.328a3.71 3.71 0 0 1 .06-.274c.011-.042.056-.215.144-.422.034-.082.151-.355.379-.654.07-.09.996-1.36 2.73-1.161l-.686 5.96a2.998 2.998 0 0 0 3.102-1.805c.085-.201.127-.365.135-.394.015-.059.025-.103.028-.122l.009-.04a45.977 45.977 0 0 0-.114.84c-.082.654-.19 1.567-.307 2.58l-5.96-.686Zm1.111 6.486c-1.027-.725-1.298-1.764-1.381-2.269a6.004 6.004 0 0 1-.042-1.321c.042-.674.172-1.686.312-2.896l5.96.686c-.079.69-.138 1.176-.191 1.64-.051.45-.08.743-.093.946-.015.243.007.173-.025-.024a2.591 2.591 0 0 0-1.077-1.661l-3.463 4.9Zm3.408.426c-.124.021-.224.041-.37.068-.12.023-.31.058-.507.083a4.113 4.113 0 0 1-.916.018 3.353 3.353 0 0 1-1.615-.595l3.463-4.9a2.645 2.645 0 0 0-1.261-.476 2.177 2.177 0 0 0-.417 0l.149-.027c.101-.02.276-.053.458-.084l1.016 5.913Zm4.944-9.676c.724.85 1.283 1.901 1.425 3.116a5.054 5.054 0 0 1-.83 3.406c-1.221 1.84-3.397 2.774-5.523 3.151l-1.048-5.907c.63-.112 1.063-.275 1.33-.416.273-.146.296-.228.241-.145a.953.953 0 0 0-.13.606c.027.225.111.249-.032.08l4.567-3.89Z" mask="url(#b)"/><mask id="c" fill="#fff"><path fill-rule="evenodd" d="M151.022 67.454c14.574 1.677 27.748-8.778 29.425-23.352 1.677-14.574-8.778-27.748-23.352-29.425-14.574-1.677-27.748 8.778-29.425 23.352-1.677 14.574 8.778 27.748 23.352 29.425Zm2.427-42.593c.098-.852.215-1.578.267-1.62l-.006.01c.052-.033.677.02 1.383.11l1.303.184-.153 1.619-.154 1.633.386.044c.765.088 3.028.814 4.089 1.306.888.424 2.857 1.548 2.982 1.706.031.027-.638 1.107-1.479 2.388l-1.532 2.348-.945-.589c-.924-.572-2.478-1.23-3.6-1.528l-.557-.145-.759 6.598.767.352c2.319 1.068 4.324 2.379 5.429 3.533 1.694 1.764 2.393 4.043 1.984 6.472-.66 3.95-4.485 6.668-9.586 6.801l-.56.008-.219 1.611-.217 1.602-2.703-.311.153-1.619.154-1.633-.387-.045c-.75-.086-3.013-.812-4.087-1.32-.902-.43-2.858-1.538-2.983-1.696-.03-.027.639-1.107 1.479-2.388l1.532-2.348.946.589c.946.584 2.528 1.246 3.615 1.515l.543.144.758-6.589-.758-.35c-4.957-2.28-7.202-4.693-7.52-8.04-.432-4.629 3.289-8.27 8.887-8.701l1.37-.107.178-1.544ZM151.94 37.68c.024.003.177-1.247.353-2.772l.318-2.77-.26-.02c-.425-.05-1.608.222-2.212.489-.691.318-1.329.878-1.486 1.326-.288.84.288 1.943 1.385 2.67.391.255 1.808 1.066 1.902 1.077Zm4.896 9.077c-.492-.58-.911-.882-2.03-1.5h-.005l-.207-.111c-.304-.163-.535-.287-.555-.29-.023-.002-.177 1.247-.352 2.772-.225 1.953-.336 2.606-.103 2.77.143.102.417.018.876-.06 2.625-.466 3.677-2.054 2.376-3.58Z" clip-rule="evenodd"/></mask><path fill="#159C2A" d="m153.716 23.241-1.87-2.346 4.386 3.981-2.516-1.635Zm-.006.01 1.6 2.537-4.115-4.173 2.515 1.635Zm1.383.11.383-2.975.018.002.018.003-.419 2.97Zm1.303.184.418-2.97 2.838.399-.269 2.853-2.987-.282Zm-.153 1.619 2.987.282-2.987-.282Zm-.154 1.633-.343 2.98-2.921-.336.277-2.927 2.987.283Zm.386.044.343-2.98-.343 2.98Zm4.089 1.306 1.261-2.722.016.007.015.007-1.292 2.708Zm2.982 1.706-2.015 2.222-.184-.167-.155-.195 2.354-1.86Zm-1.479 2.388-2.512-1.64.004-.006 2.508 1.646Zm-1.532 2.348 2.513 1.64-1.605 2.46-2.494-1.553 1.586-2.547ZM159.59 34l1.579-2.55.006.003L159.59 34Zm-3.6-1.528.759-2.902.009.002-.768 2.9Zm-.557-.145-2.98-.343.395-3.434 3.344.875-.759 2.902Zm-.759 6.598-1.252 2.726-1.977-.908.249-2.161 2.98.343Zm.767.352 1.252-2.726.003.001-1.255 2.725Zm5.429 3.533-2.164 2.078-.003-.003 2.167-2.075Zm1.984 6.472-2.959-.494.001-.004 2.958.498Zm-9.586 6.801.078 3h-.037l-.041-3Zm-.56.008-2.972-.404.347-2.561 2.585-.035.04 3Zm-.219 1.611 2.973.404-2.973-.404Zm-.217 1.602 2.972.404-.396 2.912-2.919-.336.343-2.98Zm-2.703-.311-.343 2.98-2.92-.336.276-2.926 2.987.282Zm.153-1.619-2.987-.282 2.987.282Zm.154-1.633.343-2.98 2.921.336-.277 2.926-2.987-.282Zm-4.474-1.364-1.282 2.712-.01-.005 1.292-2.708Zm-2.983-1.697 2.016-2.222.184.167.154.195-2.354 1.86Zm1.479-2.388 2.513 1.64-.005.006-2.508-1.646Zm1.532-2.348-2.512-1.64 1.604-2.46 2.494 1.553-1.586 2.547Zm.946.589-1.576 2.553-.01-.006 1.586-2.547Zm3.615 1.515.721-2.912.024.006.025.006-.77 2.9Zm.543.144 2.98.343-.397 3.447-3.353-.89.77-2.9Zm.758-6.589 1.261-2.721 1.967.911-.248 2.154-2.98-.344Zm-.758-.35 1.253-2.726.009.003-1.262 2.722Zm-7.52-8.04-2.986.282-.001-.003 2.987-.28Zm8.887-8.701.233 2.99-.003.001-.23-2.991Zm1.37-.107 2.98.343-.283 2.457-2.465.192-.232-2.991Zm-.66 5.732.234-2.991 3.102.242-.355 3.091-2.981-.342Zm-.26-.02-.234 2.99-.055-.004-.054-.007.343-2.98Zm-2.212.489-1.256-2.725.023-.01.023-.01 1.21 2.744Zm-1.486 1.326-2.838-.972.003-.01.003-.01 2.832.992Zm1.385 2.67-1.644 2.509-.006-.004-.006-.004 1.656-2.502Zm4.768 8.654.343-2.98.589.067.519.287-1.451 2.626Zm2.03 1.5-2.283 1.946-.003-.004 2.286-1.942Zm-2.035-1.5-.343 2.98-.567-.066-.504-.269 1.414-2.646Zm-.207-.111-1.416 2.644 1.416-2.645Zm-1.01 5.252-1.732 2.45 1.732-2.45Zm.876-.06.524 2.953-.008.002-.008.001-.508-2.956Zm28.968-5.892c-1.867 16.22-16.529 27.856-32.749 25.99l.686-5.961c12.928 1.487 24.614-7.787 26.102-20.715l5.961.686Zm-25.99-32.749c16.22 1.867 27.856 16.529 25.99 32.749l-5.961-.686c1.488-12.928-7.787-24.614-20.715-26.102l.686-5.96Zm-32.748 25.99c1.866-16.22 16.528-27.856 32.748-25.99l-.686 5.961c-12.928-1.488-24.614 7.787-26.102 20.715l-5.96-.686Zm25.989 32.748c-16.22-1.866-27.856-16.528-25.989-32.748l5.96.686c-1.487 12.928 7.787 24.614 20.715 26.102l-.686 5.96Zm4.907-44.847a2.99 2.99 0 0 0 .822-1.028 2.623 2.623 0 0 0 .172-.458l.011-.042s-.011.05-.031.174c-.038.232-.086.577-.131.971l-5.961-.686c.053-.458.113-.902.171-1.256.028-.17.062-.361.102-.537.018-.08.052-.22.104-.378.024-.074.075-.22.158-.392.028-.06.273-.605.843-1.06l3.74 4.692Zm-4.391-3.972.006-.009 5.031 3.27-.006.01-5.031-3.27Zm3.515 4.722a18.504 18.504 0 0 0-.798-.087c-.102-.009-.141-.01-.133-.01a1.495 1.495 0 0 0 .167-.004 2.76 2.76 0 0 0 .667-.126c.132-.04.397-.133.697-.322l-3.199-5.076c.52-.328 1.013-.406 1.08-.419.166-.03.303-.04.374-.045.15-.01.28-.008.354-.006.161.004.333.015.481.027.31.026.691.067 1.076.117l-.766 5.95Zm1.267.178-1.302-.183.837-5.941 1.302.183-.837 5.941Zm-2.721-1.633.153-1.62 5.974.565-.153 1.619-5.974-.564Zm-.154 1.632.154-1.633 5.974.565-.155 1.633-5.973-.565Zm3.03 3.308-.386-.045.686-5.96.386.044-.686 5.96Zm3.172 1.047c-.367-.17-1.064-.43-1.81-.669a19.446 19.446 0 0 0-.967-.285c-.311-.081-.425-.097-.395-.093l.686-5.96c.713.081 1.732.376 2.504.623.842.27 1.808.618 2.503.94l-2.521 5.444Zm1.888.844c.139.176.266.293.313.337a1.77 1.77 0 0 0 .192.158l.011.008a.026.026 0 0 1 .004.003l-.003-.002-.008-.005a29.205 29.205 0 0 0-2.429-1.357l2.584-5.416c.545.26 1.335.69 1.974 1.056.327.187.647.375.906.536.126.079.264.166.389.253.061.043.147.104.239.177.033.025.293.224.536.532l-4.708 3.72Zm-1.633-1.118a78.81 78.81 0 0 0 1.024-1.598c.128-.207.214-.35.259-.43.028-.048.017-.032-.008.02a2.9 2.9 0 0 0-.258.857 2.997 2.997 0 0 0 .955 2.631l4.031-4.444a3.004 3.004 0 0 1 .81 3.24 3.297 3.297 0 0 1-.154.364c-.06.121-.124.236-.168.313-.098.17-.226.383-.367.609a83.203 83.203 0 0 1-1.108 1.73l-5.016-3.292Zm-1.536 2.355 1.532-2.348 5.025 3.278-1.532 2.348-5.025-3.278Zm3.152-1.497.946.59-3.172 5.093-.945-.59 3.171-5.093Zm-4.417-1.88c1.387.367 3.218 1.138 4.411 1.877l-3.158 5.1c-.654-.404-1.931-.95-2.789-1.177l1.536-5.8Zm-.566-.148.557.145-1.518 5.805-.557-.146 1.518-5.804Zm-4.498 9.157.759-6.598 5.96.686-.759 6.598-5.96-.686Zm2.495 3.421-.767-.352 2.504-5.453.767.353-2.504 5.452Zm4.514 2.882c-.739-.773-2.368-1.893-4.517-2.883l2.51-5.45c2.489 1.147 4.871 2.647 6.341 4.183l-4.334 4.15Zm1.193 3.9c.252-1.502-.158-2.823-1.19-3.897l4.328-4.156c2.357 2.455 3.343 5.69 2.779 9.048l-5.917-.996Zm-6.706 4.3c4.204-.11 6.361-2.236 6.705-4.297l5.918.988c-.976 5.84-6.47 9.15-12.467 9.306l-.156-5.998Zm-.522.006.56-.008.081 6-.56.007-.081-5.999Zm-3.151 4.207.219-1.611 5.945.808-.219 1.61-5.945-.807Zm-.218 1.602.218-1.602 5.945.808-.218 1.602-5.945-.808Zm.613-2.887 2.703.31-.686 5.961-2.703-.31.686-5.961Zm2.796 1.643-.152 1.619-5.974-.564.153-1.619 5.973.564Zm.155-1.633-.155 1.633-5.973-.564.154-1.634 5.974.565Zm-3.031-3.307.387.044-.686 5.961-.387-.044.686-5.961Zm-3.148-1.052c.365.173 1.058.435 1.803.675.358.115.692.214.963.285.31.082.419.096.382.092l-.686 5.96c-.708-.08-1.726-.377-2.499-.626-.842-.271-1.818-.626-2.527-.96l2.564-5.426Zm-1.911-.844a2.863 2.863 0 0 0-.509-.498c-.005-.004-.01-.007-.012-.01a.016.016 0 0 1-.004-.002l.01.007.029.019a23.203 23.203 0 0 0 .814.482c.595.338 1.238.681 1.593.85l-2.584 5.416a35.603 35.603 0 0 1-1.972-1.049 30.534 30.534 0 0 1-.904-.531 10.099 10.099 0 0 1-.389-.252 4.377 4.377 0 0 1-.241-.177c-.034-.027-.295-.226-.539-.535l4.708-3.72Zm1.633 1.118a78.81 78.81 0 0 0-1.024 1.598c-.128.207-.213.35-.259.43-.028.048-.017.032.009-.02.005-.012.061-.124.118-.283.021-.061.098-.28.139-.574a2.994 2.994 0 0 0-.954-2.631l-4.032 4.444a3.005 3.005 0 0 1-.81-3.24c.063-.178.132-.318.154-.364a5.93 5.93 0 0 1 .169-.313c.097-.17.226-.383.366-.609.286-.462.678-1.074 1.108-1.73l5.016 3.292Zm1.537-2.355-1.532 2.348-5.025-3.278 1.532-2.348 5.025 3.278Zm-3.153 1.497-.946-.59 3.172-5.093.945.59-3.171 5.093Zm4.48 1.88c-1.384-.343-3.256-1.124-4.47-1.874l3.151-5.106c.678.418 1.971.96 2.761 1.156l-1.442 5.824Zm.494.132-.542-.145 1.539-5.799.542.144-1.539 5.8Zm4.508-9.145-.758 6.588-5.961-.686.759-6.588 5.96.685Zm-2.476-3.417.757.352-2.523 5.444-.757-.352 2.523-5.444Zm-5.795-5.6c.165 1.739 1.175 3.477 5.786 5.597l-2.506 5.451c-5.302-2.438-8.784-5.526-9.253-10.483l5.973-.566Zm6.13-5.427c-4.496.346-6.358 2.988-6.13 5.43l-5.974.559c-.637-6.815 4.944-11.456 11.644-11.971l.46 5.982Zm1.372-.107-1.369.107-.465-5.982 1.37-.107.464 5.982Zm2.926-4.192-.178 1.544-5.96-.686.177-1.544 5.961.686Zm-1.156 10.046c-.088.767-.172 1.472-.237 1.99-.032.256-.062.483-.087.653a5.8 5.8 0 0 1-.101.534c-.011.04-.055.212-.143.419a3 3 0 0 1-.379.653c-.069.09-.995 1.36-2.729 1.16l.686-5.96a2.998 2.998 0 0 0-2.726 1.16c-.228.297-.343.568-.377.647-.085.201-.127.366-.136.397l-.03.128-.01.049a198.332 198.332 0 0 0 .308-2.516l5.961.686Zm.319-2.77-.319 2.77-5.961-.686.319-2.77 5.961.686Zm-3.007-3.355.26.02-.468 5.982-.26-.02.468-5.982Zm-3.656.736a9.822 9.822 0 0 1 1.727-.546c.28-.063.583-.12.879-.157.24-.03.684-.077 1.159-.022l-.686 5.96c.161.019.268.014.283.013.027 0 .028-.002-.003.002a5.547 5.547 0 0 0-.88.217.825.825 0 0 0-.058.022l-2.421-5.49Zm-3.108 3.08c.325-.928.961-1.59 1.382-1.964a6.954 6.954 0 0 1 1.68-1.096l2.512 5.449a.994.994 0 0 0-.207.134c-.02.017 0 .003.044-.054.023-.03.06-.081.102-.155.042-.073.099-.184.151-.332l-5.664-1.982Zm2.561 6.162c-.911-.603-1.706-1.425-2.218-2.41-.503-.97-.833-2.321-.349-3.733l5.676 1.944c.196-.572.011-.952-.003-.978-.022-.043.02.05.206.174l-3.312 5.003Zm3.215 1.556c-.334-.038-.587-.127-.637-.144a3.326 3.326 0 0 1-.43-.18 9.568 9.568 0 0 1-.289-.148 32.335 32.335 0 0 1-.625-.347 27.795 27.795 0 0 1-1.222-.73l3.288-5.018c.037.024.149.093.334.203a40.734 40.734 0 0 0 1.059.603l.089.047a2.689 2.689 0 0 0-.466-.168 2.95 2.95 0 0 0-.415-.078l-.686 5.96Zm4.66 1.97c1.228.68 2.023 1.192 2.866 2.185l-4.573 3.884a1.436 1.436 0 0 0-.272-.262c-.141-.103-.383-.256-.923-.555l2.902-5.251Zm-1.113-.354h.005l-.686 5.961h-.005l.686-5.961Zm.866.225.205.109-2.828 5.292-.209-.112 2.832-5.29Zm-1.628-.625a2.999 2.999 0 0 1 .897.248c.064.028.118.055.146.068a66.536 66.536 0 0 1 .585.308l-2.832 5.29a42.444 42.444 0 0 0-.363-.193l-.057-.03.019.01.056.025a3.002 3.002 0 0 0 .863.235l.686-5.96Zm-3.675 5.41c.088-.767.171-1.473.236-1.99.033-.257.062-.484.087-.654.012-.078.027-.178.044-.273.007-.035.026-.14.058-.26.01-.04.055-.213.142-.419.035-.081.151-.354.379-.653.069-.09.996-1.36 2.729-1.16l-.686 5.96a3 3 0 0 0 3.103-1.807c.086-.202.128-.367.136-.398.016-.06.026-.106.03-.127l.01-.05c.004-.02.002-.011-.007.05-.016.112-.04.292-.071.539a194.39 194.39 0 0 0-.23 1.927l-5.96-.686Zm1.145 5.562c-1.007-.712-1.266-1.727-1.343-2.193a5.21 5.21 0 0 1-.04-1.16c.034-.53.136-1.325.238-2.21l5.96.686c-.06.527-.103.878-.143 1.23-.038.336-.058.54-.066.67-.004.063-.003.077-.004.06 0-.012-.001-.105-.024-.245a2.688 2.688 0 0 0-1.115-1.737l-3.463 4.9Zm3.116.446-.266.05a7.235 7.235 0 0 1-.425.068c-.163.02-.478.053-.854.016a3.268 3.268 0 0 1-1.571-.58l3.463-4.9a2.733 2.733 0 0 0-1.305-.49c-.27-.027-.461-.002-.479 0l.066-.012c.071-.013.211-.04.355-.065l1.016 5.913Zm4.152-8.482c.615.722 1.115 1.645 1.243 2.736a4.542 4.542 0 0 1-.743 3.056c-1.078 1.625-2.947 2.388-4.636 2.687l-1.048-5.907c.412-.073.659-.173.776-.236.124-.066.035-.051-.091.139-.15.225-.263.573-.218.956.041.35.185.5.15.46l4.567-3.891Z" mask="url(#c)"/></svg>