<svg width="73" height="84" viewBox="0 0 73 84" fill="none" xmlns="http://www.w3.org/2000/svg">
<path d="M7.02963 83.7951H65.9704C67.8347 83.7951 69.6228 83.0776 70.9411 81.8004C72.2594 80.5233 73 78.7911 73 76.9849V40.3149C73 38.5087 72.2594 36.7765 70.9411 35.4994C69.6228 34.2222 67.8347 33.5047 65.9704 33.5047H61.4146C62.733 29.6792 63.0938 25.605 62.4675 21.6178C61.8411 17.6307 60.2455 13.8449 57.8121 10.5725C55.3788 7.30018 52.1774 4.63504 48.4719 2.79683C44.7664 0.958623 40.663 0 36.5 0C32.337 0 28.2336 0.958623 24.5281 2.79683C20.8226 4.63504 17.6212 7.30018 15.1879 10.5725C12.7545 13.8449 11.1589 17.6307 10.5325 21.6178C9.90616 25.605 10.267 29.6792 11.5854 33.5047H7.02963C5.16526 33.5047 3.37724 34.2222 2.05893 35.4994C0.740619 36.7765 0 38.5087 0 40.3149V76.9849C0 78.7911 0.740619 80.5233 2.05893 81.8004C3.37724 83.0776 5.16526 83.7951 7.02963 83.7951ZM25.577 17.1865C25.5806 15.5099 26.2697 13.903 27.4934 12.7175C28.7171 11.532 30.3759 10.8644 32.1065 10.8609H33.7963V8.16308H39.2037V10.8609H46.0981V16.0995H32.1065C31.9586 16.0978 31.8119 16.1247 31.675 16.1787C31.538 16.2327 31.4136 16.3127 31.309 16.414C31.2045 16.5153 31.1219 16.6358 31.0662 16.7685C31.0104 16.9012 30.9826 17.0433 30.9844 17.1865V21.7179C30.9826 21.8611 31.0104 22.0033 31.0662 22.136C31.1219 22.2686 31.2045 22.3892 31.309 22.4904C31.4136 22.5917 31.538 22.6717 31.675 22.7257C31.8119 22.7798 31.9586 22.8067 32.1065 22.8049H40.8935C42.6241 22.8084 44.2829 23.4759 45.5066 24.6615C46.7303 25.847 47.4194 27.4539 47.423 29.1305V33.5047H42.0156V29.1305C42.0156 28.8422 41.8973 28.5657 41.6869 28.3619C41.4765 28.158 41.1911 28.0435 40.8935 28.0435H32.1065C30.3759 28.04 28.7171 27.3725 27.4934 26.1869C26.2697 25.0014 25.5806 23.3945 25.577 21.7179V17.1865ZM5.40741 40.3149C5.40741 39.8981 5.57832 39.4983 5.88254 39.2036C6.18677 38.9089 6.59939 38.7433 7.02963 38.7433H65.9704C66.4006 38.7433 66.8132 38.9089 67.1175 39.2036C67.4217 39.4983 67.5926 39.8981 67.5926 40.3149V44.5057H5.40741V40.3149ZM5.40741 58.9118H67.5926V76.9849C67.5926 77.4017 67.4217 77.8015 67.1175 78.0962C66.8132 78.3909 66.4006 78.5565 65.9704 78.5565H7.02963C6.59939 78.5565 6.18677 78.3909 5.88254 78.0962C5.57832 77.8015 5.40741 77.4017 5.40741 76.9849V58.9118Z" fill="#159C2A"/>
<path d="M34.6073 65.4607H10.2739V70.6994H34.6073V65.4607Z" fill="#159C2A"/>
</svg>
