<svg width="48" height="61" viewBox="0 0 48 61" fill="none" xmlns="http://www.w3.org/2000/svg">
<path d="M5.95751 50.4267V7.68945H3.48646C1.86262 7.68945 0.591797 9.02037 0.591797 10.721V57.9685C0.591797 59.6692 1.86262 61.0001 3.48646 61.0001H37.1633C38.7872 61.0001 40.058 59.6692 40.058 57.9685V55.5285H10.829C8.14615 55.5285 5.95751 53.2364 5.95751 50.4267Z" fill="black"/>
<path d="M37.4456 12.9394H47.471L35.1157 0V0.0739388V10.4994C35.1157 11.8303 36.1747 12.9394 37.4456 12.9394Z" fill="#159C2A"/>
<path d="M33.1398 10.4991V0.0736084H10.8297C9.20588 0.0736084 7.93506 1.40452 7.93506 3.10514V50.4265C7.93506 52.1272 9.20588 53.4581 10.8297 53.4581H44.5066C46.1304 53.4581 47.4013 52.1272 47.4013 50.4265V15.0094H37.4465C35.046 15.0094 33.1398 13.0131 33.1398 10.4991ZM18.4547 14.7876H27.4211C27.9859 14.7876 28.4095 15.2312 28.4095 15.8228C28.4095 16.4143 27.9859 16.8579 27.4211 16.8579H18.4547C17.8899 16.8579 17.4663 16.4143 17.4663 15.8228C17.3956 15.2312 17.8899 14.7876 18.4547 14.7876ZM37.0228 43.9938H18.4547C17.8899 43.9938 17.4663 43.5501 17.4663 42.9586C17.4663 42.3671 17.8899 41.9235 18.4547 41.9235H37.0228C37.5877 41.9235 38.0113 42.3671 38.0113 42.9586C38.0113 43.4762 37.5171 43.9938 37.0228 43.9938ZM37.0228 34.9731H18.4547C17.8899 34.9731 17.4663 34.5295 17.4663 33.938C17.4663 33.3465 17.8899 32.9028 18.4547 32.9028H37.0228C37.5877 32.9028 38.0113 33.3465 38.0113 33.938C38.0113 34.5295 37.5171 34.9731 37.0228 34.9731ZM38.0113 24.8434C38.0113 25.4349 37.5877 25.8786 37.0228 25.8786H18.4547C17.8899 25.8786 17.4663 25.4349 17.4663 24.8434C17.4663 24.2519 17.8899 23.8083 18.4547 23.8083H37.0228C37.5171 23.8083 38.0113 24.2519 38.0113 24.8434Z" fill="#159C2A"/>
</svg>
