<svg width="69" height="64" viewBox="0 0 69 64" fill="none" xmlns="http://www.w3.org/2000/svg">
<rect x="11.6138" width="43.448" height="4.20464" rx="1" fill="#159C2A"/>
<path d="M59.3749 37.1944C57.085 37.1944 54.8555 36.582 52.9062 35.4521C49.0078 37.7076 43.8673 37.7076 39.9689 35.4521C36.0704 37.7076 30.9256 37.7076 27.0315 35.4521C23.1373 37.7076 17.9883 37.7076 14.0941 35.4521C10.8555 37.3324 6.84489 37.5739 3.31299 36.3535V58.7567C3.31299 61.1371 5.24497 63.0691 7.62544 63.0691H42.1251V41.5068H55.0625V63.0691H59.3749C61.7554 63.0691 63.6874 61.1371 63.6874 58.7567V36.4052C62.316 36.8925 60.8713 37.1944 59.3749 37.1944ZM29.1877 54.4442H11.9379V41.5068H29.1877V54.4442Z" fill="#159C2A"/>
<path d="M68.6115 22.9992L57.8304 7.90562C57.3991 7.345 56.7523 7 56.0623 7H12.9377C12.2477 7 11.6009 7.345 11.1696 7.90562L0.388477 22.9992C0.259103 23.3873 0.12973 23.7755 0.000355924 24.1636C-0.0427686 28.9504 3.83844 32.8747 8.62527 32.8747C11.2127 32.8747 13.4983 31.7535 15.0939 29.9423C16.6896 31.7535 18.9752 32.8747 21.5626 32.8747C24.1501 32.8747 26.4357 31.7535 28.0313 29.9423C29.6269 31.7535 31.9125 32.8747 34.5 32.8747C37.0875 32.8747 39.3731 31.7535 40.9687 29.9423C42.5643 31.7535 44.8499 32.8747 47.4374 32.8747C50.0248 32.8747 52.3104 31.7535 53.906 29.9423C55.5017 31.7535 57.7873 32.8747 60.3747 32.8747C65.1616 32.8747 69.0428 28.9504 68.9996 24.1636C68.8703 23.7755 68.7409 23.3873 68.6115 22.9992Z" fill="#159C2A"/>
</svg>
