<svg width="136" height="39" viewBox="0 0 136 39" fill="none" xmlns="http://www.w3.org/2000/svg">
<path d="M50.3843 17.5524L46.2219 7.1613H43.9024L39.74 17.5524H41.853L42.6315 15.5583H47.4929L48.2714 17.5524H50.3843ZM46.9686 13.9537H43.1557L45.0622 8.99961L46.9686 13.9537Z" fill="#042F05" fill-opacity="0.69"/>
<path d="M56.067 17.7394C58.2118 17.7394 59.5145 16.6488 60.3247 15.4025L58.736 14.608C58.2276 15.4804 57.2109 16.1192 56.067 16.1192C53.9699 16.1192 52.413 14.5457 52.413 12.3646C52.413 10.1836 53.9699 8.61014 56.067 8.61014C57.2109 8.61014 58.2276 9.26445 58.736 10.1213L60.3247 9.32677C59.5304 8.08046 58.2118 6.98993 56.067 6.98993C52.9373 6.98993 50.5066 9.17098 50.5066 12.3646C50.5066 15.5583 52.9373 17.7394 56.067 17.7394Z" fill="#042F05" fill-opacity="0.69"/>
<path d="M66.8962 17.7394C69.041 17.7394 70.3437 16.6488 71.1539 15.4025L69.5652 14.608C69.0569 15.4804 68.0401 16.1192 66.8962 16.1192C64.7991 16.1192 63.2422 14.5457 63.2422 12.3646C63.2422 10.1836 64.7991 8.61014 66.8962 8.61014C68.0401 8.61014 69.0569 9.26445 69.5652 10.1213L71.1539 9.32677C70.3596 8.08046 69.041 6.98993 66.8962 6.98993C63.7665 6.98993 61.3358 9.17098 61.3358 12.3646C61.3358 15.5583 63.7665 17.7394 66.8962 17.7394Z" fill="#042F05" fill-opacity="0.69"/>
<path d="M80.8393 17.5524L78.2497 13.4707C79.5207 13.2682 80.7599 12.2712 80.7599 10.4173C80.7599 8.50109 79.3936 7.1613 77.2965 7.1613H72.6416V17.5524H74.5004V13.6733H76.3433L78.6945 17.5524H80.8393ZM77.0423 12.0686H74.5004V8.76593H77.0423C78.0908 8.76593 78.8534 9.42024 78.8534 10.4173C78.8534 11.4143 78.0908 12.0686 77.0423 12.0686Z" fill="#042F05" fill-opacity="0.69"/>
<path d="M89.8779 17.5524V15.9478H84.4763V13.0657H89.7667V11.4611H84.4763V8.76593H89.8779V7.1613H82.6175V17.5524H89.8779Z" fill="#042F05" fill-opacity="0.69"/>
<path d="M95.7266 17.5524C99.0311 17.5524 101.271 15.4181 101.271 12.3646C101.271 9.31119 99.0311 7.1613 95.7266 7.1613H91.7867V17.5524H95.7266ZM95.7266 15.9478H93.6454V8.76593H95.7266C98.0938 8.76593 99.3648 10.355 99.3648 12.3646C99.3648 14.3276 98.0303 15.9478 95.7266 15.9478Z" fill="#042F05" fill-opacity="0.69"/>
<path d="M104.925 17.5524V7.1613H103.066V17.5524H104.925Z" fill="#042F05" fill-opacity="0.69"/>
<path d="M111.562 17.5524V8.76593H114.771V7.1613H106.494V8.76593H109.703V17.5524H111.562Z" fill="#042F05" fill-opacity="0.69"/>
<path d="M123.607 17.5524V15.9478H118.205V13.0657H123.495V11.4611H118.205V8.76593H123.607V7.1613H116.346V17.5524H123.607Z" fill="#042F05" fill-opacity="0.69"/>
<path d="M129.455 17.5524C132.76 17.5524 135 15.4181 135 12.3646C135 9.31119 132.76 7.1613 129.455 7.1613H125.515V17.5524H129.455ZM129.455 15.9478H127.374V8.76593H129.455C131.823 8.76593 133.094 10.355 133.094 12.3646C133.094 14.3276 131.759 15.9478 129.455 15.9478Z" fill="#042F05" fill-opacity="0.69"/>
<path d="M46.206 36.0523C48.1919 36.0523 49.2881 34.8527 49.2881 33.2481C49.2881 31.9707 48.3667 30.8646 47.2387 30.6932C48.2237 30.4907 49.0816 29.6182 49.0816 28.3096C49.0816 26.8452 48.0013 25.6612 46.0631 25.6612H40.8521V36.0523H46.206ZM45.6818 29.961H42.7109V27.2658H45.6818C46.635 27.2658 47.1751 27.8423 47.1751 28.6212C47.1751 29.4001 46.635 29.961 45.6818 29.961ZM45.7612 34.4477H42.7109V31.5656H45.7612C46.8256 31.5656 47.3817 32.2199 47.3817 32.9989C47.3817 33.9024 46.778 34.4477 45.7612 34.4477Z" fill="#042F05" fill-opacity="0.69"/>
<path d="M55.7452 36.2393C58.8114 36.2393 60.3206 34.5256 60.3206 31.9395V25.6612H58.446V31.8928C58.446 33.5441 57.5086 34.6191 55.7452 34.6191C53.9658 34.6191 53.0285 33.5441 53.0285 31.8928V25.6612H51.1538V31.9551C51.1538 34.51 52.6631 36.2393 55.7452 36.2393Z" fill="#042F05" fill-opacity="0.69"/>
<path d="M66.1948 36.2393C69.0545 36.2393 70.2937 34.7593 70.2937 33.03C70.2937 29.1509 64.1295 30.3505 64.1295 28.4187C64.1295 27.6397 64.8286 27.1256 65.9248 27.1256C67.0369 27.1256 68.1648 27.4995 68.991 28.3096L70.0554 26.9543C69.0704 26.0195 67.7359 25.5054 66.0836 25.5054C63.7641 25.5054 62.2231 26.8296 62.2231 28.5433C62.2231 32.3757 68.4031 31.0203 68.4031 33.2014C68.4031 33.8869 67.7994 34.6191 66.2743 34.6191C64.7968 34.6191 63.6529 33.9492 62.9221 33.1858L61.8895 34.5879C62.8268 35.5694 64.2407 36.2393 66.1948 36.2393Z" fill="#042F05" fill-opacity="0.69"/>
<path d="M73.8643 36.0523V25.6612H72.0055V36.0523H73.8643Z" fill="#042F05" fill-opacity="0.69"/>
<path d="M85.2996 36.0523V25.6612H83.4408V32.8742L78.0233 25.6612H76.1169V36.0523H77.9757V28.6368L83.5043 36.0523H85.2996Z" fill="#042F05" fill-opacity="0.69"/>
<path d="M94.8115 36.0523V34.4477H89.41V31.5656H94.7003V29.961H89.41V27.2658H94.8115V25.6612H87.5512V36.0523H94.8115Z" fill="#042F05" fill-opacity="0.69"/>
<path d="M100.343 36.2393C103.202 36.2393 104.441 34.7593 104.441 33.03C104.441 29.1509 98.2772 30.3505 98.2772 28.4187C98.2772 27.6397 98.9763 27.1256 100.072 27.1256C101.185 27.1256 102.313 27.4995 103.139 28.3096L104.203 26.9543C103.218 26.0195 101.884 25.5054 100.231 25.5054C97.9118 25.5054 96.3708 26.8296 96.3708 28.5433C96.3708 32.3757 102.551 31.0203 102.551 33.2014C102.551 33.8869 101.947 34.6191 100.422 34.6191C98.9445 34.6191 97.8006 33.9492 97.0698 33.1858L96.0372 34.5879C96.9745 35.5694 98.3885 36.2393 100.343 36.2393Z" fill="#042F05" fill-opacity="0.69"/>
<path d="M109.775 36.2393C112.635 36.2393 113.874 34.7593 113.874 33.03C113.874 29.1509 107.71 30.3505 107.71 28.4187C107.71 27.6397 108.409 27.1256 109.505 27.1256C110.617 27.1256 111.745 27.4995 112.572 28.3096L113.636 26.9543C112.651 26.0195 111.316 25.5054 109.664 25.5054C107.345 25.5054 105.804 26.8296 105.804 28.5433C105.804 32.3757 111.984 31.0203 111.984 33.2014C111.984 33.8869 111.38 34.6191 109.855 34.6191C108.377 34.6191 107.234 33.9492 106.503 33.1858L105.47 34.5879C106.407 35.5694 107.821 36.2393 109.775 36.2393Z" fill="#042F05" fill-opacity="0.69"/>
<path fill-rule="evenodd" clip-rule="evenodd" d="M9.24941 12.4436L7.42578 14.8955C6.52843 16.1215 6.78895 18.3169 8.03366 19.2007L11.4204 21.5957C11.9993 21.9948 12.0572 22.4225 11.7678 22.8502L12.2599 23.2208L13.9677 20.8829C14.2368 20.5513 14.4351 20.1695 14.5505 19.7605C14.6659 19.3514 14.6961 18.9236 14.6394 18.5028C14.5826 18.082 14.4399 17.6768 14.22 17.3117C14.0002 16.9465 13.7076 16.629 13.3598 16.3781L9.97308 13.9547C9.79234 13.8242 9.66815 13.6314 9.62523 13.4148C9.58231 13.1982 9.62383 12.9736 9.7415 12.7857L9.24941 12.4436Z" fill="#042F05" fill-opacity="0.69"/>
<path fill-rule="evenodd" clip-rule="evenodd" d="M12.1443 1L9.30754 4.84901C7.97598 6.64521 8.46808 9.72442 10.2628 11.0359L14.9232 14.4003C15.8784 15.0845 15.9942 16.8237 15.2995 17.7076L15.7048 17.9927L18.9179 13.5449C20.3652 11.5491 20.2783 8.61249 18.0205 6.98735L13.0417 3.45197C12.8608 3.34857 12.704 3.20901 12.5812 3.04228C12.4584 2.87556 12.3725 2.68535 12.3288 2.48392C12.2852 2.28248 12.2849 2.07428 12.3279 1.87272C12.3709 1.67116 12.4563 1.4807 12.5785 1.31361L12.1443 1Z" fill="#042F05" fill-opacity="0.69"/>
<path fill-rule="evenodd" clip-rule="evenodd" d="M4.70509 26.253H8.4392L9.10499 28.4769H15.2127L15.8785 26.253H19.6126L19.1205 24.5994H5.16824L4.70509 26.253Z" fill="#042F05" fill-opacity="0.69"/>
<path fill-rule="evenodd" clip-rule="evenodd" d="M7.91823 35.434C7.74456 34.3791 7.31035 34.1225 6.44196 33.7518C6.76516 33.594 7.0369 33.35 7.22625 33.0476C7.41559 32.7451 7.51494 32.3964 7.51298 32.0411C7.51298 30.5015 6.23933 29.9028 4.8499 29.9028H1V38H4.84992C6.47091 38 8.2077 37.2872 7.91823 35.434ZM2.73679 31.4424H4.76303C4.88191 31.4316 5.00178 31.4446 5.11543 31.4806C5.22908 31.5166 5.33415 31.5749 5.42431 31.652C5.51448 31.7291 5.58788 31.8234 5.64008 31.9291C5.69229 32.0349 5.72222 32.1499 5.72809 32.2674C5.73395 32.3848 5.71562 32.5022 5.6742 32.6125C5.63279 32.7228 5.56913 32.8237 5.48708 32.9091C5.40503 32.9945 5.30628 33.0627 5.19677 33.1095C5.08726 33.1564 4.96926 33.1809 4.84987 33.1816H2.73679V31.4424ZM4.99463 36.4604H2.73679V34.6072H4.99463C6.64458 34.6072 6.5288 36.4604 4.99463 36.4604Z" fill="#042F05" fill-opacity="0.69"/>
<path fill-rule="evenodd" clip-rule="evenodd" d="M15.6182 35.434C15.4445 34.3791 15.0103 34.1225 14.1419 33.7518C14.4651 33.594 14.7369 33.35 14.9262 33.0476C15.1156 32.7451 15.2149 32.3964 15.2129 32.0411C15.2129 30.5015 13.9393 29.9028 12.5499 29.9028H8.67102V38H12.5209C14.1709 38 15.9077 37.2872 15.6182 35.434ZM10.4368 31.4424H12.463C12.5819 31.4316 12.7018 31.4446 12.8154 31.4806C12.9291 31.5166 13.0341 31.5749 13.1243 31.652C13.2145 31.7291 13.2879 31.8234 13.3401 31.9291C13.3923 32.0349 13.4222 32.1499 13.4281 32.2674C13.4339 32.3848 13.4156 32.5022 13.3742 32.6125C13.3328 32.7228 13.2691 32.8237 13.1871 32.9091C13.105 32.9945 13.0063 33.0627 12.8968 33.1095C12.7872 33.1564 12.6692 33.1809 12.5499 33.1816H10.4657V31.4424H10.4368ZM12.6946 36.4604H10.4368V34.6072H12.6946C14.3446 34.6072 14.2288 36.4604 12.6946 36.4604Z" fill="#042F05" fill-opacity="0.69"/>
<path fill-rule="evenodd" clip-rule="evenodd" d="M23.3173 35.434C23.1437 34.3791 22.7094 34.1225 21.8411 33.7518C22.1643 33.594 22.436 33.35 22.6253 33.0476C22.8147 32.7451 22.914 32.3964 22.9121 32.0411C22.9121 30.5015 21.6384 29.9028 20.249 29.9028H16.3702V38H20.22C21.8411 38 23.5779 37.2872 23.3173 35.434ZM18.1359 31.4424H20.1622C20.281 31.4316 20.4009 31.4446 20.5146 31.4806C20.6282 31.5166 20.7333 31.5749 20.8234 31.652C20.9136 31.7291 20.987 31.8234 21.0392 31.9291C21.0914 32.0349 21.1213 32.1499 21.1272 32.2674C21.1331 32.3848 21.1147 32.5022 21.0733 32.6125C21.0319 32.7228 20.9683 32.8237 20.8862 32.9091C20.8042 32.9945 20.7054 33.0627 20.5959 33.1095C20.4864 33.1564 20.3684 33.1809 20.249 33.1816H18.1649V31.4424H18.1359ZM20.3648 36.4604H18.1069V34.6072H20.3648C22.0147 34.6072 21.9279 36.4604 20.3648 36.4604Z" fill="#042F05" fill-opacity="0.69"/>
<path d="M22.3401 16.0121C24.6282 12.951 26.687 9.72985 28.5002 6.37427L28.5226 6.35001C28.5226 6.35001 30.0126 7.41057 30.4571 7.84404C30.7243 8.08506 30.7462 8.15731 30.7462 8.37407C30.7462 9.38611 25.4981 23.8431 25.4981 23.8431C25.1646 23.6134 24.8521 23.3554 24.5643 23.0721C24.299 22.8088 24.0537 22.5268 23.8302 22.2283L25.4089 16.8311C24.5643 16.8796 23.274 16.9761 22.6959 16.9761C19.6271 20.9515 16.3137 23.8431 16.1358 23.8431C15.5171 23.4514 14.9748 22.9536 14.5346 22.3733C14.6563 21.055 14.8493 19.744 15.1126 18.4459C15.1551 18.3548 15.2156 18.2729 15.2905 18.2049C15.5352 18.2049 17.2919 19.8192 17.2919 19.9395C17.2919 20.084 16.5802 22.108 16.5802 22.108C18.4227 20.5463 20.1061 18.8113 21.6066 16.9276C20.8463 16.8511 20.0782 16.9083 19.3381 17.0964C18.604 17.4576 18.5373 17.8194 18.4261 17.8194C18.2925 17.8194 18.2707 16.7109 18.4261 16.5178C18.9823 15.7231 21.3619 16.1808 22.2065 16.1808L22.3401 16.0121ZM23.3189 16.1566L25.6536 16.0121L27.5219 9.72365C26.302 11.9776 24.8962 14.1291 23.3189 16.1566Z" fill="#042F05" fill-opacity="0.69"/>
<path d="M50.3843 17.5524L46.2219 7.1613H43.9024L39.74 17.5524H41.853L42.6315 15.5583H47.4929L48.2714 17.5524H50.3843ZM46.9686 13.9537H43.1557L45.0622 8.99961L46.9686 13.9537Z" stroke="white" stroke-width="0.15" stroke-miterlimit="10"/>
<path d="M56.067 17.7394C58.2118 17.7394 59.5145 16.6488 60.3247 15.4025L58.736 14.608C58.2276 15.4804 57.2109 16.1192 56.067 16.1192C53.9699 16.1192 52.413 14.5457 52.413 12.3646C52.413 10.1836 53.9699 8.61014 56.067 8.61014C57.2109 8.61014 58.2276 9.26445 58.736 10.1213L60.3247 9.32677C59.5304 8.08046 58.2118 6.98993 56.067 6.98993C52.9373 6.98993 50.5066 9.17098 50.5066 12.3646C50.5066 15.5583 52.9373 17.7394 56.067 17.7394Z" stroke="white" stroke-width="0.15" stroke-miterlimit="10"/>
<path d="M66.8962 17.7394C69.041 17.7394 70.3437 16.6488 71.1539 15.4025L69.5652 14.608C69.0569 15.4804 68.0401 16.1192 66.8962 16.1192C64.7991 16.1192 63.2422 14.5457 63.2422 12.3646C63.2422 10.1836 64.7991 8.61014 66.8962 8.61014C68.0401 8.61014 69.0569 9.26445 69.5652 10.1213L71.1539 9.32677C70.3596 8.08046 69.041 6.98993 66.8962 6.98993C63.7665 6.98993 61.3358 9.17098 61.3358 12.3646C61.3358 15.5583 63.7665 17.7394 66.8962 17.7394Z" stroke="white" stroke-width="0.15" stroke-miterlimit="10"/>
<path d="M80.8393 17.5524L78.2497 13.4707C79.5207 13.2682 80.7599 12.2712 80.7599 10.4173C80.7599 8.50109 79.3936 7.1613 77.2965 7.1613H72.6416V17.5524H74.5004V13.6733H76.3433L78.6945 17.5524H80.8393ZM77.0423 12.0686H74.5004V8.76593H77.0423C78.0908 8.76593 78.8534 9.42024 78.8534 10.4173C78.8534 11.4143 78.0908 12.0686 77.0423 12.0686Z" stroke="white" stroke-width="0.15" stroke-miterlimit="10"/>
<path d="M89.8779 17.5524V15.9478H84.4763V13.0657H89.7667V11.4611H84.4763V8.76593H89.8779V7.1613H82.6175V17.5524H89.8779Z" stroke="white" stroke-width="0.15" stroke-miterlimit="10"/>
<path d="M95.7266 17.5524C99.0311 17.5524 101.271 15.4181 101.271 12.3646C101.271 9.31119 99.0311 7.1613 95.7266 7.1613H91.7867V17.5524H95.7266ZM95.7266 15.9478H93.6454V8.76593H95.7266C98.0938 8.76593 99.3648 10.355 99.3648 12.3646C99.3648 14.3276 98.0303 15.9478 95.7266 15.9478Z" stroke="white" stroke-width="0.15" stroke-miterlimit="10"/>
<path d="M104.925 17.5524V7.1613H103.066V17.5524H104.925Z" stroke="white" stroke-width="0.15" stroke-miterlimit="10"/>
<path d="M111.562 17.5524V8.76593H114.771V7.1613H106.494V8.76593H109.703V17.5524H111.562Z" stroke="white" stroke-width="0.15" stroke-miterlimit="10"/>
<path d="M123.607 17.5524V15.9478H118.205V13.0657H123.495V11.4611H118.205V8.76593H123.607V7.1613H116.346V17.5524H123.607Z" stroke="white" stroke-width="0.15" stroke-miterlimit="10"/>
<path d="M129.455 17.5524C132.76 17.5524 135 15.4181 135 12.3646C135 9.31119 132.76 7.1613 129.455 7.1613H125.515V17.5524H129.455ZM129.455 15.9478H127.374V8.76593H129.455C131.823 8.76593 133.094 10.355 133.094 12.3646C133.094 14.3276 131.759 15.9478 129.455 15.9478Z" stroke="white" stroke-width="0.15" stroke-miterlimit="10"/>
<path d="M46.206 36.0523C48.1919 36.0523 49.2881 34.8527 49.2881 33.2481C49.2881 31.9707 48.3667 30.8646 47.2387 30.6932C48.2237 30.4907 49.0816 29.6182 49.0816 28.3096C49.0816 26.8452 48.0013 25.6612 46.0631 25.6612H40.8521V36.0523H46.206ZM45.6818 29.961H42.7109V27.2658H45.6818C46.635 27.2658 47.1751 27.8423 47.1751 28.6212C47.1751 29.4001 46.635 29.961 45.6818 29.961ZM45.7612 34.4477H42.7109V31.5656H45.7612C46.8256 31.5656 47.3817 32.2199 47.3817 32.9989C47.3817 33.9024 46.778 34.4477 45.7612 34.4477Z" stroke="white" stroke-width="0.15" stroke-miterlimit="10"/>
<path d="M55.7452 36.2393C58.8114 36.2393 60.3206 34.5256 60.3206 31.9395V25.6612H58.446V31.8928C58.446 33.5441 57.5086 34.6191 55.7452 34.6191C53.9658 34.6191 53.0285 33.5441 53.0285 31.8928V25.6612H51.1538V31.9551C51.1538 34.51 52.6631 36.2393 55.7452 36.2393Z" stroke="white" stroke-width="0.15" stroke-miterlimit="10"/>
<path d="M66.1948 36.2393C69.0545 36.2393 70.2937 34.7593 70.2937 33.03C70.2937 29.1509 64.1295 30.3505 64.1295 28.4187C64.1295 27.6397 64.8286 27.1256 65.9248 27.1256C67.0369 27.1256 68.1648 27.4995 68.991 28.3096L70.0554 26.9543C69.0704 26.0195 67.7359 25.5054 66.0836 25.5054C63.7641 25.5054 62.2231 26.8296 62.2231 28.5433C62.2231 32.3757 68.4031 31.0203 68.4031 33.2014C68.4031 33.8869 67.7994 34.6191 66.2743 34.6191C64.7968 34.6191 63.6529 33.9492 62.9221 33.1858L61.8895 34.5879C62.8268 35.5694 64.2407 36.2393 66.1948 36.2393Z" stroke="white" stroke-width="0.15" stroke-miterlimit="10"/>
<path d="M73.8643 36.0523V25.6612H72.0055V36.0523H73.8643Z" stroke="white" stroke-width="0.15" stroke-miterlimit="10"/>
<path d="M85.2996 36.0523V25.6612H83.4408V32.8742L78.0233 25.6612H76.1169V36.0523H77.9757V28.6368L83.5043 36.0523H85.2996Z" stroke="white" stroke-width="0.15" stroke-miterlimit="10"/>
<path d="M94.8115 36.0523V34.4477H89.41V31.5656H94.7003V29.961H89.41V27.2658H94.8115V25.6612H87.5512V36.0523H94.8115Z" stroke="white" stroke-width="0.15" stroke-miterlimit="10"/>
<path d="M100.343 36.2393C103.202 36.2393 104.441 34.7593 104.441 33.03C104.441 29.1509 98.2772 30.3505 98.2772 28.4187C98.2772 27.6397 98.9763 27.1256 100.072 27.1256C101.185 27.1256 102.313 27.4995 103.139 28.3096L104.203 26.9543C103.218 26.0195 101.884 25.5054 100.231 25.5054C97.9118 25.5054 96.3708 26.8296 96.3708 28.5433C96.3708 32.3757 102.551 31.0203 102.551 33.2014C102.551 33.8869 101.947 34.6191 100.422 34.6191C98.9445 34.6191 97.8006 33.9492 97.0698 33.1858L96.0372 34.5879C96.9745 35.5694 98.3885 36.2393 100.343 36.2393Z" stroke="white" stroke-width="0.15" stroke-miterlimit="10"/>
<path d="M109.775 36.2393C112.635 36.2393 113.874 34.7593 113.874 33.03C113.874 29.1509 107.71 30.3505 107.71 28.4187C107.71 27.6397 108.409 27.1256 109.505 27.1256C110.617 27.1256 111.745 27.4995 112.572 28.3096L113.636 26.9543C112.651 26.0195 111.316 25.5054 109.664 25.5054C107.345 25.5054 105.804 26.8296 105.804 28.5433C105.804 32.3757 111.984 31.0203 111.984 33.2014C111.984 33.8869 111.38 34.6191 109.855 34.6191C108.377 34.6191 107.234 33.9492 106.503 33.1858L105.47 34.5879C106.407 35.5694 107.821 36.2393 109.775 36.2393Z" stroke="white" stroke-width="0.15" stroke-miterlimit="10"/>
<path fill-rule="evenodd" clip-rule="evenodd" d="M9.24941 12.4436L7.42578 14.8955C6.52843 16.1215 6.78895 18.3169 8.03366 19.2007L11.4204 21.5957C11.9993 21.9948 12.0572 22.4225 11.7678 22.8502L12.2599 23.2208L13.9677 20.8829C14.2368 20.5513 14.4351 20.1695 14.5505 19.7605C14.6659 19.3514 14.6961 18.9236 14.6394 18.5028C14.5826 18.082 14.4399 17.6768 14.22 17.3117C14.0002 16.9465 13.7076 16.629 13.3598 16.3781L9.97308 13.9547C9.79234 13.8242 9.66815 13.6314 9.62523 13.4148C9.58231 13.1982 9.62383 12.9736 9.7415 12.7857L9.24941 12.4436Z" stroke="white" stroke-width="0.15" stroke-miterlimit="10"/>
<path fill-rule="evenodd" clip-rule="evenodd" d="M12.1443 1L9.30754 4.84901C7.97598 6.64521 8.46808 9.72442 10.2628 11.0359L14.9232 14.4003C15.8784 15.0845 15.9942 16.8237 15.2995 17.7076L15.7048 17.9927L18.9179 13.5449C20.3652 11.5491 20.2783 8.61249 18.0205 6.98735L13.0417 3.45197C12.8608 3.34857 12.704 3.20901 12.5812 3.04228C12.4584 2.87556 12.3725 2.68535 12.3288 2.48392C12.2852 2.28248 12.2849 2.07428 12.3279 1.87272C12.3709 1.67116 12.4563 1.4807 12.5785 1.31361L12.1443 1Z" stroke="white" stroke-width="0.15" stroke-miterlimit="10"/>
<path fill-rule="evenodd" clip-rule="evenodd" d="M4.70509 26.253H8.4392L9.10499 28.4769H15.2127L15.8785 26.253H19.6126L19.1205 24.5994H5.16824L4.70509 26.253Z" stroke="white" stroke-width="0.15" stroke-miterlimit="10"/>
<path fill-rule="evenodd" clip-rule="evenodd" d="M7.91823 35.434C7.74456 34.3791 7.31035 34.1225 6.44196 33.7518C6.76516 33.594 7.0369 33.35 7.22625 33.0476C7.41559 32.7451 7.51494 32.3964 7.51298 32.0411C7.51298 30.5015 6.23933 29.9028 4.8499 29.9028H1V38H4.84992C6.47091 38 8.2077 37.2872 7.91823 35.434ZM2.73679 31.4424H4.76303C4.88191 31.4316 5.00178 31.4446 5.11543 31.4806C5.22908 31.5166 5.33415 31.5749 5.42431 31.652C5.51448 31.7291 5.58788 31.8234 5.64008 31.9291C5.69229 32.0349 5.72222 32.1499 5.72809 32.2674C5.73395 32.3848 5.71562 32.5022 5.6742 32.6125C5.63279 32.7228 5.56913 32.8237 5.48708 32.9091C5.40503 32.9945 5.30628 33.0627 5.19677 33.1095C5.08726 33.1564 4.96926 33.1809 4.84987 33.1816H2.73679V31.4424ZM4.99463 36.4604H2.73679V34.6072H4.99463C6.64458 34.6072 6.5288 36.4604 4.99463 36.4604Z" stroke="white" stroke-width="0.15" stroke-miterlimit="10"/>
<path fill-rule="evenodd" clip-rule="evenodd" d="M15.6182 35.434C15.4445 34.3791 15.0103 34.1225 14.1419 33.7518C14.4651 33.594 14.7369 33.35 14.9262 33.0476C15.1156 32.7451 15.2149 32.3964 15.2129 32.0411C15.2129 30.5015 13.9393 29.9028 12.5499 29.9028H8.67102V38H12.5209C14.1709 38 15.9077 37.2872 15.6182 35.434ZM10.4368 31.4424H12.463C12.5819 31.4316 12.7018 31.4446 12.8154 31.4806C12.9291 31.5166 13.0341 31.5749 13.1243 31.652C13.2145 31.7291 13.2879 31.8234 13.3401 31.9291C13.3923 32.0349 13.4222 32.1499 13.4281 32.2674C13.4339 32.3848 13.4156 32.5022 13.3742 32.6125C13.3328 32.7228 13.2691 32.8237 13.1871 32.9091C13.105 32.9945 13.0063 33.0627 12.8968 33.1095C12.7872 33.1564 12.6692 33.1809 12.5499 33.1816H10.4657V31.4424H10.4368ZM12.6946 36.4604H10.4368V34.6072H12.6946C14.3446 34.6072 14.2288 36.4604 12.6946 36.4604Z" stroke="white" stroke-width="0.15" stroke-miterlimit="10"/>
<path fill-rule="evenodd" clip-rule="evenodd" d="M23.3173 35.434C23.1437 34.3791 22.7094 34.1225 21.8411 33.7518C22.1643 33.594 22.436 33.35 22.6253 33.0476C22.8147 32.7451 22.914 32.3964 22.9121 32.0411C22.9121 30.5015 21.6384 29.9028 20.249 29.9028H16.3702V38H20.22C21.8411 38 23.5779 37.2872 23.3173 35.434ZM18.1359 31.4424H20.1622C20.281 31.4316 20.4009 31.4446 20.5146 31.4806C20.6282 31.5166 20.7333 31.5749 20.8234 31.652C20.9136 31.7291 20.987 31.8234 21.0392 31.9291C21.0914 32.0349 21.1213 32.1499 21.1272 32.2674C21.1331 32.3848 21.1147 32.5022 21.0733 32.6125C21.0319 32.7228 20.9683 32.8237 20.8862 32.9091C20.8042 32.9945 20.7054 33.0627 20.5959 33.1095C20.4864 33.1564 20.3684 33.1809 20.249 33.1816H18.1649V31.4424H18.1359ZM20.3648 36.4604H18.1069V34.6072H20.3648C22.0147 34.6072 21.9279 36.4604 20.3648 36.4604Z" stroke="white" stroke-width="0.15" stroke-miterlimit="10"/>
<path d="M22.3401 16.0121C24.6282 12.951 26.687 9.72985 28.5002 6.37427L28.5226 6.35001C28.5226 6.35001 30.0126 7.41057 30.4571 7.84404C30.7243 8.08506 30.7462 8.15731 30.7462 8.37407C30.7462 9.38611 25.4981 23.8431 25.4981 23.8431C25.1646 23.6134 24.8521 23.3554 24.5643 23.0721C24.299 22.8088 24.0537 22.5268 23.8302 22.2283L25.4089 16.8311C24.5643 16.8796 23.274 16.9761 22.6959 16.9761C19.6271 20.9515 16.3137 23.8431 16.1358 23.8431C15.5171 23.4514 14.9748 22.9536 14.5346 22.3733C14.6563 21.055 14.8493 19.744 15.1126 18.4459C15.1551 18.3548 15.2156 18.2729 15.2905 18.2049C15.5352 18.2049 17.2919 19.8192 17.2919 19.9395C17.2919 20.084 16.5802 22.108 16.5802 22.108C18.4227 20.5463 20.1061 18.8113 21.6066 16.9276C20.8463 16.8511 20.0782 16.9083 19.3381 17.0964C18.604 17.4576 18.5373 17.8194 18.4261 17.8194C18.2925 17.8194 18.2707 16.7109 18.4261 16.5178C18.9823 15.7231 21.3619 16.1808 22.2065 16.1808L22.3401 16.0121ZM23.3189 16.1566L25.6536 16.0121L27.5219 9.72365C26.302 11.9776 24.8962 14.1291 23.3189 16.1566Z" stroke="white" stroke-width="0.15" stroke-miterlimit="10"/>
</svg>
