<svg width="59" height="28" viewBox="0 0 59 28" fill="none" xmlns="http://www.w3.org/2000/svg">
<path d="M28.8769 10.1564C29.1986 10.0624 29.4998 9.94467 29.7841 9.80675C30.0679 9.667 30.3056 9.50284 30.4921 9.31306C30.7956 9.00488 30.8469 8.77542 30.6401 8.62591C30.4344 8.47579 29.9648 8.34336 29.2277 8.22803L26.9658 10.4768C27.2443 10.4616 27.5531 10.428 27.8905 10.3767C28.2261 10.3242 28.5559 10.2516 28.8769 10.1564Z" fill="#159C2A"/>
<path d="M29.8258 6.39185L31.7637 4.49292C31.5172 4.50085 31.2591 4.5277 30.9864 4.57347C30.7178 4.61862 30.4451 4.68513 30.1742 4.77117C29.9015 4.85782 29.6516 4.96155 29.4191 5.0842C29.1872 5.20624 28.9867 5.34902 28.8207 5.51011C28.5579 5.76396 28.5066 5.95556 28.6663 6.08858C28.83 6.21977 29.2157 6.32167 29.8258 6.39185Z" fill="#159C2A"/>
<path d="M43.6339 15.675C43.8367 15.675 44.0296 15.5908 44.1729 15.4419L57.9615 1.36016C58.1782 1.13255 58.2441 0.790222 58.1264 0.491829C58.0093 0.194047 57.7313 0 57.4237 0H15.0703C14.8868 0 14.7096 0.0689546 14.571 0.195268L0.261454 14.2771C0.0225638 14.4949 -0.0630869 14.8458 0.0482007 15.1564C0.158906 15.4688 0.443825 15.675 0.761374 15.675H43.6339ZM21.7691 8.98655L24.877 8.96092C24.4068 9.39844 24.2693 9.7426 24.461 9.994C24.655 10.2472 25.0524 10.4083 25.6572 10.4773L28.1416 8.04317C28.084 8.02852 28.0024 8.01326 27.8998 7.99496C27.7932 7.97726 27.6767 7.96201 27.5473 7.94736C27.087 7.8778 26.646 7.79481 26.2282 7.6984C25.811 7.60259 25.4847 7.47262 25.2499 7.30664C25.0128 7.14311 24.9056 6.93625 24.9271 6.68667C24.9504 6.43771 25.1619 6.12345 25.564 5.74512C25.9741 5.35885 26.4758 5.01409 27.0725 4.7102C27.6674 4.4051 28.3013 4.14454 28.976 3.92731C29.6501 3.70885 30.3476 3.53311 31.0683 3.40008C31.7879 3.26645 32.4854 3.17614 33.1566 3.12854L34.0684 2.23398L35.3468 2.18089L34.4373 3.08095C35.045 3.09681 35.5775 3.15112 36.0332 3.24448C36.4911 3.33967 36.8349 3.48063 37.0674 3.66797C37.3022 3.85652 37.4071 4.09816 37.3867 4.39351C37.3663 4.68946 37.1763 5.04399 36.8133 5.45954L33.7194 5.53582C34.0207 5.22034 34.1057 4.95734 33.9787 4.74743C33.8499 4.53812 33.5423 4.4411 33.0494 4.45575L30.9541 6.52924C31.1056 6.54876 31.2577 6.56829 31.4168 6.58782C31.5752 6.60795 31.7378 6.63236 31.9103 6.65982C32.8315 6.79651 33.4648 6.97774 33.8173 7.20108C34.1692 7.42685 34.3586 7.66606 34.3866 7.91746C34.4151 8.17009 34.3324 8.42393 34.1349 8.68022C33.9356 8.93651 33.7398 9.16412 33.5464 9.36549C33.3745 9.54123 33.0797 9.76395 32.6567 10.0324C32.2377 10.3009 31.6918 10.5639 31.0235 10.8196C30.3534 11.0735 29.5674 11.2992 28.666 11.4939C27.7623 11.6879 26.7363 11.8021 25.5919 11.8362L24.5857 12.8315L23.2671 12.8187L24.2769 11.8289C22.6839 11.7581 21.666 11.4878 21.2237 11.0185C20.7844 10.5542 20.9668 9.87867 21.7691 8.98655Z" fill="#159C2A"/>
<path d="M44.5261 18.5987H0.181152V21.7876H45.1571C45.5591 21.7876 45.9466 21.6198 46.2327 21.3202L58.1847 8.91834V4.29297L44.5261 18.5987Z" fill="#159C2A"/>
<path d="M0.181152 24.7087V27.8977H46.6796C47.0822 27.8977 47.4697 27.7293 47.7552 27.4303L58.1847 16.5545V11.998L46.0503 24.7087H0.181152Z" fill="#159C2A"/>
</svg>
