<svg width="139" height="35" viewBox="0 0 139 35" fill="none" xmlns="http://www.w3.org/2000/svg">
<path fill-rule="evenodd" clip-rule="evenodd" d="M28.4344 18.6084C28.4344 25.3015 21.1314 34.1617 14.6449 34.1617C8.15659 34.1617 0.855469 25.3046 0.855469 18.6084V9.21064C5.06151 7.286 6.43022 5.70682 7.73188 1.00185C12.6113 -0.154063 16.6733 -0.193186 21.5532 1.00897C22.9162 5.64839 24.1465 7.31497 28.4344 9.11713V18.6084ZM27.6288 18.6084V9.69993C23.7023 7.99983 22.1976 5.99695 20.9245 1.73504C16.5387 0.694965 12.7545 0.723927 8.36729 1.72945C7.14457 6.04369 5.51711 7.96681 1.6611 9.77411V18.6084C1.6611 24.8326 8.59172 33.301 14.6449 33.301C20.6962 33.301 27.6288 24.83 27.6288 18.6084ZM9.29133 2.78396C12.944 1.99625 16.3574 1.97226 20.0096 2.78345C21.2035 6.54735 23.025 8.93859 26.4648 10.5507V18.633C26.4648 24.2159 20.0196 32.0985 14.6452 32.0985C9.27221 32.0985 2.82568 24.2189 2.82568 18.633V10.5992C6.22199 8.90335 8.13044 6.59585 9.29133 2.78396ZM8.62485 16.6073L6.91323 18.8555L13.4897 24.4556L22.7949 13.9446L20.7135 12.0363L13.1982 20.464L8.62485 16.6073ZM43.3671 11.5114C43.3671 13.373 42.0933 14.7769 39.4579 14.7769C37.5838 14.7769 36.2369 14.1208 35.3291 13.1594L36.4565 11.5114C37.1446 12.2591 38.2134 12.8847 39.5604 12.8847C40.7024 12.8847 41.2588 12.3354 41.2588 11.7555C41.2588 11.0231 40.3286 10.7931 39.2249 10.5203C37.6152 10.1223 35.6366 9.63302 35.6366 7.36084C35.6366 5.66705 37.0421 4.26318 39.3408 4.26318C40.8927 4.26318 42.1812 4.75148 43.1475 5.68231L41.9908 7.26929C41.2002 6.50632 40.146 6.15535 39.1504 6.15535C38.2573 6.15535 37.7595 6.56735 37.7595 7.17773C37.7595 7.81638 38.6338 8.03397 39.6918 8.29731C41.3135 8.70093 43.3671 9.21204 43.3671 11.5114ZM49.968 4.41578L53.7308 14.5938H51.3589L50.7586 12.8695H46.5713L45.9563 14.5938H43.5844L47.3619 4.41578H49.968ZM47.1423 10.9621H50.1876L48.6649 6.58261L47.1423 10.9621ZM56.7116 10.3822V14.5938H54.6326V4.41578H61.5432V6.3232H56.7116V8.47478H61.4407V10.3822H56.7116ZM69.9072 12.6864V14.5938H62.9966V4.41578H69.9072V6.3232H65.0757V8.47478H69.8048V10.3822H65.0757V12.6864H69.9072ZM72.3969 12.2896C73.085 12.2896 73.7146 12.8542 73.7146 13.8461C73.7146 14.9905 73.0996 16.0129 72.2065 16.6843L71.4013 15.9977C71.8698 15.7383 72.4115 15.0974 72.5286 14.5633C72.4847 14.5785 72.3529 14.6091 72.2504 14.6091C71.6941 14.6091 71.2548 14.1665 71.2548 13.5104C71.2548 12.839 71.7819 12.2896 72.3969 12.2896ZM86.4042 11.5114C86.4042 13.373 85.1304 14.7769 82.495 14.7769C80.6209 14.7769 79.2739 14.1208 78.3662 13.1594L79.4936 11.5114C80.1817 12.2591 81.2505 12.8847 82.5975 12.8847C83.7395 12.8847 84.2958 12.3354 84.2958 11.7555C84.2958 11.0231 83.3656 10.7931 82.262 10.5203C80.6523 10.1223 78.6736 9.63302 78.6736 7.36084C78.6736 5.66705 80.0792 4.26318 82.3779 4.26318C83.9298 4.26318 85.2182 4.75148 86.1846 5.68231L85.0279 7.26929C84.2373 6.50632 83.1831 6.15535 82.1875 6.15535C81.2944 6.15535 80.7966 6.56735 80.7966 7.17773C80.7966 7.81638 81.6708 8.03397 82.7289 8.29731C84.3506 8.70093 86.4042 9.21204 86.4042 11.5114ZM94.7149 12.6864V14.5938H87.8036V4.41578H94.7149V6.3232H89.8833V8.47478H94.6124V10.3822H89.8833V12.6864H94.7149ZM105.154 12.2744C104.451 13.5409 103.221 14.7769 101.069 14.7769C98.1409 14.7769 95.8715 12.6406 95.8715 9.51242C95.8715 6.38424 98.1409 4.24792 101.069 4.24792C103.221 4.24792 104.466 5.46868 105.154 6.73521L103.368 7.65077C102.958 6.82676 102.079 6.17061 101.069 6.17061C99.2976 6.17061 98.0091 7.58973 98.0091 9.51242C98.0091 11.4351 99.2976 12.8542 101.069 12.8542C102.079 12.8542 102.958 12.2133 103.368 11.3741L105.154 12.2744ZM115.205 10.5195C115.205 13.0526 113.77 14.7769 110.798 14.7769C107.826 14.7769 106.391 13.0373 106.391 10.5348V4.41578H108.5V10.4585C108.5 11.8776 109.29 12.8542 110.798 12.8542C112.306 12.8542 113.082 11.8776 113.082 10.4585V4.41578H115.205V10.5195ZM122.839 10.7179L125.035 14.5938H122.649L120.731 10.9773H119.208V14.5938H117.129V4.41578H121.697C123.732 4.41578 124.977 5.80438 124.977 7.69655C124.977 9.49716 123.893 10.4585 122.839 10.7179ZM119.208 9.06989H121.39C122.224 9.06989 122.854 8.55107 122.854 7.69655C122.854 6.84202 122.224 6.3232 121.39 6.3232H119.208V9.06989ZM133.448 12.6864V14.5938H126.537V4.41578H133.448V6.3232H128.616V8.47478H133.346V10.3822H128.616V12.6864H133.448ZM135.937 12.2896C136.625 12.2896 137.255 12.8542 137.255 13.8461C137.255 14.9905 136.64 16.0129 135.747 16.6843L134.941 15.9977C135.41 15.7383 135.952 15.0974 136.069 14.5633C136.025 14.5785 135.893 14.6091 135.791 14.6091C135.234 14.6091 134.795 14.1665 134.795 13.5104C134.795 12.839 135.322 12.2896 135.937 12.2896ZM44.8019 27.5338C44.0992 28.8003 42.8693 30.0363 40.717 30.0363C37.7888 30.0363 35.5194 27.9 35.5194 24.7718C35.5194 21.6436 37.7888 19.5073 40.717 19.5073C42.8693 19.5073 44.1138 20.7281 44.8019 21.9946L43.0157 22.9102C42.6058 22.0862 41.7273 21.43 40.717 21.43C38.9455 21.43 37.657 22.8491 37.657 24.7718C37.657 26.6945 38.9455 28.1136 40.717 28.1136C41.7273 28.1136 42.6058 27.4727 43.0157 26.6335L44.8019 27.5338ZM55.7758 24.7718C55.7758 27.839 53.6236 30.0363 50.6661 30.0363C47.7232 30.0363 45.571 27.839 45.571 24.7718C45.571 21.7047 47.7232 19.5073 50.6661 19.5073C53.6236 19.5073 55.7758 21.7047 55.7758 24.7718ZM47.7086 24.7718C47.7086 26.664 48.8652 28.1136 50.6661 28.1136C52.4669 28.1136 53.6382 26.664 53.6382 24.7718C53.6382 22.8644 52.4669 21.43 50.6661 21.43C48.8652 21.43 47.7086 22.8644 47.7086 24.7718ZM65.9755 19.6752V29.8532H63.9697L59.3138 23.2154V29.8532H57.2348V19.6752H59.3724L63.8964 26.0689V19.6752H65.9755ZM69.9805 25.6416V29.8532H67.9008V19.6752H74.812V21.5826H69.9805V23.7342H74.7095V25.6416H69.9805ZM78.3442 19.6752V29.8532H76.2652V19.6752H78.3442ZM89.3166 24.7718C89.3166 27.839 87.1936 29.8532 84.1336 29.8532H80.2829V19.6752H84.1336C87.1936 19.6752 89.3166 21.7047 89.3166 24.7718ZM82.362 27.9458H84.1336C86.0662 27.9458 87.1936 26.4961 87.1936 24.7718C87.1936 22.9712 86.1394 21.5826 84.1336 21.5826H82.362V27.9458ZM97.7029 27.9458V29.8532H90.7923V19.6752H97.7029V21.5826H92.8713V23.7342H97.6004V25.6416H92.8713V27.9458H97.7029ZM108.069 19.6752V29.8532H106.063L101.407 23.2154V29.8532H99.328V19.6752H101.466L105.99 26.0689V19.6752H108.069ZM114.343 21.5826V29.8532H112.249V21.5826H109.394V19.6752H117.184V21.5826H114.343ZM120.595 19.6752V29.8532H118.516V19.6752H120.595ZM127.878 19.6752L131.64 29.8532H129.269L128.668 28.1289H124.481L123.866 29.8532H121.494L125.272 19.6752H127.878ZM125.052 26.2215H128.097L126.575 21.842L125.052 26.2215ZM138.75 27.9458V29.8532H132.542V19.6752H134.621V27.9458H138.75Z" fill="#042F05" fill-opacity="0.69"/>
</svg>
