<svg width="114" height="113" viewBox="0 0 114 113" fill="none" xmlns="http://www.w3.org/2000/svg">
<g id="Group 68">
<circle id="Ellipse 1" cx="57" cy="56.5" r="56.5" fill="#179B38"/>
<path id="Vector" d="M57.0013 41.1953C58.5318 41.1953 59.9162 41.8175 60.921 42.8192C61.9227 43.8209 62.5449 45.2084 62.5449 46.7389C62.5449 48.2695 61.9227 49.6539 60.921 50.6587L60.7623 50.8111C61.2414 51.0102 61.7018 51.2497 62.1405 51.5204C63.6773 52.4754 64.9309 53.8504 65.7397 55.4868C66.1286 56.2738 65.8051 57.2258 65.018 57.6146C64.7909 57.7266 64.5514 57.7795 64.315 57.7795L58.5972 57.7826V61.721H84.3897C85.2701 61.721 85.9825 62.4334 85.9825 63.3138V67.2957C85.9825 68.1761 85.2701 68.8885 84.3897 68.8885C83.5093 68.8885 82.7969 68.1761 82.7969 67.2957V64.9065H67.7245V67.2957C67.7245 68.1761 67.0121 68.8885 66.1318 68.8885C65.2514 68.8885 64.539 68.1761 64.539 67.2957V64.9065H49.4666V67.2957C49.4666 68.1761 48.7542 68.8885 47.8738 68.8885C46.9934 68.8885 46.281 68.1761 46.281 67.2957V64.9065H31.2086V67.2957C31.2086 68.1761 30.4963 68.8885 29.6159 68.8885C28.7355 68.8885 28.0231 68.1761 28.0231 67.2957V63.3138C28.0231 62.4334 28.7355 61.721 29.6159 61.721H55.4084V57.7826L49.6906 57.7857C48.8102 57.7857 48.0978 57.0734 48.0978 56.193C48.0978 55.8912 48.1818 55.6112 48.328 55.3686C49.1369 53.7882 50.3688 52.4568 51.8651 51.5235C52.3037 51.2529 52.7642 51.0133 53.2433 50.8142L53.0815 50.6618C52.0798 49.6601 51.4576 48.2726 51.4576 46.7421C51.4576 45.2115 52.0798 43.824 53.0815 42.8223C54.0832 41.8206 55.4707 41.1984 57.0012 41.1984L57.0013 41.1953ZM89.3608 40.3709C89.3608 39.4905 90.0732 38.7781 90.9536 38.7781C91.834 38.7781 92.5464 39.4905 92.5464 40.3709V53.645H92.9072C93.7876 53.645 94.5 54.3574 94.5 55.2378C94.5 56.1182 93.7876 56.8306 92.9072 56.8306H68.9846C68.1042 56.8306 67.3918 56.1182 67.3918 55.2378C67.3918 54.3574 68.1042 53.645 68.9846 53.645H69.3454V44.6021C69.3454 43.7217 70.0578 43.0093 70.9382 43.0093C71.8186 43.0093 72.531 43.7217 72.531 44.6021V53.645H74.3477V46.7171C74.3477 45.8367 75.0601 45.1243 75.9405 45.1243C76.8209 45.1243 77.5332 45.8367 77.5332 46.7171V53.645H79.3532V44.7884C79.3532 43.908 80.0655 43.1957 80.9459 43.1957C81.8263 43.1957 82.5387 43.908 82.5387 44.7884V53.645H84.3554V47.8215C84.3554 46.9411 85.0678 46.2287 85.9482 46.2287C86.8286 46.2287 87.541 46.9411 87.541 47.8215V53.645H89.3577V40.3709H89.3608ZM35.4152 34.3544C33.6047 34.3544 31.9653 35.0886 30.7769 36.2739C29.5916 37.4591 28.8575 39.1017 28.8575 40.9122C28.8575 42.7227 29.5916 44.3621 30.7769 45.5505C31.9622 46.7357 33.6047 47.4699 35.4152 47.4699C37.2257 47.4699 38.8652 46.7358 40.0535 45.5505C41.2388 44.3652 41.973 42.7227 41.973 40.9122C41.973 39.1017 41.2388 37.4622 40.0535 36.2739C38.8683 35.0886 37.2257 34.3544 35.4152 34.3544ZM28.5246 34.0247C30.2854 32.2639 32.7243 31.172 35.4152 31.172C38.1061 31.172 40.542 32.2639 42.3058 34.0247C44.0665 35.7854 45.1584 38.2243 45.1584 40.9152C45.1584 43.6061 44.0665 46.042 42.3058 47.8058C40.5451 49.5665 38.1061 50.6585 35.4152 50.6585C32.7243 50.6585 30.2885 49.5665 28.5246 47.8058C26.7639 46.0451 25.672 43.6061 25.672 40.9152C25.672 38.2243 26.7639 35.7885 28.5246 34.0247ZM32.7928 30.9293C32.3542 31.0445 31.9093 31.1969 31.4675 31.3773C31.0258 31.5577 30.6027 31.7693 30.2045 32.0026C29.7348 32.2795 29.2028 32.379 28.6927 32.3137C28.1763 32.2484 27.6848 32.0182 27.299 31.6355L26.991 31.3275L25.8245 32.491L26.1356 32.8021C26.5213 33.1878 26.7484 33.6794 26.8137 34.1957C26.8791 34.7059 26.7795 35.2379 26.5027 35.7076C26.2756 36.0965 26.064 36.5226 25.8774 36.9706C25.6969 37.3999 25.5476 37.8448 25.4294 38.2928C25.2894 38.8247 24.9846 39.2758 24.5708 39.5931C24.1571 39.9073 23.65 40.0908 23.1149 40.0908H22.6825V41.7365H23.1118C23.65 41.7365 24.154 41.9169 24.5677 42.2342C24.9815 42.5484 25.2863 42.9995 25.4263 43.5315C25.5414 43.9794 25.6938 44.4243 25.8711 44.8567C26.0609 45.3078 26.2725 45.7309 26.4995 46.1197C26.7764 46.5895 26.876 47.1245 26.8106 47.6316C26.7453 48.1511 26.5151 48.6395 26.1325 49.0252L25.8245 49.3332L26.9879 50.4998L27.2959 50.1918C27.6785 49.8092 28.1732 49.5789 28.6896 49.5136C29.1998 49.4483 29.7317 49.5478 30.2014 49.8247C30.5903 50.0518 31.0133 50.2633 31.4644 50.45C31.9062 50.6335 32.351 50.786 32.7897 50.898C33.3216 51.038 33.7696 51.3428 34.0838 51.7472C34.4042 52.1641 34.5847 52.6712 34.5847 53.2124V53.6417H36.2303V53.2124C36.2303 52.6773 36.4107 52.1703 36.7281 51.7565C37.0423 51.3428 37.4933 51.0379 38.0253 50.898C38.4733 50.7829 38.9181 50.6304 39.3506 50.4531C39.8016 50.2633 40.2248 50.0518 40.6135 49.8247C41.0833 49.5478 41.6183 49.4483 42.1254 49.5136C42.6449 49.579 43.1333 49.8092 43.5191 50.1918L43.8271 50.4998L44.9936 49.3363L44.6856 49.0284C44.303 48.6457 44.0728 48.1542 44.0075 47.6347C43.9421 47.1276 44.0417 46.5925 44.3185 46.1228C44.5456 45.734 44.7572 45.3109 44.9438 44.8598C45.1274 44.4181 45.2798 43.9732 45.3918 43.5346C45.5287 43.0026 45.8367 42.5546 46.2411 42.2404C46.6579 41.92 47.165 41.7396 47.7063 41.7396H48.1356V40.0939H47.7063C47.1712 40.0939 46.6641 39.9135 46.2504 39.5962C45.8366 39.282 45.5318 38.8309 45.3918 38.299C45.2767 37.851 45.1243 37.4061 44.9469 36.9737C44.7572 36.5226 44.5456 36.0995 44.3186 35.7107C44.0417 35.241 43.9421 34.709 44.0075 34.1988C44.0728 33.6824 44.303 33.1909 44.6856 32.8052L44.9936 32.4972L43.8302 31.3306L43.5222 31.6386C43.1396 32.0213 42.648 32.2515 42.1285 32.3168C41.6214 32.3821 41.0895 32.2826 40.6167 32.0057C40.2278 31.7786 39.8047 31.5671 39.3537 31.3804C38.9119 31.1969 38.4671 31.0444 38.0284 30.9325C37.4964 30.7956 37.0485 30.4907 36.7343 30.0832C36.4139 29.6663 36.2334 29.1592 36.2334 28.618V28.1887H34.5878V28.618C34.5878 29.1562 34.4073 29.6601 34.09 30.0739C33.7758 30.4876 33.3248 30.7925 32.7928 30.9325V30.9293ZM30.2512 28.4437C30.6214 28.2882 31.004 28.1482 31.4053 28.0269V27.3985C31.4053 26.7452 31.676 26.1448 32.1084 25.7093C32.5501 25.2706 33.1505 25 33.8038 25H37.0267C37.6893 25 38.2866 25.2675 38.7221 25.7031C39.1546 26.1448 39.4252 26.7452 39.4252 27.3985V28.0269C39.8265 28.1513 40.2091 28.2882 40.5793 28.4437C40.9526 28.5993 41.3259 28.7735 41.693 28.9695L42.141 28.5215C42.6169 28.0549 43.2298 27.8185 43.8364 27.8185C44.4492 27.8185 45.0652 28.0549 45.5318 28.5215L47.8059 30.7987C48.2787 31.2653 48.5152 31.8813 48.5152 32.4941C48.5152 33.1008 48.2787 33.7167 47.809 34.1864L47.3672 34.6375C47.5632 35.0046 47.7374 35.3779 47.893 35.7512C48.0485 36.1307 48.1854 36.5134 48.3067 36.9084H48.9351C49.5977 36.9084 50.195 37.176 50.6306 37.6115C51.063 38.0532 51.3336 38.6536 51.3336 39.3069V42.5298C51.3336 43.1924 51.0661 43.7897 50.6306 44.2252C50.1981 44.6576 49.5977 44.9283 48.9351 44.9283H48.3067C48.1823 45.3296 48.0454 45.7122 47.8899 46.0824C47.7343 46.4557 47.5601 46.829 47.3641 47.1961L47.8121 47.644C48.2787 48.1107 48.5152 48.7267 48.5152 49.3395C48.5152 49.9461 48.2818 50.5589 47.8121 51.0287L45.5349 53.309C45.0652 53.7818 44.4492 54.0183 43.8395 54.0183C43.2266 54.0183 42.6107 53.7849 42.1441 53.3152L41.6961 52.8672C41.329 53.0632 40.9557 53.2374 40.5824 53.393C40.2029 53.5485 39.8203 53.6854 39.4252 53.8067V54.4351C39.4252 55.0977 39.1577 55.695 38.7221 56.1305C38.2897 56.563 37.6893 56.8336 37.0267 56.8336H33.8038C33.1505 56.8336 32.5501 56.563 32.1146 56.1305C31.6729 55.6981 31.4053 55.0977 31.4053 54.4351V53.8067C31.004 53.6823 30.6214 53.5454 30.2512 53.3899C29.8779 53.2343 29.5046 53.0601 29.1375 52.8641L28.6896 53.3121C28.2167 53.7787 27.6008 54.0151 26.9941 54.0151C26.3813 54.0151 25.7653 53.7818 25.2987 53.3121L23.0246 51.0349C22.5549 50.5714 22.3154 49.9523 22.3154 49.3395C22.3154 48.7328 22.5518 48.12 23.0184 47.6503L23.4664 47.1961C23.2704 46.829 23.0962 46.4557 22.9406 46.0824C22.7851 45.7029 22.6482 45.3202 22.5269 44.9252H21.8985C21.2452 44.9252 20.6448 44.6545 20.2093 44.2221C19.7675 43.7897 19.5 43.1893 19.5 42.5267V39.3038C19.5 38.6505 19.7706 38.0501 20.2031 37.6146C20.6448 37.1759 21.2452 36.9053 21.8985 36.9053H22.53C22.6513 36.5133 22.7913 36.1307 22.9437 35.7574C23.0993 35.3779 23.2766 35.0046 23.4695 34.6375L23.0215 34.1895C22.558 33.726 22.3185 33.1069 22.3185 32.4941C22.3185 31.8875 22.5549 31.2747 23.0215 30.8049L25.2987 28.5246C25.7747 28.0518 26.3875 27.8153 26.9941 27.8153C27.607 27.8153 28.223 28.0518 28.6896 28.5184L29.1375 28.9664C29.4984 28.7735 29.8717 28.5993 30.2512 28.4406L30.2512 28.4437ZM75.7105 85.5813C76.5193 84.0009 77.7513 82.6695 79.2476 81.7362C79.6862 81.4656 80.1466 81.2261 80.6257 81.027L80.464 80.8745C79.4623 79.8728 78.8401 78.4854 78.8401 76.9548C78.8401 75.4242 79.4622 74.0367 80.464 73.0351C81.4657 72.0334 82.8531 71.4111 84.3837 71.4111C85.9143 71.4111 87.2986 72.0333 88.3034 73.0351C89.3051 74.0367 89.9274 75.4242 89.9274 76.9548C89.9274 78.4854 89.3052 79.8697 88.3034 80.8745L88.1448 81.027C88.6239 81.2261 89.0843 81.4656 89.5229 81.7362C91.0597 82.6913 92.3134 84.0663 93.1222 85.7026C93.5111 86.4897 93.1875 87.4416 92.4005 87.8305C92.1734 87.9425 91.9338 87.9954 91.6974 87.9954L77.0797 88.0016C76.1993 88.0016 75.487 87.2892 75.487 86.4088C75.487 86.1071 75.571 85.8271 75.7172 85.5844L75.7105 85.5813ZM80.9275 84.4365C80.7408 84.5516 80.5573 84.6791 80.3862 84.8129H88.3843C88.2101 84.6791 88.0297 84.5547 87.843 84.4365C86.8444 83.8174 85.6592 83.4565 84.3868 83.4565C83.1145 83.4565 81.9293 83.8174 80.9307 84.4365H80.9275ZM57.4524 85.5813C58.2612 84.0009 59.4932 82.6695 60.9895 81.7362C61.4281 81.4656 61.8885 81.2261 62.3676 81.027L62.2059 80.8745C61.2042 79.8728 60.582 78.4854 60.582 76.9548C60.582 75.4242 61.2041 74.0367 62.2059 73.0351C63.2076 72.0334 64.595 71.4111 66.1256 71.4111C67.6562 71.4111 69.0405 72.0333 70.0453 73.0351C71.047 74.0367 71.6692 75.4242 71.6692 76.9548C71.6692 78.4854 71.0471 79.8697 70.0453 80.8745L69.8867 81.027C70.3658 81.2261 70.8262 81.4656 71.2648 81.7362C72.8016 82.6913 74.0553 84.0663 74.8641 85.7026C75.253 86.4897 74.9294 87.4416 74.1424 87.8305C73.9153 87.9425 73.6757 87.9954 73.4393 87.9954L58.8216 88.0016C57.9412 88.0016 57.2289 87.2892 57.2289 86.4088C57.2289 86.1071 57.3129 85.8271 57.4591 85.5844L57.4524 85.5813ZM62.6694 84.4365C62.4827 84.5516 62.2992 84.6791 62.1281 84.8129H70.1262C69.952 84.6791 69.7715 84.5547 69.5849 84.4365C68.5863 83.8174 67.401 83.4565 66.1287 83.4565C64.8563 83.4565 63.6712 83.8174 62.6726 84.4365H62.6694ZM86.0473 75.2876C85.6211 74.8614 85.0301 74.597 84.3798 74.597C83.7296 74.597 83.1386 74.8614 82.7123 75.2876C82.2861 75.7138 82.0217 76.3048 82.0217 76.955C82.0217 77.6053 82.2862 78.1963 82.7123 78.6225C83.1385 79.0487 83.7296 79.3131 84.3798 79.3131C85.0301 79.3131 85.6211 79.0487 86.0473 78.6225C86.4735 78.1963 86.7379 77.6053 86.7379 76.955C86.7379 76.3048 86.4735 75.7138 86.0473 75.2876ZM67.7893 75.2876C67.3632 74.8614 66.7721 74.597 66.1219 74.597C65.4716 74.597 64.8806 74.8614 64.4544 75.2876C64.0282 75.7138 63.7638 76.3048 63.7638 76.955C63.7638 77.6053 64.0282 78.1963 64.4544 78.6225C64.8806 79.0487 65.4716 79.3131 66.1219 79.3131C66.7721 79.3131 67.3631 79.0487 67.7893 78.6225C68.2156 78.1963 68.48 77.6053 68.48 76.955C68.48 76.3048 68.2155 75.7138 67.7893 75.2876ZM39.1943 85.5817C40.0031 84.0013 41.235 82.6699 42.7314 81.7366C43.17 81.466 43.6304 81.2264 44.1095 81.0274L43.9478 80.8749C42.9461 79.8732 42.3239 78.4858 42.3239 76.9552C42.3239 75.4246 42.946 74.0371 43.9478 73.0354C44.9495 72.0338 46.3369 71.4115 47.8675 71.4115C49.3981 71.4115 50.7824 72.0337 51.7872 73.0354C52.7889 74.0371 53.4111 75.4246 53.4111 76.9552C53.4111 78.4858 52.789 79.8701 51.7872 80.8749L51.6286 81.0274C52.1076 81.2264 52.5681 81.466 53.0067 81.7366C54.5435 82.6917 55.7972 84.0667 56.606 85.703C56.9948 86.4901 56.6713 87.442 55.8843 87.8309C55.6572 87.9429 55.4176 87.9958 55.1812 87.9958L40.5635 88.002C39.6831 88.002 38.9708 87.2896 38.9708 86.4092C38.9708 86.1075 39.0548 85.8275 39.201 85.5848L39.1943 85.5817ZM44.4113 84.4369C44.2246 84.552 44.0411 84.6795 43.87 84.8133H51.8681C51.6939 84.6795 51.5134 84.5551 51.3268 84.4369C50.3282 83.8178 49.1429 83.4569 47.8706 83.4569C46.5983 83.4569 45.4131 83.8178 44.4145 84.4369H44.4113ZM49.5349 75.288C49.1087 74.8618 48.5177 74.5974 47.8674 74.5974C47.2172 74.5974 46.6262 74.8618 46.2 75.288C45.7737 75.7142 45.5093 76.3052 45.5093 76.9554C45.5093 77.6057 45.7738 78.1967 46.2 78.6229C46.6262 79.0491 47.2172 79.3135 47.8674 79.3135C48.5177 79.3135 49.1087 79.0491 49.5349 78.6229C49.9611 78.1967 50.2255 77.6057 50.2255 76.9554C50.2255 76.3052 49.9611 75.7142 49.5349 75.288ZM20.9399 85.5821C21.7487 84.0017 22.9806 82.6703 24.4769 81.737C24.9156 81.4664 25.376 81.2268 25.8551 81.0278L25.6933 80.8753C24.6916 79.8736 24.0694 78.4862 24.0694 76.9556C24.0694 75.425 24.6916 74.0375 25.6933 73.0359C26.6951 72.0342 28.0825 71.4119 29.6131 71.4119C31.1436 71.4119 32.528 72.0341 33.5328 73.0359C34.5345 74.0375 35.1567 75.425 35.1567 76.9556C35.1567 78.4862 34.5345 79.8705 33.5328 80.8753L33.3741 81.0278C33.8532 81.2268 34.3136 81.4664 34.7523 81.737C36.2891 82.6921 37.5427 84.0671 38.3515 85.7034C38.7404 86.4905 38.4169 87.4424 37.6298 87.8313C37.4027 87.9433 37.1632 87.9962 36.9268 87.9962L22.3091 88.0024C21.4287 88.0024 20.7163 87.29 20.7163 86.4096C20.7163 86.1079 20.8003 85.8279 20.9465 85.5852L20.9399 85.5821ZM26.1568 84.4373C25.9702 84.5524 25.7866 84.6799 25.6155 84.8137H33.6136C33.4394 84.6799 33.259 84.5555 33.0723 84.4373C32.0738 83.8182 30.8885 83.4573 29.6162 83.4573C28.3438 83.4573 27.1586 83.8182 26.16 84.4373H26.1568ZM31.2805 75.2884C30.8543 74.8622 30.2632 74.5978 29.613 74.5978C28.9627 74.5978 28.3717 74.8622 27.9455 75.2884C27.5193 75.7146 27.2549 76.3056 27.2549 76.9558C27.2549 77.6061 27.5193 78.1971 27.9455 78.6233C28.3717 79.0495 28.9627 79.3139 29.613 79.3139C30.2632 79.3139 30.8542 79.0495 31.2805 78.6233C31.7067 78.1971 31.9711 77.6061 31.9711 76.9558C31.9711 76.3056 31.7067 75.7146 31.2805 75.2884ZM53.5418 54.2248C53.3552 54.3399 53.1716 54.4674 53.0005 54.6012H60.9986C60.8244 54.4674 60.644 54.343 60.4574 54.2248C59.4588 53.6057 58.2735 53.2448 57.0012 53.2448C55.7289 53.2448 54.5436 53.6057 53.545 54.2248H53.5418ZM58.6655 45.0759C58.2393 44.6497 57.6482 44.3853 56.998 44.3853C56.3477 44.3853 55.7567 44.6497 55.3305 45.0759C54.9043 45.5021 54.6399 46.0931 54.6399 46.7433C54.6399 47.3936 54.9043 47.9846 55.3305 48.4108C55.7567 48.837 56.3477 49.1014 56.998 49.1014C57.6482 49.1014 58.2392 48.837 58.6655 48.4108C59.0917 47.9846 59.3561 47.3936 59.3561 46.7433C59.3561 46.0931 59.0917 45.5021 58.6655 45.0759Z" fill="white"/>
</g>
</svg>
