<svg width="85" height="73" viewBox="0 0 85 73" fill="none" xmlns="http://www.w3.org/2000/svg">
<g id="&#195;&#144;&#194;&#168;&#195;&#144;&#194;&#176;&#195;&#145;&#226;&#130;&#172;_1" clip-path="url(#clip0_1_865)">
<path id="Vector" d="M70.7897 7.61865H14.3369V44.1849H70.7897V7.61865Z" fill="#CBEDA6" fill-opacity="0.5"/>
<path id="Vector_2" d="M70.5236 5.60205H14.505C14.1335 5.60205 13.7773 5.7496 13.5147 6.01224C13.252 6.27488 13.1045 6.63109 13.1045 7.00252V43.4147C13.1045 43.7861 13.252 44.1423 13.5147 44.4049C13.7773 44.6676 14.1335 44.8151 14.505 44.8151H70.5236C70.8951 44.8151 71.2513 44.6676 71.5139 44.4049C71.7766 44.1423 71.9241 43.7861 71.9241 43.4147V7.00252C71.9241 6.63109 71.7766 6.27488 71.5139 6.01224C71.2513 5.7496 70.8951 5.60205 70.5236 5.60205ZM69.1232 42.0142H15.9054V8.40299H69.1232V42.0142Z" fill="#159C2A"/>
<path id="Vector_3" d="M84.5283 65.906V65.822C84.5309 65.658 84.4974 65.4954 84.4303 65.3458L77.526 48.7503V7.00234C77.526 5.1452 76.7882 3.36413 75.4751 2.05094C74.1619 0.737744 72.3808 0 70.5237 0L14.505 0C12.6479 0 10.8668 0.737744 9.5536 2.05094C8.24041 3.36413 7.50267 5.1452 7.50267 7.00234V48.7363L0.598367 65.2758C0.529586 65.4495 0.496254 65.6352 0.500334 65.822V66.0741C0.565647 67.8871 1.33213 69.6041 2.63831 70.8633C3.94449 72.1224 5.68839 72.8255 7.50267 72.8243H77.526C79.3496 72.825 81.1016 72.1143 82.4093 70.8432C83.717 69.5721 84.4773 67.841 84.5283 66.018V65.906ZM10.3036 7.00234C10.3036 5.88806 10.7462 4.81941 11.5342 4.0315C12.3221 3.24358 13.3907 2.80093 14.505 2.80093H70.5237C71.6379 2.80093 72.7066 3.24358 73.4945 4.0315C74.2824 4.81941 74.7251 5.88806 74.7251 7.00234V47.6159H10.3036V7.00234ZM9.82744 50.4168H75.1872L81.0272 64.4215H53.1859L50.7771 59.5899C50.6596 59.3568 50.4794 59.1612 50.2567 59.0251C50.034 58.889 49.7777 58.8178 49.5167 58.8196H35.512C35.2534 58.8204 35 58.8928 34.78 59.0288C34.56 59.1647 34.382 59.3589 34.2656 59.5899L31.8708 64.4215H3.98749L9.82744 50.4168ZM50.0348 64.4215H34.9658L36.3663 61.6206H48.6344L50.0348 64.4215ZM77.526 70.0234H7.50267C6.63346 70.0238 5.78552 69.7547 5.07568 69.253C4.36585 68.7514 3.82908 68.0419 3.53935 67.2224H81.4753C81.1864 68.0397 80.6517 68.7476 79.9447 69.249C79.2376 69.7505 78.3928 70.0209 77.526 70.0234Z" fill="#159C2A"/>
</g>
<defs>
<clipPath id="clip0_1_865">
<rect width="84" height="72.8243" fill="white" transform="translate(0.5)"/>
</clipPath>
</defs>
</svg>
