<svg width="189" height="53" viewBox="0 0 189 53" fill="none" xmlns="http://www.w3.org/2000/svg">
<rect width="8.06631" height="24.6915" fill="#159C2A"/>
<rect width="25.0952" height="8.2305" fill="#159C2A"/>
<rect x="26.8882" width="10.7551" height="40.238" fill="#159C2A"/>
<rect y="26.5201" width="25.0952" height="13.7175" fill="black"/>
<path d="M54.6665 23.1625V19.8404H49.716V11.2334C49.716 10.1261 49.716 8.96844 50.1528 8.21344C50.6867 7.30743 51.6089 7.1061 52.3854 7.1061C53.1134 7.1061 53.9385 7.2571 54.6665 7.5591V4.03576C54.2782 3.88476 53.4531 3.58276 52.1913 3.58276C50.5897 3.58276 49.1336 4.0861 48.163 4.94177C46.3672 6.5021 46.2216 8.9181 46.2216 10.8308V19.8404H44.2803V23.1625H46.2216V40.7288H49.716V23.1625H54.6665Z" fill="black"/>
<path d="M59.3371 19.8404H55.8427V32.4238C55.8427 34.9908 56.0853 36.9035 57.6869 38.7155C59.4827 40.6785 61.8608 41.3328 63.8507 41.3328C65.8406 41.3328 68.2187 40.6785 70.0145 38.7155C71.6161 36.9035 71.8588 34.9908 71.8588 32.4238V19.8404H68.3643V32.0211C68.3643 33.4808 68.3643 35.1921 67.3937 36.5008C66.8598 37.2055 65.7921 38.1115 63.8507 38.1115C61.9094 38.1115 60.8416 37.2055 60.3078 36.5008C59.3371 35.1921 59.3371 33.4808 59.3371 32.0211V19.8404Z" fill="black"/>
<path d="M73.5973 40.7288H77.0917V29.8065C77.0917 28.2965 77.1888 25.8301 78.5477 24.1691C79.5669 22.9108 80.8773 22.5584 82.0906 22.5584C83.6437 22.5584 84.7115 23.1625 85.3909 24.0685C86.216 25.1758 86.3131 26.6355 86.3131 27.8938V40.7288H89.8075V27.7931C89.8075 25.4778 89.6619 23.7665 88.6427 22.2061C87.4294 20.3438 85.2453 19.3371 82.8672 19.3371C79.5184 19.3371 77.7226 21.4008 77.0917 22.2565V19.8404H73.5973V40.7288Z" fill="black"/>
<path d="M108.431 22.8101C107.509 21.5518 105.422 19.3371 101.539 19.3371C96.3948 19.3371 91.7356 23.0618 91.7356 30.2595C91.7356 37.6081 96.4433 41.3328 101.539 41.3328C105.082 41.3328 107.266 39.3698 108.431 37.8095V40.7288H111.926V4.03576H108.431V22.8101ZM101.928 22.5584C105.034 22.5584 108.625 24.9241 108.625 30.3098C108.625 34.4371 106.199 38.1115 101.928 38.1115C97.7538 38.1115 95.3271 34.7391 95.3271 30.2595C95.3271 25.1758 98.4818 22.5584 101.928 22.5584Z" fill="black"/>
<path d="M125.824 23.1121C124.222 19.5384 121.359 19.3371 120.291 19.3371C116.894 19.3371 114.419 21.5014 114.419 25.1758C114.419 26.2328 114.564 27.2395 115.341 28.2461C116.263 29.4038 117.816 30.2091 120.243 31.3165C122.135 32.1721 123.494 32.8265 123.494 34.7895C123.494 36.3498 122.475 38.1115 120.194 38.1115C117.67 38.1115 116.506 35.7961 116.117 34.6888L113.108 35.9975C114.807 41.2321 119.321 41.3328 120.146 41.3328C124.028 41.3328 127.086 38.8665 127.086 34.4875C127.086 33.3298 126.892 32.2225 126.018 31.1151C125.242 30.1085 123.883 29.1521 120.971 27.8938C118.69 26.8871 117.719 26.4341 117.719 24.9241C117.719 23.3134 118.884 22.5584 120.146 22.5584C121.456 22.5584 122.475 23.4645 122.961 24.6725L125.824 23.1121Z" fill="black"/>
<path d="M128.327 40.7288H131.821V29.8065C131.821 28.2965 131.918 25.8301 133.277 24.1691C134.296 22.9108 135.607 22.5584 136.82 22.5584C138.373 22.5584 139.441 23.1625 140.12 24.0685C140.945 25.1758 141.042 26.6355 141.042 27.8938V40.7288H144.537V27.7931C144.537 25.4778 144.391 23.7665 143.372 22.2061C142.159 20.3438 139.975 19.3371 137.596 19.3371C134.248 19.3371 132.452 21.4008 131.821 22.2565V4.03576H128.327V40.7288Z" fill="black"/>
<path d="M156.657 41.3328C162.772 41.3328 167.334 36.7021 167.334 30.3601C167.334 24.0181 162.821 19.3371 156.657 19.3371C150.493 19.3371 145.98 24.0181 145.98 30.3601C145.98 36.7021 150.542 41.3328 156.657 41.3328ZM156.657 22.5584C160.345 22.5584 163.743 25.2261 163.743 30.3601C163.743 35.4438 160.297 38.1115 156.657 38.1115C153.065 38.1115 149.571 35.4941 149.571 30.3601C149.571 25.2765 152.968 22.5584 156.657 22.5584Z" fill="black"/>
<path d="M172.305 37.8095C173.809 39.8228 176.09 41.3328 179.342 41.3328C185.457 41.3328 189 36.1485 189 30.4105C189 24.7731 185.506 19.3371 179.197 19.3371C177.741 19.3371 174.683 19.6894 172.305 22.7598V19.8404H168.81V52.5068H172.305V37.8095ZM178.857 38.1115C174.732 38.1115 172.111 34.6385 172.111 30.3601C172.111 25.3268 175.557 22.5584 178.808 22.5584C182.06 22.5584 185.409 25.2765 185.409 30.4105C185.409 34.5881 182.934 38.1115 178.857 38.1115Z" fill="black"/>
<path d="M2.98985 48.163C2.88863 47.96 2.73343 47.7711 2.55123 47.6451C2.32855 47.4912 2.10587 47.4352 1.8292 47.4352C1.10041 47.4352 0.567323 47.918 0.567323 48.6389C0.567323 48.9888 0.682038 49.2057 0.87773 49.4017C1.08017 49.6046 1.30285 49.7026 1.4783 49.7866L1.88318 49.9825C2.11936 50.0945 2.29481 50.1785 2.42302 50.3044C2.58497 50.4584 2.64571 50.6404 2.64571 50.8503C2.64571 51.3192 2.35554 51.7741 1.74147 51.7741C1.51204 51.7741 1.28936 51.7181 1.09367 51.5151C0.965454 51.3752 0.857486 51.1652 0.823746 50.9203L0.337891 51.0602C0.398623 51.3402 0.533583 51.6621 0.756266 51.886C1.06667 52.201 1.43781 52.2639 1.73473 52.2639C2.54449 52.2639 3.15855 51.6901 3.15855 50.8293C3.15855 50.4934 3.06408 50.2205 2.83465 49.9825C2.64571 49.7866 2.40278 49.6606 2.13961 49.5416L1.70773 49.3457C1.53903 49.2687 1.37033 49.1917 1.23537 49.0518C1.11391 48.9328 1.06667 48.8278 1.06667 48.6459C1.06667 48.212 1.37708 47.925 1.82245 47.925C2.07887 47.925 2.24083 48.016 2.32855 48.086C2.42977 48.17 2.53099 48.3099 2.59172 48.4359L2.98985 48.163Z" fill="black"/>
<path d="M6.0506 52.18L6.49596 48.9328L8.00751 52.3759L9.53931 48.9328L9.96443 52.18H10.4773L9.77549 47.2462L8.01426 51.1932L6.28678 47.2532L5.53775 52.18H6.0506Z" fill="black"/>
<path d="M16.1475 52.18H16.7008L14.6832 47.2882L12.6115 52.18H13.1649L13.7047 50.8643H15.6212L16.1475 52.18ZM13.9004 50.3744L14.6697 48.5059L15.4255 50.3744H13.9004Z" fill="black"/>
<path d="M18.9551 47.5121V52.18H20.6961V51.6901H19.4545V47.5121H18.9551Z" fill="black"/>
<path d="M22.9931 47.5121V52.18H24.7341V51.6901H23.4925V47.5121H22.9931Z" fill="black"/>
<path d="M30.2256 47.5121V52.18H31.3458C31.6562 52.18 32.0678 52.166 32.4255 51.872C32.6684 51.6761 32.8843 51.3122 32.8843 50.8643C32.8843 50.4164 32.6549 49.8496 32.0273 49.6886C32.4255 49.4087 32.4727 49.0028 32.4727 48.7718C32.4727 48.205 32.2095 47.918 32.0678 47.8061C31.7372 47.5331 31.285 47.5121 31.0354 47.5121H30.2256ZM30.725 48.002H31.1163C31.2581 48.002 31.9868 48.016 31.9868 48.7858C31.9868 49.5066 31.366 49.5626 31.1028 49.5626H30.725V48.002ZM30.725 50.0245H31.2378C31.5954 50.0245 31.8316 50.0665 32.0003 50.1645C32.1758 50.2625 32.385 50.4794 32.385 50.8503C32.385 51.1302 32.2635 51.3612 32.0881 51.4941C31.8721 51.6691 31.5887 51.6901 31.2985 51.6901H30.725V50.0245Z" fill="black"/>
<path d="M35.9228 47.5121H35.4234V50.5144C35.4234 50.9063 35.4639 51.2842 35.7068 51.6341C35.9767 52.019 36.4491 52.2639 37.0227 52.2639C37.5963 52.2639 38.0686 52.019 38.3385 51.6341C38.5815 51.2842 38.622 50.9063 38.622 50.5144V47.5121H38.1226V50.3744C38.1226 50.7663 38.1226 51.1932 37.765 51.5081C37.5828 51.6691 37.2724 51.7741 37.0227 51.7741C36.773 51.7741 36.4626 51.6691 36.2804 51.5081C35.9228 51.1932 35.9228 50.7663 35.9228 50.3744V47.5121Z" fill="black"/>
<path d="M43.8144 48.163C43.7132 47.96 43.558 47.7711 43.3758 47.6451C43.1531 47.4912 42.9304 47.4352 42.6538 47.4352C41.925 47.4352 41.3919 47.918 41.3919 48.6389C41.3919 48.9888 41.5066 49.2057 41.7023 49.4017C41.9048 49.6046 42.1274 49.7026 42.3029 49.7866L42.7078 49.9825C42.9439 50.0945 43.1194 50.1785 43.2476 50.3044C43.4096 50.4584 43.4703 50.6404 43.4703 50.8503C43.4703 51.3192 43.1801 51.7741 42.5661 51.7741C42.3366 51.7741 42.1139 51.7181 41.9182 51.5151C41.79 51.3752 41.6821 51.1652 41.6483 50.9203L41.1625 51.0602C41.2232 51.3402 41.3582 51.6621 41.5808 51.886C41.8913 52.201 42.2624 52.2639 42.5593 52.2639C43.3691 52.2639 43.9831 51.6901 43.9831 50.8293C43.9831 50.4934 43.8887 50.2205 43.6592 49.9825C43.4703 49.7866 43.2274 49.6606 42.9642 49.5416L42.5323 49.3457C42.3636 49.2687 42.1949 49.1917 42.06 49.0518C41.9385 48.9328 41.8913 48.8278 41.8913 48.6459C41.8913 48.212 42.2017 47.925 42.647 47.925C42.9035 47.925 43.0654 48.016 43.1531 48.086C43.2544 48.17 43.3556 48.3099 43.4163 48.4359L43.8144 48.163Z" fill="black"/>
<path d="M46.5175 47.5121V52.18H47.0169V47.5121H46.5175Z" fill="black"/>
<path d="M50.297 52.18V48.5759L53.806 52.3899V47.5121H53.3066V51.1302L49.7977 47.3162V52.18H50.297Z" fill="black"/>
<path d="M58.9185 47.5121H56.5836V52.18H58.9185V51.6901H57.083V49.8775H58.8645V49.3877H57.083V48.002H58.9185V47.5121Z" fill="black"/>
<path d="M63.8676 48.163C63.7664 47.96 63.6112 47.7711 63.429 47.6451C63.2063 47.4912 62.9836 47.4352 62.7069 47.4352C61.9781 47.4352 61.4451 47.918 61.4451 48.6389C61.4451 48.9888 61.5598 49.2057 61.7555 49.4017C61.9579 49.6046 62.1806 49.7026 62.356 49.7866L62.7609 49.9825C62.9971 50.0945 63.1725 50.1785 63.3008 50.3044C63.4627 50.4584 63.5234 50.6404 63.5234 50.8503C63.5234 51.3192 63.2333 51.7741 62.6192 51.7741C62.3898 51.7741 62.1671 51.7181 61.9714 51.5151C61.8432 51.3752 61.7352 51.1652 61.7015 50.9203L61.2156 51.0602C61.2764 51.3402 61.4113 51.6621 61.634 51.886C61.9444 52.201 62.3155 52.2639 62.6125 52.2639C63.4222 52.2639 64.0363 51.6901 64.0363 50.8293C64.0363 50.4934 63.9418 50.2205 63.7124 49.9825C63.5234 49.7866 63.2805 49.6606 63.0173 49.5416L62.5855 49.3457C62.4168 49.2687 62.2481 49.1917 62.1131 49.0518C61.9916 48.9328 61.9444 48.8278 61.9444 48.6459C61.9444 48.212 62.2548 47.925 62.7002 47.925C62.9566 47.925 63.1186 48.016 63.2063 48.086C63.3075 48.17 63.4087 48.3099 63.4695 48.4359L63.8676 48.163Z" fill="black"/>
<path d="M68.9797 48.163C68.8785 47.96 68.7233 47.7711 68.5411 47.6451C68.3184 47.4912 68.0957 47.4352 67.8191 47.4352C67.0903 47.4352 66.5572 47.918 66.5572 48.6389C66.5572 48.9888 66.6719 49.2057 66.8676 49.4017C67.07 49.6046 67.2927 49.7026 67.4682 49.7866L67.873 49.9825C68.1092 50.0945 68.2847 50.1785 68.4129 50.3044C68.5748 50.4584 68.6356 50.6404 68.6356 50.8503C68.6356 51.3192 68.3454 51.7741 67.7313 51.7741C67.5019 51.7741 67.2792 51.7181 67.0835 51.5151C66.9553 51.3752 66.8474 51.1652 66.8136 50.9203L66.3278 51.0602C66.3885 51.3402 66.5234 51.6621 66.7461 51.886C67.0565 52.201 67.4277 52.2639 67.7246 52.2639C68.5343 52.2639 69.1484 51.6901 69.1484 50.8293C69.1484 50.4934 69.0539 50.2205 68.8245 49.9825C68.6356 49.7866 68.3926 49.6606 68.1295 49.5416L67.6976 49.3457C67.5289 49.2687 67.3602 49.1917 67.2252 49.0518C67.1038 48.9328 67.0565 48.8278 67.0565 48.6459C67.0565 48.212 67.3669 47.925 67.8123 47.925C68.0687 47.925 68.2307 48.016 68.3184 48.086C68.4196 48.17 68.5208 48.3099 68.5816 48.4359L68.9797 48.163Z" fill="black"/>
<path d="M74.8773 47.5121V52.18H76.6183V51.6901H75.3767V47.5121H74.8773Z" fill="black"/>
<path d="M80.7833 52.2639C82.0856 52.2639 83.1248 51.2352 83.1248 49.8496C83.1248 48.4569 82.0789 47.4352 80.7833 47.4352C79.4877 47.4352 78.4417 48.4569 78.4417 49.8496C78.4417 51.2352 79.4809 52.2639 80.7833 52.2639ZM80.7833 47.925C81.7955 47.925 82.612 48.7788 82.612 49.8496C82.612 50.9203 81.7955 51.7741 80.7833 51.7741C79.7711 51.7741 78.9546 50.9203 78.9546 49.8496C78.9546 48.7788 79.7711 47.925 80.7833 47.925Z" fill="black"/>
<path d="M88.4011 52.18H88.9545L86.9368 47.2882L84.8652 52.18H85.4185L85.9584 50.8643H87.8748L88.4011 52.18ZM86.154 50.3744L86.9233 48.5059L87.6791 50.3744H86.154Z" fill="black"/>
<path d="M91.7081 52.18V48.5759L95.2171 52.3899V47.5121H94.7177V51.1302L91.2088 47.3162V52.18H91.7081Z" fill="black"/>
<path d="M100.404 48.163C100.303 47.96 100.147 47.7711 99.9651 47.6451C99.7425 47.4912 99.5198 47.4352 99.2431 47.4352C98.5143 47.4352 97.9812 47.918 97.9812 48.6389C97.9812 48.9888 98.0959 49.2057 98.2916 49.4017C98.4941 49.6046 98.7168 49.7026 98.8922 49.7866L99.2971 49.9825C99.5333 50.0945 99.7087 50.1785 99.8369 50.3044C99.9989 50.4584 100.06 50.6404 100.06 50.8503C100.06 51.3192 99.7694 51.7741 99.1554 51.7741C98.9259 51.7741 98.7033 51.7181 98.5076 51.5151C98.3794 51.3752 98.2714 51.1652 98.2377 50.9203L97.7518 51.0602C97.8125 51.3402 97.9475 51.6621 98.1702 51.886C98.4806 52.201 98.8517 52.2639 99.1486 52.2639C99.9584 52.2639 100.572 51.6901 100.572 50.8293C100.572 50.4934 100.478 50.2205 100.249 49.9825C100.06 49.7866 99.8167 49.6606 99.5535 49.5416L99.1216 49.3457C98.9529 49.2687 98.7842 49.1917 98.6493 49.0518C98.5278 48.9328 98.4806 48.8278 98.4806 48.6459C98.4806 48.212 98.791 47.925 99.2364 47.925C99.4928 47.925 99.6547 48.016 99.7425 48.086C99.8437 48.17 99.9449 48.3099 100.006 48.4359L100.404 48.163Z" fill="black"/>
<path d="M106.801 47.5121H106.301V52.18H106.801V49.8985H109.109V52.18H109.608V47.5121H109.109V49.4087H106.801V47.5121Z" fill="black"/>
<path d="M115.398 52.18H115.952L113.934 47.2882L111.862 52.18H112.416L112.956 50.8643H114.872L115.398 52.18ZM113.151 50.3744L113.921 48.5059L114.676 50.3744H113.151Z" fill="black"/>
<path d="M120.615 48.163C120.514 47.96 120.359 47.7711 120.176 47.6451C119.954 47.4912 119.731 47.4352 119.454 47.4352C118.726 47.4352 118.193 47.918 118.193 48.6389C118.193 48.9888 118.307 49.2057 118.503 49.4017C118.705 49.6046 118.928 49.7026 119.104 49.7866L119.508 49.9825C119.745 50.0945 119.92 50.1785 120.048 50.3044C120.21 50.4584 120.271 50.6404 120.271 50.8503C120.271 51.3192 119.981 51.7741 119.367 51.7741C119.137 51.7741 118.915 51.7181 118.719 51.5151C118.591 51.3752 118.483 51.1652 118.449 50.9203L117.963 51.0602C118.024 51.3402 118.159 51.6621 118.381 51.886C118.692 52.201 119.063 52.2639 119.36 52.2639C120.17 52.2639 120.784 51.6901 120.784 50.8293C120.784 50.4934 120.689 50.2205 120.46 49.9825C120.271 49.7866 120.028 49.6606 119.765 49.5416L119.333 49.3457C119.164 49.2687 118.996 49.1917 118.861 49.0518C118.739 48.9328 118.692 48.8278 118.692 48.6459C118.692 48.212 119.002 47.925 119.448 47.925C119.704 47.925 119.866 48.016 119.954 48.086C120.055 48.17 120.156 48.3099 120.217 48.4359L120.615 48.163Z" fill="black"/>
<path d="M125.727 48.163C125.626 47.96 125.471 47.7711 125.289 47.6451C125.066 47.4912 124.843 47.4352 124.567 47.4352C123.838 47.4352 123.305 47.918 123.305 48.6389C123.305 48.9888 123.419 49.2057 123.615 49.4017C123.818 49.6046 124.04 49.7026 124.216 49.7866L124.621 49.9825C124.857 50.0945 125.032 50.1785 125.16 50.3044C125.322 50.4584 125.383 50.6404 125.383 50.8503C125.383 51.3192 125.093 51.7741 124.479 51.7741C124.249 51.7741 124.027 51.7181 123.831 51.5151C123.703 51.3752 123.595 51.1652 123.561 50.9203L123.075 51.0602C123.136 51.3402 123.271 51.6621 123.494 51.886C123.804 52.201 124.175 52.2639 124.472 52.2639C125.282 52.2639 125.896 51.6901 125.896 50.8293C125.896 50.4934 125.801 50.2205 125.572 49.9825C125.383 49.7866 125.14 49.6606 124.877 49.5416L124.445 49.3457C124.276 49.2687 124.108 49.1917 123.973 49.0518C123.851 48.9328 123.804 48.8278 123.804 48.6459C123.804 48.212 124.114 47.925 124.56 47.925C124.816 47.925 124.978 48.016 125.066 48.086C125.167 48.17 125.268 48.3099 125.329 48.4359L125.727 48.163Z" fill="black"/>
<path d="M128.43 47.5121V52.18H130.171V51.6901H128.93V47.5121H128.43Z" fill="black"/>
<path d="M134.803 47.5121H132.468V52.18H134.803V51.6901H132.968V49.8775H134.749V49.3877H132.968V48.002H134.803V47.5121Z" fill="black"/>
<path d="M142.589 47.5121H140.538V52.18H141.037V49.8706H142.535V49.3807H141.037V48.002H142.589V47.5121Z" fill="black"/>
<path d="M145.083 47.5121V52.18H145.582V50.1365H145.711L147.081 52.18H147.688L146.257 50.0945C146.939 50.0455 147.391 49.5206 147.391 48.8068C147.391 48.3099 147.161 47.953 146.898 47.7711C146.561 47.5331 146.109 47.5121 145.805 47.5121H145.083ZM145.582 48.002H145.886C146.102 48.002 146.331 48.016 146.534 48.135C146.817 48.3029 146.892 48.5619 146.892 48.8208C146.892 49.3667 146.52 49.6746 145.9 49.6746H145.582V48.002Z" fill="black"/>
<path d="M152.425 47.5121H150.09V52.18H152.425V51.6901H150.589V49.8775H152.371V49.3877H150.589V48.002H152.425V47.5121Z" fill="black"/>
<path d="M157.299 47.5121H154.965V52.18H157.299V51.6901H155.464V49.8775H157.245V49.3877H155.464V48.002H157.299V47.5121Z" fill="black"/>
<path d="M161.314 43.5302V43.078H159.64V43.5302H160.224V45.771H160.73V43.5302H161.314Z" fill="black"/>
<path d="M161.503 45.771H162.016L162.281 44.1116L162.962 45.8073H163.103L163.815 44.1116L164.049 45.771H164.562L164.126 43.0295H163.776L163.04 44.7899L162.336 43.0295H161.985L161.503 45.771Z" fill="black"/>
</svg>
