<svg width="280" height="75" viewBox="0 0 280 75" fill="none" xmlns="http://www.w3.org/2000/svg">
<rect width="11.9491" height="35.269" fill="#159C2A"/>
<rect width="37.1749" height="11.7563" fill="#159C2A"/>
<rect x="39.8301" width="15.9321" height="57.4755" fill="#159C2A"/>
<rect y="37.8816" width="37.1749" height="19.5939" fill="#232323"/>
<path d="M80.9789 33.0846V28.3395H73.6456V16.0453C73.6456 14.4636 73.6456 12.81 74.2926 11.7316C75.0835 10.4375 76.4495 10.1499 77.5998 10.1499C78.6783 10.1499 79.9005 10.3656 80.9789 10.7969V5.76425C80.4037 5.54856 79.1815 5.11719 77.3122 5.11719C74.9397 5.11719 72.7828 5.83614 71.3449 7.05837C68.6848 9.28713 68.4691 12.7381 68.4691 15.4701V28.3395H65.5933V33.0846H68.4691V58.1761H73.6456V33.0846H80.9789Z" fill="#001D00"/>
<path d="M87.8977 28.3395H82.7213V46.3133C82.7213 49.98 83.0807 52.7121 85.4533 55.3003C88.1134 58.1042 91.6363 59.0389 94.584 59.0389C97.5317 59.0389 101.055 58.1042 103.715 55.3003C106.087 52.7121 106.447 49.98 106.447 46.3133V28.3395H101.27V45.7382C101.27 47.8232 101.27 50.2676 99.8324 52.1369C99.0416 53.1434 97.4598 54.4375 94.584 54.4375C91.7082 54.4375 90.1265 53.1434 89.3356 52.1369C87.8977 50.2676 87.8977 47.8232 87.8977 45.7382V28.3395Z" fill="#001D00"/>
<path d="M109.022 58.1761H114.199V42.5748C114.199 40.4179 114.342 36.895 116.355 34.5225C117.865 32.7251 119.806 32.2218 121.604 32.2218C123.904 32.2218 125.486 33.0846 126.493 34.3787C127.715 35.9604 127.859 38.0454 127.859 39.8427V58.1761H133.035V39.699C133.035 36.3918 132.82 33.9473 131.31 31.7185C129.512 29.0584 126.277 27.6205 122.754 27.6205C117.793 27.6205 115.133 30.5682 114.199 31.7904V28.3395H109.022V58.1761Z" fill="#001D00"/>
<path d="M160.623 32.5813C159.257 30.7839 156.166 27.6205 150.414 27.6205C142.793 27.6205 135.891 32.9408 135.891 43.2218C135.891 53.7186 142.865 59.0389 150.414 59.0389C155.663 59.0389 158.898 56.2349 160.623 54.0062V58.1761H165.8V5.76425H160.623V32.5813ZM150.989 32.2218C155.591 32.2218 160.911 35.6009 160.911 43.2937C160.911 49.1892 157.316 54.4375 150.989 54.4375C144.806 54.4375 141.212 49.6205 141.212 43.2218C141.212 35.9604 145.885 32.2218 150.989 32.2218Z" fill="#001D00"/>
<path d="M186.388 33.0127C184.016 27.9081 179.774 27.6205 178.192 27.6205C173.16 27.6205 169.493 30.712 169.493 35.9604C169.493 37.4702 169.709 38.9081 170.859 40.346C172.225 41.9996 174.526 43.1499 178.12 44.7316C180.924 45.9539 182.938 46.8885 182.938 49.6924C182.938 51.9212 181.428 54.4375 178.049 54.4375C174.31 54.4375 172.585 51.1303 172.009 49.5486L167.552 51.4179C170.068 58.8951 176.754 59.0389 177.977 59.0389C183.728 59.0389 188.258 55.516 188.258 49.2611C188.258 47.6075 187.97 46.0258 186.676 44.4441C185.526 43.0061 183.513 41.6401 179.199 39.8427C175.82 38.4048 174.382 37.7578 174.382 35.6009C174.382 33.3002 176.107 32.2218 177.977 32.2218C179.918 32.2218 181.428 33.5159 182.147 35.2414L186.388 33.0127Z" fill="#001D00"/>
<path d="M190.096 58.1761H195.272V42.5748C195.272 40.4179 195.416 36.895 197.429 34.5225C198.939 32.7251 200.88 32.2218 202.677 32.2218C204.978 32.2218 206.56 33.0846 207.566 34.3787C208.788 35.9604 208.932 38.0454 208.932 39.8427V58.1761H214.109V39.699C214.109 36.3918 213.893 33.9473 212.383 31.7185C210.586 29.0584 207.351 27.6205 203.828 27.6205C198.867 27.6205 196.207 30.5682 195.272 31.7904V5.76425H190.096V58.1761Z" fill="#001D00"/>
<path d="M232.063 59.0389C241.122 59.0389 247.88 52.4245 247.88 43.3656C247.88 34.3068 241.194 27.6205 232.063 27.6205C222.932 27.6205 216.246 34.3068 216.246 43.3656C216.246 52.4245 223.004 59.0389 232.063 59.0389ZM232.063 32.2218C237.527 32.2218 242.56 36.0323 242.56 43.3656C242.56 50.6271 237.455 54.4375 232.063 54.4375C226.743 54.4375 221.566 50.699 221.566 43.3656C221.566 36.1042 226.599 32.2218 232.063 32.2218Z" fill="#001D00"/>
<path d="M255.243 54.0062C257.472 56.882 260.851 59.0389 265.668 59.0389C274.727 59.0389 279.975 51.6336 279.975 43.4375C279.975 35.3852 274.799 27.6205 265.452 27.6205C263.295 27.6205 258.766 28.1238 255.243 32.5094V28.3395H250.067V74.9997H255.243V54.0062ZM264.949 54.4375C258.838 54.4375 254.956 49.4767 254.956 43.3656C254.956 36.1761 260.06 32.2218 264.877 32.2218C269.694 32.2218 274.655 36.1042 274.655 43.4375C274.655 49.4049 270.988 54.4375 264.949 54.4375Z" fill="#001D00"/>
<path d="M4.42752 68.7956C4.27758 68.5057 4.04767 68.2358 3.77777 68.0559C3.4479 67.836 3.11802 67.756 2.70818 67.756C1.62859 67.756 0.838893 68.4457 0.838893 69.4753C0.838893 69.9751 1.00883 70.285 1.29872 70.5649C1.5986 70.8548 1.92848 70.9947 2.18838 71.1147L2.78815 71.3946C3.13801 71.5545 3.39791 71.6745 3.58784 71.8544C3.82775 72.0743 3.91772 72.3342 3.91772 72.6341C3.91772 73.3039 3.48788 73.9536 2.57823 73.9536C2.23836 73.9536 1.90848 73.8736 1.6186 73.5838C1.42867 73.3838 1.26873 73.0839 1.21875 72.7341L0.499023 72.934C0.588989 73.3338 0.788913 73.7937 1.11879 74.1135C1.57861 74.5634 2.1284 74.6533 2.56823 74.6533C3.76777 74.6533 4.67742 73.8337 4.67742 72.6041C4.67742 72.1243 4.53748 71.7345 4.19761 71.3946C3.91772 71.1147 3.55785 70.9348 3.168 70.7648L2.52825 70.4849C2.27834 70.375 2.02844 70.265 1.82851 70.0651C1.64858 69.8952 1.57861 69.7452 1.57861 69.4853C1.57861 68.8656 2.03843 68.4557 2.69818 68.4557C3.07804 68.4557 3.31794 68.5857 3.4479 68.6856C3.59784 68.8056 3.74778 69.0055 3.83775 69.1854L4.42752 68.7956Z" fill="#001D00"/>
<path d="M8.96157 74.5334L9.62131 69.8952L11.8605 74.8133L14.1296 69.8952L14.7593 74.5334H15.5191L14.4795 67.4861L11.8705 73.1239L9.31143 67.4961L8.20186 74.5334H8.96157Z" fill="#001D00"/>
<path d="M23.9187 74.5334H24.7383L21.7495 67.5461L18.6807 74.5334H19.5003L20.3 72.6541H23.139L23.9187 74.5334ZM20.5899 71.9544L21.7295 69.2854L22.8491 71.9544H20.5899Z" fill="#001D00"/>
<path d="M28.0778 67.8659V74.5334H30.6568V73.8337H28.8175V67.8659H28.0778Z" fill="#001D00"/>
<path d="M34.0595 67.8659V74.5334H36.6385V73.8337H34.7992V67.8659H34.0595Z" fill="#001D00"/>
<path d="M44.7733 67.8659V74.5334H46.4327C46.8925 74.5334 47.5023 74.5134 48.0321 74.0936C48.3919 73.8137 48.7118 73.2939 48.7118 72.6541C48.7118 72.0144 48.372 71.2047 47.4423 70.9747C48.0321 70.5749 48.1021 69.9951 48.1021 69.6653C48.1021 68.8556 47.7122 68.4457 47.5023 68.2858C47.0125 67.8959 46.3427 67.8659 45.9729 67.8659H44.7733ZM45.5131 68.5657H46.0928C46.3027 68.5657 47.3823 68.5857 47.3823 69.6852C47.3823 70.7148 46.4627 70.7948 46.0728 70.7948H45.5131V68.5657ZM45.5131 71.4546H46.2728C46.8026 71.4546 47.1524 71.5145 47.4023 71.6545C47.6622 71.7944 47.9721 72.1043 47.9721 72.6341C47.9721 73.034 47.7922 73.3638 47.5323 73.5538C47.2124 73.8037 46.7926 73.8337 46.3627 73.8337H45.5131V71.4546Z" fill="#001D00"/>
<path d="M53.2128 67.8659H52.4731V72.1543C52.4731 72.7141 52.5331 73.2539 52.893 73.7537C53.2928 74.3035 53.9925 74.6533 54.8422 74.6533C55.6919 74.6533 56.3916 74.3035 56.7915 73.7537C57.1513 73.2539 57.2113 72.7141 57.2113 72.1543V67.8659H56.4716V71.9544C56.4716 72.5142 56.4716 73.1239 55.9418 73.5738C55.6719 73.8037 55.2121 73.9536 54.8422 73.9536C54.4724 73.9536 54.0125 73.8037 53.7426 73.5738C53.2128 73.1239 53.2128 72.5142 53.2128 71.9544V67.8659Z" fill="#001D00"/>
<path d="M64.9032 68.7956C64.7533 68.5057 64.5234 68.2358 64.2535 68.0559C63.9236 67.836 63.5937 67.756 63.1839 67.756C62.1043 67.756 61.3146 68.4457 61.3146 69.4753C61.3146 69.9751 61.4845 70.285 61.7744 70.5649C62.0743 70.8548 62.4042 70.9947 62.6641 71.1147L63.2638 71.3946C63.6137 71.5545 63.8736 71.6745 64.0635 71.8544C64.3034 72.0743 64.3934 72.3342 64.3934 72.6341C64.3934 73.3039 63.9636 73.9536 63.0539 73.9536C62.714 73.9536 62.3842 73.8736 62.0943 73.5838C61.9044 73.3838 61.7444 73.0839 61.6944 72.7341L60.9747 72.934C61.0647 73.3338 61.2646 73.7937 61.5945 74.1135C62.0543 74.5634 62.6041 74.6533 63.0439 74.6533C64.2435 74.6533 65.1531 73.8337 65.1531 72.6041C65.1531 72.1243 65.0132 71.7345 64.6733 71.3946C64.3934 71.1147 64.0335 70.9348 63.6437 70.7648L63.0039 70.4849C62.754 70.375 62.5041 70.265 62.3042 70.0651C62.1243 69.8952 62.0543 69.7452 62.0543 69.4853C62.0543 68.8656 62.5141 68.4557 63.1739 68.4557C63.5537 68.4557 63.7936 68.5857 63.9236 68.6856C64.0735 68.8056 64.2235 69.0055 64.3134 69.1854L64.9032 68.7956Z" fill="#001D00"/>
<path d="M68.9075 67.8659V74.5334H69.6472V67.8659H68.9075Z" fill="#001D00"/>
<path d="M74.5062 74.5334V69.3854L79.7043 74.8333V67.8659H78.9645V73.034L73.7665 67.586V74.5334H74.5062Z" fill="#001D00"/>
<path d="M87.2776 67.8659H83.8189V74.5334H87.2776V73.8337H84.5587V71.2446H87.1976V70.5449H84.5587V68.5657H87.2776V67.8659Z" fill="#001D00"/>
<path d="M94.609 68.7956C94.4591 68.5057 94.2292 68.2358 93.9593 68.0559C93.6294 67.836 93.2995 67.756 92.8897 67.756C91.8101 67.756 91.0204 68.4457 91.0204 69.4753C91.0204 69.9751 91.1903 70.285 91.4802 70.5649C91.7801 70.8548 92.11 70.9947 92.3699 71.1147L92.9697 71.3946C93.3195 71.5545 93.5794 71.6745 93.7693 71.8544C94.0093 72.0743 94.0992 72.3342 94.0992 72.6341C94.0992 73.3039 93.6694 73.9536 92.7597 73.9536C92.4199 73.9536 92.09 73.8736 91.8001 73.5838C91.6102 73.3838 91.4502 73.0839 91.4003 72.7341L90.6805 72.934C90.7705 73.3338 90.9704 73.7937 91.3003 74.1135C91.7601 74.5634 92.3099 74.6533 92.7497 74.6533C93.9493 74.6533 94.8589 73.8337 94.8589 72.6041C94.8589 72.1243 94.719 71.7345 94.3791 71.3946C94.0992 71.1147 93.7394 70.9348 93.3495 70.7648L92.7098 70.4849C92.4598 70.375 92.2099 70.265 92.01 70.0651C91.8301 69.8952 91.7601 69.7452 91.7601 69.4853C91.7601 68.8656 92.2199 68.4557 92.8797 68.4557C93.2595 68.4557 93.4995 68.5857 93.6294 68.6856C93.7793 68.8056 93.9293 69.0055 94.0193 69.1854L94.609 68.7956Z" fill="#001D00"/>
<path d="M102.182 68.7956C102.032 68.5057 101.802 68.2358 101.532 68.0559C101.202 67.836 100.872 67.756 100.463 67.756C99.383 67.756 98.5933 68.4457 98.5933 69.4753C98.5933 69.9751 98.7632 70.285 99.0531 70.5649C99.353 70.8548 99.6829 70.9947 99.9428 71.1147L100.543 71.3946C100.892 71.5545 101.152 71.6745 101.342 71.8544C101.582 72.0743 101.672 72.3342 101.672 72.6341C101.672 73.3039 101.242 73.9536 100.333 73.9536C99.9927 73.9536 99.6629 73.8736 99.373 73.5838C99.1831 73.3838 99.0231 73.0839 98.9731 72.7341L98.2534 72.934C98.3434 73.3338 98.5433 73.7937 98.8732 74.1135C99.333 74.5634 99.8828 74.6533 100.323 74.6533C101.522 74.6533 102.432 73.8337 102.432 72.6041C102.432 72.1243 102.292 71.7345 101.952 71.3946C101.672 71.1147 101.312 70.9348 100.922 70.7648L100.283 70.4849C100.033 70.375 99.7828 70.265 99.5829 70.0651C99.403 69.8952 99.333 69.7452 99.333 69.4853C99.333 68.8656 99.7928 68.4557 100.453 68.4557C100.832 68.4557 101.072 68.5857 101.202 68.6856C101.352 68.8056 101.502 69.0055 101.592 69.1854L102.182 68.7956Z" fill="#001D00"/>
<path d="M110.918 67.8659V74.5334H113.497V73.8337H111.658V67.8659H110.918Z" fill="#001D00"/>
<path d="M119.667 74.6533C121.596 74.6533 123.136 73.1839 123.136 71.2047C123.136 69.2154 121.586 67.756 119.667 67.756C117.748 67.756 116.198 69.2154 116.198 71.2047C116.198 73.1839 117.738 74.6533 119.667 74.6533ZM119.667 68.4557C121.167 68.4557 122.376 69.6752 122.376 71.2047C122.376 72.7341 121.167 73.9536 119.667 73.9536C118.168 73.9536 116.958 72.7341 116.958 71.2047C116.958 69.6752 118.168 68.4557 119.667 68.4557Z" fill="#001D00"/>
<path d="M130.952 74.5334H131.772L128.783 67.5461L125.714 74.5334H126.534L127.333 72.6541H130.172L130.952 74.5334ZM127.623 71.9544L128.763 69.2854L129.882 71.9544H127.623Z" fill="#001D00"/>
<path d="M135.851 74.5334V69.3854L141.049 74.8333V67.8659H140.309V73.034L135.111 67.586V74.5334H135.851Z" fill="#001D00"/>
<path d="M148.732 68.7956C148.582 68.5057 148.352 68.2358 148.082 68.0559C147.752 67.836 147.423 67.756 147.013 67.756C145.933 67.756 145.143 68.4457 145.143 69.4753C145.143 69.9751 145.313 70.285 145.603 70.5649C145.903 70.8548 146.233 70.9947 146.493 71.1147L147.093 71.3946C147.443 71.5545 147.702 71.6745 147.892 71.8544C148.132 72.0743 148.222 72.3342 148.222 72.6341C148.222 73.3039 147.792 73.9536 146.883 73.9536C146.543 73.9536 146.213 73.8736 145.923 73.5838C145.733 73.3838 145.573 73.0839 145.523 72.7341L144.804 72.934C144.894 73.3338 145.093 73.7937 145.423 74.1135C145.883 74.5634 146.433 74.6533 146.873 74.6533C148.072 74.6533 148.982 73.8337 148.982 72.6041C148.982 72.1243 148.842 71.7345 148.502 71.3946C148.222 71.1147 147.862 70.9348 147.473 70.7648L146.833 70.4849C146.583 70.375 146.333 70.265 146.133 70.0651C145.953 69.8952 145.883 69.7452 145.883 69.4853C145.883 68.8656 146.343 68.4557 147.003 68.4557C147.383 68.4557 147.622 68.5857 147.752 68.6856C147.902 68.8056 148.052 69.0055 148.142 69.1854L148.732 68.7956Z" fill="#001D00"/>
<path d="M158.208 67.8659H157.468V74.5334H158.208V71.2746H161.627V74.5334H162.367V67.8659H161.627V70.5749H158.208V67.8659Z" fill="#001D00"/>
<path d="M170.944 74.5334H171.764L168.775 67.5461L165.706 74.5334H166.526L167.326 72.6541H170.165L170.944 74.5334ZM167.616 71.9544L168.755 69.2854L169.875 71.9544H167.616Z" fill="#001D00"/>
<path d="M178.672 68.7956C178.522 68.5057 178.292 68.2358 178.022 68.0559C177.693 67.836 177.363 67.756 176.953 67.756C175.873 67.756 175.084 68.4457 175.084 69.4753C175.084 69.9751 175.253 70.285 175.543 70.5649C175.843 70.8548 176.173 70.9947 176.433 71.1147L177.033 71.3946C177.383 71.5545 177.643 71.6745 177.832 71.8544C178.072 72.0743 178.162 72.3342 178.162 72.6341C178.162 73.3039 177.733 73.9536 176.823 73.9536C176.483 73.9536 176.153 73.8736 175.863 73.5838C175.673 73.3838 175.513 73.0839 175.463 72.7341L174.744 72.934C174.834 73.3338 175.034 73.7937 175.363 74.1135C175.823 74.5634 176.373 74.6533 176.813 74.6533C178.012 74.6533 178.922 73.8337 178.922 72.6041C178.922 72.1243 178.782 71.7345 178.442 71.3946C178.162 71.1147 177.802 70.9348 177.413 70.7648L176.773 70.4849C176.523 70.375 176.273 70.265 176.073 70.0651C175.893 69.8952 175.823 69.7452 175.823 69.4853C175.823 68.8656 176.283 68.4557 176.943 68.4557C177.323 68.4557 177.563 68.5857 177.693 68.6856C177.842 68.8056 177.992 69.0055 178.082 69.1854L178.672 68.7956Z" fill="#001D00"/>
<path d="M186.245 68.7956C186.095 68.5057 185.865 68.2358 185.595 68.0559C185.265 67.836 184.936 67.756 184.526 67.756C183.446 67.756 182.656 68.4457 182.656 69.4753C182.656 69.9751 182.826 70.285 183.116 70.5649C183.416 70.8548 183.746 70.9947 184.006 71.1147L184.606 71.3946C184.956 71.5545 185.215 71.6745 185.405 71.8544C185.645 72.0743 185.735 72.3342 185.735 72.6341C185.735 73.3039 185.305 73.9536 184.396 73.9536C184.056 73.9536 183.726 73.8736 183.436 73.5838C183.246 73.3838 183.086 73.0839 183.036 72.7341L182.317 72.934C182.407 73.3338 182.606 73.7937 182.936 74.1135C183.396 74.5634 183.946 74.6533 184.386 74.6533C185.585 74.6533 186.495 73.8337 186.495 72.6041C186.495 72.1243 186.355 71.7345 186.015 71.3946C185.735 71.1147 185.375 70.9348 184.986 70.7648L184.346 70.4849C184.096 70.375 183.846 70.265 183.646 70.0651C183.466 69.8952 183.396 69.7452 183.396 69.4853C183.396 68.8656 183.856 68.4557 184.516 68.4557C184.896 68.4557 185.135 68.5857 185.265 68.6856C185.415 68.8056 185.565 69.0055 185.655 69.1854L186.245 68.7956Z" fill="#001D00"/>
<path d="M190.249 67.8659V74.5334H192.828V73.8337H190.989V67.8659H190.249Z" fill="#001D00"/>
<path d="M199.69 67.8659H196.231V74.5334H199.69V73.8337H196.971V71.2446H199.61V70.5449H196.971V68.5657H199.69V67.8659Z" fill="#001D00"/>
<path d="M211.223 67.8659H208.185V74.5334H208.924V71.2346H211.143V70.5349H208.924V68.5657H211.223V67.8659Z" fill="#001D00"/>
<path d="M214.918 67.8659V74.5334H215.658V71.6145H215.848L217.877 74.5334H218.777L216.657 71.5545C217.667 71.4846 218.337 70.7348 218.337 69.7152C218.337 69.0055 217.997 68.4957 217.607 68.2358C217.107 67.8959 216.437 67.8659 215.988 67.8659H214.918ZM215.658 68.5657H216.108C216.427 68.5657 216.767 68.5857 217.067 68.7556C217.487 68.9955 217.597 69.3654 217.597 69.7352C217.597 70.5149 217.047 70.9548 216.128 70.9548H215.658V68.5657Z" fill="#001D00"/>
<path d="M225.793 67.8659H222.335V74.5334H225.793V73.8337H223.074V71.2446H225.713V70.5449H223.074V68.5657H225.793V67.8659Z" fill="#001D00"/>
<path d="M233.015 67.8659H229.556V74.5334H233.015V73.8337H230.296V71.2446H232.935V70.5449H230.296V68.5657H233.015V67.8659Z" fill="#001D00"/>
<path d="M238.963 62.1782V61.5323H236.483V62.1782H237.348V65.3789H238.098V62.1782H238.963Z" fill="#232323"/>
<path d="M239.242 65.3789H240.003L240.395 63.0087L241.404 65.4308H241.612L242.667 63.0087L243.013 65.3789H243.775L243.129 61.4631H242.61L241.52 63.9776L240.476 61.4631H239.957L239.242 65.3789Z" fill="#232323"/>
</svg>
