<svg width="214" height="58" viewBox="0 0 214 58" fill="none" xmlns="http://www.w3.org/2000/svg">
<rect width="9.13332" height="26.958" fill="#159C2A"/>
<rect width="28.4148" height="8.98601" fill="#159C2A"/>
<rect x="30.4443" width="12.1778" height="43.9316" fill="#159C2A"/>
<rect y="28.9548" width="28.4148" height="14.9767" fill="#232323"/>
<path d="M61.8963 25.2883V21.6614H56.291V12.2643C56.291 11.0554 56.291 9.79142 56.7856 8.96711C57.3901 7.97795 58.4342 7.75813 59.3135 7.75813C60.1378 7.75813 61.072 7.92299 61.8963 8.25272V4.40596C61.4567 4.2411 60.5225 3.91138 59.0937 3.91138C57.2802 3.91138 55.6316 4.46091 54.5325 5.39513C52.4992 7.09869 52.3344 9.73647 52.3344 11.8247V21.6614H50.1362V25.2883H52.3344V44.4672H56.291V25.2883H61.8963Z" fill="#001D00"/>
<path d="M67.1847 21.6614H63.2281V35.3998C63.2281 38.2025 63.5028 40.2907 65.3163 42.269C67.3496 44.4122 70.0423 45.1266 72.2954 45.1266C74.5485 45.1266 77.2413 44.4122 79.2745 42.269C81.088 40.2907 81.3628 38.2025 81.3628 35.3998V21.6614H77.4061V34.9602C77.4061 36.5538 77.4061 38.4223 76.3071 39.8511C75.7026 40.6204 74.4936 41.6096 72.2954 41.6096C70.0973 41.6096 68.8883 40.6204 68.2838 39.8511C67.1847 38.4223 67.1847 36.5538 67.1847 34.9602V21.6614Z" fill="#001D00"/>
<path d="M83.3312 44.4672H87.2879V32.5422C87.2879 30.8936 87.3978 28.2009 88.9365 26.3874C90.0905 25.0136 91.5743 24.6289 92.9481 24.6289C94.7066 24.6289 95.9156 25.2884 96.685 26.2775C97.6192 27.4865 97.7291 29.0802 97.7291 30.454V44.4672H101.686V30.3441C101.686 27.8162 101.521 25.9478 100.367 24.2442C98.993 22.2109 96.5201 21.1119 93.8274 21.1119C90.0356 21.1119 88.0023 23.365 87.2879 24.2992V21.6614H83.3312V44.4672Z" fill="#001D00"/>
<path d="M122.773 24.9037C121.729 23.5298 119.366 21.1119 114.97 21.1119C109.144 21.1119 103.869 25.1784 103.869 33.0368C103.869 41.06 109.199 45.1266 114.97 45.1266C118.981 45.1266 121.454 42.9834 122.773 41.2799V44.4672H126.73V4.40596H122.773V24.9037ZM115.409 24.6289C118.926 24.6289 122.993 27.2117 122.993 33.0918C122.993 37.598 120.245 41.6096 115.409 41.6096C110.683 41.6096 107.935 37.9277 107.935 33.0368C107.935 27.4865 111.507 24.6289 115.409 24.6289Z" fill="#001D00"/>
<path d="M142.467 25.2334C140.653 21.3317 137.411 21.1119 136.202 21.1119C132.355 21.1119 129.552 23.4749 129.552 27.4865C129.552 28.6405 129.717 29.7396 130.597 30.8387C131.641 32.1026 133.399 32.9819 136.147 34.1908C138.29 35.1251 139.829 35.8394 139.829 37.9826C139.829 39.6862 138.675 41.6096 136.092 41.6096C133.234 41.6096 131.915 39.0817 131.476 37.8727L128.069 39.3015C129.992 45.0167 135.103 45.1266 136.037 45.1266C140.433 45.1266 143.895 42.4339 143.895 37.6529C143.895 36.389 143.676 35.18 142.686 33.971C141.807 32.872 140.268 31.8278 136.971 30.454C134.388 29.3549 133.289 28.8603 133.289 27.2117C133.289 25.4532 134.608 24.6289 136.037 24.6289C137.521 24.6289 138.675 25.6181 139.224 26.937L142.467 25.2334Z" fill="#001D00"/>
<path d="M145.3 44.4672H149.257V32.5422C149.257 30.8936 149.367 28.2009 150.905 26.3874C152.059 25.0136 153.543 24.6289 154.917 24.6289C156.675 24.6289 157.884 25.2884 158.654 26.2775C159.588 27.4865 159.698 29.0802 159.698 30.454V44.4672H163.655V30.3441C163.655 27.8162 163.49 25.9478 162.336 24.2442C160.962 22.2109 158.489 21.1119 155.796 21.1119C152.004 21.1119 149.971 23.365 149.257 24.2992V4.40596H145.3V44.4672Z" fill="#001D00"/>
<path d="M177.378 45.1266C184.302 45.1266 189.468 40.0709 189.468 33.1467C189.468 26.2226 184.357 21.1119 177.378 21.1119C170.399 21.1119 165.288 26.2226 165.288 33.1467C165.288 40.0709 170.454 45.1266 177.378 45.1266ZM177.378 24.6289C181.554 24.6289 185.401 27.5414 185.401 33.1467C185.401 38.697 181.5 41.6096 177.378 41.6096C173.311 41.6096 169.355 38.752 169.355 33.1467C169.355 27.5964 173.202 24.6289 177.378 24.6289Z" fill="#001D00"/>
<path d="M195.096 41.2799C196.799 43.478 199.382 45.1266 203.064 45.1266C209.988 45.1266 214 39.4664 214 33.2017C214 27.0469 210.043 21.1119 202.899 21.1119C201.251 21.1119 197.789 21.4965 195.096 24.8487V21.6614H191.139V57.3263H195.096V41.2799ZM202.515 41.6096C197.844 41.6096 194.876 37.8178 194.876 33.1467C194.876 27.6514 198.778 24.6289 202.46 24.6289C206.142 24.6289 209.933 27.5964 209.933 33.2017C209.933 37.7628 207.131 41.6096 202.515 41.6096Z" fill="#001D00"/>
<path d="M3.38411 52.5842C3.2695 52.3626 3.09377 52.1563 2.88747 52.0188C2.63533 51.8507 2.38319 51.7895 2.06992 51.7895C1.24474 51.7895 0.641129 52.3168 0.641129 53.1037C0.641129 53.4858 0.771019 53.7226 0.992597 53.9366C1.22182 54.1581 1.47396 54.2651 1.67261 54.3568L2.13105 54.5707C2.39847 54.693 2.59713 54.7847 2.7423 54.9222C2.92567 55.0903 2.99444 55.289 2.99444 55.5182C2.99444 56.0301 2.66589 56.5267 1.9706 56.5267C1.71081 56.5267 1.45867 56.4656 1.2371 56.244C1.09192 56.0912 0.969675 55.862 0.931472 55.5946L0.381348 55.7474C0.450113 56.053 0.602926 56.4045 0.855066 56.649C1.20653 56.9928 1.62677 57.0616 1.96296 57.0616C2.87983 57.0616 3.57513 56.435 3.57513 55.4952C3.57513 55.1285 3.46816 54.8305 3.20838 54.5707C2.99444 54.3568 2.71938 54.2193 2.42139 54.0894L1.93239 53.8754C1.74138 53.7914 1.55036 53.7073 1.39755 53.5545C1.26002 53.4246 1.20653 53.31 1.20653 53.1114C1.20653 52.6377 1.558 52.3244 2.06228 52.3244C2.35263 52.3244 2.536 52.4237 2.63533 52.5001C2.74994 52.5918 2.86455 52.7446 2.93331 52.8822L3.38411 52.5842Z" fill="#001D00"/>
<path d="M6.84973 56.9699L7.35401 53.4246L9.0655 57.1838L10.7999 53.4246L11.2813 56.9699H11.862L11.0673 51.5833L9.07314 55.8926L7.11715 51.5909L6.26904 56.9699H6.84973Z" fill="#001D00"/>
<path d="M18.2822 56.9699H18.9088L16.6242 51.6291L14.2786 56.9699H14.9051L15.5163 55.5335H17.6863L18.2822 56.9699ZM15.7379 54.9986L16.6089 52.9586L17.4647 54.9986H15.7379Z" fill="#001D00"/>
<path d="M21.4613 51.8736V56.9699H23.4325V56.435H22.0267V51.8736H21.4613Z" fill="#001D00"/>
<path d="M26.0334 51.8736V56.9699H28.0047V56.435H26.5988V51.8736H26.0334Z" fill="#001D00"/>
<path d="M34.2226 51.8736V56.9699H35.4909C35.8424 56.9699 36.3085 56.9546 36.7134 56.6337C36.9885 56.4198 37.233 56.0224 37.233 55.5335C37.233 55.0445 36.9732 54.4256 36.2626 54.2498C36.7134 53.9442 36.7669 53.501 36.7669 53.2489C36.7669 52.63 36.4689 52.3168 36.3085 52.1945C35.9341 51.8965 35.4222 51.8736 35.1395 51.8736H34.2226ZM34.788 52.4084H35.2312C35.3916 52.4084 36.2168 52.4237 36.2168 53.2642C36.2168 54.0512 35.5139 54.1123 35.2159 54.1123H34.788V52.4084ZM34.788 54.6166H35.3687C35.7736 54.6166 36.0411 54.6624 36.2321 54.7694C36.4307 54.8764 36.6676 55.1132 36.6676 55.5182C36.6676 55.8238 36.5301 56.0759 36.3314 56.2211C36.0869 56.4121 35.766 56.435 35.4374 56.435H34.788V54.6166Z" fill="#001D00"/>
<path d="M40.6734 51.8736H40.108V55.1514C40.108 55.5793 40.1538 55.9919 40.4289 56.3739C40.7345 56.7942 41.2693 57.0616 41.9188 57.0616C42.5682 57.0616 43.1031 56.7942 43.4087 56.3739C43.6838 55.9919 43.7296 55.5793 43.7296 55.1514V51.8736H43.1642V54.9986C43.1642 55.4265 43.1642 55.8926 42.7592 56.2364C42.5529 56.4121 42.2015 56.5267 41.9188 56.5267C41.6361 56.5267 41.2846 56.4121 41.0783 56.2364C40.6734 55.8926 40.6734 55.4265 40.6734 54.9986V51.8736Z" fill="#001D00"/>
<path d="M49.6089 52.5842C49.4943 52.3626 49.3186 52.1563 49.1123 52.0188C48.8602 51.8507 48.608 51.7895 48.2948 51.7895C47.4696 51.7895 46.866 52.3168 46.866 53.1037C46.866 53.4858 46.9958 53.7226 47.2174 53.9366C47.4466 54.1581 47.6988 54.2651 47.8974 54.3568L48.3559 54.5707C48.6233 54.693 48.822 54.7847 48.9671 54.9222C49.1505 55.0903 49.2193 55.289 49.2193 55.5182C49.2193 56.0301 48.8907 56.5267 48.1954 56.5267C47.9356 56.5267 47.6835 56.4656 47.4619 56.244C47.3168 56.0912 47.1945 55.862 47.1563 55.5946L46.6062 55.7474C46.6749 56.053 46.8278 56.4045 47.0799 56.649C47.4314 56.9928 47.8516 57.0616 48.1878 57.0616C49.1047 57.0616 49.8 56.435 49.8 55.4952C49.8 55.1285 49.693 54.8305 49.4332 54.5707C49.2193 54.3568 48.9442 54.2193 48.6462 54.0894L48.1572 53.8754C47.9662 53.7914 47.7752 53.7073 47.6224 53.5545C47.4848 53.4246 47.4314 53.31 47.4314 53.1114C47.4314 52.6377 47.7828 52.3244 48.2871 52.3244C48.5775 52.3244 48.7608 52.4237 48.8602 52.5001C48.9748 52.5918 49.0894 52.7446 49.1581 52.8822L49.6089 52.5842Z" fill="#001D00"/>
<path d="M52.6696 51.8736V56.9699H53.235V51.8736H52.6696Z" fill="#001D00"/>
<path d="M56.9491 56.9699V53.035L60.9222 57.1991V51.8736H60.3568V55.8238L56.3837 51.6597V56.9699H56.9491Z" fill="#001D00"/>
<path d="M66.7109 51.8736H64.0673V56.9699H66.7109V56.435H64.6327V54.4561H66.6498V53.9213H64.6327V52.4084H66.7109V51.8736Z" fill="#001D00"/>
<path d="M72.3147 52.5842C72.2001 52.3626 72.0244 52.1563 71.8181 52.0188C71.5659 51.8507 71.3138 51.7895 71.0005 51.7895C70.1753 51.7895 69.5717 52.3168 69.5717 53.1037C69.5717 53.4858 69.7016 53.7226 69.9232 53.9366C70.1524 54.1581 70.4045 54.2651 70.6032 54.3568L71.0616 54.5707C71.3291 54.693 71.5277 54.7847 71.6729 54.9222C71.8563 55.0903 71.925 55.289 71.925 55.5182C71.925 56.0301 71.5965 56.5267 70.9012 56.5267C70.6414 56.5267 70.3893 56.4656 70.1677 56.244C70.0225 56.0912 69.9003 55.862 69.8621 55.5946L69.3119 55.7474C69.3807 56.053 69.5335 56.4045 69.7857 56.649C70.1371 56.9928 70.5574 57.0616 70.8935 57.0616C71.8104 57.0616 72.5057 56.435 72.5057 55.4952C72.5057 55.1285 72.3987 54.8305 72.139 54.5707C71.925 54.3568 71.65 54.2193 71.352 54.0894L70.863 53.8754C70.672 53.7914 70.481 53.7073 70.3281 53.5545C70.1906 53.4246 70.1371 53.31 70.1371 53.1114C70.1371 52.6377 70.4886 52.3244 70.9929 52.3244C71.2832 52.3244 71.4666 52.4237 71.5659 52.5001C71.6805 52.5918 71.7951 52.7446 71.8639 52.8822L72.3147 52.5842Z" fill="#001D00"/>
<path d="M78.1031 52.5842C77.9884 52.3626 77.8127 52.1563 77.6064 52.0188C77.3543 51.8507 77.1021 51.7895 76.7889 51.7895C75.9637 51.7895 75.3601 52.3168 75.3601 53.1037C75.3601 53.4858 75.49 53.7226 75.7115 53.9366C75.9408 54.1581 76.1929 54.2651 76.3916 54.3568L76.85 54.5707C77.1174 54.693 77.3161 54.7847 77.4612 54.9222C77.6446 55.0903 77.7134 55.289 77.7134 55.5182C77.7134 56.0301 77.3848 56.5267 76.6895 56.5267C76.4298 56.5267 76.1776 56.4656 75.956 56.244C75.8109 56.0912 75.6886 55.862 75.6504 55.5946L75.1003 55.7474C75.1691 56.053 75.3219 56.4045 75.574 56.649C75.9255 56.9928 76.3457 57.0616 76.6819 57.0616C77.5988 57.0616 78.2941 56.435 78.2941 55.4952C78.2941 55.1285 78.1871 54.8305 77.9273 54.5707C77.7134 54.3568 77.4383 54.2193 77.1403 54.0894L76.6513 53.8754C76.4603 53.7914 76.2693 53.7073 76.1165 53.5545C75.979 53.4246 75.9255 53.31 75.9255 53.1114C75.9255 52.6377 76.277 52.3244 76.7812 52.3244C77.0716 52.3244 77.255 52.4237 77.3543 52.5001C77.4689 52.5918 77.5835 52.7446 77.6523 52.8822L78.1031 52.5842Z" fill="#001D00"/>
<path d="M84.7808 51.8736V56.9699H86.7521V56.435H85.3462V51.8736H84.7808Z" fill="#001D00"/>
<path d="M91.468 57.0616C92.9426 57.0616 94.1193 55.9384 94.1193 54.4256C94.1193 52.9051 92.935 51.7895 91.468 51.7895C90.001 51.7895 88.8167 52.9051 88.8167 54.4256C88.8167 55.9384 89.9934 57.0616 91.468 57.0616ZM91.468 52.3244C92.6141 52.3244 93.5386 53.2565 93.5386 54.4256C93.5386 55.5946 92.6141 56.5267 91.468 56.5267C90.3219 56.5267 89.3974 55.5946 89.3974 54.4256C89.3974 53.2565 90.3219 52.3244 91.468 52.3244Z" fill="#001D00"/>
<path d="M100.094 56.9699H100.72L98.4355 51.6291L96.0898 56.9699H96.7164L97.3276 55.5335H99.4976L100.094 56.9699ZM97.5492 54.9986L98.4202 52.9586L99.276 54.9986H97.5492Z" fill="#001D00"/>
<path d="M103.838 56.9699V53.035L107.811 57.1991V51.8736H107.246V55.8238L103.273 51.6597V56.9699H103.838Z" fill="#001D00"/>
<path d="M113.684 52.5842C113.569 52.3626 113.394 52.1563 113.187 52.0188C112.935 51.8507 112.683 51.7895 112.37 51.7895C111.544 51.7895 110.941 52.3168 110.941 53.1037C110.941 53.4858 111.071 53.7226 111.292 53.9366C111.522 54.1581 111.774 54.2651 111.972 54.3568L112.431 54.5707C112.698 54.693 112.897 54.7847 113.042 54.9222C113.225 55.0903 113.294 55.289 113.294 55.5182C113.294 56.0301 112.966 56.5267 112.27 56.5267C112.011 56.5267 111.758 56.4656 111.537 56.244C111.392 56.0912 111.269 55.862 111.231 55.5946L110.681 55.7474C110.75 56.053 110.903 56.4045 111.155 56.649C111.506 56.9928 111.927 57.0616 112.263 57.0616C113.18 57.0616 113.875 56.435 113.875 55.4952C113.875 55.1285 113.768 54.8305 113.508 54.5707C113.294 54.3568 113.019 54.2193 112.721 54.0894L112.232 53.8754C112.041 53.7914 111.85 53.7073 111.697 53.5545C111.56 53.4246 111.506 53.31 111.506 53.1114C111.506 52.6377 111.858 52.3244 112.362 52.3244C112.652 52.3244 112.836 52.4237 112.935 52.5001C113.05 52.5918 113.164 52.7446 113.233 52.8822L113.684 52.5842Z" fill="#001D00"/>
<path d="M120.927 51.8736H120.362V56.9699H120.927V54.479H123.54V56.9699H124.105V51.8736H123.54V53.9442H120.927V51.8736Z" fill="#001D00"/>
<path d="M130.662 56.9699H131.288L129.004 51.6291L126.658 56.9699H127.285L127.896 55.5335H130.066L130.662 56.9699ZM128.118 54.9986L128.989 52.9586L129.844 54.9986H128.118Z" fill="#001D00"/>
<path d="M136.569 52.5842C136.454 52.3626 136.278 52.1563 136.072 52.0188C135.82 51.8507 135.568 51.7895 135.255 51.7895C134.429 51.7895 133.826 52.3168 133.826 53.1037C133.826 53.4858 133.956 53.7226 134.177 53.9366C134.406 54.1581 134.659 54.2651 134.857 54.3568L135.316 54.5707C135.583 54.693 135.782 54.7847 135.927 54.9222C136.11 55.0903 136.179 55.289 136.179 55.5182C136.179 56.0301 135.85 56.5267 135.155 56.5267C134.895 56.5267 134.643 56.4656 134.422 56.244C134.276 56.0912 134.154 55.862 134.116 55.5946L133.566 55.7474C133.635 56.053 133.788 56.4045 134.04 56.649C134.391 56.9928 134.811 57.0616 135.148 57.0616C136.064 57.0616 136.76 56.435 136.76 55.4952C136.76 55.1285 136.653 54.8305 136.393 54.5707C136.179 54.3568 135.904 54.2193 135.606 54.0894L135.117 53.8754C134.926 53.7914 134.735 53.7073 134.582 53.5545C134.445 53.4246 134.391 53.31 134.391 53.1114C134.391 52.6377 134.743 52.3244 135.247 52.3244C135.537 52.3244 135.721 52.4237 135.82 52.5001C135.935 52.5918 136.049 52.7446 136.118 52.8822L136.569 52.5842Z" fill="#001D00"/>
<path d="M142.357 52.5842C142.242 52.3626 142.067 52.1563 141.86 52.0188C141.608 51.8507 141.356 51.7895 141.043 51.7895C140.218 51.7895 139.614 52.3168 139.614 53.1037C139.614 53.4858 139.744 53.7226 139.966 53.9366C140.195 54.1581 140.447 54.2651 140.646 54.3568L141.104 54.5707C141.371 54.693 141.57 54.7847 141.715 54.9222C141.899 55.0903 141.967 55.289 141.967 55.5182C141.967 56.0301 141.639 56.5267 140.944 56.5267C140.684 56.5267 140.432 56.4656 140.21 56.244C140.065 56.0912 139.943 55.862 139.904 55.5946L139.354 55.7474C139.423 56.053 139.576 56.4045 139.828 56.649C140.179 56.9928 140.6 57.0616 140.936 57.0616C141.853 57.0616 142.548 56.435 142.548 55.4952C142.548 55.1285 142.441 54.8305 142.181 54.5707C141.967 54.3568 141.692 54.2193 141.394 54.0894L140.905 53.8754C140.714 53.7914 140.523 53.7073 140.37 53.5545C140.233 53.4246 140.179 53.31 140.179 53.1114C140.179 52.6377 140.531 52.3244 141.035 52.3244C141.326 52.3244 141.509 52.4237 141.608 52.5001C141.723 52.5918 141.837 52.7446 141.906 52.8822L142.357 52.5842Z" fill="#001D00"/>
<path d="M145.418 51.8736V56.9699H147.389V56.435H145.983V51.8736H145.418Z" fill="#001D00"/>
<path d="M152.634 51.8736H149.99V56.9699H152.634V56.435H150.555V54.4561H152.572V53.9213H150.555V52.4084H152.634V51.8736Z" fill="#001D00"/>
<path d="M161.449 51.8736H159.127V56.9699H159.692V54.4485H161.388V53.9136H159.692V52.4084H161.449V51.8736Z" fill="#001D00"/>
<path d="M164.273 51.8736V56.9699H164.839V54.7388H164.984L166.535 56.9699H167.223L165.603 54.693C166.375 54.6395 166.886 54.0665 166.886 53.2871C166.886 52.7446 166.627 52.355 166.329 52.1563C165.947 51.8965 165.435 51.8736 165.091 51.8736H164.273ZM164.839 52.4084H165.183C165.427 52.4084 165.687 52.4237 165.916 52.5536C166.237 52.737 166.321 53.0197 166.321 53.3024C166.321 53.8984 165.901 54.2345 165.198 54.2345H164.839V52.4084Z" fill="#001D00"/>
<path d="M172.586 51.8736H169.942V56.9699H172.586V56.435H170.508V54.4561H172.525V53.9213H170.508V52.4084H172.586V51.8736Z" fill="#001D00"/>
<path d="M178.106 51.8736H175.462V56.9699H178.106V56.435H176.027V54.4561H178.045V53.9213H176.027V52.4084H178.106V51.8736Z" fill="#001D00"/>
<path d="M182.652 47.5261V47.0324H180.757V47.5261H181.418V49.9726H181.991V47.5261H182.652Z" fill="#232323"/>
<path d="M182.866 49.9726H183.447L183.747 48.1608L184.519 50.0122H184.677L185.484 48.1608L185.748 49.9726H186.33L185.837 46.9795H185.44L184.607 48.9014L183.809 46.9795H183.412L182.866 49.9726Z" fill="#232323"/>
</svg>
