<svg width="414" height="125" viewBox="0 0 414 125" fill="none" xmlns="http://www.w3.org/2000/svg">
<path d="M410.6 85.8659C410.6 78.1659 408.8 72.2659 405.3 68.1659C401.8 64.0659 396.5 61.9659 389.7 61.9659C382.8 61.9659 377.5 64.1659 373.7 68.3659C370 72.5659 368.1 78.7659 368.1 86.8659C368.1 92.0659 369.1 96.4659 371.2 99.9659C373.2 103.466 376 106.066 379.4 107.766C382.8 109.466 386.6 110.266 390.8 110.266C394.1 110.266 397.1 109.866 399.6 109.166C402.2 108.366 404.6 107.266 406.8 105.666C407.5 105.166 407.8 104.566 407.8 103.866C407.8 103.466 407.7 102.966 407.5 102.466L405.6 98.5659C405.2 97.3659 404.4 97.2659 404 97.2659C403.6 97.2659 403.2 97.4659 402.7 97.7659C399.6 99.8659 396 100.966 392 100.966C387.9 100.966 384.7 99.9659 382.5 97.9659C380.4 96.0659 379.3 93.4659 379.2 90.0659H407.2C408.5 89.8659 410.6 89.3659 410.6 85.8659ZM379.3 81.4659C379.4 78.3659 380.3 75.8659 382 73.9659C383.8 71.9659 386.4 70.9659 389.8 70.9659C393.1 70.9659 395.7 71.9659 397.3 73.8659C398.8 75.6659 399.7 78.2659 399.8 81.4659H379.3ZM343.5 61.8659C336.6 61.8659 331.3 64.0659 327.5 68.2659C323.8 72.4659 321.9 78.6659 321.9 86.7659C321.9 91.9659 322.9 96.3659 325 99.8659C327 103.366 329.8 105.966 333.2 107.666C336.6 109.366 340.4 110.166 344.6 110.166C347.9 110.166 350.9 109.766 353.4 109.066C356 108.266 358.4 107.166 360.6 105.566C361.3 105.066 361.6 104.466 361.6 103.766C361.6 103.366 361.5 102.866 361.3 102.366L359.4 98.4659C359 97.2659 358.2 97.1659 357.8 97.1659C357.4 97.1659 357 97.3659 356.5 97.6659C353.4 99.7659 349.8 100.866 345.8 100.866C341.7 100.866 338.5 99.8659 336.3 97.8659C334.2 95.9659 333.1 93.3659 333 89.9659H361C362.2 89.9659 364.3 89.4659 364.3 85.9659C364.3 78.2659 362.5 72.3659 359 68.2659C355.6 63.9659 350.4 61.8659 343.5 61.8659ZM353.6 81.4659H333C333.1 78.3659 334 75.8659 335.7 73.9659C337.5 71.9659 340.1 70.9659 343.5 70.9659C346.8 70.9659 349.4 71.9659 351 73.8659C352.7 75.7659 353.5 78.2659 353.6 81.4659ZM323.6 66.4659C323.7 65.9659 323.8 65.4659 323.6 65.0659C323.5 64.6659 323.2 64.2659 322.7 63.8659C321 62.5659 315.8 62.3659 314.5 62.3659C313.5 62.3659 309.9 62.4659 302.8 64.5659C302.4 63.9659 301.8 63.5659 301.1 63.5659H295.9C294.8 63.5659 294 63.8659 293.6 64.4659C293.2 64.9659 293.1 65.7659 293.1 66.8659V104.766C293.1 106.066 293.4 107.066 294 107.766L294.1 107.866C294.7 108.566 295.7 108.866 296.9 108.866H301C302.3 108.866 303.3 108.466 303.9 107.766C304.5 107.066 304.7 106.066 304.7 104.766V73.7659C305.7 73.2659 310.6 72.2659 313.5 72.2659C313.9 72.2659 314.3 72.2659 314.7 72.3659C316 72.4659 317.1 72.7659 318.1 73.2659L318.9 73.4659H319.1C319.6 73.4659 320.4 73.2659 320.7 72.0659L323.6 66.4659ZM287.9 64.3659C287.4 63.6659 286.5 63.3659 285.2 63.3659H277.2V51.7659C277.2 50.5659 277 49.5659 276.4 48.9659C275.8 48.2659 275 47.8659 273.8 47.8659H268.9C267.7 47.8659 266.8 48.2659 266.3 48.9659C265.8 49.6659 265.5 50.5659 265.5 51.7659V93.2659C265.5 106.766 273.9 109.666 278.2 110.166C279.6 110.366 280.8 109.266 280.8 107.866V101.666C280.8 100.766 280.3 100.066 279.6 99.6659C279.2 99.4659 278.7 99.0659 278.3 98.5659C277.5 97.5659 277.2 95.5659 277.2 92.9659V73.5659H285.2C286.5 73.5659 287.4 73.2659 287.9 72.6659C288.4 72.0659 288.6 71.1659 288.6 69.7659V67.2659C288.6 65.9659 288.4 64.9659 287.9 64.3659ZM251.4 63.6659C248.1 62.5659 244.6 61.9659 241.1 61.9659C233.5 61.9659 227.6 64.1659 223.6 68.3659C219.6 72.6659 217.5 78.7659 217.5 86.6659C217.5 93.5659 219.2 99.0659 222.6 102.966C226 106.866 230.8 108.866 236.9 108.866C239.8 108.866 242.3 108.366 244.3 107.466C245.7 106.866 247.1 105.966 248.2 104.766C248 108.066 247.3 110.566 246 111.966C244.5 113.766 242.2 114.566 238.9 114.566C235.8 114.566 232.8 114.066 230.3 113.166C229.3 112.766 228.2 113.566 228.2 114.566L228 121.266C228 121.966 228.5 122.666 229.2 122.866C231.3 123.366 235.7 124.366 239.8 124.366C246.6 124.366 251.7 122.166 255 117.766C258.2 113.466 259.8 107.366 259.8 99.8659V67.4659C259.9 67.4659 254.7 64.7659 251.4 63.6659ZM248.4 73.4659V89.2659C248.4 92.1659 247.6 94.5659 245.9 96.1659C244.2 97.7659 242 98.6659 239.3 98.6659C235.9 98.6659 233.3 97.6659 231.6 95.6659C229.9 93.5659 229 90.3659 229 86.0659C229 76.6659 232.8 72.1659 240.6 72.1659C242.2 72.1659 243.8 72.2659 245.2 72.5659C246.5 72.6659 247.5 73.0659 248.4 73.4659ZM198.1 61.9659C192.5 61.9659 189.7 62.6659 185.5 63.7659C184.8 63.9659 184.1 64.1659 183.4 64.2659C183.1 63.6659 182.4 63.2659 181.7 63.2659H176.5C175.4 63.2659 174.6 63.5659 174.2 64.1659C173.8 64.6659 173.7 65.4659 173.7 66.5659V104.766C173.7 106.066 174 107.066 174.6 107.766C175.2 108.466 176.2 108.866 177.5 108.866H181.6C182.9 108.866 183.9 108.466 184.5 107.766C185.1 107.066 185.3 106.066 185.3 104.766V73.5659C186.4 73.0659 192 72.0659 194.9 72.0659C197.3 72.0659 199 72.5659 200 73.6659C201 74.7659 201.5 76.7659 201.5 79.4659V104.866C201.5 106.166 201.8 107.166 202.4 107.866C203 108.566 204 108.966 205.3 108.966H209.5C210.8 108.966 211.8 108.566 212.4 107.866C213 107.166 213.2 106.166 213.2 104.866V78.7659C213.2 73.2659 211.8 69.0659 209.1 66.2659C206.2 63.3659 202.6 61.9659 198.1 61.9659ZM164.1 63.3659H160C158.7 63.3659 157.7 63.7659 157.1 64.4659C156.5 65.1659 156.2 66.1659 156.2 67.5659V104.866C156.2 106.166 156.5 107.166 157.1 107.866C157.7 108.566 158.7 108.966 160 108.966H164.1C165.4 108.966 166.4 108.566 167 107.866C167.6 107.166 167.8 106.166 167.8 104.866V67.5659C167.8 66.1659 167.5 65.1659 166.9 64.4659C166.4 63.7659 165.4 63.3659 164.1 63.3659ZM149.5 44.2659C146.1 45.7659 139 51.6659 139 53.0659V65.0659C136.4 62.9659 132.6 61.8659 127.9 61.8659C123.9 61.8659 120.3 62.8659 117.4 64.9659C114.4 66.9659 112.1 69.8659 110.6 73.4659C109 77.0659 108.3 81.2659 108.3 85.9659C108.3 102.066 116.1 110.166 131.4 110.166C135.1 110.166 138.7 109.566 142.1 108.466C145.5 107.266 150.7 104.666 150.7 104.666V45.2659C150.7 44.9659 150.6 44.7659 150.5 44.5659C150.1 44.3659 149.8 44.0659 149.5 44.2659ZM139.1 80.1659V98.4659C137.2 99.6659 134.7 100.266 131.6 100.266C127.6 100.266 124.6 99.1659 122.7 97.0659C120.8 94.8659 119.8 91.2659 119.8 86.2659C119.8 81.7659 120.7 78.1659 122.5 75.6659C124.2 73.2659 126.9 71.9659 130.4 71.9659C133 71.9659 135.2 72.6659 136.8 74.0659C138.3 75.3659 139.1 77.4659 139.1 80.1659ZM88.9 61.9659C83.3 61.9659 80.5 62.6659 76.3 63.7659L76 63.8659C75.4 64.0659 74.8 64.1659 74.1 64.3659C73.9 63.9659 73.4 63.3659 72.4 63.3659H67.2C66.1 63.3659 65.3 63.6659 64.9 64.2659C64.5 64.7659 64.4 65.5659 64.4 66.6659V104.866C64.4 106.166 64.7 107.166 65.3 107.866C65.9 108.566 66.9 108.966 68.2 108.966H72.3C73.6 108.966 74.6 108.566 75.2 107.866C75.8 107.166 76 106.166 76 104.866V73.5659C77.1 73.0659 82.7 72.0659 85.6 72.0659C88 72.0659 89.7 72.5659 90.7 73.6659C91.7 74.7659 92.2 76.6659 92.2 79.4659V104.866C92.2 106.166 92.5 107.166 93.1 107.866C93.7 108.566 94.7 108.966 96 108.966H100.2C101.5 108.966 102.5 108.566 103.1 107.866C103.7 107.166 103.9 106.166 103.9 104.866V78.7659C103.9 73.2659 102.5 69.0659 99.8 66.2659C97 63.3659 93.3 61.9659 88.9 61.9659ZM39 61.8659C32.1 61.8659 26.8 64.0659 23 68.2659C19.3 72.4659 17.4 78.6659 17.4 86.7659C17.4 91.9659 18.4 96.3659 20.5 99.8659C22.5 103.366 25.3 105.966 28.7 107.666C32.1 109.366 35.8999 110.166 40.0999 110.166C43.3999 110.166 46.4 109.766 48.9 109.066C51.5 108.266 53.8999 107.166 56.0999 105.566C56.7999 105.066 57.0999 104.466 57.0999 103.766C57.0999 103.366 56.9999 102.866 56.7999 102.366L54.9 98.4659C54.5 97.2659 53.6999 97.1659 53.2999 97.1659C52.8999 97.1659 52.5 97.3659 52 97.6659C48.9 99.7659 45.2999 100.866 41.2999 100.866C37.1999 100.866 33.9999 99.8659 31.7999 97.8659C29.6999 95.9659 28.6 93.3659 28.5 89.9659H56.5C57.7 89.9659 59.7999 89.4659 59.7999 85.9659C59.7999 78.2659 58 72.3659 54.5 68.2659C51.1 63.9659 45.8 61.8659 39 61.8659ZM49.0999 81.4659H28.5C28.6 78.3659 29.5 75.8659 31.2 73.9659C33 71.9659 35.6 70.9659 39 70.9659C42.3 70.9659 44.9 71.9659 46.5 73.8659C48.1 75.7659 48.9999 78.2659 49.0999 81.4659ZM13 98.5659C12.2 97.5659 11.9 95.5659 11.9 92.9659V49.3659C11.9 48.1659 11.7 47.1659 11.1 46.5659C10.5 45.8659 9.69995 45.4659 8.49995 45.4659H3.59995C2.39995 45.4659 1.49995 45.8659 0.999951 46.5659C0.499951 47.2659 0.199951 48.1659 0.199951 49.3659V93.2659C0.199951 106.766 8.59995 109.666 12.9 110.166C14.3 110.366 15.5 109.266 15.5 107.866V101.666C15.5 100.766 15 100.066 14.3 99.6659C13.9 99.4659 13.5 99.1659 13 98.5659Z" fill="black"/>
<path d="M213.6 0.599976C210.6 1.09998 191 3.19998 176.5 6.79998C155.9 11.9 156.3 29.1 156.3 35.9V58.9C156.3 59.2 156.6 59.3 156.7 59C171 40 185.8 27.6 185.8 27.6C185.8 27.6 185.9 27.5 185.7 27.6C184.4 27.9 177 30.3 168 35.2V32.3C167.9 20.6 174.8 17.4 183 15.1C189.7 13.2 202.2 12.2 202.2 12.2C202.2 12.2 201.2 19.5 199.9 34.4C198.9 45.3 191 47.7 179.8 47.7H173.5C168.5 54.9 167.8 59.2 167.8 59.2H180.1C203.5 59.2 208.7 48.9 209.8 33.7C211.2 14.3 213.2 3.09998 213.7 0.999976C213.9 0.799976 213.8 0.599976 213.6 0.599976Z" fill="url(#paint0_linear_17_37)"/>
<path d="M228.78 26.1V40H226.5V26.1H228.78ZM237.333 28.8C238.2 28.8 238.973 28.98 239.653 29.34C240.347 29.7 240.887 30.2333 241.273 30.94C241.66 31.6467 241.853 32.5 241.853 33.5V40H239.593V33.84C239.593 32.8533 239.347 32.1 238.853 31.58C238.36 31.0467 237.687 30.78 236.833 30.78C235.98 30.78 235.3 31.0467 234.793 31.58C234.3 32.1 234.053 32.8533 234.053 33.84V40H231.773V28.98H234.053V30.24C234.427 29.7867 234.9 29.4333 235.473 29.18C236.06 28.9267 236.68 28.8 237.333 28.8ZM259.677 30.24C259.677 30.9467 259.51 31.6133 259.177 32.24C258.844 32.8667 258.31 33.38 257.577 33.78C256.844 34.1667 255.904 34.36 254.757 34.36H252.237V40H249.957V26.1H254.757C255.824 26.1 256.724 26.2867 257.457 26.66C258.204 27.02 258.757 27.5133 259.117 28.14C259.49 28.7667 259.677 29.4667 259.677 30.24ZM254.757 32.5C255.624 32.5 256.27 32.3067 256.697 31.92C257.124 31.52 257.337 30.96 257.337 30.24C257.337 28.72 256.477 27.96 254.757 27.96H252.237V32.5H254.757ZM261.092 34.44C261.092 33.3333 261.318 32.3533 261.772 31.5C262.238 30.6467 262.865 29.9867 263.652 29.52C264.452 29.04 265.332 28.8 266.292 28.8C267.158 28.8 267.912 28.9733 268.552 29.32C269.205 29.6533 269.725 30.0733 270.112 30.58V28.98H272.412V40H270.112V38.36C269.725 38.88 269.198 39.3133 268.532 39.66C267.865 40.0067 267.105 40.18 266.252 40.18C265.305 40.18 264.438 39.94 263.652 39.46C262.865 38.9667 262.238 38.2867 261.772 37.42C261.318 36.54 261.092 35.5467 261.092 34.44ZM270.112 34.48C270.112 33.72 269.952 33.06 269.632 32.5C269.325 31.94 268.918 31.5133 268.412 31.22C267.905 30.9267 267.358 30.78 266.772 30.78C266.185 30.78 265.638 30.9267 265.132 31.22C264.625 31.5 264.212 31.92 263.892 32.48C263.585 33.0267 263.432 33.68 263.432 34.44C263.432 35.2 263.585 35.8667 263.892 36.44C264.212 37.0133 264.625 37.4533 265.132 37.76C265.652 38.0533 266.198 38.2 266.772 38.2C267.358 38.2 267.905 38.0533 268.412 37.76C268.918 37.4667 269.325 37.04 269.632 36.48C269.952 35.9067 270.112 35.24 270.112 34.48ZM277.686 30.58C278.02 30.02 278.46 29.5867 279.006 29.28C279.566 28.96 280.226 28.8 280.986 28.8V31.16H280.406C279.513 31.16 278.833 31.3867 278.366 31.84C277.913 32.2933 277.686 33.08 277.686 34.2V40H275.406V28.98H277.686V30.58ZM285.742 30.84V36.94C285.742 37.3533 285.835 37.6533 286.022 37.84C286.222 38.0133 286.555 38.1 287.022 38.1H288.422V40H286.622C285.595 40 284.809 39.76 284.262 39.28C283.715 38.8 283.442 38.02 283.442 36.94V30.84H282.142V28.98H283.442V26.24H285.742V28.98H288.422V30.84H285.742ZM296.083 28.8C296.95 28.8 297.723 28.98 298.403 29.34C299.097 29.7 299.637 30.2333 300.023 30.94C300.41 31.6467 300.603 32.5 300.603 33.5V40H298.343V33.84C298.343 32.8533 298.097 32.1 297.603 31.58C297.11 31.0467 296.437 30.78 295.583 30.78C294.73 30.78 294.05 31.0467 293.543 31.58C293.05 32.1 292.803 32.8533 292.803 33.84V40H290.523V28.98H292.803V30.24C293.177 29.7867 293.65 29.4333 294.223 29.18C294.81 28.9267 295.43 28.8 296.083 28.8ZM313.612 34.22C313.612 34.6333 313.585 35.0067 313.532 35.34H305.112C305.178 36.22 305.505 36.9267 306.092 37.46C306.678 37.9933 307.398 38.26 308.252 38.26C309.478 38.26 310.345 37.7467 310.852 36.72H313.312C312.978 37.7333 312.372 38.5667 311.492 39.22C310.625 39.86 309.545 40.18 308.252 40.18C307.198 40.18 306.252 39.9467 305.412 39.48C304.585 39 303.932 38.3333 303.452 37.48C302.985 36.6133 302.752 35.6133 302.752 34.48C302.752 33.3467 302.978 32.3533 303.432 31.5C303.898 30.6333 304.545 29.9667 305.372 29.5C306.212 29.0333 307.172 28.8 308.252 28.8C309.292 28.8 310.218 29.0267 311.032 29.48C311.845 29.9333 312.478 30.5733 312.932 31.4C313.385 32.2133 313.612 33.1533 313.612 34.22ZM311.232 33.5C311.218 32.66 310.918 31.9867 310.332 31.48C309.745 30.9733 309.018 30.72 308.152 30.72C307.365 30.72 306.692 30.9733 306.132 31.48C305.572 31.9733 305.238 32.6467 305.132 33.5H311.232ZM318.135 30.58C318.469 30.02 318.909 29.5867 319.455 29.28C320.015 28.96 320.675 28.8 321.435 28.8V31.16H320.855C319.962 31.16 319.282 31.3867 318.815 31.84C318.362 32.2933 318.135 33.08 318.135 34.2V40H315.855V28.98H318.135V30.58ZM327.531 40.18C326.665 40.18 325.885 40.0267 325.191 39.72C324.511 39.4 323.971 38.9733 323.571 38.44C323.171 37.8933 322.958 37.2867 322.931 36.62H325.291C325.331 37.0867 325.551 37.48 325.951 37.8C326.365 38.1067 326.878 38.26 327.491 38.26C328.131 38.26 328.625 38.14 328.971 37.9C329.331 37.6467 329.511 37.3267 329.511 36.94C329.511 36.5267 329.311 36.22 328.911 36.02C328.525 35.82 327.905 35.6 327.051 35.36C326.225 35.1333 325.551 34.9133 325.031 34.7C324.511 34.4867 324.058 34.16 323.671 33.72C323.298 33.28 323.111 32.7 323.111 31.98C323.111 31.3933 323.285 30.86 323.631 30.38C323.978 29.8867 324.471 29.5 325.111 29.22C325.765 28.94 326.511 28.8 327.351 28.8C328.605 28.8 329.611 29.12 330.371 29.76C331.145 30.3867 331.558 31.2467 331.611 32.34H329.331C329.291 31.8467 329.091 31.4533 328.731 31.16C328.371 30.8667 327.885 30.72 327.271 30.72C326.671 30.72 326.211 30.8333 325.891 31.06C325.571 31.2867 325.411 31.5867 325.411 31.96C325.411 32.2533 325.518 32.5 325.731 32.7C325.945 32.9 326.205 33.06 326.511 33.18C326.818 33.2867 327.271 33.4267 327.871 33.6C328.671 33.8133 329.325 34.0333 329.831 34.26C330.351 34.4733 330.798 34.7933 331.171 35.22C331.545 35.6467 331.738 36.2133 331.751 36.92C331.751 37.5467 331.578 38.1067 331.231 38.6C330.885 39.0933 330.391 39.48 329.751 39.76C329.125 40.04 328.385 40.18 327.531 40.18ZM339.915 28.8C340.755 28.8 341.502 28.98 342.155 29.34C342.822 29.7 343.342 30.2333 343.715 30.94C344.102 31.6467 344.295 32.5 344.295 33.5V40H342.035V33.84C342.035 32.8533 341.788 32.1 341.295 31.58C340.802 31.0467 340.128 30.78 339.275 30.78C338.422 30.78 337.742 31.0467 337.235 31.58C336.742 32.1 336.495 32.8533 336.495 33.84V40H334.215V25.2H336.495V30.26C336.882 29.7933 337.368 29.4333 337.955 29.18C338.555 28.9267 339.208 28.8 339.915 28.8ZM348.363 27.52C347.95 27.52 347.603 27.38 347.323 27.1C347.043 26.82 346.903 26.4733 346.903 26.06C346.903 25.6467 347.043 25.3 347.323 25.02C347.603 24.74 347.95 24.6 348.363 24.6C348.763 24.6 349.103 24.74 349.383 25.02C349.663 25.3 349.803 25.6467 349.803 26.06C349.803 26.4733 349.663 26.82 349.383 27.1C349.103 27.38 348.763 27.52 348.363 27.52ZM349.483 28.98V40H347.203V28.98H349.483ZM354.757 30.6C355.143 30.0933 355.67 29.6667 356.337 29.32C357.003 28.9733 357.757 28.8 358.597 28.8C359.557 28.8 360.43 29.04 361.217 29.52C362.017 29.9867 362.643 30.6467 363.097 31.5C363.55 32.3533 363.777 33.3333 363.777 34.44C363.777 35.5467 363.55 36.54 363.097 37.42C362.643 38.2867 362.017 38.9667 361.217 39.46C360.43 39.94 359.557 40.18 358.597 40.18C357.757 40.18 357.01 40.0133 356.357 39.68C355.703 39.3333 355.17 38.9067 354.757 38.4V45.24H352.477V28.98H354.757V30.6ZM361.457 34.44C361.457 33.68 361.297 33.0267 360.977 32.48C360.67 31.92 360.257 31.5 359.737 31.22C359.23 30.9267 358.683 30.78 358.097 30.78C357.523 30.78 356.977 30.9267 356.457 31.22C355.95 31.5133 355.537 31.94 355.217 32.5C354.91 33.06 354.757 33.72 354.757 34.48C354.757 35.24 354.91 35.9067 355.217 36.48C355.537 37.04 355.95 37.4667 356.457 37.76C356.977 38.0533 357.523 38.2 358.097 38.2C358.683 38.2 359.23 38.0533 359.737 37.76C360.257 37.4533 360.67 37.0133 360.977 36.44C361.297 35.8667 361.457 35.2 361.457 34.44ZM386.027 28.98L382.607 40H380.207L377.987 31.86L375.767 40H373.367L369.927 28.98H372.247L374.547 37.84L376.887 28.98H379.267L381.507 37.8L383.787 28.98H386.027ZM388.89 27.52C388.477 27.52 388.13 27.38 387.85 27.1C387.57 26.82 387.43 26.4733 387.43 26.06C387.43 25.6467 387.57 25.3 387.85 25.02C388.13 24.74 388.477 24.6 388.89 24.6C389.29 24.6 389.63 24.74 389.91 25.02C390.19 25.3 390.33 25.6467 390.33 26.06C390.33 26.4733 390.19 26.82 389.91 27.1C389.63 27.38 389.29 27.52 388.89 27.52ZM390.01 28.98V40H387.73V28.98H390.01ZM395.664 30.84V36.94C395.664 37.3533 395.757 37.6533 395.944 37.84C396.144 38.0133 396.477 38.1 396.944 38.1H398.344V40H396.544C395.517 40 394.731 39.76 394.184 39.28C393.637 38.8 393.364 38.02 393.364 36.94V30.84H392.064V28.98H393.364V26.24H395.664V28.98H398.344V30.84H395.664ZM406.145 28.8C406.985 28.8 407.732 28.98 408.385 29.34C409.052 29.7 409.572 30.2333 409.945 30.94C410.332 31.6467 410.525 32.5 410.525 33.5V40H408.265V33.84C408.265 32.8533 408.019 32.1 407.525 31.58C407.032 31.0467 406.359 30.78 405.505 30.78C404.652 30.78 403.972 31.0467 403.465 31.58C402.972 32.1 402.725 32.8533 402.725 33.84V40H400.445V25.2H402.725V30.26C403.112 29.7933 403.599 29.4333 404.185 29.18C404.785 28.9267 405.439 28.8 406.145 28.8Z" fill="#08C177"/>
<defs>
<linearGradient id="paint0_linear_17_37" x1="156.816" y1="59.5544" x2="214.738" y2="1.63218" gradientUnits="userSpaceOnUse">
<stop offset="0.05" stop-color="#078181"/>
<stop offset="0.213" stop-color="#07997D"/>
<stop offset="0.41" stop-color="#08AF7A"/>
<stop offset="0.599" stop-color="#08BC78"/>
<stop offset="0.77" stop-color="#08C177"/>
</linearGradient>
</defs>
</svg>
