<svg width="136" height="130" viewBox="0 0 136 130" fill="none" xmlns="http://www.w3.org/2000/svg">
<rect x="28.6492" width="15.82" height="46.6946" fill="#159C2A"/>
<rect x="28.6492" width="49.2179" height="15.5649" fill="#159C2A"/>
<rect x="81.3821" width="21.0934" height="76.0949" fill="#159C2A"/>
<rect x="28.6489" y="50.1536" width="49.2179" height="25.9414" fill="#05280B"/>
<path d="M16.3031 99.3576V96.7085H12.209V89.8447C12.209 88.9617 12.209 88.0385 12.5702 87.4364C13.0118 86.7139 13.7744 86.5534 14.4166 86.5534C15.0187 86.5534 15.701 86.6738 16.3031 86.9146V84.1049C15.982 83.9845 15.2997 83.7437 14.2561 83.7437C12.9315 83.7437 11.7273 84.145 10.9245 84.8274C9.4394 86.0717 9.31898 87.9984 9.31898 89.5236V96.7085H7.71343V99.3576H9.31898V113.366H12.209V99.3576H16.3031Z" fill="#05280B"/>
<path d="M20.1659 96.7085H17.2759V106.743C17.2759 108.79 17.4766 110.316 18.8011 111.761C20.2863 113.326 22.2531 113.848 23.8988 113.848C25.5445 113.848 27.5113 113.326 28.9964 111.761C30.321 110.316 30.5217 108.79 30.5217 106.743V96.7085H27.6317V106.422C27.6317 107.586 27.6317 108.951 26.8289 109.994C26.3874 110.556 25.5043 111.279 23.8988 111.279C22.2932 111.279 21.4102 110.556 20.9686 109.994C20.1659 108.951 20.1659 107.586 20.1659 106.422V96.7085Z" fill="#05280B"/>
<path d="M31.9594 113.366H34.8494V104.656C34.8494 103.452 34.9297 101.485 36.0536 100.16C36.8965 99.1569 37.9803 98.876 38.9837 98.876C40.2682 98.876 41.1512 99.3576 41.7132 100.08C42.3955 100.963 42.4758 102.127 42.4758 103.131V113.366H45.3658V103.05C45.3658 101.204 45.2454 99.8393 44.4025 98.595C43.399 97.1099 41.5928 96.3071 39.626 96.3071C36.8564 96.3071 35.3712 97.9528 34.8494 98.6351V96.7085H31.9594V113.366Z" fill="#05280B"/>
<path d="M60.7681 99.0767C60.0055 98.0732 58.2795 96.3071 55.0684 96.3071C50.8137 96.3071 46.9604 99.2774 46.9604 105.017C46.9604 110.877 50.8538 113.848 55.0684 113.848C57.9985 113.848 59.8048 112.282 60.7681 111.038V113.366H63.6581V84.1049H60.7681V99.0767ZM55.3895 98.876C57.9584 98.876 60.9287 100.762 60.9287 105.057C60.9287 108.349 58.9217 111.279 55.3895 111.279C51.9376 111.279 49.9306 108.59 49.9306 105.017C49.9306 100.963 52.5397 98.876 55.3895 98.876Z" fill="#05280B"/>
<path d="M75.1525 99.3175C73.8279 96.4676 71.4598 96.3071 70.5767 96.3071C67.767 96.3071 65.7199 98.0331 65.7199 100.963C65.7199 101.806 65.8403 102.609 66.4826 103.412C67.2452 104.335 68.5296 104.977 70.5366 105.86C72.102 106.542 73.2259 107.064 73.2259 108.63C73.2259 109.874 72.383 111.279 70.4964 111.279C68.4092 111.279 67.4459 109.432 67.1248 108.549L64.6362 109.593C66.041 113.767 69.7739 113.848 70.4563 113.848C73.6674 113.848 76.1961 111.881 76.1961 108.389C76.1961 107.466 76.0356 106.583 75.3131 105.7C74.6709 104.897 73.547 104.134 71.1387 103.131C69.2521 102.328 68.4494 101.967 68.4494 100.762C68.4494 99.4781 69.4127 98.876 70.4563 98.876C71.54 98.876 72.383 99.5985 72.7843 100.562L75.1525 99.3175Z" fill="#05280B"/>
<path d="M77.2222 113.366H80.1122V104.656C80.1122 103.452 80.1925 101.485 81.3163 100.16C82.1593 99.1569 83.243 98.876 84.2465 98.876C85.5309 98.876 86.414 99.3576 86.9759 100.08C87.6583 100.963 87.7385 102.127 87.7385 103.131V113.366H90.6285V103.05C90.6285 101.204 90.5081 99.8393 89.6652 98.595C88.6617 97.1099 86.8555 96.3071 84.8887 96.3071C82.1191 96.3071 80.634 97.9528 80.1122 98.6351V84.1049H77.2222V113.366Z" fill="#05280B"/>
<path d="M100.652 113.848C105.71 113.848 109.483 110.155 109.483 105.097C109.483 100.04 105.75 96.3071 100.652 96.3071C95.5546 96.3071 91.8217 100.04 91.8217 105.097C91.8217 110.155 95.5948 113.848 100.652 113.848ZM100.652 98.876C103.703 98.876 106.513 101.003 106.513 105.097C106.513 109.151 103.663 111.279 100.652 111.279C97.682 111.279 94.792 109.192 94.792 105.097C94.792 101.043 97.6017 98.876 100.652 98.876Z" fill="#05280B"/>
<path d="M113.594 111.038C114.838 112.644 116.724 113.848 119.414 113.848C124.471 113.848 127.401 109.713 127.401 105.138C127.401 100.642 124.511 96.3071 119.293 96.3071C118.089 96.3071 115.56 96.5881 113.594 99.0365V96.7085H110.704V122.759H113.594V111.038ZM119.012 111.279C115.601 111.279 113.433 108.509 113.433 105.097C113.433 101.084 116.283 98.876 118.972 98.876C121.661 98.876 124.431 101.043 124.431 105.138C124.431 108.469 122.384 111.279 119.012 111.279Z" fill="#05280B"/>
<path d="M2.19325 126.403C2.10954 126.241 1.98118 126.091 1.8305 125.99C1.64633 125.868 1.46217 125.823 1.23336 125.823C0.63063 125.823 0.189747 126.208 0.189747 126.783C0.189747 127.062 0.28462 127.235 0.446463 127.391C0.613887 127.553 0.798053 127.631 0.943154 127.698L1.278 127.854C1.47333 127.944 1.61843 128.011 1.72446 128.111C1.8584 128.234 1.90863 128.379 1.90863 128.546C1.90863 128.92 1.66866 129.283 1.1608 129.283C0.971058 129.283 0.786892 129.238 0.625049 129.077C0.519014 128.965 0.429721 128.797 0.401817 128.602L0 128.714C0.0502272 128.937 0.161843 129.194 0.346009 129.372C0.602726 129.623 0.909669 129.674 1.15522 129.674C1.82492 129.674 2.33277 129.216 2.33277 128.53C2.33277 128.262 2.25464 128.044 2.06489 127.854C1.90863 127.698 1.70772 127.598 1.49007 127.503L1.1329 127.346C0.993381 127.285 0.853861 127.224 0.742245 127.112C0.641791 127.017 0.602726 126.933 0.602726 126.788C0.602726 126.442 0.859442 126.214 1.22777 126.214C1.43984 126.214 1.57378 126.286 1.64633 126.342C1.73005 126.409 1.81376 126.521 1.86398 126.621L2.19325 126.403Z" fill="#05280B"/>
<path d="M4.72458 129.607L5.09291 127.017L6.34301 129.763L7.60985 127.017L7.96144 129.607H8.38558L7.80517 125.672L6.34859 128.82L4.9199 125.678L4.30044 129.607H4.72458Z" fill="#05280B"/>
<path d="M13.075 129.607H13.5326L11.864 125.706L10.1507 129.607H10.6083L11.0548 128.557H12.6397L13.075 129.607ZM11.2166 128.167L11.8528 126.677L12.4779 128.167H11.2166Z" fill="#05280B"/>
<path d="M15.397 125.884V129.607H16.8369V129.216H15.81V125.884H15.397Z" fill="#05280B"/>
<path d="M18.7365 125.884V129.607H20.1764V129.216H19.1495V125.884H18.7365Z" fill="#05280B"/>
<path d="M24.718 125.884V129.607H25.6444C25.9012 129.607 26.2416 129.596 26.5374 129.361C26.7383 129.205 26.9169 128.915 26.9169 128.557C26.9169 128.2 26.7271 127.748 26.2081 127.62C26.5374 127.397 26.5764 127.073 26.5764 126.889C26.5764 126.437 26.3588 126.208 26.2416 126.119C25.9681 125.901 25.5942 125.884 25.3877 125.884H24.718ZM25.131 126.275H25.4547C25.5719 126.275 26.1746 126.286 26.1746 126.9C26.1746 127.475 25.6612 127.519 25.4435 127.519H25.131V126.275ZM25.131 127.888H25.5551C25.8509 127.888 26.0463 127.921 26.1858 127.999C26.3309 128.078 26.5039 128.251 26.5039 128.546C26.5039 128.77 26.4034 128.954 26.2583 129.06C26.0797 129.199 25.8453 129.216 25.6054 129.216H25.131V127.888Z" fill="#05280B"/>
<path d="M29.4297 125.884H29.0168V128.278C29.0168 128.591 29.0502 128.892 29.2512 129.171C29.4744 129.478 29.865 129.674 30.3394 129.674C30.8138 129.674 31.2044 129.478 31.4277 129.171C31.6286 128.892 31.6621 128.591 31.6621 128.278V125.884H31.2491V128.167C31.2491 128.479 31.2491 128.82 30.9533 129.071C30.8026 129.199 30.5459 129.283 30.3394 129.283C30.1329 129.283 29.8762 129.199 29.7255 129.071C29.4297 128.82 29.4297 128.479 29.4297 128.167V125.884Z" fill="#05280B"/>
<path d="M35.9564 126.403C35.8727 126.241 35.7443 126.091 35.5936 125.99C35.4095 125.868 35.2253 125.823 34.9965 125.823C34.3938 125.823 33.9529 126.208 33.9529 126.783C33.9529 127.062 34.0478 127.235 34.2096 127.391C34.377 127.553 34.5612 127.631 34.7063 127.698L35.0411 127.854C35.2365 127.944 35.3816 128.011 35.4876 128.111C35.6215 128.234 35.6718 128.379 35.6718 128.546C35.6718 128.92 35.4318 129.283 34.9239 129.283C34.7342 129.283 34.55 129.238 34.3882 129.077C34.2822 128.965 34.1929 128.797 34.165 128.602L33.7631 128.714C33.8134 128.937 33.925 129.194 34.1091 129.372C34.3659 129.623 34.6728 129.674 34.9184 129.674C35.5881 129.674 36.0959 129.216 36.0959 128.53C36.0959 128.262 36.0178 128.044 35.828 127.854C35.6718 127.698 35.4709 127.598 35.2532 127.503L34.896 127.346C34.7565 127.285 34.617 127.224 34.5054 127.112C34.4049 127.017 34.3659 126.933 34.3659 126.788C34.3659 126.442 34.6226 126.214 34.9909 126.214C35.203 126.214 35.3369 126.286 35.4095 126.342C35.4932 126.409 35.5769 126.521 35.6271 126.621L35.9564 126.403Z" fill="#05280B"/>
<path d="M38.1919 125.884V129.607H38.6049V125.884H38.1919Z" fill="#05280B"/>
<path d="M41.3177 129.607V126.733L44.2197 129.774V125.884H43.8067V128.77L40.9047 125.728V129.607H41.3177Z" fill="#05280B"/>
<path d="M48.4479 125.884H46.5169V129.607H48.4479V129.216H46.9299V127.771H48.4032V127.38H46.9299V126.275H48.4479V125.884Z" fill="#05280B"/>
<path d="M52.5409 126.403C52.4572 126.241 52.3289 126.091 52.1782 125.99C51.994 125.868 51.8099 125.823 51.581 125.823C50.9783 125.823 50.5374 126.208 50.5374 126.783C50.5374 127.062 50.6323 127.235 50.7942 127.391C50.9616 127.553 51.1457 127.631 51.2908 127.698L51.6257 127.854C51.821 127.944 51.9661 128.011 52.0721 128.111C52.2061 128.234 52.2563 128.379 52.2563 128.546C52.2563 128.92 52.0163 129.283 51.5085 129.283C51.3187 129.283 51.1346 129.238 50.9727 129.077C50.8667 128.965 50.7774 128.797 50.7495 128.602L50.3477 128.714C50.3979 128.937 50.5095 129.194 50.6937 129.372C50.9504 129.623 51.2574 129.674 51.5029 129.674C52.1726 129.674 52.6805 129.216 52.6805 128.53C52.6805 128.262 52.6023 128.044 52.4126 127.854C52.2563 127.698 52.0554 127.598 51.8378 127.503L51.4806 127.346C51.3411 127.285 51.2015 127.224 51.0899 127.112C50.9895 127.017 50.9504 126.933 50.9504 126.788C50.9504 126.442 51.2071 126.214 51.5755 126.214C51.7875 126.214 51.9215 126.286 51.994 126.342C52.0777 126.409 52.1614 126.521 52.2117 126.621L52.5409 126.403Z" fill="#05280B"/>
<path d="M56.7688 126.403C56.6851 126.241 56.5568 126.091 56.4061 125.99C56.2219 125.868 56.0377 125.823 55.8089 125.823C55.2062 125.823 54.7653 126.208 54.7653 126.783C54.7653 127.062 54.8602 127.235 55.022 127.391C55.1895 127.553 55.3736 127.631 55.5187 127.698L55.8536 127.854C56.0489 127.944 56.194 128.011 56.3 128.111C56.434 128.234 56.4842 128.379 56.4842 128.546C56.4842 128.92 56.2442 129.283 55.7364 129.283C55.5466 129.283 55.3625 129.238 55.2006 129.077C55.0946 128.965 55.0053 128.797 54.9774 128.602L54.5756 128.714C54.6258 128.937 54.7374 129.194 54.9216 129.372C55.1783 129.623 55.4852 129.674 55.7308 129.674C56.4005 129.674 56.9083 129.216 56.9083 128.53C56.9083 128.262 56.8302 128.044 56.6405 127.854C56.4842 127.698 56.2833 127.598 56.0656 127.503L55.7085 127.346C55.569 127.285 55.4294 127.224 55.3178 127.112C55.2174 127.017 55.1783 126.933 55.1783 126.788C55.1783 126.442 55.435 126.214 55.8033 126.214C56.0154 126.214 56.1494 126.286 56.2219 126.342C56.3056 126.409 56.3893 126.521 56.4396 126.621L56.7688 126.403Z" fill="#05280B"/>
<path d="M61.6463 125.884V129.607H63.0862V129.216H62.0593V125.884H61.6463Z" fill="#05280B"/>
<path d="M66.5307 129.674C67.6078 129.674 68.4673 128.853 68.4673 127.748C68.4673 126.638 67.6022 125.823 66.5307 125.823C65.4592 125.823 64.5942 126.638 64.5942 127.748C64.5942 128.853 65.4536 129.674 66.5307 129.674ZM66.5307 126.214C67.3678 126.214 68.0431 126.894 68.0431 127.748C68.0431 128.602 67.3678 129.283 66.5307 129.283C65.6936 129.283 65.0183 128.602 65.0183 127.748C65.0183 126.894 65.6936 126.214 66.5307 126.214Z" fill="#05280B"/>
<path d="M72.8309 129.607H73.2885L71.6199 125.706L69.9066 129.607H70.3642L70.8107 128.557H72.3956L72.8309 129.607ZM70.9725 128.167L71.6087 126.677L72.2338 128.167H70.9725Z" fill="#05280B"/>
<path d="M75.5659 129.607V126.733L78.4679 129.774V125.884H78.0549V128.77L75.1529 125.728V129.607H75.5659Z" fill="#05280B"/>
<path d="M82.7574 126.403C82.6737 126.241 82.5454 126.091 82.3947 125.99C82.2105 125.868 82.0264 125.823 81.7975 125.823C81.1948 125.823 80.7539 126.208 80.7539 126.783C80.7539 127.062 80.8488 127.235 81.0106 127.391C81.1781 127.553 81.3622 127.631 81.5073 127.698L81.8422 127.854C82.0375 127.944 82.1826 128.011 82.2887 128.111C82.4226 128.234 82.4728 128.379 82.4728 128.546C82.4728 128.92 82.2328 129.283 81.725 129.283C81.5352 129.283 81.3511 129.238 81.1892 129.077C81.0832 128.965 80.9939 128.797 80.966 128.602L80.5642 128.714C80.6144 128.937 80.726 129.194 80.9102 129.372C81.1669 129.623 81.4739 129.674 81.7194 129.674C82.3891 129.674 82.897 129.216 82.897 128.53C82.897 128.262 82.8188 128.044 82.6291 127.854C82.4728 127.698 82.2719 127.598 82.0543 127.503L81.6971 127.346C81.5576 127.285 81.4181 127.224 81.3064 127.112C81.206 127.017 81.1669 126.933 81.1669 126.788C81.1669 126.442 81.4236 126.214 81.792 126.214C82.004 126.214 82.138 126.286 82.2105 126.342C82.2942 126.409 82.3779 126.521 82.4282 126.621L82.7574 126.403Z" fill="#05280B"/>
<path d="M88.0479 125.884H87.6349V129.607H88.0479V127.787H89.9565V129.607H90.3695V125.884H89.9565V127.397H88.0479V125.884Z" fill="#05280B"/>
<path d="M95.1584 129.607H95.6161L93.9474 125.706L92.2341 129.607H92.6917L93.1382 128.557H94.7231L95.1584 129.607ZM93.3 128.167L93.9362 126.677L94.5613 128.167H93.3Z" fill="#05280B"/>
<path d="M99.4728 126.403C99.3891 126.241 99.2607 126.091 99.11 125.99C98.9259 125.868 98.7417 125.823 98.5129 125.823C97.9102 125.823 97.4693 126.208 97.4693 126.783C97.4693 127.062 97.5641 127.235 97.726 127.391C97.8934 127.553 98.0776 127.631 98.2227 127.698L98.5575 127.854C98.7529 127.944 98.898 128.011 99.004 128.111C99.1379 128.234 99.1882 128.379 99.1882 128.546C99.1882 128.92 98.9482 129.283 98.4403 129.283C98.2506 129.283 98.0664 129.238 97.9046 129.077C97.7985 128.965 97.7093 128.797 97.6813 128.602L97.2795 128.714C97.3298 128.937 97.4414 129.194 97.6255 129.372C97.8823 129.623 98.1892 129.674 98.4348 129.674C99.1044 129.674 99.6123 129.216 99.6123 128.53C99.6123 128.262 99.5342 128.044 99.3444 127.854C99.1882 127.698 98.9873 127.598 98.7696 127.503L98.4124 127.346C98.2729 127.285 98.1334 127.224 98.0218 127.112C97.9213 127.017 97.8823 126.933 97.8823 126.788C97.8823 126.442 98.139 126.214 98.5073 126.214C98.7194 126.214 98.8533 126.286 98.9259 126.342C99.0096 126.409 99.0933 126.521 99.1435 126.621L99.4728 126.403Z" fill="#05280B"/>
<path d="M103.701 126.403C103.617 126.241 103.489 126.091 103.338 125.99C103.154 125.868 102.97 125.823 102.741 125.823C102.138 125.823 101.697 126.208 101.697 126.783C101.697 127.062 101.792 127.235 101.954 127.391C102.121 127.553 102.305 127.631 102.451 127.698L102.785 127.854C102.981 127.944 103.126 128.011 103.232 128.111C103.366 128.234 103.416 128.379 103.416 128.546C103.416 128.92 103.176 129.283 102.668 129.283C102.478 129.283 102.294 129.238 102.132 129.077C102.026 128.965 101.937 128.797 101.909 128.602L101.507 128.714C101.558 128.937 101.669 129.194 101.853 129.372C102.11 129.623 102.417 129.674 102.663 129.674C103.332 129.674 103.84 129.216 103.84 128.53C103.84 128.262 103.762 128.044 103.572 127.854C103.416 127.698 103.215 127.598 102.997 127.503L102.64 127.346C102.501 127.285 102.361 127.224 102.25 127.112C102.149 127.017 102.11 126.933 102.11 126.788C102.11 126.442 102.367 126.214 102.735 126.214C102.947 126.214 103.081 126.286 103.154 126.342C103.237 126.409 103.321 126.521 103.371 126.621L103.701 126.403Z" fill="#05280B"/>
<path d="M105.936 125.884V129.607H107.376V129.216H106.349V125.884H105.936Z" fill="#05280B"/>
<path d="M111.207 125.884H109.276V129.607H111.207V129.216H109.689V127.771H111.162V127.38H109.689V126.275H111.207V125.884Z" fill="#05280B"/>
<path d="M117.646 125.884H115.949V129.607H116.362V127.765H117.601V127.374H116.362V126.275H117.646V125.884Z" fill="#05280B"/>
<path d="M119.709 125.884V129.607H120.122V127.977H120.228L121.36 129.607H121.863L120.68 127.944C121.243 127.905 121.617 127.486 121.617 126.917C121.617 126.521 121.427 126.236 121.21 126.091C120.931 125.901 120.557 125.884 120.306 125.884H119.709ZM120.122 126.275H120.373C120.551 126.275 120.741 126.286 120.908 126.381C121.143 126.515 121.204 126.721 121.204 126.928C121.204 127.363 120.897 127.609 120.384 127.609H120.122V126.275Z" fill="#05280B"/>
<path d="M125.78 125.884H123.849V129.607H125.78V129.216H124.262V127.771H125.736V127.38H124.262V126.275H125.78V125.884Z" fill="#05280B"/>
<path d="M129.812 125.884H127.881V129.607H129.812V129.216H128.294V127.771H129.767V127.38H128.294V126.275H129.812V125.884Z" fill="#05280B"/>
<path d="M133.132 122.709V122.348H131.748V122.709H132.231V124.496H132.649V122.709H133.132Z" fill="#05280B"/>
<path d="M133.288 124.496H133.713L133.932 123.173L134.496 124.525H134.611L135.201 123.173L135.394 124.496H135.819L135.458 122.31H135.168L134.56 123.714L133.977 122.31H133.687L133.288 124.496Z" fill="#05280B"/>
</svg>
