<svg width="114" height="113" viewBox="0 0 114 113" fill="none" xmlns="http://www.w3.org/2000/svg">
<g id="Group 68">
<circle id="Ellipse 1" cx="57" cy="56.5" r="56.5" fill="#179B38"/>
<path id="Vector" d="M40.2558 29.8369H70.0442C72.0499 29.8369 73.8721 30.6579 75.1969 31.9795C76.5251 33.301 77.3461 35.1299 77.3461 37.1389V80.0398L88.2125 77.1297C89.2437 76.8527 90.068 76.1786 90.5686 75.3142C91.0658 74.4566 91.236 73.3986 90.959 72.3674L77.5399 22.2816C77.2629 21.2537 76.5887 20.426 75.7244 19.9254C74.8634 19.4282 73.8088 19.258 72.7776 19.535L36.0605 29.3736C35.0293 29.6506 34.2049 30.3247 33.7044 31.1891C33.2071 32.0468 33.0369 33.1014 33.3139 34.1359L33.7244 35.6644L39.0507 30.3381C39.3844 30.0044 39.8216 29.8375 40.2588 29.8375L40.2558 29.8369ZM46.3363 89.5479C45.3918 89.5479 44.6276 88.7836 44.6276 87.8392C44.6276 86.8947 45.3919 86.1305 46.3363 86.1305H53.1243C54.0688 86.1305 54.833 86.8947 54.833 87.8392C54.833 88.7837 54.0688 89.5479 53.1243 89.5479H46.3363ZM49.8972 84.9858C48.9527 84.9858 48.1885 84.2216 48.1885 83.2772C48.1885 82.3327 48.9528 81.5685 49.8972 81.5685H53.4548C54.3993 81.5685 55.1635 82.3327 55.1635 83.2772C55.1635 84.2216 54.3992 84.9858 53.4548 84.9858H49.8972ZM46.3363 75.3309C45.3918 75.3309 44.6276 74.5667 44.6276 73.6222C44.6276 72.6777 45.3919 71.9135 46.3363 71.9135H53.1243C54.0688 71.9135 54.833 72.6778 54.833 73.6222C54.833 74.5667 54.0688 75.3309 53.1243 75.3309H46.3363ZM49.8972 70.7689C48.9527 70.7689 48.1885 70.0046 48.1885 69.0602C48.1885 68.1157 48.9528 67.3515 49.8972 67.3515H53.4548C54.3993 67.3515 55.1635 68.1157 55.1635 69.0602C55.1635 70.0047 54.3992 70.7689 53.4548 70.7689H49.8972ZM46.3363 61.1139C45.3918 61.1139 44.6276 60.3497 44.6276 59.4053C44.6276 58.4608 45.3919 57.6966 46.3363 57.6966H53.1243C54.0688 57.6966 54.833 58.4608 54.833 59.4053C54.833 60.3497 54.0688 61.1139 53.1243 61.1139H46.3363ZM49.8972 56.5519C48.9527 56.5519 48.1885 55.7877 48.1885 54.8432C48.1885 53.8988 48.9528 53.1345 49.8972 53.1345H53.4548C54.3993 53.1345 55.1635 53.8988 55.1635 54.8432C55.1635 55.7877 54.3992 56.5519 53.4548 56.5519H49.8972ZM46.3363 46.3101C45.3918 46.3101 44.6276 45.5458 44.6276 44.6014C44.6276 43.6569 45.3919 42.8927 46.3363 42.8927H53.1243C54.0688 42.8927 54.833 43.6569 54.833 44.6014C54.833 45.5458 54.0688 46.3101 53.1243 46.3101H46.3363ZM49.8972 41.748C48.9527 41.748 48.1885 40.9838 48.1885 40.0393C48.1885 39.0949 48.9528 38.3307 49.8972 38.3307H53.4548C54.3993 38.3307 55.1635 39.0949 55.1635 40.0393C55.1635 40.9838 54.3992 41.748 53.4548 41.748H49.8972ZM59.8554 79.2392H66.7536C67.6981 79.2392 68.4623 80.0034 68.4623 80.9479V87.846C68.4623 88.7905 67.698 89.5547 66.7536 89.5547H59.8554C58.911 89.5547 58.1468 88.7905 58.1468 87.846V80.9479C58.1468 80.0034 58.911 79.2392 59.8554 79.2392ZM65.0449 82.6566H61.5641V86.1373H65.0449V82.6566ZM59.8554 65.022H66.7536C67.6981 65.022 68.4623 65.7863 68.4623 66.7307V73.6289C68.4623 74.5734 67.698 75.3376 66.7536 75.3376H59.8554C58.911 75.3376 58.1468 74.5733 58.1468 73.6289V66.7307C58.1468 65.7863 58.911 65.022 59.8554 65.022ZM65.0449 68.4394H61.5641V71.9202H65.0449V68.4394ZM59.8554 50.8049H66.7536C67.6981 50.8049 68.4623 51.5692 68.4623 52.5136V59.4117C68.4623 60.3562 67.698 61.1204 66.7536 61.1204H59.8554C58.911 61.1204 58.1468 60.3562 58.1468 59.4117V52.5136C58.1468 51.5691 58.911 50.8049 59.8554 50.8049ZM65.0449 54.2223H61.5641V57.7031H65.0449V54.2223ZM59.8554 36.5878H66.7536C67.6981 36.5878 68.4623 37.352 68.4623 38.2965V45.1946C68.4623 46.1391 67.698 46.9033 66.7536 46.9033H59.8554C58.911 46.9033 58.1468 46.1391 58.1468 45.1946V38.2965C58.1468 37.352 58.911 36.5878 59.8554 36.5878ZM65.0449 40.0052H61.5641V43.4859H65.0449V40.0052ZM27.2436 76.5019C27.7142 75.6876 28.7587 75.4106 29.5731 75.8811C30.3874 76.3517 30.6643 77.3962 30.1938 78.2106L28.1481 81.7547V88.9967C28.1481 90.0646 28.5853 91.0391 29.2861 91.7432C29.9936 92.444 30.9647 92.8812 32.0326 92.8812H70.0406C71.1119 92.8812 72.083 92.4474 72.7839 91.7465C73.488 91.0357 73.9252 90.0645 73.9252 88.9966V37.1456C73.9252 36.081 73.488 35.1066 72.7839 34.4024C72.083 33.6983 71.1086 33.2611 70.0406 33.2611H41.9609V39.7655C41.9609 41.7745 41.1366 43.6034 39.8118 44.9283C38.4935 46.2565 36.6647 47.0775 34.649 47.0775H28.1446V55.8481C29.5929 55.0873 31.2416 54.6601 32.9903 54.6601C35.8771 54.6601 38.4902 55.8315 40.3824 57.7204C42.2712 59.6092 43.4426 62.2257 43.4426 65.1124C43.4426 67.9991 42.2712 70.6122 40.3824 72.5044C38.4935 74.3933 35.8771 75.5647 32.9903 75.5647C30.8312 75.5647 28.8254 74.9072 27.1568 73.7859L22.9985 80.9845C22.9017 81.1513 22.8851 81.3482 22.9318 81.5251C22.9785 81.702 23.0953 81.8622 23.2622 81.959C23.4257 82.0557 23.6226 82.0724 23.8028 82.0257C23.9797 81.979 24.1399 81.8622 24.2367 81.6953L27.2369 76.5025L27.2436 76.5019ZM24.7307 85.3119L24.6906 85.3219C23.6761 85.5922 22.5514 85.4787 21.567 84.9114C20.5758 84.344 19.915 83.4229 19.6414 82.4051C19.3677 81.3872 19.4845 80.2592 20.0518 79.2747L24.6206 71.3653C23.3158 69.6232 22.5415 67.4574 22.5415 65.1113C22.5415 62.7018 23.3591 60.4791 24.7307 58.7104V45.3681C24.7307 44.8909 24.9276 44.4604 25.2413 44.15L30.9348 38.4565L30.0137 35.0225C29.4964 33.0869 29.8168 31.1112 30.7512 29.4959C31.6857 27.8707 33.2376 26.6059 35.1765 26.0852L71.8936 16.2466C73.8292 15.7293 75.8049 16.0497 77.4235 16.9841C79.0487 17.9186 80.3136 19.4705 80.8342 21.4094L94.2534 71.4953C94.7707 73.4309 94.4503 75.4065 93.5159 77.0218C92.5814 78.6471 91.0295 79.9119 89.0906 80.4326L77.3468 83.5796V88.9994C77.3468 91.0085 76.5258 92.8373 75.2043 94.1589C73.876 95.4804 72.0506 96.3014 70.0448 96.3014H32.0368C30.0277 96.3014 28.1989 95.4804 26.8773 94.1589C25.5557 92.8306 24.7348 91.0051 24.7348 88.9994V85.3117L24.7307 85.3119ZM37.9696 60.1386C36.698 58.8671 34.936 58.0795 32.9937 58.0795C31.0514 58.0795 29.2927 58.8671 28.0178 60.1386C26.7463 61.4101 25.9587 63.1722 25.9587 65.1145C25.9587 67.0568 26.7463 68.8155 28.0178 70.0904C29.2894 71.3619 31.0514 72.1495 32.9937 72.1495C34.936 72.1495 36.6947 71.3619 37.9696 70.0904C39.2411 68.8188 40.0287 67.0568 40.0287 65.1145C40.0287 63.1722 39.2411 61.4135 37.9696 60.1386ZM38.5469 35.6796L30.5641 43.6624H34.6523C35.7236 43.6624 36.698 43.2253 37.4023 42.5178C38.1098 41.817 38.5469 40.8425 38.5469 39.7678V35.6796Z" fill="white"/>
</g>
</svg>
