<svg width="114" height="113" viewBox="0 0 114 113" fill="none" xmlns="http://www.w3.org/2000/svg">
<g id="Group 68">
<circle id="Ellipse 1" cx="57" cy="56.5" r="56.5" fill="#179B38"/>
<path id="Vector" d="M81.2654 74.9155V78.103H85.8217V74.9155H81.2654ZM81.2654 71.0884V74.2759H85.8217V71.0884H81.2654ZM74.266 61.1787V64.3662H81.6889V61.1787H74.266ZM81.2654 71.0884V74.2759H85.8217V71.0884H81.2654ZM81.2654 74.9155V78.103H85.8217V74.9155H81.2654ZM74.266 61.1787V64.3662H81.6889V61.1787H74.266ZM52.853 72.3437V75.529H60.2759V72.3437H52.853ZM52.853 67.8965V71.0818H60.2759V67.8899L52.853 67.8965ZM52.853 63.4493V66.6368H60.2759V63.4493H52.853ZM30.01 72.3743V75.5596H37.4329V72.3743H30.01ZM30.01 67.9271V71.1146H37.4329V67.9271H30.01ZM30.01 63.482V66.6674H37.4329V63.482H30.01ZM52.853 63.4427V66.6302H60.2759V63.4427H52.853ZM52.853 67.8899V71.0753H60.2759V67.8899H52.853ZM52.853 72.3372V75.5225H60.2759V72.3437L52.853 72.3372ZM30.01 63.482V66.6674H37.4329V63.482H30.01ZM30.01 67.9271V71.1146H37.4329V67.9271H30.01ZM30.01 72.3743V75.5596H37.4329V72.3743H30.01ZM92.9063 79.8125H90.961V67.7808C90.9613 67.5716 90.9203 67.3644 90.8405 67.1711C90.7606 66.9777 90.6434 66.802 90.4956 66.654C90.3478 66.5059 90.1723 66.3885 89.979 66.3084C89.7858 66.2283 89.5786 66.187 89.3694 66.187H86.7933V56.8254C86.7933 56.4027 86.6253 55.9973 86.3265 55.6985C86.0276 55.3996 85.6222 55.2317 85.1995 55.2317H79.6236L79.7196 54.8845C79.7261 54.846 79.7462 54.8111 79.7764 54.7863C79.8094 54.7647 79.8483 54.754 79.8877 54.7557H81.5732C82.464 54.754 83.3178 54.3995 83.9479 53.7698C84.578 53.1402 84.933 52.2865 84.9353 51.3958V46.1124C84.933 45.2216 84.578 44.368 83.9479 43.7383C83.3178 43.1086 82.464 42.7541 81.5732 42.7524H79.8877C79.8471 42.7532 79.807 42.7426 79.772 42.7218C79.7446 42.6952 79.7256 42.661 79.7174 42.6236C79.1891 40.6642 78.4082 38.7817 77.3945 37.0236C77.3739 36.988 77.3647 36.9468 77.3683 36.9058C77.3768 36.8681 77.3975 36.8343 77.4273 36.8097L78.6215 35.6089C78.933 35.2977 79.1802 34.9281 79.3489 34.5213C79.5175 34.1144 79.6043 33.6784 79.6043 33.238C79.6043 32.7976 79.5175 32.3615 79.3489 31.9546C79.1802 31.5478 78.933 31.1782 78.6215 30.867L74.8773 27.1315C74.5668 26.8201 74.1979 26.5731 73.7918 26.4045C73.3857 26.2359 72.9504 26.1491 72.5107 26.1491C71.621 26.151 70.7682 26.5041 70.1375 27.1315L68.9411 28.3279C68.9142 28.3549 68.8813 28.3751 68.845 28.3868C68.8037 28.3907 68.7622 28.3807 68.7271 28.3585C67.848 27.8536 66.938 27.4044 66.0025 27.0136C65.0659 26.6241 64.1046 26.2966 63.125 26.0333C63.0871 26.0266 63.0525 26.0074 63.0268 25.9788C63.0055 25.9448 62.9948 25.9053 62.9962 25.8652V24.1798C62.9945 23.2896 62.6402 22.4363 62.011 21.8066C61.3817 21.1769 60.5286 20.8221 59.6384 20.8198H54.355C53.4644 20.8216 52.6108 21.1761 51.9811 21.8058C51.3513 22.4356 50.9968 23.2892 50.9951 24.1798V25.8652C50.9967 25.906 50.9861 25.9463 50.9645 25.9809C50.9373 26.0082 50.9034 26.0278 50.8663 26.0377C48.9058 26.5662 47.0221 27.3463 45.2619 28.3585C45.2261 28.3789 45.1852 28.3887 45.144 28.3868C45.1072 28.3766 45.0739 28.3561 45.048 28.3279L43.8472 27.1315C43.536 26.8199 43.1664 26.5727 42.7596 26.4041C42.3527 26.2355 41.9166 26.1487 41.4762 26.1487C41.0359 26.1487 40.5998 26.2355 40.1929 26.4041C39.7861 26.5727 39.4165 26.8199 39.1053 27.1315L35.3742 30.8757C35.0629 31.1863 34.8159 31.5551 34.6473 31.9612C34.4787 32.3673 34.3919 32.8026 34.3917 33.2423C34.394 34.1325 34.747 34.9859 35.3742 35.6177L36.5706 36.8119C36.5983 36.8382 36.6186 36.8713 36.6295 36.9079C36.6314 36.9491 36.6215 36.99 36.6011 37.0258C35.584 38.7833 34.8022 40.6668 34.276 42.628C34.2693 42.6653 34.2501 42.6992 34.2214 42.724C34.1879 42.7462 34.1481 42.757 34.1079 42.7546H32.4225C31.5319 42.7563 30.6782 43.1109 30.0485 43.7406C29.4188 44.3704 29.0642 45.224 29.0625 46.1146V51.3979C29.0636 52.2889 29.4179 53.1431 30.0477 53.7733C30.6775 54.4035 31.5315 54.7584 32.4225 54.7601H34.1079C34.1488 54.7574 34.1894 54.7681 34.2236 54.7907C34.2512 54.8167 34.2709 54.85 34.2804 54.8867C34.3852 55.2753 34.4987 55.6574 34.621 56.0373H24.6349C24.4256 56.0373 24.2184 56.0785 24.025 56.1586C23.8317 56.2387 23.656 56.3561 23.508 56.5041C23.36 56.6521 23.2426 56.8278 23.1625 57.0211C23.0824 57.2145 23.0412 57.4217 23.0412 57.631V79.8125H21.0937C20.6711 79.8125 20.2657 79.9804 19.9668 80.2793C19.6679 80.5782 19.5 80.9836 19.5 81.4062C19.5 81.8289 19.6679 82.2343 19.9668 82.5332C20.2657 82.8321 20.6711 83 21.0937 83H92.9063C93.3289 83 93.7343 82.8321 94.0332 82.5332C94.3321 82.2343 94.5 81.8289 94.5 81.4062C94.5 80.9836 94.3321 80.5782 94.0332 80.2793C93.7343 79.9804 93.3289 79.8125 92.9063 79.8125ZM34.1057 51.5726H32.4181C32.3725 51.5709 32.3293 51.5519 32.2972 51.5195C32.2651 51.487 32.2467 51.4435 32.2456 51.3979V46.1146C32.2472 46.0693 32.2659 46.0264 32.2979 45.9944C32.3299 45.9624 32.3729 45.9437 32.4181 45.9421H34.1057C34.8451 45.9424 35.564 45.6983 36.1503 45.2478C36.7366 44.7973 37.1576 44.1656 37.3478 43.451C37.8058 41.7592 38.4794 40.1332 39.352 38.613C39.7214 37.9755 39.8696 37.2338 39.7737 36.5033C39.6777 35.7728 39.3429 35.0946 38.8215 34.5741L37.6207 33.3733C37.6046 33.3569 37.5921 33.3375 37.5838 33.3161C37.5755 33.2947 37.5717 33.2718 37.5727 33.2489C37.5718 33.2258 37.5758 33.2027 37.5844 33.1813C37.5931 33.1598 37.6062 33.1404 37.6229 33.1244L41.3562 29.3911C41.3891 29.3596 41.4328 29.3417 41.4784 29.3409C41.5016 29.3397 41.5247 29.3436 41.5462 29.3523C41.5677 29.361 41.587 29.3742 41.6029 29.3911L42.7971 30.5853C43.3182 31.1089 43.9981 31.4449 44.7305 31.5409C45.4628 31.6369 46.2064 31.4874 46.8448 31.1159C47.6055 30.6773 48.3947 30.2901 49.207 29.9566C50.0161 29.6229 50.846 29.3421 51.6915 29.116C52.406 28.9262 53.0377 28.5052 53.4879 27.9187C53.9381 27.3322 54.1816 26.6133 54.1804 25.874V24.1863C54.181 24.1403 54.1999 24.0963 54.2328 24.0641C54.2653 24.0316 54.3091 24.0128 54.355 24.0117H59.6384C59.6837 24.0129 59.7268 24.0317 59.7585 24.0641C59.7755 24.0796 59.7891 24.0985 59.7985 24.1195C59.8079 24.1406 59.8128 24.1633 59.8131 24.1863V25.8718C59.8114 26.6115 60.0547 27.3309 60.5049 27.9178C60.9552 28.5047 61.587 28.9261 62.3019 29.116C63.9936 29.5767 65.62 30.2501 67.1421 31.1202C67.7804 31.4917 68.5237 31.6413 69.256 31.5457C69.9883 31.4501 70.6683 31.1147 71.1898 30.5919L72.3818 29.3933C72.4162 29.363 72.4605 29.3467 72.5063 29.3475C72.5294 29.3463 72.5526 29.3502 72.5741 29.3588C72.5955 29.3675 72.6149 29.3808 72.6307 29.3977L76.3662 33.131C76.3974 33.1631 76.4146 33.2063 76.4142 33.2511C76.4154 33.274 76.4118 33.2969 76.4035 33.3184C76.3952 33.3398 76.3825 33.3593 76.3662 33.3755L75.172 34.5741C74.6477 35.0957 74.312 35.777 74.2179 36.5106C74.1245 37.242 74.2741 37.9838 74.6437 38.6218C75.0814 39.3818 75.468 40.1703 75.8008 40.9818C76.1356 41.7892 76.4171 42.6177 76.6435 43.462C76.8354 44.1772 77.2574 44.8093 77.8442 45.2609C78.4295 45.7107 79.1475 45.9533 79.8856 45.9508H81.5732C81.6185 45.9539 81.6612 45.9733 81.6933 46.0054C81.7254 46.0375 81.7448 46.0802 81.7478 46.1255V51.4089C81.7476 51.4319 81.7426 51.4546 81.7332 51.4757C81.7239 51.4967 81.7102 51.5156 81.6933 51.5311C81.6615 51.5635 81.6185 51.5823 81.5732 51.5835H79.8856C79.1462 51.5823 78.4273 51.8258 77.8408 52.276C77.2544 52.7262 76.8334 53.3578 76.6435 54.0724C76.53 54.4937 76.4252 54.8627 76.3116 55.164L76.2898 55.2339H75.6458V49.9155C75.6458 49.6468 75.5778 49.3825 75.4483 49.1471C75.3188 48.9117 75.1318 48.7129 74.9048 48.5691C74.6778 48.4253 74.4181 48.3412 74.15 48.3247C73.8818 48.3082 73.6138 48.3598 73.3708 48.4746L70.4737 49.5531C70.489 49.2868 70.4999 49.0226 70.4999 48.7606C70.4996 46.8901 70.1106 45.0401 69.3576 43.3279C68.6046 41.6156 67.5041 40.0785 66.1257 38.814C64.7474 37.5496 63.1213 36.5853 61.3506 35.9824C59.5799 35.3795 57.7033 35.1511 55.8397 35.3117C53.9761 35.4723 52.1662 36.0184 50.5248 36.9153C48.8834 37.8123 47.4463 39.0405 46.3046 40.5222C45.1629 42.0038 44.3415 43.7065 43.8926 45.5224C43.4436 47.3382 43.3769 49.2275 43.6966 51.0705L43.7184 51.184H39.0048C38.5827 51.184 38.1779 51.3517 37.8794 51.6501C37.581 51.9486 37.4133 52.3534 37.4133 52.7755V54.3038L37.3478 54.0636C37.1569 53.3497 36.7356 52.7187 36.1494 52.2687C35.5632 51.8186 34.8448 51.5747 34.1057 51.5748V51.5726ZM50.6523 51.184H46.9714C46.9168 50.9657 46.8732 50.7473 46.836 50.529C46.7372 49.9433 46.6875 49.3503 46.6876 48.7562C46.6535 47.3801 46.8952 46.0111 47.3984 44.7298C47.9016 43.4485 48.6561 42.2809 49.6176 41.2958C50.579 40.3106 51.7279 39.5279 52.9965 38.9936C54.2652 38.4594 55.6279 38.1845 57.0045 38.1851C58.381 38.1856 59.7435 38.4617 61.0117 38.997C62.2799 39.5324 63.4282 40.3161 64.3888 41.302C65.3494 42.288 66.1029 43.4562 66.6051 44.7379C67.1072 46.0196 67.3477 47.3889 67.3124 48.765C67.3147 49.2404 67.2833 49.7153 67.2185 50.1863V50.2343C67.1923 50.4264 67.1596 50.6163 67.1203 50.8085L60.813 53.1598C60.5097 53.2733 60.2479 53.4763 60.0624 53.7417C59.8768 54.0072 59.7762 54.3227 59.7738 54.6466V57.6572H52.2482V52.7777C52.2485 52.5682 52.2074 52.3606 52.1273 52.167C52.0472 51.9734 51.9296 51.7974 51.7813 51.6494C51.633 51.5013 51.457 51.3839 51.2632 51.3041C51.0695 51.2242 50.8619 51.1834 50.6523 51.184ZM41.2121 79.8169H26.2265V59.227H41.2121V79.8169ZM49.052 57.6572H48.1001C47.8909 57.6572 47.6838 57.6985 47.4906 57.7786C47.2973 57.8587 47.1218 57.9761 46.9739 58.1241C46.8261 58.2722 46.7089 58.4479 46.6291 58.6412C46.5492 58.8346 46.5083 59.0418 46.5086 59.251V79.8169H44.3887V57.631C44.3887 57.422 44.3475 57.215 44.2675 57.022C44.1875 56.8289 44.0703 56.6534 43.9225 56.5056C43.7747 56.3578 43.5993 56.2406 43.4062 56.1606C43.2131 56.0806 43.0061 56.0395 42.7971 56.0395H40.603V54.3715H49.052V57.6572ZM63.4285 79.8169H49.6873V60.8425H63.4285V79.8169ZM69.1638 56.8298V79.8169H66.616V59.2444C66.616 58.8223 66.4483 58.4175 66.1498 58.119C65.8513 57.8205 65.4465 57.6529 65.0244 57.6529H62.946V55.7513C66.1131 54.568 69.2831 53.3861 72.4561 52.2057V55.2404H70.7532C70.332 55.2416 69.9284 55.4094 69.6306 55.7072C69.3328 56.005 69.1649 56.4086 69.1638 56.8298ZM76.1326 67.7852V79.8169H72.3447V58.4213H83.597V66.1914H77.7242C77.515 66.1914 77.3078 66.2326 77.1146 66.3128C76.9214 66.3929 76.7458 66.5103 76.598 66.6583C76.4502 66.8064 76.333 66.9821 76.2531 67.1754C76.1733 67.3688 76.1323 67.576 76.1326 67.7852ZM87.7691 79.8169H79.3201V69.3789H87.7691V79.8169ZM85.8217 74.9155H81.2654V78.103H85.8217V74.9155ZM85.8217 71.0884H81.2654V74.2759H85.8217V71.0884ZM74.266 61.1787V64.3662H81.6889V61.1787H74.266ZM60.2694 72.3437H52.8464V75.529H60.2694V72.3437ZM60.2694 67.8965H52.8464V71.0818H60.2694V67.8965ZM60.2694 63.4493H52.8464V66.6368H60.2694V63.4493ZM37.4286 72.3743H30.0056V75.5596H37.4286V72.3743ZM37.4286 67.9271H30.0056V71.1146H37.4286V67.9271ZM37.4286 63.482H30.0056V66.6674H37.4286V63.482Z" fill="white"/>
</g>
</svg>
