<svg width="123" height="69" viewBox="0 0 123 69" fill="none" xmlns="http://www.w3.org/2000/svg">
<path d="M24.4064 0.392043L37.3541 9.17534L55.23 4.48781C56.0108 4.18902 57.4356 4.05002 58.4887 4.32145L73.3993 6.74902C73.8856 6.82563 74.3201 7.05767 74.6939 7.37616L84.384 9.21598L96.8311 0.475553C98.3309 -0.381426 99.3917 0.262124 100.507 1.10269L122.518 32.1362C123.387 33.3116 123.039 35.1964 121.808 35.9843L107.816 45.1013C106.719 45.7941 105.121 45.527 104.308 44.5157L100.34 39.5391L97.0407 41.2957C97.2215 42.2982 97.2502 43.3019 97.1664 44.2234C96.9547 46.559 96.5246 48.4634 94.9112 50.0787C93.0255 51.7598 90.842 51.4457 88.7292 51.2082C88.4921 53.2899 88.5351 55.1187 86.8919 56.7705C84.672 58.63 81.7485 58.4286 79.5408 57.8584C79.4548 59.9094 79.1692 61.9539 77.536 63.4621C75.0911 65.4858 71.8841 64.4515 69.8927 63.5453C69.7449 64.6978 69.424 66.2311 68.1801 67.4766C66.5667 69.092 64.1936 69.3153 61.7476 68.6477C59.3369 67.9899 56.6725 66.4193 53.8121 63.5869C51.5702 64.0565 49.3866 63.9339 47.2969 63.5869C44.3338 62.8799 42.7667 60.5553 42.7029 57.6484C40.5106 58.339 37.7867 58.1945 36.3122 56.7706C35.237 55.6936 34.443 54.2095 34.057 52.5042C31.5956 53.2134 28.4715 52.6235 27.0402 51.2499C25.7411 49.9486 25.2371 48.2522 25.2437 46.4823C22.8474 46.5884 21.0918 45.7643 19.6472 43.931C19.2734 44.2397 18.8896 44.5899 18.5191 44.8931C17.6821 45.5859 16.4083 45.691 15.4698 45.1437L1.26815 36.4448C-0.0132941 35.6863 -0.406977 33.7567 0.474145 32.5549L20.7729 1.0199C22.0653 -0.18731 23.0347 -0.222337 24.4065 0.392757L24.4064 0.392043ZM57.0698 9.42582L38.5245 14.4025L28.5002 29.8346C32.0048 27.0656 35.5668 24.3819 39.151 22.1393C43.3052 19.5399 47.4416 17.4767 51.556 16.493C55.6704 15.5101 59.8907 15.6929 63.585 17.7473C63.9809 17.9782 64.3151 18.3131 64.5455 18.7093C66.4555 21.8976 67.7723 23.303 69.3493 23.9793C70.4885 24.4686 72.4282 24.5288 74.9459 24.3559C73.8795 20.0261 72.6422 15.4972 70.978 11.7671L57.0698 9.42582ZM77.4945 13.3571C79.0042 17.7855 79.9713 22.4315 80.9198 26.1132C81.2848 27.5634 80.1842 29.2051 78.7065 29.4174C73.8697 30.1092 70.3222 30.247 67.2198 28.9151C64.4089 27.7089 62.5242 25.3261 60.6208 22.3066C58.3866 21.1869 55.8413 20.9866 52.7692 21.721C49.5325 22.4948 45.8582 24.2788 41.9928 26.6977C36.224 30.3074 30.1301 35.2675 24.3252 40.0811C24.291 40.3712 24.13 41.0858 24.5755 41.4613C25.4037 41.8498 26.8847 40.9348 26.9564 40.9173C27.8364 39.9892 29.4266 39.836 30.4644 40.5824C31.5021 41.3288 31.8561 42.8808 31.2584 44.0113C30.3045 45.9223 30.1799 46.6807 30.7986 47.357C31.9201 48.1702 33.8831 46.9641 35.1004 46.1859C35.9804 45.3815 37.414 45.2644 38.4001 45.9353C39.386 46.6062 39.826 47.9984 39.4025 49.1137C38.8235 50.7084 39.0088 51.9955 39.987 52.7528C41.2166 53.3471 43.5424 51.8652 45.0409 51.122C46.0323 50.6054 47.3325 50.8003 48.1319 51.5817C48.9314 52.3632 49.1674 53.6722 48.6745 54.6769C48.0878 55.9049 48.0393 56.9655 48.09 58.2319C48.9877 58.5734 50.1313 58.522 50.9716 58.5253C50.2592 55.0722 50.8547 52.3777 52.3501 50.2861C53.8873 48.7473 55.5503 48.3981 57.028 48.2788C56.6409 45.6663 57.2981 42.5885 59.0328 40.9183C61.5648 38.9646 64.0913 39.4462 66.4678 40.4159C66.3972 38.5542 66.9012 36.9245 68.3888 35.5642C71.0432 33.4333 74.4046 34.2322 77.2023 35.2293C77.7338 33.1903 78.4826 32.2075 79.7916 31.0472C82.081 29.6693 85.1005 30.2318 87.477 31.1304C89.9505 32.0826 92.4561 33.871 94.6197 36.5251L97.1252 35.1866L83.1751 14.443L77.4945 13.3571ZM82.7988 35.7743C81.5461 37.0975 81.5869 38.2708 82.2971 39.3708L87.6014 45.5601C88.4263 46.1577 89.4398 46.984 91.1512 46.0625C93.1208 43.6174 91.0884 40.5529 89.2952 38.6202C87.3599 36.73 84.4099 34.3812 82.7976 35.7746L82.7988 35.7743ZM72.1063 39.6224C71.0123 40.788 71.0487 42.2809 71.6465 43.2615L78.3711 52.2538C79.9591 53.4938 81.7213 53.8441 83.1328 52.7977C84.1066 51.8915 84.3702 50.3231 83.5508 48.9922L76.2835 40.544C75.1201 39.5798 73.2343 38.7272 72.1073 39.6236L72.1063 39.6224ZM62.5001 45.1429C61.3279 46.6478 61.0566 48.0894 62.2917 49.9106L68.9325 57.6474C70.4521 59.1085 72.4944 60.145 73.9026 59.1107C74.7991 58.338 75.0693 56.8232 74.3205 55.765L67.2198 46.3546C65.7112 45.0807 63.9335 44.1602 62.4999 45.142L62.5001 45.1429ZM59.2843 54.1767C58.5234 53.2902 57.3147 53.2891 56.5274 54.0508C55.2162 55.3204 55.6109 56.7717 56.6112 57.9407C58.1539 59.485 60.773 62.7302 62.2165 63.4295C63.1031 63.8585 63.8761 63.9746 64.422 63.5871C64.9877 62.9293 65.2932 61.7812 64.7562 60.9943L59.2843 54.1767Z" fill="#159C2A"/>
</svg>
