<svg width="81" height="93" viewBox="0 0 81 93" fill="none" xmlns="http://www.w3.org/2000/svg">
<path d="M40.5 83.3333C32.352 83.3333 24.5376 80.1375 18.7761 74.4489C13.0146 68.7603 9.77778 61.0449 9.77778 53C9.77778 44.9551 13.0146 37.2397 18.7761 31.5511C24.5376 25.8625 32.352 22.6667 40.5 22.6667C48.648 22.6667 56.4624 25.8625 62.2239 31.5511C67.9854 37.2397 71.2222 44.9551 71.2222 53C71.2222 61.0449 67.9854 68.7603 62.2239 74.4489C56.4624 80.1375 48.648 83.3333 40.5 83.3333ZM71.3539 28.69L77.5861 22.5367C75.6111 20.3267 73.6361 18.3333 71.3978 16.4267L65.1656 22.6667C58.3628 17.2067 49.8044 14 40.5 14C30.0239 14 19.977 18.1089 12.5693 25.4228C5.16159 32.7368 1 42.6566 1 53C1 63.3434 5.16159 73.2632 12.5693 80.5772C19.977 87.8911 30.0239 92 40.5 92C62.4444 92 80 74.5367 80 53C80 43.8133 76.7522 35.3633 71.3539 28.69ZM36.1111 57.3333H44.8889V31.3333H36.1111V57.3333ZM53.6667 1H27.3333V9.66667H53.6667V1Z" fill="#159C2A" stroke="white"/>
</svg>
