<svg width="80" height="89" viewBox="0 0 80 89" fill="none" xmlns="http://www.w3.org/2000/svg">
<path fill-rule="evenodd" clip-rule="evenodd" d="M25.1312 4.43493C29.4588 1.54337 34.5466 0 39.7512 0C46.7305 0 53.4239 2.7725 58.359 7.70757C63.294 12.6426 66.0665 19.336 66.0665 26.3153C66.0665 31.52 64.5232 36.6078 61.6316 40.9353C58.74 45.2628 54.6301 48.6357 49.8217 50.6275C45.0132 52.6192 39.722 53.1403 34.6174 52.125C29.5127 51.1096 24.8238 48.6033 21.1435 44.923C17.4632 41.2428 14.957 36.5538 13.9416 31.4492C12.9262 26.3445 13.4473 21.0534 15.4391 16.2449C17.4308 11.4364 20.8037 7.32649 25.1312 4.43493ZM48.8955 39.3751C50.1315 38.1417 50.8277 36.4684 50.8314 34.7223V30.0548C50.8296 29.1844 50.6554 28.3229 50.319 27.5201C49.9825 26.7173 49.4904 25.9891 48.8711 25.3774C48.2517 24.7658 47.5174 24.2829 46.7104 23.9565C45.9034 23.6302 45.0398 23.4669 44.1694 23.476H35.4161C35.1393 23.476 34.8737 23.367 34.6767 23.1726C34.4797 22.9782 34.3672 22.714 34.3635 22.4373V17.839C34.3635 17.7014 34.3908 17.5652 34.4439 17.4383C34.497 17.3113 34.5747 17.1962 34.6726 17.0995C34.7706 17.0029 34.8867 16.9267 35.0144 16.8753C35.142 16.8239 35.2786 16.7984 35.4161 16.8002H49.3078V11.2602H42.5213V8.49015H36.9812V11.1909H35.4161C33.67 11.1909 31.9953 11.8836 30.7593 13.117C29.5233 14.3504 28.8271 16.0237 28.8235 17.7698V22.4373C28.8271 24.1833 29.5233 25.8567 30.7593 27.09C31.9953 28.3234 33.67 29.0161 35.4161 29.0161H44.1694C44.4462 29.0161 44.7119 29.1251 44.9089 29.3195C45.1059 29.5139 45.2184 29.7781 45.222 30.0548V34.7223C45.2221 34.8599 45.1947 34.9961 45.1417 35.1231C45.0886 35.25 45.0108 35.3652 44.9129 35.4618C44.815 35.5584 44.6988 35.6347 44.5712 35.686C44.4436 35.7374 44.307 35.7629 44.1694 35.7611H30.1946V41.3012H36.9812V44.0019H42.5213V41.3012H44.2387C45.9848 41.3012 47.6595 40.6085 48.8955 39.3751ZM67.2702 48.0188C68.6434 46.9664 70.3325 46.4099 72.0624 46.4399C74.1027 46.5121 76.0308 47.3916 77.4229 48.885C78.815 50.3783 79.5571 52.3634 79.486 54.4038C79.4607 55.5545 79.1666 56.6833 78.6273 57.7001C78.3136 58.235 77.9521 58.7403 77.547 59.2098C77.4899 59.2899 77.425 59.3641 77.3531 59.4314L55.1098 81.3146C54.8416 81.5773 54.5229 81.7827 54.1729 81.9184C53.8229 82.0541 53.4489 82.1173 53.0738 82.1041L23.199 81.093L15.6507 88.6413L11.7449 84.7218L20.1381 76.3286C20.4025 76.055 20.7219 75.8407 21.0753 75.6998C21.4286 75.559 21.8079 75.4947 22.188 75.5114L52.0627 76.5363L73.3643 55.581C73.5147 55.4104 73.6535 55.23 73.7798 55.0409C73.9285 54.7168 73.9948 54.3609 73.9725 54.005C73.9503 53.6491 73.8404 53.3043 73.6525 53.0012C73.4646 52.6981 73.2047 52.4463 72.8958 52.2681C72.5869 52.0899 72.2387 51.9909 71.8823 51.98C71.4318 51.9767 70.9949 52.1338 70.6497 52.4232L55.3314 65.9963C54.6 67.1971 53.5731 68.1904 52.3486 68.8815C51.1242 69.5725 49.743 69.9382 48.337 69.9436H48.06L34.9578 69.3896L35.1378 63.8496L48.2955 64.3066C48.7925 64.3267 49.2853 64.2077 49.7184 63.9631C50.1515 63.7184 50.5077 63.3577 50.747 62.9216C50.7445 62.8847 50.7445 62.8477 50.747 62.8108C50.9633 62.3311 51.0339 61.7984 50.9502 61.2789C50.8665 60.7594 50.6321 60.2759 50.2761 59.8884C49.7934 59.3726 49.1261 59.0689 48.4201 59.0436L22.6173 58.171L3.91959 76.9103L0 72.9907L19.5564 53.4481C19.8239 53.1787 20.1438 52.9672 20.4964 52.8266C20.8491 52.686 21.2268 52.6194 21.6062 52.6309L48.6279 53.4897C49.7064 53.5224 50.7677 53.7694 51.7497 54.2165C52.7318 54.6635 53.6151 55.3016 54.348 56.0935C54.9117 56.7123 55.3786 57.4127 55.733 58.171L67.0763 48.1712L67.2702 48.0188Z" fill="#159C2A"/>
</svg>
