<svg width="90" height="65" viewBox="0 0 90 65" fill="none" xmlns="http://www.w3.org/2000/svg">
<path d="M81.5625 0H16.875C14.6372 0 12.4911 0.893243 10.9088 2.48323C9.32645 4.07321 8.4375 6.22969 8.4375 8.47826C6.19974 8.47826 4.05362 9.3715 2.47129 10.9615C0.888948 12.5515 0 14.7079 0 16.9565L0 56.5217C0 58.7703 0.888948 60.9268 2.47129 62.5168C4.05362 64.1068 6.19974 65 8.4375 65H73.125C75.3628 65 77.5089 64.1068 79.0912 62.5168C80.6736 60.9268 81.5625 58.7703 81.5625 56.5217C83.8003 56.5217 85.9464 55.6285 87.5287 54.0385C89.1111 52.4485 90 50.2921 90 48.0435V8.47826C90 6.22969 89.1111 4.07321 87.5287 2.48323C85.9464 0.893243 83.8003 0 81.5625 0ZM29.5312 59.3478H8.4375C7.69158 59.3478 6.97621 59.0501 6.44876 58.5201C5.92132 57.9901 5.625 57.2713 5.625 56.5217V16.9565C5.625 16.207 5.92132 15.4882 6.44876 14.9582C6.97621 14.4282 7.69158 14.1304 8.4375 14.1304H29.5312C25.3231 16.2039 21.7779 19.4216 19.2985 23.4181C16.819 27.4146 15.5047 32.0297 15.5047 36.7391C15.5047 41.4486 16.819 46.0637 19.2985 50.0602C21.7779 54.0567 25.3231 57.2744 29.5312 59.3478ZM51.1875 44.8217C51.1875 46.5357 50.5109 48.1797 49.3061 49.393C48.1012 50.6062 46.4667 51.2897 44.7609 51.2935H43.3547V53.6957H37.7297V51.2935H31.5V45.6413H44.7328C44.8393 45.6413 44.9447 45.62 45.0428 45.5787C45.141 45.5373 45.23 45.4767 45.3046 45.4004C45.3793 45.3241 45.438 45.2337 45.4774 45.1343C45.5169 45.035 45.5362 44.9287 45.5344 44.8217V40.3707C45.5344 40.2649 45.5136 40.1601 45.4734 40.0624C45.4331 39.9647 45.374 39.8759 45.2996 39.8011C45.2252 39.7263 45.1368 39.667 45.0396 39.6265C44.9423 39.5861 44.8381 39.5652 44.7328 39.5652H36.4078C34.7045 39.5615 33.0721 38.8799 31.8676 37.6697C30.6632 36.4595 29.985 34.8191 29.9812 33.1076V28.6565C29.9812 26.9426 30.6579 25.2986 31.8627 24.0853C33.0675 22.872 34.7021 22.1885 36.4078 22.1848H37.8141V19.7826H43.4391V22.1848H49.7109V27.837H36.4078C36.1939 27.8407 35.9901 27.9286 35.8401 28.0819C35.6902 28.2352 35.6062 28.4416 35.6063 28.6565V33.1076C35.6099 33.3201 35.6955 33.5229 35.845 33.6731C35.9946 33.8234 36.1964 33.9094 36.4078 33.913H44.7328C46.4361 33.9168 48.0686 34.5983 49.273 35.8086C50.4774 37.0188 51.1557 38.6591 51.1594 40.3707L51.1875 44.8217ZM75.9375 56.5217C75.9375 57.2713 75.6412 57.9901 75.1137 58.5201C74.5863 59.0501 73.8709 59.3478 73.125 59.3478H51.6375C55.8457 57.2744 59.3908 54.0567 61.8703 50.0602C64.3497 46.0637 65.6641 41.4486 65.6641 36.7391C65.6641 32.0297 64.3497 27.4146 61.8703 23.4181C59.3908 19.4216 55.8457 16.2039 51.6375 14.1304H73.125C73.8709 14.1304 74.5863 14.4282 75.1137 14.9582C75.6412 15.4882 75.9375 16.207 75.9375 16.9565V56.5217Z" fill="#159C2A"/>
</svg>
