<svg width="82" height="75" viewBox="0 0 82 75" fill="none" xmlns="http://www.w3.org/2000/svg">
<path fill-rule="evenodd" clip-rule="evenodd" d="M66.8673 53.1779L57.7727 47.9365V37.4536H52.1818V51.1706L64.0718 58.0105L66.8673 53.1779ZM55.9091 74.6269C70.3336 74.6269 82 62.9917 82 48.6056C82 38.2342 75.8873 29.3126 67.0909 25.1121V0.280273H0V44.8883H30.1164C29.93 46.115 29.8182 47.3417 29.8182 48.6056C29.8182 62.9917 41.4845 74.6269 55.9091 74.6269ZM34.5891 33.6248C33.7318 34.8515 33.0236 36.1154 32.3527 37.4536H14.9091C14.9091 35.4818 14.1237 33.5908 12.7257 32.1965C11.3277 30.8022 9.43161 30.0189 7.45455 30.0189V15.1496C11.5918 15.1496 14.9091 11.8412 14.9091 7.71494H52.1818C52.1818 9.68674 52.9672 11.5778 54.3652 12.972C55.7632 14.3663 57.6593 15.1496 59.6364 15.1496V22.8817C58.4064 22.6958 57.1764 22.5843 55.9091 22.5843C51.7718 22.5843 47.8582 23.588 44.3545 25.2979C44.5782 24.4429 44.7273 23.5136 44.7273 22.5843C44.7273 16.4135 39.7327 11.4323 33.5455 11.4323C27.3582 11.4323 22.3636 16.4135 22.3636 22.5843C22.3636 28.755 27.3582 33.7363 33.5455 33.7363C33.9182 33.7363 34.2536 33.7363 34.5891 33.6248ZM55.9091 30.0189C66.1964 30.0189 74.5455 38.3458 74.5455 48.6056C74.5455 58.8654 66.1964 67.1923 55.9091 67.1923C45.6218 67.1923 37.2727 58.8654 37.2727 48.6056C37.2727 38.3458 45.6218 30.0189 55.9091 30.0189ZM39.3166 26.7254C39.3155 27.1729 39.2263 27.6158 39.0541 28.0288C38.8818 28.4419 38.6299 28.8169 38.3127 29.1326C37.9956 29.4483 37.6193 29.6984 37.2054 29.8686C36.7916 30.0389 36.3483 30.126 35.9008 30.1249H35.4941V31.0439H32.241V30.1249H29.3945V26.8718H35.9008C35.9404 26.8718 35.9785 26.8567 36.0073 26.8294C36.036 26.8022 36.0532 26.765 36.0553 26.7254V24.5458C36.0532 24.5062 36.036 24.469 36.0073 24.4418C35.9785 24.4145 35.9404 24.3994 35.9008 24.3994H31.8344C30.9313 24.3973 30.0658 24.0376 29.4272 23.399C28.7886 22.7604 28.4289 21.8949 28.4267 20.9918V18.8203C28.4289 17.9172 28.7886 17.0517 29.4272 16.4131C30.0658 15.7745 30.9313 15.4148 31.8344 15.4126H32.2491V14.4936H35.5023V15.4126H38.3406V18.6658H31.8344C31.794 18.6677 31.7559 18.6847 31.7273 18.7132C31.6987 18.7418 31.6818 18.78 31.6798 18.8203V20.9918C31.6818 21.0321 31.6987 21.0703 31.7273 21.0988C31.7559 21.1274 31.794 21.1443 31.8344 21.1463H35.9008C36.8031 21.1463 37.6687 21.5042 38.3075 22.1415C38.9463 22.7788 39.3063 23.6434 39.3084 24.5458L39.3166 26.7254Z" fill="#159C2A"/>
</svg>
