<svg width="84" height="84" viewBox="0 0 84 84" fill="none" xmlns="http://www.w3.org/2000/svg">
<path d="M42 83C19.3557 83 1 64.6443 1 42C1 19.3557 19.3557 1 42 1C64.6443 1 83 19.3557 83 42C83 64.6443 64.6443 83 42 83ZM32.611 73.4347C28.566 64.8547 26.2227 55.5719 25.7107 46.1H9.4542C10.252 52.4095 12.8651 58.3515 16.9759 63.204C21.0868 68.0565 26.5185 71.6107 32.611 73.4347ZM33.923 46.1C34.5421 56.0999 37.3998 65.493 42 73.7832C46.7245 65.2739 49.4843 55.8149 50.077 46.1H33.923ZM74.5458 46.1H58.2893C57.7773 55.5719 55.434 64.8547 51.389 73.4347C57.4815 71.6107 62.9132 68.0565 67.0241 63.204C71.1349 58.3515 73.748 52.4095 74.5458 46.1ZM9.4542 37.9H25.7107C26.2227 28.4281 28.566 19.1453 32.611 10.5653C26.5185 12.3893 21.0868 15.9435 16.9759 20.796C12.8651 25.6485 10.252 31.5905 9.4542 37.9ZM33.9271 37.9H50.0729C49.4815 28.1855 46.7231 18.7265 42 10.2168C37.2755 18.7261 34.5157 28.1851 33.923 37.9H33.9271ZM51.389 10.5653C55.434 19.1453 57.7773 28.4281 58.2893 37.9H74.5458C73.748 31.5905 71.1349 25.6485 67.0241 20.796C62.9132 15.9435 57.4815 12.3893 51.389 10.5653Z" fill="#159C2A" stroke="white"/>
</svg>
