<svg width="75" height="72" viewBox="0 0 75 72" fill="none" xmlns="http://www.w3.org/2000/svg">
<g id="&#195;&#144;&#194;&#168;&#195;&#144;&#194;&#176;&#195;&#145;&#226;&#130;&#172;_1" clip-path="url(#clip0_1_813)">
<path id="Vector" d="M74.8663 27.3623C74.7386 27.0062 74.5155 26.6919 74.2215 26.4538C73.9275 26.2157 73.5738 26.0627 73.1989 26.0117L50.6722 21.293L39.2171 1.08399C39.062 0.755258 38.8166 0.477393 38.5096 0.28279C38.2025 0.0881872 37.8465 -0.0151367 37.483 -0.0151367C37.1195 -0.0151367 36.7635 0.0881872 36.4565 0.28279C36.1494 0.477393 35.9041 0.755258 35.7489 1.08399L24.2938 21.293L1.56706 26.0117C1.23167 26.0744 0.919581 26.2269 0.664094 26.453C0.408607 26.6791 0.219312 26.9704 0.116413 27.2956C0.0103414 27.6534 -0.00713759 28.0316 0.0654825 28.3976C0.138103 28.7636 0.298643 29.1064 0.533265 29.3966L16.1735 46.3541L13.6391 69.4144C13.5941 69.7711 13.6444 70.1335 13.785 70.4645C13.9256 70.7954 14.1514 71.0832 14.4394 71.2985C14.7288 71.5034 15.0637 71.6348 15.4153 71.6813C15.7668 71.7277 16.1243 71.6879 16.457 71.5653L37.483 61.9777L58.5424 71.582C58.7966 71.6822 59.0705 71.7222 59.3427 71.6987C59.7811 71.6851 60.2053 71.5399 60.5599 71.2819C60.8321 71.0686 61.0465 70.7905 61.1834 70.473C61.3203 70.1555 61.3754 69.8087 61.3436 69.4644L58.8092 46.3541L74.4661 29.3466C74.7221 29.0928 74.8968 28.7686 74.968 28.4153C75.0393 28.062 75.0039 27.6955 74.8663 27.3623ZM55.1742 44.3866C54.7973 44.8571 54.6126 45.4528 54.6573 46.054L56.925 66.3964L38.3501 57.8259C38.0996 57.7119 37.8236 57.6659 37.5497 57.6925C37.2884 57.6705 37.0256 57.7105 36.7827 57.8092L18.0577 66.363L20.3254 45.9706C20.3331 45.3972 20.1449 44.8384 19.7918 44.3866L6.01904 29.2132L25.8779 25.1947C26.4188 25.0319 26.8926 24.6985 27.2285 24.2443L37.3163 6.50307L47.4208 24.2776C47.5654 24.5197 47.7613 24.7272 47.9946 24.8856C48.2279 25.0441 48.493 25.1495 48.7714 25.1947L68.7803 29.3799L55.1742 44.3866Z" fill="#159C2A"/>
<path id="Vector_2" d="M50.3057 44.7866L51.9731 59.6932L38.3503 53.4571C38.1104 53.3474 37.8462 53.3015 37.5833 53.3237C37.3207 53.307 37.0579 53.3527 36.8163 53.4571L23.1603 59.6932L24.8277 44.7866C24.849 44.2371 24.6714 43.6983 24.3274 43.2692L14.323 32.181L28.8294 29.2463C29.3089 29.078 29.7231 28.763 30.0133 28.3459L37.3999 15.3568L44.8199 28.3459C44.9567 28.5794 45.1422 28.7807 45.3637 28.936C45.5853 29.0914 45.8377 29.1972 46.1038 29.2463L60.7603 32.2977L50.7559 43.2692C50.4228 43.7017 50.2624 44.2425 50.3057 44.7866Z" fill="#7ED321" fill-opacity="0.5"/>
</g>
<defs>
<clipPath id="clip0_1_813">
<rect width="75" height="71.6985" fill="white"/>
</clipPath>
</defs>
</svg>
