<svg width="82" height="75" viewBox="0 0 82 75" fill="none" xmlns="http://www.w3.org/2000/svg">
<g id="Group 71">
<path id="Union" fill-rule="evenodd" clip-rule="evenodd" d="M15.5 11.2593H2.5V23.2593H10.5H15.5H25.5H49.5H58.5H71.5V16.2593V11.2593H58.5V16.2593H49.5V11.2593H25.5V16.2593H15.5V11.2593Z" fill="#BFE990"/>
<ellipse id="Ellipse 4" cx="65.6938" cy="58.0324" rx="13.9773" ry="13.9773" fill="#BFE990"/>
<path id="Vector" d="M19.5682 0.259277C16.5031 0.259277 13.9773 2.78506 13.9773 5.85018V8.64564H1.86365C1.80545 8.64291 1.74714 8.64291 1.68894 8.64564C1.22556 8.68931 0.795297 8.90477 0.482754 9.24965C0.170211 9.59452 -0.00198957 10.0439 1.73466e-05 10.5093V64.5547C6.6715e-05 65.049 0.196429 65.5229 0.545918 65.8724C0.895407 66.2219 1.3694 66.4183 1.86365 66.4183H50.7259C53.633 71.4234 59.0399 74.8047 65.2273 74.8047C74.4685 74.8047 82 67.2732 82 58.032C82 52.2333 79.038 47.127 74.5455 44.113V10.5093C74.5454 10.015 74.349 9.54103 73.9995 9.19154C73.6501 8.84205 73.1761 8.64569 72.6818 8.64564H60.5682V5.85018C60.5682 2.78506 58.0424 0.259277 54.9773 0.259277H53.1136C50.0485 0.259277 47.5227 2.78506 47.5227 5.85018V8.64564H27.0227V5.85018C27.0227 2.78506 24.497 0.259277 21.4318 0.259277H19.5682ZM19.5682 3.98655H21.4318C22.4965 3.98655 23.2955 4.7855 23.2955 5.85018V13.3047C23.2955 14.3694 22.4965 15.1684 21.4318 15.1684H19.5682C18.5035 15.1684 17.7046 14.3694 17.7046 13.3047V5.85018C17.7046 4.7855 18.5035 3.98655 19.5682 3.98655ZM53.1136 3.98655H54.9773C56.042 3.98655 56.8409 4.7855 56.8409 5.85018V13.3047C56.8409 14.3694 56.042 15.1684 54.9773 15.1684H53.1136C52.049 15.1684 51.25 14.3694 51.25 13.3047V5.85018C51.25 4.7855 52.049 3.98655 53.1136 3.98655ZM3.72729 12.3729H13.9773V13.3047C13.9773 16.3698 16.5031 18.8956 19.5682 18.8956H21.4318C24.497 18.8956 27.0227 16.3698 27.0227 13.3047V12.3729H47.5227V13.3047C47.5227 16.3698 50.0485 18.8956 53.1136 18.8956H54.9773C58.0424 18.8956 60.5682 16.3698 60.5682 13.3047V12.3729H70.8182V22.6229H3.72729V12.3729ZM3.72729 26.3502H70.8182V42.2493C69.0651 41.6253 67.1905 41.2593 65.2273 41.2593C55.986 41.2593 48.4546 48.7908 48.4546 58.032C48.4546 59.6487 48.6945 61.2102 49.1243 62.6911H3.72729V26.3502ZM65.2273 44.9865C72.4542 44.9865 78.2727 50.8051 78.2727 58.032C78.2727 65.2589 72.4542 71.0774 65.2273 71.0774C58.0004 71.0774 52.1818 65.2589 52.1818 58.032C52.1818 50.8051 58.0004 44.9865 65.2273 44.9865Z" fill="#159C2A"/>
<path id="Vector_2" d="M66.846 48.3939V47.5578C66.846 47.1227 66.6766 46.7054 66.3752 46.3977C66.0737 46.09 65.6647 45.9172 65.2384 45.9172C64.812 45.9172 64.4031 46.09 64.1016 46.3977C63.8001 46.7054 63.6307 47.1227 63.6307 47.5578V48.4097C62.64 48.5691 61.7163 49.0195 60.9724 49.7059C60.2284 50.3923 59.6965 51.2849 59.4415 52.2747C59.1588 53.3184 59.2259 54.4285 59.632 55.4288C60.038 56.4291 60.7599 57.2623 61.6829 57.7962C62.4713 58.2537 62.966 58.4903 64.1254 59.1056L66.1813 60.0837C66.7248 60.4023 67.2153 60.807 67.6344 61.2826C67.8159 61.5934 67.8958 61.9551 67.8625 62.3153C67.8291 62.6755 67.6843 63.0156 67.4489 63.2861C67.0098 63.7578 66.4427 64.0849 65.8202 64.2254C65.1978 64.366 64.5484 64.3136 63.9553 64.0749C63.432 63.9167 62.9846 63.5664 62.6993 63.0917C62.4139 62.617 62.3106 62.0512 62.4095 61.5035C62.4525 61.0704 62.3252 60.6377 62.0556 60.3004C61.786 59.9632 61.3962 59.749 60.9718 59.7051C60.5475 59.6611 60.1235 59.791 59.793 60.0662C59.4625 60.3413 59.2526 60.7392 59.2096 61.1722C59.0599 62.4502 59.3474 63.7418 60.0234 64.8284C60.6995 65.9151 61.7225 66.73 62.9196 67.1354C63.1515 67.2143 63.4143 67.2616 63.6616 67.3247V68.145C63.6616 68.5802 63.831 68.9975 64.1325 69.3052C64.434 69.6129 64.8429 69.7857 65.2693 69.7857C65.6957 69.7857 66.1046 69.6129 66.4061 69.3052C66.7076 68.9975 66.8769 68.5802 66.8769 68.145V67.2932C68.2123 66.9975 69.3886 66.1972 70.1696 65.053C70.7502 64.2373 71.0757 63.2614 71.1033 62.2536C71.1309 61.2457 70.8593 60.2529 70.3242 59.4053C69.6056 58.4277 68.6742 57.6338 67.6035 57.0863L65.5166 56.0767C64.7623 55.7578 64.0245 55.3997 63.3061 55.0039C63.0152 54.8387 62.7844 54.5821 62.6479 54.2723C62.5115 53.9625 62.4766 53.616 62.5486 53.2844C62.7032 52.7165 63.0587 51.3755 66.0886 51.7068C66.3781 51.7052 66.6649 51.7645 66.9309 51.8813C67.1969 51.998 67.4364 52.1696 67.6344 52.3852C67.91 52.9061 67.9923 53.511 67.8663 54.0889C67.7925 54.5073 67.8846 54.9385 68.1223 55.2876C68.36 55.6367 68.7239 55.8751 69.1339 55.9505C69.5438 56.0258 69.9664 55.9318 70.3084 55.6892C70.6505 55.4466 70.8842 55.0753 70.958 54.6569C71.2061 53.1801 70.8788 51.6629 70.0459 50.429C69.2753 49.3561 68.1293 48.6273 66.846 48.3939Z" fill="#159C2A"/>
</g>
</svg>
