<svg width="180" height="43" viewBox="0 0 180 43" fill="none" xmlns="http://www.w3.org/2000/svg">
<path d="M47.3984 15.3571L65.5962 15.3571V18.6417H58.431L58.431 37.1575H54.5036L54.5036 18.6417H47.3684L47.3984 15.3571ZM64.8168 21.374H68.1745L68.1745 24.4261H68.2345C68.3544 23.9901 68.5643 23.5831 68.8641 23.1762C69.1639 22.7693 69.5236 22.3914 69.9733 22.0716C70.393 21.7228 70.8727 21.4612 71.4124 21.2578C71.922 21.0543 72.4617 20.938 73.0013 20.938C73.421 20.938 73.7208 20.9671 73.8707 20.9671C74.0206 20.9962 74.2005 21.0252 74.3504 21.0252V24.368C74.1106 24.3098 73.8408 24.2807 73.5709 24.2517C73.3011 24.2226 73.0613 24.1935 72.7915 24.1935C72.1918 24.1935 71.6222 24.3098 71.0826 24.5423C70.543 24.7749 70.0932 25.1237 69.6735 25.5597C69.2838 26.0248 68.954 26.5771 68.7142 27.2456C68.4743 27.9141 68.3544 28.699 68.3544 29.571V37.0703H64.7568L64.8168 21.374ZM87.3018 37.1575V34.9484H87.2418C86.7921 35.7623 86.1326 36.3727 85.2631 36.8668C84.3937 37.361 83.4943 37.5935 82.5949 37.5935C80.4663 37.5935 78.9074 37.0994 77.948 36.0529C76.9887 35.0356 76.509 33.466 76.509 31.4022V21.374L80.1066 21.374V31.0534C80.1066 32.4486 80.3764 33.4369 80.946 33.9892C81.4857 34.5705 82.2651 34.8612 83.2545 34.8612C84.004 34.8612 84.6336 34.7449 85.1432 34.5124C85.6529 34.2799 86.0726 33.9892 86.3724 33.6113C86.7022 33.2334 86.912 32.7684 87.0619 32.2451C87.2118 31.7219 87.2718 31.1406 87.2718 30.5302V21.374H90.8694V37.1575L87.3018 37.1575ZM96.9554 32.0998C97.0753 33.1172 97.465 33.8148 98.1545 34.2508C98.8441 34.6577 99.6835 34.8612 100.643 34.8612C100.973 34.8612 101.362 34.8321 101.782 34.774C102.202 34.7159 102.622 34.6287 102.981 34.4833C103.371 34.338 103.671 34.1345 103.911 33.8438C104.151 33.5532 104.27 33.2044 104.24 32.7684C104.211 32.3324 104.061 31.9545 103.731 31.6638C103.401 31.3731 103.011 31.1697 102.532 30.9662C102.052 30.7918 101.482 30.6465 100.853 30.5302C100.223 30.4139 99.5936 30.2686 98.934 30.1232C98.2745 29.9779 97.6149 29.8035 96.9853 29.6C96.3557 29.3966 95.8161 29.135 95.3064 28.7571C94.8268 28.4083 94.4071 27.9723 94.1372 27.42C93.8374 26.8677 93.6875 26.2282 93.6875 25.4144C93.6875 24.5423 93.8974 23.8447 94.3471 23.2634C94.7668 22.682 95.3364 22.217 95.996 21.8682C96.6555 21.5194 97.4051 21.2578 98.2145 21.1124C99.024 20.9671 99.8034 20.9089 100.523 20.9089C101.362 20.9089 102.172 20.9962 102.921 21.1706C103.671 21.345 104.39 21.6066 104.99 22.0135C105.62 22.3914 106.129 22.9146 106.519 23.525C106.939 24.1354 107.179 24.8912 107.298 25.7632H103.551C103.371 24.9202 102.981 24.368 102.382 24.0773C101.752 23.7866 101.063 23.6413 100.253 23.6413C100.013 23.6413 99.6835 23.6703 99.3537 23.6994C98.994 23.7575 98.6942 23.8157 98.3644 23.9319C98.0646 24.0482 97.7948 24.2226 97.5849 24.4261C97.3751 24.6295 97.2551 24.9202 97.2551 25.269C97.2551 25.705 97.405 26.0248 97.7048 26.2864C98.0046 26.548 98.3944 26.7515 98.904 26.9549C99.3837 27.1293 99.9533 27.2747 100.583 27.3909C101.213 27.5072 101.872 27.6525 102.532 27.7979C103.191 27.9432 103.821 28.1176 104.45 28.3211C105.08 28.5245 105.65 28.7862 106.129 29.164C106.609 29.5128 107.029 29.9488 107.328 30.4721C107.628 30.9953 107.778 31.6638 107.778 32.4195C107.778 33.3497 107.568 34.1345 107.119 34.8031C106.669 35.4425 106.099 35.9948 105.41 36.4018C104.72 36.8087 103.911 37.0994 103.071 37.3028C102.202 37.4772 101.362 37.5935 100.523 37.5935C99.5036 37.5935 98.5443 37.4772 97.6749 37.2447C96.8055 37.0122 96.026 36.6634 95.3964 36.2273C94.7668 35.7623 94.2571 35.21 93.8974 34.5124C93.5376 33.8438 93.3278 33.03 93.2978 32.0708H96.9254V32.0998H96.9554ZM108.797 21.374H111.526V16.607H115.123V21.345H118.361V23.9319H115.123V32.3614C115.123 32.7393 115.153 33.03 115.183 33.3206C115.213 33.5822 115.303 33.8148 115.393 33.9892C115.513 34.1636 115.693 34.3089 115.903 34.3961C116.143 34.4833 116.442 34.5415 116.862 34.5415C117.102 34.5415 117.372 34.5415 117.612 34.5124C117.851 34.4833 118.121 34.4543 118.361 34.3961V37.0994C117.971 37.1575 117.582 37.1866 117.192 37.2156C116.802 37.2738 116.442 37.2738 116.023 37.2738C115.063 37.2738 114.314 37.1866 113.744 37.0122C113.175 36.8378 112.725 36.5762 112.395 36.2564C112.065 35.9076 111.855 35.5007 111.735 35.0065C111.616 34.5124 111.556 33.902 111.526 33.2625V23.961H108.797V21.3159V21.374ZM120.879 21.374H124.267V23.525H124.327C124.837 22.5948 125.526 21.9554 126.426 21.5484C127.325 21.1415 128.284 20.938 129.364 20.938C130.653 20.938 131.762 21.1415 132.722 21.6066C133.681 22.0426 134.46 22.6239 135.09 23.4087C135.72 24.1645 136.199 25.0656 136.499 26.0829C136.799 27.1003 136.979 28.2048 136.979 29.3384C136.979 30.4139 136.829 31.4313 136.559 32.4195C136.259 33.4078 135.839 34.3089 135.27 35.0647C134.7 35.8204 133.981 36.4308 133.081 36.8959C132.182 37.361 131.163 37.5935 129.963 37.5935C129.454 37.5935 128.914 37.5354 128.404 37.4482C127.895 37.361 127.385 37.2156 126.905 37.0122C126.426 36.8087 125.976 36.5471 125.586 36.2273C125.167 35.9076 124.837 35.5297 124.567 35.1228H124.507V43H120.909L120.909 21.374H120.879ZM133.441 29.2803C133.441 28.5827 133.351 27.8851 133.141 27.2165C132.961 26.548 132.662 25.9666 132.272 25.4434C131.882 24.9202 131.402 24.5133 130.863 24.1935C130.293 23.8738 129.634 23.7285 128.914 23.7285C127.415 23.7285 126.276 24.2226 125.496 25.24C124.747 26.2573 124.357 27.6235 124.357 29.3094C124.357 30.1232 124.447 30.8499 124.657 31.5185C124.867 32.187 125.137 32.7684 125.556 33.2625C125.946 33.7566 126.426 34.1345 126.995 34.4252C127.565 34.7159 128.195 34.8612 128.944 34.8612C129.783 34.8612 130.443 34.6868 131.013 34.3671C131.582 34.0473 132.032 33.6113 132.422 33.1172C132.781 32.5939 133.051 32.0126 133.201 31.3441C133.351 30.6465 133.441 29.9779 133.441 29.2803ZM139.767 15.3571H143.364V18.6417H139.767V15.3571ZM139.767 21.374H143.364V37.1575H139.767V21.374ZM146.572 15.3571H150.17V37.1575H146.572V15.3571ZM161.143 37.5935C159.853 37.5935 158.684 37.39 157.665 36.954C156.646 36.518 155.806 35.9657 155.087 35.2391C154.397 34.5124 153.857 33.6113 153.498 32.594C153.138 31.5766 152.928 30.443 152.928 29.2512C152.928 28.0595 153.108 26.9549 153.498 25.9376C153.857 24.9202 154.397 24.0482 155.087 23.2925C155.776 22.5658 156.646 21.9844 157.665 21.5775C158.684 21.1706 159.853 20.938 161.143 20.938C162.432 20.938 163.601 21.1415 164.62 21.5775C165.64 21.9844 166.479 22.5658 167.199 23.2925C167.888 24.0191 168.428 24.9202 168.787 25.9376C169.147 26.9549 169.357 28.0595 169.357 29.2512C169.357 30.472 169.177 31.5766 168.787 32.594C168.398 33.6113 167.888 34.4833 167.199 35.2391C166.509 35.9657 165.64 36.5471 164.62 36.954C163.601 37.361 162.462 37.5935 161.143 37.5935ZM161.143 34.8321C161.922 34.8321 162.642 34.6577 163.211 34.338C163.811 34.0182 164.26 33.5822 164.65 33.059C165.04 32.5358 165.31 31.9254 165.49 31.2859C165.67 30.6174 165.759 29.9488 165.759 29.2512C165.759 28.5827 165.67 27.9141 165.49 27.2456C165.31 26.577 165.04 25.9957 164.65 25.4725C164.26 24.9493 163.781 24.5423 163.211 24.2226C162.612 23.9029 161.922 23.7285 161.143 23.7285C160.363 23.7285 159.644 23.9029 159.074 24.2226C158.474 24.5423 158.025 24.9784 157.635 25.4725C157.245 25.9957 156.975 26.577 156.795 27.2456C156.616 27.9141 156.526 28.5827 156.526 29.2512C156.526 29.9488 156.616 30.6174 156.795 31.2859C156.975 31.9545 157.245 32.5358 157.635 33.059C158.025 33.5822 158.504 34.0182 159.074 34.338C159.674 34.6868 160.363 34.8321 161.143 34.8321ZM170.436 21.374H173.165V16.607H176.762V21.3449H180V23.9319H176.762V32.3614C176.762 32.7393 176.792 33.03 176.822 33.3206C176.852 33.5822 176.942 33.8148 177.032 33.9892C177.152 34.1636 177.332 34.3089 177.542 34.3961C177.781 34.4833 178.081 34.5415 178.501 34.5415C178.741 34.5415 179.011 34.5415 179.251 34.5124C179.49 34.4833 179.76 34.4543 180 34.3961V37.0994C179.61 37.1575 179.221 37.1866 178.831 37.2156C178.441 37.2738 178.081 37.2738 177.662 37.2738C176.702 37.2738 175.953 37.1866 175.383 37.0122C174.813 36.8378 174.364 36.5762 174.034 36.2564C173.704 35.9076 173.494 35.5007 173.374 35.0065C173.255 34.5124 173.195 33.902 173.165 33.2625V23.961H170.436V21.3159V21.374Z" fill="#159C2A"/>
<path d="M26.5883 15.2582L43.0263 15.2582L29.8162 24.6108L29.8028 24.5713L21.8694 30.2892L30.8285 27.9761L34.7923 39.9286L21.4982 30.4872L8.20405 39.9286L13.2941 24.6704L0 15.229L16.438 15.2582L21.5281 0L26.5883 15.2582Z" fill="#159C2A"/>
</svg>
