<svg width="118" height="80" viewBox="0 0 118 80" fill="none" xmlns="http://www.w3.org/2000/svg">
<path d="M107.699 19.5892L103.796 41.9898L97.1473 35.3425L65.3492 67.1483L52.911 54.7122L29.0624 78.2706L23.5589 72.4948L52.6248 43.4338L65.6354 55.5837L91.7999 30.2822L85.4377 23.2055L107.699 19.5892Z" fill="#BFE990" stroke="#159C2A" stroke-width="3.4" stroke-linecap="round" stroke-linejoin="round"/>
<path d="M20.9958 49.4828C17.3954 46.8458 14.5311 43.3303 12.6762 39.2717C10.8213 35.2131 10.0378 30.7468 10.4004 26.2993C10.7631 21.8518 12.2598 17.5714 14.7477 13.8668C17.2356 10.1622 20.6317 7.15693 24.6118 5.13794C28.5918 3.11895 33.023 2.15361 37.4824 2.33404C41.9417 2.51448 46.2804 3.83468 50.0843 6.16862C53.8882 8.50257 57.0303 11.7724 59.2106 15.6659C61.391 19.5594 62.5369 23.9467 62.5389 28.409C62.5389 28.7212 62.5389 29.0334 62.5389 29.3456L69.4606 23.3486" stroke="#159C2A" stroke-width="3.4" stroke-linecap="round" stroke-linejoin="round"/>
<path d="M32.224 54.1918C29.6946 53.7829 27.2395 53.0026 24.9381 51.8763" stroke="#159C2A" stroke-width="3.4" stroke-linecap="round" stroke-linejoin="round"/>
<path d="M55.37 23.1535L62.5129 29.3456" stroke="#159C2A" stroke-width="3.4" stroke-linecap="round" stroke-linejoin="round"/>
<path d="M35.6198 43.4728C44.1419 43.4728 51.0505 36.5654 51.0505 28.0447C51.0505 19.524 44.1419 12.6166 35.6198 12.6166C27.0977 12.6166 20.1892 19.524 20.1892 28.0447C20.1892 36.5654 27.0977 43.4728 35.6198 43.4728Z" fill="#BFE990"/>
<path d="M37.1941 19.2119V18.4314C37.1924 18.0239 37.0341 17.6326 36.7518 17.3387C36.4694 17.0533 36.0864 16.8898 35.6849 16.8834C35.4856 16.8837 35.2884 16.9242 35.1051 17.0024C34.9218 17.0807 34.7561 17.195 34.618 17.3387C34.4759 17.4827 34.3636 17.6534 34.2877 17.8409C34.2118 18.0284 34.1737 18.2291 34.1756 18.4314V19.2119C33.24 19.3626 32.3705 19.7883 31.6776 20.4347C30.9714 21.0786 30.4693 21.9153 30.2334 22.8413C29.9869 23.7946 30.0507 24.8016 30.4156 25.7162C30.7918 26.6513 31.4695 27.4342 32.3411 27.9406C33.0827 28.3699 33.5511 28.5911 34.631 29.1765L36.5696 30.087C37.0586 30.3956 37.4973 30.7773 37.8707 31.2188C38.0371 31.5107 38.1098 31.8468 38.0788 32.1814C38.0511 32.5193 37.9141 32.8389 37.6885 33.092C37.2818 33.5335 36.7512 33.8418 36.1663 33.9766C35.5801 34.1121 34.9663 34.0621 34.4098 33.8335C33.9122 33.6871 33.4889 33.3569 33.2259 32.9099C32.9617 32.4636 32.8649 31.938 32.9526 31.4269C32.9947 31.0218 32.8782 30.6161 32.6274 30.2952C32.5044 30.1386 32.3512 30.0084 32.1769 29.9123C32.0025 29.8162 31.8106 29.7562 31.6125 29.7358C31.4129 29.715 31.2111 29.7341 31.019 29.7922C30.8269 29.8503 30.6483 29.9461 30.4936 30.074C30.187 30.3399 29.9919 30.7115 29.9472 31.1147C29.8061 32.3134 30.0767 33.5244 30.7148 34.549C31.3472 35.5588 32.3071 36.3211 33.434 36.7084C33.6552 36.7864 33.9024 36.8255 34.1366 36.8905V37.658C34.1347 37.8603 34.1728 38.061 34.2487 38.2485C34.3246 38.436 34.4369 38.6067 34.579 38.7507C34.7173 38.8939 34.8831 39.0078 35.0663 39.0856C35.2496 39.1634 35.4467 39.2035 35.6458 39.2035C35.845 39.2035 36.042 39.1634 36.2253 39.0856C36.4086 39.0078 36.5744 38.8939 36.7127 38.7507C36.8548 38.6067 36.9671 38.436 37.043 38.2485C37.1189 38.061 37.157 37.8603 37.1551 37.658V36.8645C38.4269 36.6019 39.5546 35.8735 40.3167 34.8221C40.8577 34.0599 41.161 33.1547 41.1884 32.2204C41.2126 31.2752 40.9593 30.3436 40.4598 29.5407C39.7764 28.621 38.8846 27.8765 37.8577 27.3683L35.9061 26.4186C35.1936 26.1199 34.4986 25.7811 33.8244 25.404C33.551 25.2527 33.3358 25.0147 33.2128 24.7275C33.0816 24.4337 33.0453 24.1064 33.1088 23.7909C33.2649 23.2576 33.5902 21.9957 36.4395 22.308C36.7126 22.3114 36.9824 22.3689 37.2331 22.4771C37.4824 22.589 37.7077 22.748 37.8967 22.9454C38.1461 23.4395 38.2196 24.0039 38.1049 24.5454C38.039 24.9404 38.1275 25.3456 38.3521 25.6772C38.5742 26.0021 38.9154 26.2265 39.3018 26.3016C39.6886 26.3646 40.0847 26.276 40.4077 26.0544C40.7265 25.8172 40.9448 25.469 41.0193 25.0788C41.2746 23.6909 40.9907 22.2579 40.2256 21.0721C39.4897 20.0879 38.4051 19.4223 37.1941 19.2119Z" fill="#159C2A"/>
</svg>
