<svg width="80" height="77" viewBox="0 0 80 77" fill="none" xmlns="http://www.w3.org/2000/svg">
<g clip-path="url(#clip0_41_8)">
<path d="M59.6808 66.5268V36.2122H44.1404V13.3759H6.22587V66.5268H1.76318V75.1239H63.9611V66.5268H59.6808ZM21.4987 62.964H12.3909V44.5904H21.4987V62.964ZM21.4987 38.0119H12.3909V19.6382H21.4987V38.0119ZM37.416 62.964H28.3204V44.5904H37.416V62.964ZM37.416 38.0119H28.3204V19.6382H37.416V38.0119ZM52.9685 62.964H43.8729V44.5904H52.9685V62.964Z" fill="#BFE990" stroke="#159C2A" stroke-width="3.5" stroke-miterlimit="10"/>
<path d="M63.9611 32.0778C72.8191 32.0778 80 24.897 80 16.0389C80 7.18086 72.8191 0 63.9611 0C55.103 0 47.9222 7.18086 47.9222 16.0389C47.9222 24.897 55.103 32.0778 63.9611 32.0778Z" fill="#BFE990"/>
<path d="M65.2865 4.70588V3.75741C65.2865 3.26299 65.0947 2.78784 64.7515 2.43198C64.4083 2.09205 63.9456 1.9 63.4625 1.89695C62.9758 1.89941 62.5091 2.09131 62.1614 2.43198C61.8215 2.78906 61.634 3.26444 61.6385 3.75741V4.71804C60.5071 4.90186 59.4544 5.41341 58.6107 6.18939C57.7656 6.9772 57.1624 7.98952 56.8719 9.10777C56.5729 10.3021 56.6711 11.5614 57.1515 12.6949C57.6085 13.8259 58.4302 14.7718 59.4862 15.3823C60.3739 15.9052 60.9333 16.1727 62.2587 16.8658L64.5934 17.9723C65.2065 18.3405 65.76 18.7997 66.235 19.3342C66.4456 19.6886 66.5389 20.1003 66.5018 20.5108C66.4647 20.9212 66.299 21.3095 66.0283 21.6203C65.53 22.1446 64.887 22.5089 64.1812 22.667C63.4754 22.825 62.7385 22.7697 62.0641 22.508C61.4636 22.332 60.9541 21.9313 60.6414 21.3893C60.3125 20.8509 60.1915 20.2109 60.301 19.5896C60.3512 19.2261 60.2898 18.856 60.1251 18.5282C59.9603 18.2003 59.6999 17.9302 59.3783 17.7536C59.0567 17.577 58.6891 17.5022 58.324 17.539C57.959 17.5759 57.6137 17.7228 57.3339 17.9602C56.968 18.267 56.7331 18.7019 56.6773 19.1762C56.5089 20.6269 56.8345 22.092 57.6015 23.3349C58.3333 24.5579 59.462 25.4934 60.7995 25.9857C61.067 26.0708 61.3589 26.1316 61.6385 26.2046V27.1287C61.6385 27.6232 61.8303 28.0983 62.1736 28.4542C62.5213 28.7948 62.9879 28.9867 63.4747 28.9892C63.9577 28.9862 64.4204 28.7941 64.7636 28.4542C65.1069 28.0983 65.2987 27.6232 65.2987 27.1287V26.1681C66.8177 25.8192 68.1502 24.912 69.0318 23.6267C69.6897 22.6929 70.0579 21.5858 70.0904 20.444C70.1228 19.3021 69.818 18.1759 69.2142 17.2063C68.4056 16.1124 67.3574 15.2181 66.1499 14.5919L63.7787 13.3759C62.919 13.0149 62.0788 12.609 61.2616 12.1599C60.9311 11.9721 60.6708 11.6819 60.5198 11.333C60.3656 10.9814 60.3231 10.5909 60.3982 10.2143C60.5806 9.60632 60.9819 8.08634 64.4475 8.51193C64.7771 8.51535 65.1031 8.58137 65.4081 8.70649C65.7122 8.839 65.9824 9.03853 66.1985 9.29017C66.517 9.8816 66.6119 10.5679 66.466 11.2236C66.3833 11.6982 66.4879 12.1864 66.7579 12.5855C67.026 12.974 67.4369 13.2406 67.9009 13.3273C68.1319 13.3746 68.3702 13.3731 68.6006 13.3228C68.8309 13.2726 69.0482 13.1747 69.2385 13.0354C69.4369 12.8924 69.6047 12.7111 69.7321 12.5023C69.8594 12.2935 69.9438 12.0613 69.9802 11.8194C70.2736 10.1255 69.9035 8.38368 68.9466 6.95546C68.0621 5.76194 66.7509 4.95604 65.2865 4.70588Z" fill="#159C2A"/>
</g>
<defs>
<clipPath id="clip0_41_8">
<rect width="80" height="76.8871" fill="white"/>
</clipPath>
</defs>
</svg>
