<svg width="82" height="75" viewBox="0 0 82 75" fill="none" xmlns="http://www.w3.org/2000/svg">
<path fill-rule="evenodd" clip-rule="evenodd" d="M15.5 11H2.5V23H10.5H15.5H25.5H49.5H58.5H71.5V16V11H58.5V16H49.5V11H25.5V16H15.5V11Z" fill="#BFE990"/>
<ellipse cx="65.6939" cy="57.7731" rx="13.9773" ry="13.9773" fill="#BFE990"/>
<path d="M19.5682 0C16.5031 0 13.9773 2.52579 13.9773 5.59091V8.38636H1.86365C1.80545 8.38363 1.74714 8.38363 1.68894 8.38636C1.22556 8.43003 0.795297 8.64549 0.482754 8.99037C0.170211 9.33524 -0.00198957 9.78457 1.73466e-05 10.25V64.2954C6.6715e-05 64.7897 0.196429 65.2637 0.545918 65.6132C0.895407 65.9627 1.3694 66.159 1.86365 66.1591H50.7259C53.633 71.1641 59.0399 74.5454 65.2273 74.5454C74.4685 74.5454 82 67.0139 82 57.7727C82 51.974 79.038 46.8677 74.5455 43.8537V10.25C74.5454 9.75574 74.349 9.28175 73.9995 8.93226C73.6501 8.58277 73.1761 8.38641 72.6818 8.38636H60.5682V5.59091C60.5682 2.52579 58.0424 0 54.9773 0H53.1136C50.0485 0 47.5227 2.52579 47.5227 5.59091V8.38636H27.0227V5.59091C27.0227 2.52579 24.497 0 21.4318 0H19.5682ZM19.5682 3.72727H21.4318C22.4965 3.72727 23.2955 4.52622 23.2955 5.59091V13.0454C23.2955 14.1101 22.4965 14.9091 21.4318 14.9091H19.5682C18.5035 14.9091 17.7046 14.1101 17.7046 13.0454V5.59091C17.7046 4.52622 18.5035 3.72727 19.5682 3.72727ZM53.1136 3.72727H54.9773C56.042 3.72727 56.8409 4.52622 56.8409 5.59091V13.0454C56.8409 14.1101 56.042 14.9091 54.9773 14.9091H53.1136C52.049 14.9091 51.25 14.1101 51.25 13.0454V5.59091C51.25 4.52622 52.049 3.72727 53.1136 3.72727ZM3.72729 12.1136H13.9773V13.0454C13.9773 16.1106 16.5031 18.6364 19.5682 18.6364H21.4318C24.497 18.6364 27.0227 16.1106 27.0227 13.0454V12.1136H47.5227V13.0454C47.5227 16.1106 50.0485 18.6364 53.1136 18.6364H54.9773C58.0424 18.6364 60.5682 16.1106 60.5682 13.0454V12.1136H70.8182V22.3636H3.72729V12.1136ZM3.72729 26.0909H70.8182V41.99C69.0651 41.366 67.1905 41 65.2273 41C55.986 41 48.4546 48.5315 48.4546 57.7727C48.4546 59.3894 48.6945 60.9509 49.1243 62.4318H3.72729V26.0909ZM65.2273 44.7273C72.4542 44.7273 78.2727 50.5458 78.2727 57.7727C78.2727 64.9996 72.4542 70.8182 65.2273 70.8182C58.0004 70.8182 52.1818 64.9996 52.1818 57.7727C52.1818 50.5458 58.0004 44.7273 65.2273 44.7273Z" fill="#159C2A"/>
<path d="M66.8459 48.1346V47.2985C66.8459 46.8634 66.6766 46.4461 66.3751 46.1384C66.0736 45.8307 65.6646 45.6579 65.2383 45.6579C64.8119 45.6579 64.403 45.8307 64.1015 46.1384C63.8 46.4461 63.6306 46.8634 63.6306 47.2985V48.1504C62.6399 48.3098 61.7162 48.7602 60.9723 49.4466C60.2283 50.133 59.6964 51.0256 59.4414 52.0155C59.1587 53.0591 59.2258 54.1692 59.6319 55.1695C60.038 56.1698 60.7598 57.003 61.6828 57.5369C62.4712 57.9944 62.9659 58.2311 64.1253 58.8463L66.1812 59.8244C66.7247 60.143 67.2152 60.5477 67.6343 61.0233C67.8159 61.3341 67.8957 61.6958 67.8624 62.056C67.829 62.4162 67.6842 62.7563 67.4488 63.0269C67.0097 63.4985 66.4426 63.8256 65.8201 63.9661C65.1977 64.1067 64.5483 64.0543 63.9552 63.8156C63.432 63.6574 62.9846 63.3071 62.6992 62.8324C62.4138 62.3577 62.3106 61.792 62.4094 61.2442C62.4524 60.8112 62.3251 60.3784 62.0555 60.0411C61.7859 59.7039 61.3961 59.4897 60.9718 59.4458C60.5474 59.4019 60.1234 59.5317 59.7929 59.8069C59.4624 60.082 59.2525 60.4799 59.2095 60.9129C59.0598 62.191 59.3473 63.4825 60.0233 64.5691C60.6994 65.6558 61.7225 66.4707 62.9195 66.8761C63.1514 66.955 63.4142 67.0023 63.6615 67.0654V67.8858C63.6615 68.3209 63.8309 68.7382 64.1324 69.0459C64.4339 69.3536 64.8428 69.5264 65.2692 69.5264C65.6956 69.5264 66.1045 69.3536 66.406 69.0459C66.7075 68.7382 66.8769 68.3209 66.8769 67.8858V67.0339C68.2122 66.7383 69.3885 65.938 70.1695 64.7937C70.7501 63.978 71.0756 63.0022 71.1032 61.9943C71.1308 60.9864 70.8592 59.9936 70.3241 59.146C69.6055 58.1684 68.6741 57.3745 67.6034 56.827L65.5165 55.8174C64.7622 55.4985 64.0244 55.1404 63.306 54.7446C63.0151 54.5794 62.7843 54.3229 62.6478 54.013C62.5114 53.7032 62.4765 53.3567 62.5485 53.0251C62.7031 52.4572 63.0586 51.1162 66.0885 51.4475C66.378 51.4459 66.6648 51.5053 66.9308 51.622C67.1968 51.7387 67.4363 51.9103 67.6343 52.1259C67.9099 52.6469 67.9922 53.2518 67.8662 53.8296C67.7924 54.248 67.8845 54.6792 68.1222 55.0283C68.3599 55.3774 68.7238 55.6159 69.1338 55.6912C69.5438 55.7665 69.9663 55.6725 70.3083 55.4299C70.6504 55.1873 70.8841 54.816 70.9579 54.3976C71.206 52.9208 70.8787 51.4036 70.0458 50.1697C69.2752 49.0968 68.1292 48.368 66.8459 48.1346Z" fill="#159C2A"/>
</svg>
